%TF.GenerationSoftware,KiCad,Pcbnew,7.0.5-1.fc38*%
%TF.CreationDate,2023-06-22T15:58:46+02:00*%
%TF.ProjectId,tr_switch,74725f73-7769-4746-9368-2e6b69636164,1*%
%TF.SameCoordinates,Original*%
%TF.FileFunction,Paste,Top*%
%TF.FilePolarity,Positive*%
%FSLAX46Y46*%
G04 Gerber Fmt 4.6, Leading zero omitted, Abs format (unit mm)*
G04 Created by KiCad (PCBNEW 7.0.5-1.fc38) date 2023-06-22 15:58:46*
%MOMM*%
%LPD*%
G01*
G04 APERTURE LIST*
G04 Aperture macros list*
%AMRoundRect*
0 Rectangle with rounded corners*
0 $1 Rounding radius*
0 $2 $3 $4 $5 $6 $7 $8 $9 X,Y pos of 4 corners*
0 Add a 4 corners polygon primitive as box body*
4,1,4,$2,$3,$4,$5,$6,$7,$8,$9,$2,$3,0*
0 Add four circle primitives for the rounded corners*
1,1,$1+$1,$2,$3*
1,1,$1+$1,$4,$5*
1,1,$1+$1,$6,$7*
1,1,$1+$1,$8,$9*
0 Add four rect primitives between the rounded corners*
20,1,$1+$1,$2,$3,$4,$5,0*
20,1,$1+$1,$4,$5,$6,$7,0*
20,1,$1+$1,$6,$7,$8,$9,0*
20,1,$1+$1,$8,$9,$2,$3,0*%
G04 Aperture macros list end*
%ADD10RoundRect,0.043750X0.043750X-0.456250X0.043750X0.456250X-0.043750X0.456250X-0.043750X-0.456250X0*%
%ADD11RoundRect,0.100000X-0.100000X-0.100000X0.100000X-0.100000X0.100000X0.100000X-0.100000X0.100000X0*%
%ADD12RoundRect,0.043750X-0.456250X-0.043750X0.456250X-0.043750X0.456250X0.043750X-0.456250X0.043750X0*%
%ADD13RoundRect,0.062500X-0.412500X-0.062500X0.412500X-0.062500X0.412500X0.062500X-0.412500X0.062500X0*%
%ADD14RoundRect,0.062500X-0.062500X-0.412500X0.062500X-0.412500X0.062500X0.412500X-0.062500X0.412500X0*%
%ADD15RoundRect,0.063750X-0.063750X-0.411250X0.063750X-0.411250X0.063750X0.411250X-0.063750X0.411250X0*%
%ADD16R,5.080000X2.290000*%
%ADD17R,5.080000X2.420000*%
%ADD18RoundRect,0.250000X0.250000X0.475000X-0.250000X0.475000X-0.250000X-0.475000X0.250000X-0.475000X0*%
%ADD19RoundRect,0.250000X-0.250000X-0.475000X0.250000X-0.475000X0.250000X0.475000X-0.250000X0.475000X0*%
%ADD20RoundRect,0.250000X0.250000X0.250000X-0.250000X0.250000X-0.250000X-0.250000X0.250000X-0.250000X0*%
%ADD21R,2.000000X1.500000*%
%ADD22R,2.000000X3.800000*%
%ADD23RoundRect,0.250000X0.475000X-0.250000X0.475000X0.250000X-0.475000X0.250000X-0.475000X-0.250000X0*%
%ADD24RoundRect,0.250000X-0.475000X0.250000X-0.475000X-0.250000X0.475000X-0.250000X0.475000X0.250000X0*%
%ADD25R,2.420000X5.080000*%
%ADD26R,2.290000X5.080000*%
G04 APERTURE END LIST*
D10*
%TO.C,U2*%
X14100000Y-21500000D03*
D11*
X14200000Y-20700000D03*
X14200000Y-22300000D03*
D12*
X15000000Y-20587500D03*
X15000000Y-22400000D03*
D11*
X15800000Y-20700000D03*
X15800000Y-22300000D03*
D10*
X15900000Y-21500000D03*
D13*
X13065000Y-20500000D03*
X13065000Y-21000000D03*
X13065000Y-21500000D03*
X13065000Y-22000000D03*
X13065000Y-22500000D03*
D14*
X14000000Y-23435000D03*
X14500000Y-23435000D03*
X15000000Y-23435000D03*
X15500000Y-23435000D03*
X16000000Y-23435000D03*
D13*
X16935000Y-22500000D03*
X16935000Y-22000000D03*
X16935000Y-21500000D03*
X16935000Y-21000000D03*
X16935000Y-20500000D03*
D14*
X16000000Y-19565000D03*
D15*
X15500000Y-19565000D03*
D14*
X15000000Y-19565000D03*
X14500000Y-19565000D03*
X14000000Y-19565000D03*
%TD*%
D16*
%TO.C,J1*%
X2870000Y-21500000D03*
D17*
X2870000Y-17120000D03*
X2870000Y-25880000D03*
%TD*%
D18*
%TO.C,C3*%
X9050000Y-14000000D03*
X10950000Y-14000000D03*
%TD*%
D19*
%TO.C,C4*%
X13050000Y-16250000D03*
X14950000Y-16250000D03*
%TD*%
D20*
%TO.C,D1*%
X5000000Y-7750000D03*
X2500000Y-7750000D03*
%TD*%
D18*
%TO.C,C5*%
X18450000Y-16250000D03*
X16550000Y-16250000D03*
%TD*%
D21*
%TO.C,U1*%
X10100000Y-6700000D03*
X10100000Y-9000000D03*
D22*
X16400000Y-9000000D03*
D21*
X10100000Y-11300000D03*
%TD*%
D23*
%TO.C,C2*%
X7250000Y-11950000D03*
X7250000Y-10050000D03*
%TD*%
D17*
%TO.C,J2*%
X27130000Y-17120000D03*
X27130000Y-25880000D03*
D16*
X27130000Y-21500000D03*
%TD*%
D24*
%TO.C,C1*%
X7250000Y-6050000D03*
X7250000Y-7950000D03*
%TD*%
D18*
%TO.C,C8*%
X10950000Y-16250000D03*
X9050000Y-16250000D03*
%TD*%
D25*
%TO.C,J3*%
X19380000Y-34130000D03*
X10620000Y-34130000D03*
D26*
X15000000Y-34130000D03*
%TD*%
M02*
