%TF.GenerationSoftware,KiCad,Pcbnew,7.0.5-1.fc38*%
%TF.CreationDate,2023-06-22T15:58:46+02:00*%
%TF.ProjectId,tr_switch,74725f73-7769-4746-9368-2e6b69636164,1*%
%TF.SameCoordinates,Original*%
%TF.FileFunction,Soldermask,Top*%
%TF.FilePolarity,Negative*%
%FSLAX46Y46*%
G04 Gerber Fmt 4.6, Leading zero omitted, Abs format (unit mm)*
G04 Created by KiCad (PCBNEW 7.0.5-1.fc38) date 2023-06-22 15:58:46*
%MOMM*%
%LPD*%
G01*
G04 APERTURE LIST*
G04 Aperture macros list*
%AMRoundRect*
0 Rectangle with rounded corners*
0 $1 Rounding radius*
0 $2 $3 $4 $5 $6 $7 $8 $9 X,Y pos of 4 corners*
0 Add a 4 corners polygon primitive as box body*
4,1,4,$2,$3,$4,$5,$6,$7,$8,$9,$2,$3,0*
0 Add four circle primitives for the rounded corners*
1,1,$1+$1,$2,$3*
1,1,$1+$1,$4,$5*
1,1,$1+$1,$6,$7*
1,1,$1+$1,$8,$9*
0 Add four rect primitives between the rounded corners*
20,1,$1+$1,$2,$3,$4,$5,0*
20,1,$1+$1,$4,$5,$6,$7,0*
20,1,$1+$1,$6,$7,$8,$9,0*
20,1,$1+$1,$8,$9,$2,$3,0*%
G04 Aperture macros list end*
%ADD10RoundRect,0.062500X-0.412500X-0.062500X0.412500X-0.062500X0.412500X0.062500X-0.412500X0.062500X0*%
%ADD11RoundRect,0.062500X-0.062500X-0.412500X0.062500X-0.412500X0.062500X0.412500X-0.062500X0.412500X0*%
%ADD12RoundRect,0.063750X-0.063750X-0.411250X0.063750X-0.411250X0.063750X0.411250X-0.063750X0.411250X0*%
%ADD13R,2.030000X2.030000*%
%ADD14R,1.700000X1.700000*%
%ADD15O,1.700000X1.700000*%
%ADD16R,5.080000X2.290000*%
%ADD17R,5.080000X2.420000*%
%ADD18C,0.700000*%
%ADD19C,4.400000*%
%ADD20RoundRect,0.250000X0.250000X0.475000X-0.250000X0.475000X-0.250000X-0.475000X0.250000X-0.475000X0*%
%ADD21RoundRect,0.250000X-0.250000X-0.475000X0.250000X-0.475000X0.250000X0.475000X-0.250000X0.475000X0*%
%ADD22RoundRect,0.250000X0.250000X0.250000X-0.250000X0.250000X-0.250000X-0.250000X0.250000X-0.250000X0*%
%ADD23R,2.000000X1.500000*%
%ADD24R,2.000000X3.800000*%
%ADD25RoundRect,0.250000X0.475000X-0.250000X0.475000X0.250000X-0.475000X0.250000X-0.475000X-0.250000X0*%
%ADD26RoundRect,0.250000X-0.475000X0.250000X-0.475000X-0.250000X0.475000X-0.250000X0.475000X0.250000X0*%
%ADD27R,2.420000X5.080000*%
%ADD28R,2.290000X5.080000*%
G04 APERTURE END LIST*
D10*
%TO.C,U2*%
X13065000Y-20500000D03*
X13065000Y-21000000D03*
X13065000Y-21500000D03*
X13065000Y-22000000D03*
X13065000Y-22500000D03*
D11*
X14000000Y-23435000D03*
X14500000Y-23435000D03*
X15000000Y-23435000D03*
X15500000Y-23435000D03*
X16000000Y-23435000D03*
D10*
X16935000Y-22500000D03*
X16935000Y-22000000D03*
X16935000Y-21500000D03*
X16935000Y-21000000D03*
X16935000Y-20500000D03*
D11*
X16000000Y-19565000D03*
D12*
X15500000Y-19565000D03*
D11*
X15000000Y-19565000D03*
X14500000Y-19565000D03*
X14000000Y-19565000D03*
D13*
X15000000Y-21500000D03*
%TD*%
D14*
%TO.C,J5*%
X15066666Y-2250000D03*
D15*
X17606666Y-2250000D03*
X20146666Y-2250000D03*
X22686666Y-2250000D03*
%TD*%
D16*
%TO.C,J1*%
X2870000Y-21500000D03*
D17*
X2870000Y-17120000D03*
X2870000Y-25880000D03*
%TD*%
D18*
%TO.C,H2*%
X29140000Y-2510000D03*
X28656726Y-3676726D03*
X28656726Y-1343274D03*
X27490000Y-4160000D03*
D19*
X27490000Y-2510000D03*
D18*
X27490000Y-860000D03*
X26323274Y-3676726D03*
X26323274Y-1343274D03*
X25840000Y-2510000D03*
%TD*%
D20*
%TO.C,C3*%
X9050000Y-14000000D03*
X10950000Y-14000000D03*
%TD*%
D21*
%TO.C,C4*%
X13050000Y-16250000D03*
X14950000Y-16250000D03*
%TD*%
D22*
%TO.C,D1*%
X5000000Y-7750000D03*
X2500000Y-7750000D03*
%TD*%
D15*
%TO.C,J4*%
X10373333Y-2250000D03*
D14*
X7833333Y-2250000D03*
%TD*%
D18*
%TO.C,H4*%
X25840000Y-34490000D03*
X26323274Y-33323274D03*
X26323274Y-35656726D03*
X27490000Y-32840000D03*
D19*
X27490000Y-34490000D03*
D18*
X27490000Y-36140000D03*
X28656726Y-33323274D03*
X28656726Y-35656726D03*
X29140000Y-34490000D03*
%TD*%
D20*
%TO.C,C5*%
X18450000Y-16250000D03*
X16550000Y-16250000D03*
%TD*%
D23*
%TO.C,U1*%
X10100000Y-6700000D03*
X10100000Y-9000000D03*
D24*
X16400000Y-9000000D03*
D23*
X10100000Y-11300000D03*
%TD*%
D18*
%TO.C,H3*%
X860000Y-34480000D03*
X1343274Y-33313274D03*
X1343274Y-35646726D03*
X2510000Y-32830000D03*
D19*
X2510000Y-34480000D03*
D18*
X2510000Y-36130000D03*
X3676726Y-33313274D03*
X3676726Y-35646726D03*
X4160000Y-34480000D03*
%TD*%
D25*
%TO.C,C2*%
X7250000Y-11950000D03*
X7250000Y-10050000D03*
%TD*%
D17*
%TO.C,J2*%
X27130000Y-17120000D03*
X27130000Y-25880000D03*
D16*
X27130000Y-21500000D03*
%TD*%
D26*
%TO.C,C1*%
X7250000Y-6050000D03*
X7250000Y-7950000D03*
%TD*%
D18*
%TO.C,H1*%
X870000Y-2510000D03*
X1353274Y-1343274D03*
X1353274Y-3676726D03*
X2520000Y-860000D03*
D19*
X2520000Y-2510000D03*
D18*
X2520000Y-4160000D03*
X3686726Y-1343274D03*
X3686726Y-3676726D03*
X4170000Y-2510000D03*
%TD*%
D20*
%TO.C,C8*%
X10950000Y-16250000D03*
X9050000Y-16250000D03*
%TD*%
D27*
%TO.C,J3*%
X19380000Y-34130000D03*
X10620000Y-34130000D03*
D28*
X15000000Y-34130000D03*
%TD*%
M02*
