M48
; DRILL file {KiCad 7.0.5-1.fc38} date Thu 22 Jun 2023 15:58:46
; FORMAT={-:-/ absolute / inch / decimal}
; #@! TF.CreationDate,2023-06-22T15:58:46+02:00
; #@! TF.GenerationSoftware,Kicad,Pcbnew,7.0.5-1.fc38
; #@! TF.FileFunction,Plated,1,2,PTH
FMAT,2
INCH
; #@! TA.AperFunction,Plated,PTH,ComponentDrill
T1C0.0157
; #@! TA.AperFunction,Plated,PTH,ViaDrill
T2C0.0177
; #@! TA.AperFunction,Plated,PTH,ComponentDrill
T3C0.0181
; #@! TA.AperFunction,Plated,PTH,ComponentDrill
T4C0.0394
; #@! TA.AperFunction,Plated,PTH,ComponentDrill
T5C0.0630
; #@! TA.AperFunction,Plated,PTH,ComponentDrill
T6C0.0866
%
G90
G05
T1
X0.0339Y-1.3575
X0.0343Y-0.0988
X0.0529Y-1.3115
X0.0529Y-1.4034
X0.0533Y-0.0529
X0.0533Y-0.1448
X0.0988Y-1.2925
X0.0988Y-1.4224
X0.0992Y-0.0339
X0.0992Y-0.1638
X0.1448Y-1.3115
X0.1448Y-1.4034
X0.1451Y-0.0529
X0.1451Y-0.1448
X0.1638Y-1.3575
X0.1642Y-0.0988
X1.0173Y-0.0988
X1.0173Y-1.3579
X1.0363Y-0.0529
X1.0363Y-0.1448
X1.0363Y-1.3119
X1.0363Y-1.4038
X1.0823Y-0.0339
X1.0823Y-0.1638
X1.0823Y-1.2929
X1.0823Y-1.4228
X1.1282Y-0.0529
X1.1282Y-0.1448
X1.1282Y-1.3119
X1.1282Y-1.4038
X1.1472Y-0.0988
X1.1472Y-1.3579
T2
X0.0394Y-0.1969
X0.0394Y-0.2756
X0.0394Y-0.3937
X0.0394Y-0.4921
X0.0394Y-0.5906
X0.0394Y-1.0827
X0.0394Y-1.1811
X0.1969Y-0.0394
X0.1969Y-0.3937
X0.1969Y-0.5906
X0.1969Y-1.1811
X0.1969Y-1.4173
X0.2598Y-0.7717
X0.2598Y-0.9213
X0.2928Y-0.7874
X0.2928Y-0.9055
X0.2953Y-1.4173
X0.3396Y-0.7874
X0.3396Y-0.9055
X0.3863Y-0.7874
X0.3863Y-0.9055
X0.3937Y-0.1969
X0.3937Y-0.9843
X0.4331Y-0.7874
X0.4331Y-0.9055
X0.4764Y-0.7972
X0.4764Y-0.8976
X0.5197Y-1.1909
X0.5315Y-1.0039
X0.5315Y-1.0507
X0.5315Y-1.0974
X0.5315Y-1.1442
X0.5394Y-0.9626
X0.5906Y-0.1969
X0.5906Y-0.3937
X0.6417Y-0.9626
X0.6496Y-1.0039
X0.6496Y-1.0507
X0.6496Y-1.0974
X0.6496Y-1.1442
X0.6614Y-1.1909
X0.7047Y-0.7953
X0.7047Y-0.8976
X0.748Y-0.7874
X0.748Y-0.9055
X0.7874Y-0.1969
X0.7874Y-0.3937
X0.7874Y-0.5906
X0.7874Y-0.9843
X0.7948Y-0.7874
X0.7948Y-0.9055
X0.8415Y-0.7874
X0.8415Y-0.9055
X0.8858Y-1.4173
X0.8883Y-0.7874
X0.8883Y-0.9055
X0.9213Y-0.7717
X0.9213Y-0.9213
X0.9843Y-0.0394
X0.9843Y-0.1969
X0.9843Y-0.3937
X0.9843Y-0.5906
X0.9843Y-1.1811
X0.9843Y-1.4173
X1.1417Y-0.1969
X1.1417Y-0.2953
X1.1417Y-0.3937
X1.1417Y-0.4921
X1.1417Y-0.5906
X1.1417Y-1.0827
X1.1417Y-1.1811
T3
X0.2484Y-0.674
X0.2484Y-1.0189
X0.4181Y-1.2083
X0.763Y-1.2083
X0.9327Y-0.674
X0.9327Y-1.0189
T4
X0.3084Y-0.0886
X0.4084Y-0.0886
X0.5932Y-0.0886
X0.6932Y-0.0886
X0.7932Y-0.0886
X0.8932Y-0.0886
T5
X0.5906Y-0.8465
T6
X0.0988Y-1.3575
X0.0992Y-0.0988
X1.0823Y-0.0988
X1.0823Y-1.3579
T0
M30
