%TF.GenerationSoftware,KiCad,Pcbnew,7.0.5-1.fc38*%
%TF.CreationDate,2023-06-22T15:58:46+02:00*%
%TF.ProjectId,tr_switch,74725f73-7769-4746-9368-2e6b69636164,1*%
%TF.SameCoordinates,Original*%
%TF.FileFunction,Soldermask,Bot*%
%TF.FilePolarity,Negative*%
%FSLAX46Y46*%
G04 Gerber Fmt 4.6, Leading zero omitted, Abs format (unit mm)*
G04 Created by KiCad (PCBNEW 7.0.5-1.fc38) date 2023-06-22 15:58:46*
%MOMM*%
%LPD*%
G01*
G04 APERTURE LIST*
%ADD10R,2.030000X2.030000*%
%ADD11R,1.700000X1.700000*%
%ADD12O,1.700000X1.700000*%
%ADD13R,5.080000X2.420000*%
%ADD14C,0.700000*%
%ADD15C,4.400000*%
%ADD16R,2.420000X5.080000*%
G04 APERTURE END LIST*
D10*
%TO.C,U2*%
X15000000Y-21500000D03*
%TD*%
D11*
%TO.C,J5*%
X15066666Y-2250000D03*
D12*
X17606666Y-2250000D03*
X20146666Y-2250000D03*
X22686666Y-2250000D03*
%TD*%
D13*
%TO.C,J1*%
X2870000Y-17120000D03*
X2870000Y-25880000D03*
%TD*%
D14*
%TO.C,H2*%
X29140000Y-2510000D03*
X28656726Y-3676726D03*
X28656726Y-1343274D03*
X27490000Y-4160000D03*
D15*
X27490000Y-2510000D03*
D14*
X27490000Y-860000D03*
X26323274Y-3676726D03*
X26323274Y-1343274D03*
X25840000Y-2510000D03*
%TD*%
D12*
%TO.C,J4*%
X10373333Y-2250000D03*
D11*
X7833333Y-2250000D03*
%TD*%
D14*
%TO.C,H4*%
X25840000Y-34490000D03*
X26323274Y-33323274D03*
X26323274Y-35656726D03*
X27490000Y-32840000D03*
D15*
X27490000Y-34490000D03*
D14*
X27490000Y-36140000D03*
X28656726Y-33323274D03*
X28656726Y-35656726D03*
X29140000Y-34490000D03*
%TD*%
%TO.C,H3*%
X860000Y-34480000D03*
X1343274Y-33313274D03*
X1343274Y-35646726D03*
X2510000Y-32830000D03*
D15*
X2510000Y-34480000D03*
D14*
X2510000Y-36130000D03*
X3676726Y-33313274D03*
X3676726Y-35646726D03*
X4160000Y-34480000D03*
%TD*%
D13*
%TO.C,J2*%
X27130000Y-17120000D03*
X27130000Y-25880000D03*
%TD*%
D14*
%TO.C,H1*%
X870000Y-2510000D03*
X1353274Y-1343274D03*
X1353274Y-3676726D03*
X2520000Y-860000D03*
D15*
X2520000Y-2510000D03*
D14*
X2520000Y-4160000D03*
X3686726Y-1343274D03*
X3686726Y-3676726D03*
X4170000Y-2510000D03*
%TD*%
D16*
%TO.C,J3*%
X19380000Y-34130000D03*
X10620000Y-34130000D03*
%TD*%
M02*
