%TF.GenerationSoftware,KiCad,Pcbnew,7.0.5-1.fc38*%
%TF.CreationDate,2023-06-22T15:58:46+02:00*%
%TF.ProjectId,tr_switch,74725f73-7769-4746-9368-2e6b69636164,1*%
%TF.SameCoordinates,Original*%
%TF.FileFunction,Legend,Top*%
%TF.FilePolarity,Positive*%
%FSLAX46Y46*%
G04 Gerber Fmt 4.6, Leading zero omitted, Abs format (unit mm)*
G04 Created by KiCad (PCBNEW 7.0.5-1.fc38) date 2023-06-22 15:58:46*
%MOMM*%
%LPD*%
G01*
G04 APERTURE LIST*
G04 Aperture macros list*
%AMRoundRect*
0 Rectangle with rounded corners*
0 $1 Rounding radius*
0 $2 $3 $4 $5 $6 $7 $8 $9 X,Y pos of 4 corners*
0 Add a 4 corners polygon primitive as box body*
4,1,4,$2,$3,$4,$5,$6,$7,$8,$9,$2,$3,0*
0 Add four circle primitives for the rounded corners*
1,1,$1+$1,$2,$3*
1,1,$1+$1,$4,$5*
1,1,$1+$1,$6,$7*
1,1,$1+$1,$8,$9*
0 Add four rect primitives between the rounded corners*
20,1,$1+$1,$2,$3,$4,$5,0*
20,1,$1+$1,$4,$5,$6,$7,0*
20,1,$1+$1,$6,$7,$8,$9,0*
20,1,$1+$1,$8,$9,$2,$3,0*%
G04 Aperture macros list end*
%ADD10C,0.100000*%
%ADD11C,0.150000*%
%ADD12C,0.120000*%
%ADD13RoundRect,0.062500X-0.412500X-0.062500X0.412500X-0.062500X0.412500X0.062500X-0.412500X0.062500X0*%
%ADD14RoundRect,0.062500X-0.062500X-0.412500X0.062500X-0.412500X0.062500X0.412500X-0.062500X0.412500X0*%
%ADD15RoundRect,0.063750X-0.063750X-0.411250X0.063750X-0.411250X0.063750X0.411250X-0.063750X0.411250X0*%
%ADD16R,2.030000X2.030000*%
%ADD17R,1.700000X1.700000*%
%ADD18O,1.700000X1.700000*%
%ADD19R,5.080000X2.290000*%
%ADD20R,5.080000X2.420000*%
%ADD21C,0.700000*%
%ADD22C,4.400000*%
%ADD23RoundRect,0.250000X0.250000X0.475000X-0.250000X0.475000X-0.250000X-0.475000X0.250000X-0.475000X0*%
%ADD24RoundRect,0.250000X-0.250000X-0.475000X0.250000X-0.475000X0.250000X0.475000X-0.250000X0.475000X0*%
%ADD25RoundRect,0.250000X0.250000X0.250000X-0.250000X0.250000X-0.250000X-0.250000X0.250000X-0.250000X0*%
%ADD26R,2.000000X1.500000*%
%ADD27R,2.000000X3.800000*%
%ADD28RoundRect,0.250000X0.475000X-0.250000X0.475000X0.250000X-0.475000X0.250000X-0.475000X-0.250000X0*%
%ADD29RoundRect,0.250000X-0.475000X0.250000X-0.475000X-0.250000X0.475000X-0.250000X0.475000X0.250000X0*%
%ADD30R,2.420000X5.080000*%
%ADD31R,2.290000X5.080000*%
G04 APERTURE END LIST*
D10*
X18213408Y-26396895D02*
X17946741Y-26015942D01*
X17756265Y-26396895D02*
X17756265Y-25596895D01*
X17756265Y-25596895D02*
X18061027Y-25596895D01*
X18061027Y-25596895D02*
X18137217Y-25634990D01*
X18137217Y-25634990D02*
X18175312Y-25673085D01*
X18175312Y-25673085D02*
X18213408Y-25749276D01*
X18213408Y-25749276D02*
X18213408Y-25863561D01*
X18213408Y-25863561D02*
X18175312Y-25939752D01*
X18175312Y-25939752D02*
X18137217Y-25977847D01*
X18137217Y-25977847D02*
X18061027Y-26015942D01*
X18061027Y-26015942D02*
X17756265Y-26015942D01*
X18861027Y-26358800D02*
X18784836Y-26396895D01*
X18784836Y-26396895D02*
X18632455Y-26396895D01*
X18632455Y-26396895D02*
X18556265Y-26358800D01*
X18556265Y-26358800D02*
X18518169Y-26282609D01*
X18518169Y-26282609D02*
X18518169Y-25977847D01*
X18518169Y-25977847D02*
X18556265Y-25901657D01*
X18556265Y-25901657D02*
X18632455Y-25863561D01*
X18632455Y-25863561D02*
X18784836Y-25863561D01*
X18784836Y-25863561D02*
X18861027Y-25901657D01*
X18861027Y-25901657D02*
X18899122Y-25977847D01*
X18899122Y-25977847D02*
X18899122Y-26054038D01*
X18899122Y-26054038D02*
X18518169Y-26130228D01*
X19165788Y-25863561D02*
X19356264Y-26396895D01*
X19356264Y-26396895D02*
X19546741Y-25863561D01*
X20880074Y-26396895D02*
X20422931Y-26396895D01*
X20651503Y-26396895D02*
X20651503Y-25596895D01*
X20651503Y-25596895D02*
X20575312Y-25711180D01*
X20575312Y-25711180D02*
X20499122Y-25787371D01*
X20499122Y-25787371D02*
X20422931Y-25825466D01*
X17756265Y-27896895D02*
X17756265Y-27096895D01*
X17756265Y-27096895D02*
X18022931Y-27668323D01*
X18022931Y-27668323D02*
X18289598Y-27096895D01*
X18289598Y-27096895D02*
X18289598Y-27896895D01*
X19013408Y-27896895D02*
X19013408Y-27477847D01*
X19013408Y-27477847D02*
X18975313Y-27401657D01*
X18975313Y-27401657D02*
X18899122Y-27363561D01*
X18899122Y-27363561D02*
X18746741Y-27363561D01*
X18746741Y-27363561D02*
X18670551Y-27401657D01*
X19013408Y-27858800D02*
X18937217Y-27896895D01*
X18937217Y-27896895D02*
X18746741Y-27896895D01*
X18746741Y-27896895D02*
X18670551Y-27858800D01*
X18670551Y-27858800D02*
X18632455Y-27782609D01*
X18632455Y-27782609D02*
X18632455Y-27706419D01*
X18632455Y-27706419D02*
X18670551Y-27630228D01*
X18670551Y-27630228D02*
X18746741Y-27592133D01*
X18746741Y-27592133D02*
X18937217Y-27592133D01*
X18937217Y-27592133D02*
X19013408Y-27554038D01*
X19318170Y-27896895D02*
X19737218Y-27363561D01*
X19318170Y-27363561D02*
X19737218Y-27896895D01*
X20613408Y-27858800D02*
X20727694Y-27896895D01*
X20727694Y-27896895D02*
X20918170Y-27896895D01*
X20918170Y-27896895D02*
X20994361Y-27858800D01*
X20994361Y-27858800D02*
X21032456Y-27820704D01*
X21032456Y-27820704D02*
X21070551Y-27744514D01*
X21070551Y-27744514D02*
X21070551Y-27668323D01*
X21070551Y-27668323D02*
X21032456Y-27592133D01*
X21032456Y-27592133D02*
X20994361Y-27554038D01*
X20994361Y-27554038D02*
X20918170Y-27515942D01*
X20918170Y-27515942D02*
X20765789Y-27477847D01*
X20765789Y-27477847D02*
X20689599Y-27439752D01*
X20689599Y-27439752D02*
X20651504Y-27401657D01*
X20651504Y-27401657D02*
X20613408Y-27325466D01*
X20613408Y-27325466D02*
X20613408Y-27249276D01*
X20613408Y-27249276D02*
X20651504Y-27173085D01*
X20651504Y-27173085D02*
X20689599Y-27134990D01*
X20689599Y-27134990D02*
X20765789Y-27096895D01*
X20765789Y-27096895D02*
X20956266Y-27096895D01*
X20956266Y-27096895D02*
X21070551Y-27134990D01*
X21299123Y-27363561D02*
X21603885Y-27363561D01*
X21413409Y-27096895D02*
X21413409Y-27782609D01*
X21413409Y-27782609D02*
X21451504Y-27858800D01*
X21451504Y-27858800D02*
X21527694Y-27896895D01*
X21527694Y-27896895D02*
X21603885Y-27896895D01*
X22213409Y-27896895D02*
X22213409Y-27477847D01*
X22213409Y-27477847D02*
X22175314Y-27401657D01*
X22175314Y-27401657D02*
X22099123Y-27363561D01*
X22099123Y-27363561D02*
X21946742Y-27363561D01*
X21946742Y-27363561D02*
X21870552Y-27401657D01*
X22213409Y-27858800D02*
X22137218Y-27896895D01*
X22137218Y-27896895D02*
X21946742Y-27896895D01*
X21946742Y-27896895D02*
X21870552Y-27858800D01*
X21870552Y-27858800D02*
X21832456Y-27782609D01*
X21832456Y-27782609D02*
X21832456Y-27706419D01*
X21832456Y-27706419D02*
X21870552Y-27630228D01*
X21870552Y-27630228D02*
X21946742Y-27592133D01*
X21946742Y-27592133D02*
X22137218Y-27592133D01*
X22137218Y-27592133D02*
X22213409Y-27554038D01*
X22594362Y-27896895D02*
X22594362Y-27096895D01*
X22594362Y-27401657D02*
X22670552Y-27363561D01*
X22670552Y-27363561D02*
X22822933Y-27363561D01*
X22822933Y-27363561D02*
X22899124Y-27401657D01*
X22899124Y-27401657D02*
X22937219Y-27439752D01*
X22937219Y-27439752D02*
X22975314Y-27515942D01*
X22975314Y-27515942D02*
X22975314Y-27744514D01*
X22975314Y-27744514D02*
X22937219Y-27820704D01*
X22937219Y-27820704D02*
X22899124Y-27858800D01*
X22899124Y-27858800D02*
X22822933Y-27896895D01*
X22822933Y-27896895D02*
X22670552Y-27896895D01*
X22670552Y-27896895D02*
X22594362Y-27858800D01*
X23622934Y-27858800D02*
X23546743Y-27896895D01*
X23546743Y-27896895D02*
X23394362Y-27896895D01*
X23394362Y-27896895D02*
X23318172Y-27858800D01*
X23318172Y-27858800D02*
X23280076Y-27782609D01*
X23280076Y-27782609D02*
X23280076Y-27477847D01*
X23280076Y-27477847D02*
X23318172Y-27401657D01*
X23318172Y-27401657D02*
X23394362Y-27363561D01*
X23394362Y-27363561D02*
X23546743Y-27363561D01*
X23546743Y-27363561D02*
X23622934Y-27401657D01*
X23622934Y-27401657D02*
X23661029Y-27477847D01*
X23661029Y-27477847D02*
X23661029Y-27554038D01*
X23661029Y-27554038D02*
X23280076Y-27630228D01*
X24118171Y-27896895D02*
X24041981Y-27858800D01*
X24041981Y-27858800D02*
X24003886Y-27782609D01*
X24003886Y-27782609D02*
X24003886Y-27096895D01*
X17718169Y-28673085D02*
X17756265Y-28634990D01*
X17756265Y-28634990D02*
X17832455Y-28596895D01*
X17832455Y-28596895D02*
X18022931Y-28596895D01*
X18022931Y-28596895D02*
X18099122Y-28634990D01*
X18099122Y-28634990D02*
X18137217Y-28673085D01*
X18137217Y-28673085D02*
X18175312Y-28749276D01*
X18175312Y-28749276D02*
X18175312Y-28825466D01*
X18175312Y-28825466D02*
X18137217Y-28939752D01*
X18137217Y-28939752D02*
X17680074Y-29396895D01*
X17680074Y-29396895D02*
X18175312Y-29396895D01*
X18670551Y-28596895D02*
X18746741Y-28596895D01*
X18746741Y-28596895D02*
X18822932Y-28634990D01*
X18822932Y-28634990D02*
X18861027Y-28673085D01*
X18861027Y-28673085D02*
X18899122Y-28749276D01*
X18899122Y-28749276D02*
X18937217Y-28901657D01*
X18937217Y-28901657D02*
X18937217Y-29092133D01*
X18937217Y-29092133D02*
X18899122Y-29244514D01*
X18899122Y-29244514D02*
X18861027Y-29320704D01*
X18861027Y-29320704D02*
X18822932Y-29358800D01*
X18822932Y-29358800D02*
X18746741Y-29396895D01*
X18746741Y-29396895D02*
X18670551Y-29396895D01*
X18670551Y-29396895D02*
X18594360Y-29358800D01*
X18594360Y-29358800D02*
X18556265Y-29320704D01*
X18556265Y-29320704D02*
X18518170Y-29244514D01*
X18518170Y-29244514D02*
X18480074Y-29092133D01*
X18480074Y-29092133D02*
X18480074Y-28901657D01*
X18480074Y-28901657D02*
X18518170Y-28749276D01*
X18518170Y-28749276D02*
X18556265Y-28673085D01*
X18556265Y-28673085D02*
X18594360Y-28634990D01*
X18594360Y-28634990D02*
X18670551Y-28596895D01*
X19241979Y-28673085D02*
X19280075Y-28634990D01*
X19280075Y-28634990D02*
X19356265Y-28596895D01*
X19356265Y-28596895D02*
X19546741Y-28596895D01*
X19546741Y-28596895D02*
X19622932Y-28634990D01*
X19622932Y-28634990D02*
X19661027Y-28673085D01*
X19661027Y-28673085D02*
X19699122Y-28749276D01*
X19699122Y-28749276D02*
X19699122Y-28825466D01*
X19699122Y-28825466D02*
X19661027Y-28939752D01*
X19661027Y-28939752D02*
X19203884Y-29396895D01*
X19203884Y-29396895D02*
X19699122Y-29396895D01*
X19965789Y-28596895D02*
X20461027Y-28596895D01*
X20461027Y-28596895D02*
X20194361Y-28901657D01*
X20194361Y-28901657D02*
X20308646Y-28901657D01*
X20308646Y-28901657D02*
X20384837Y-28939752D01*
X20384837Y-28939752D02*
X20422932Y-28977847D01*
X20422932Y-28977847D02*
X20461027Y-29054038D01*
X20461027Y-29054038D02*
X20461027Y-29244514D01*
X20461027Y-29244514D02*
X20422932Y-29320704D01*
X20422932Y-29320704D02*
X20384837Y-29358800D01*
X20384837Y-29358800D02*
X20308646Y-29396895D01*
X20308646Y-29396895D02*
X20080075Y-29396895D01*
X20080075Y-29396895D02*
X20003884Y-29358800D01*
X20003884Y-29358800D02*
X19965789Y-29320704D01*
X20803885Y-29092133D02*
X21413409Y-29092133D01*
X21946742Y-28596895D02*
X22022932Y-28596895D01*
X22022932Y-28596895D02*
X22099123Y-28634990D01*
X22099123Y-28634990D02*
X22137218Y-28673085D01*
X22137218Y-28673085D02*
X22175313Y-28749276D01*
X22175313Y-28749276D02*
X22213408Y-28901657D01*
X22213408Y-28901657D02*
X22213408Y-29092133D01*
X22213408Y-29092133D02*
X22175313Y-29244514D01*
X22175313Y-29244514D02*
X22137218Y-29320704D01*
X22137218Y-29320704D02*
X22099123Y-29358800D01*
X22099123Y-29358800D02*
X22022932Y-29396895D01*
X22022932Y-29396895D02*
X21946742Y-29396895D01*
X21946742Y-29396895D02*
X21870551Y-29358800D01*
X21870551Y-29358800D02*
X21832456Y-29320704D01*
X21832456Y-29320704D02*
X21794361Y-29244514D01*
X21794361Y-29244514D02*
X21756265Y-29092133D01*
X21756265Y-29092133D02*
X21756265Y-28901657D01*
X21756265Y-28901657D02*
X21794361Y-28749276D01*
X21794361Y-28749276D02*
X21832456Y-28673085D01*
X21832456Y-28673085D02*
X21870551Y-28634990D01*
X21870551Y-28634990D02*
X21946742Y-28596895D01*
X22899123Y-28596895D02*
X22746742Y-28596895D01*
X22746742Y-28596895D02*
X22670551Y-28634990D01*
X22670551Y-28634990D02*
X22632456Y-28673085D01*
X22632456Y-28673085D02*
X22556266Y-28787371D01*
X22556266Y-28787371D02*
X22518170Y-28939752D01*
X22518170Y-28939752D02*
X22518170Y-29244514D01*
X22518170Y-29244514D02*
X22556266Y-29320704D01*
X22556266Y-29320704D02*
X22594361Y-29358800D01*
X22594361Y-29358800D02*
X22670551Y-29396895D01*
X22670551Y-29396895D02*
X22822932Y-29396895D01*
X22822932Y-29396895D02*
X22899123Y-29358800D01*
X22899123Y-29358800D02*
X22937218Y-29320704D01*
X22937218Y-29320704D02*
X22975313Y-29244514D01*
X22975313Y-29244514D02*
X22975313Y-29054038D01*
X22975313Y-29054038D02*
X22937218Y-28977847D01*
X22937218Y-28977847D02*
X22899123Y-28939752D01*
X22899123Y-28939752D02*
X22822932Y-28901657D01*
X22822932Y-28901657D02*
X22670551Y-28901657D01*
X22670551Y-28901657D02*
X22594361Y-28939752D01*
X22594361Y-28939752D02*
X22556266Y-28977847D01*
X22556266Y-28977847D02*
X22518170Y-29054038D01*
X23318171Y-29092133D02*
X23927695Y-29092133D01*
X24270551Y-28673085D02*
X24308647Y-28634990D01*
X24308647Y-28634990D02*
X24384837Y-28596895D01*
X24384837Y-28596895D02*
X24575313Y-28596895D01*
X24575313Y-28596895D02*
X24651504Y-28634990D01*
X24651504Y-28634990D02*
X24689599Y-28673085D01*
X24689599Y-28673085D02*
X24727694Y-28749276D01*
X24727694Y-28749276D02*
X24727694Y-28825466D01*
X24727694Y-28825466D02*
X24689599Y-28939752D01*
X24689599Y-28939752D02*
X24232456Y-29396895D01*
X24232456Y-29396895D02*
X24727694Y-29396895D01*
X25032456Y-28673085D02*
X25070552Y-28634990D01*
X25070552Y-28634990D02*
X25146742Y-28596895D01*
X25146742Y-28596895D02*
X25337218Y-28596895D01*
X25337218Y-28596895D02*
X25413409Y-28634990D01*
X25413409Y-28634990D02*
X25451504Y-28673085D01*
X25451504Y-28673085D02*
X25489599Y-28749276D01*
X25489599Y-28749276D02*
X25489599Y-28825466D01*
X25489599Y-28825466D02*
X25451504Y-28939752D01*
X25451504Y-28939752D02*
X24994361Y-29396895D01*
X24994361Y-29396895D02*
X25489599Y-29396895D01*
X20420704Y-6536591D02*
X20458800Y-6574687D01*
X20458800Y-6574687D02*
X20496895Y-6688972D01*
X20496895Y-6688972D02*
X20496895Y-6765163D01*
X20496895Y-6765163D02*
X20458800Y-6879449D01*
X20458800Y-6879449D02*
X20382609Y-6955639D01*
X20382609Y-6955639D02*
X20306419Y-6993734D01*
X20306419Y-6993734D02*
X20154038Y-7031830D01*
X20154038Y-7031830D02*
X20039752Y-7031830D01*
X20039752Y-7031830D02*
X19887371Y-6993734D01*
X19887371Y-6993734D02*
X19811180Y-6955639D01*
X19811180Y-6955639D02*
X19734990Y-6879449D01*
X19734990Y-6879449D02*
X19696895Y-6765163D01*
X19696895Y-6765163D02*
X19696895Y-6688972D01*
X19696895Y-6688972D02*
X19734990Y-6574687D01*
X19734990Y-6574687D02*
X19773085Y-6536591D01*
X19696895Y-6308020D02*
X19696895Y-5850877D01*
X20496895Y-6079449D02*
X19696895Y-6079449D01*
X20496895Y-5127067D02*
X20115942Y-5393734D01*
X20496895Y-5584210D02*
X19696895Y-5584210D01*
X19696895Y-5584210D02*
X19696895Y-5279448D01*
X19696895Y-5279448D02*
X19734990Y-5203258D01*
X19734990Y-5203258D02*
X19773085Y-5165163D01*
X19773085Y-5165163D02*
X19849276Y-5127067D01*
X19849276Y-5127067D02*
X19963561Y-5127067D01*
X19963561Y-5127067D02*
X20039752Y-5165163D01*
X20039752Y-5165163D02*
X20077847Y-5203258D01*
X20077847Y-5203258D02*
X20115942Y-5279448D01*
X20115942Y-5279448D02*
X20115942Y-5584210D01*
X20496895Y-4403258D02*
X20496895Y-4784210D01*
X20496895Y-4784210D02*
X19696895Y-4784210D01*
X19773085Y-4174687D02*
X19734990Y-4136591D01*
X19734990Y-4136591D02*
X19696895Y-4060401D01*
X19696895Y-4060401D02*
X19696895Y-3869925D01*
X19696895Y-3869925D02*
X19734990Y-3793734D01*
X19734990Y-3793734D02*
X19773085Y-3755639D01*
X19773085Y-3755639D02*
X19849276Y-3717544D01*
X19849276Y-3717544D02*
X19925466Y-3717544D01*
X19925466Y-3717544D02*
X20039752Y-3755639D01*
X20039752Y-3755639D02*
X20496895Y-4212782D01*
X20496895Y-4212782D02*
X20496895Y-3717544D01*
X17720704Y-6536591D02*
X17758800Y-6574687D01*
X17758800Y-6574687D02*
X17796895Y-6688972D01*
X17796895Y-6688972D02*
X17796895Y-6765163D01*
X17796895Y-6765163D02*
X17758800Y-6879449D01*
X17758800Y-6879449D02*
X17682609Y-6955639D01*
X17682609Y-6955639D02*
X17606419Y-6993734D01*
X17606419Y-6993734D02*
X17454038Y-7031830D01*
X17454038Y-7031830D02*
X17339752Y-7031830D01*
X17339752Y-7031830D02*
X17187371Y-6993734D01*
X17187371Y-6993734D02*
X17111180Y-6955639D01*
X17111180Y-6955639D02*
X17034990Y-6879449D01*
X17034990Y-6879449D02*
X16996895Y-6765163D01*
X16996895Y-6765163D02*
X16996895Y-6688972D01*
X16996895Y-6688972D02*
X17034990Y-6574687D01*
X17034990Y-6574687D02*
X17073085Y-6536591D01*
X16996895Y-6308020D02*
X16996895Y-5850877D01*
X17796895Y-6079449D02*
X16996895Y-6079449D01*
X17796895Y-5127067D02*
X17415942Y-5393734D01*
X17796895Y-5584210D02*
X16996895Y-5584210D01*
X16996895Y-5584210D02*
X16996895Y-5279448D01*
X16996895Y-5279448D02*
X17034990Y-5203258D01*
X17034990Y-5203258D02*
X17073085Y-5165163D01*
X17073085Y-5165163D02*
X17149276Y-5127067D01*
X17149276Y-5127067D02*
X17263561Y-5127067D01*
X17263561Y-5127067D02*
X17339752Y-5165163D01*
X17339752Y-5165163D02*
X17377847Y-5203258D01*
X17377847Y-5203258D02*
X17415942Y-5279448D01*
X17415942Y-5279448D02*
X17415942Y-5584210D01*
X17796895Y-4403258D02*
X17796895Y-4784210D01*
X17796895Y-4784210D02*
X16996895Y-4784210D01*
X17796895Y-3717544D02*
X17796895Y-4174687D01*
X17796895Y-3946115D02*
X16996895Y-3946115D01*
X16996895Y-3946115D02*
X17111180Y-4022306D01*
X17111180Y-4022306D02*
X17187371Y-4098496D01*
X17187371Y-4098496D02*
X17225466Y-4174687D01*
X22175312Y-3834990D02*
X22099122Y-3796895D01*
X22099122Y-3796895D02*
X21984836Y-3796895D01*
X21984836Y-3796895D02*
X21870550Y-3834990D01*
X21870550Y-3834990D02*
X21794360Y-3911180D01*
X21794360Y-3911180D02*
X21756265Y-3987371D01*
X21756265Y-3987371D02*
X21718169Y-4139752D01*
X21718169Y-4139752D02*
X21718169Y-4254038D01*
X21718169Y-4254038D02*
X21756265Y-4406419D01*
X21756265Y-4406419D02*
X21794360Y-4482609D01*
X21794360Y-4482609D02*
X21870550Y-4558800D01*
X21870550Y-4558800D02*
X21984836Y-4596895D01*
X21984836Y-4596895D02*
X22061027Y-4596895D01*
X22061027Y-4596895D02*
X22175312Y-4558800D01*
X22175312Y-4558800D02*
X22213408Y-4520704D01*
X22213408Y-4520704D02*
X22213408Y-4254038D01*
X22213408Y-4254038D02*
X22061027Y-4254038D01*
X22556265Y-4596895D02*
X22556265Y-3796895D01*
X22556265Y-3796895D02*
X23013408Y-4596895D01*
X23013408Y-4596895D02*
X23013408Y-3796895D01*
X23394360Y-4596895D02*
X23394360Y-3796895D01*
X23394360Y-3796895D02*
X23584836Y-3796895D01*
X23584836Y-3796895D02*
X23699122Y-3834990D01*
X23699122Y-3834990D02*
X23775312Y-3911180D01*
X23775312Y-3911180D02*
X23813407Y-3987371D01*
X23813407Y-3987371D02*
X23851503Y-4139752D01*
X23851503Y-4139752D02*
X23851503Y-4254038D01*
X23851503Y-4254038D02*
X23813407Y-4406419D01*
X23813407Y-4406419D02*
X23775312Y-4482609D01*
X23775312Y-4482609D02*
X23699122Y-4558800D01*
X23699122Y-4558800D02*
X23584836Y-4596895D01*
X23584836Y-4596895D02*
X23394360Y-4596895D01*
X13806265Y-4242133D02*
X14415789Y-4242133D01*
X14111027Y-4546895D02*
X14111027Y-3937371D01*
X15177693Y-3746895D02*
X14796741Y-3746895D01*
X14796741Y-3746895D02*
X14758645Y-4127847D01*
X14758645Y-4127847D02*
X14796741Y-4089752D01*
X14796741Y-4089752D02*
X14872931Y-4051657D01*
X14872931Y-4051657D02*
X15063407Y-4051657D01*
X15063407Y-4051657D02*
X15139598Y-4089752D01*
X15139598Y-4089752D02*
X15177693Y-4127847D01*
X15177693Y-4127847D02*
X15215788Y-4204038D01*
X15215788Y-4204038D02*
X15215788Y-4394514D01*
X15215788Y-4394514D02*
X15177693Y-4470704D01*
X15177693Y-4470704D02*
X15139598Y-4508800D01*
X15139598Y-4508800D02*
X15063407Y-4546895D01*
X15063407Y-4546895D02*
X14872931Y-4546895D01*
X14872931Y-4546895D02*
X14796741Y-4508800D01*
X14796741Y-4508800D02*
X14758645Y-4470704D01*
X15444360Y-3746895D02*
X15711027Y-4546895D01*
X15711027Y-4546895D02*
X15977693Y-3746895D01*
X7506265Y-592133D02*
X8115789Y-592133D01*
X7811027Y-896895D02*
X7811027Y-287371D01*
X10006265Y-592133D02*
X10615789Y-592133D01*
X5430074Y-3846895D02*
X5963408Y-3846895D01*
X5963408Y-3846895D02*
X5620550Y-4646895D01*
X6268170Y-4570704D02*
X6306265Y-4608800D01*
X6306265Y-4608800D02*
X6268170Y-4646895D01*
X6268170Y-4646895D02*
X6230074Y-4608800D01*
X6230074Y-4608800D02*
X6268170Y-4570704D01*
X6268170Y-4570704D02*
X6268170Y-4646895D01*
X6649122Y-4570704D02*
X6687217Y-4608800D01*
X6687217Y-4608800D02*
X6649122Y-4646895D01*
X6649122Y-4646895D02*
X6611026Y-4608800D01*
X6611026Y-4608800D02*
X6649122Y-4570704D01*
X6649122Y-4570704D02*
X6649122Y-4646895D01*
X6991978Y-3923085D02*
X7030074Y-3884990D01*
X7030074Y-3884990D02*
X7106264Y-3846895D01*
X7106264Y-3846895D02*
X7296740Y-3846895D01*
X7296740Y-3846895D02*
X7372931Y-3884990D01*
X7372931Y-3884990D02*
X7411026Y-3923085D01*
X7411026Y-3923085D02*
X7449121Y-3999276D01*
X7449121Y-3999276D02*
X7449121Y-4075466D01*
X7449121Y-4075466D02*
X7411026Y-4189752D01*
X7411026Y-4189752D02*
X6953883Y-4646895D01*
X6953883Y-4646895D02*
X7449121Y-4646895D01*
X8172931Y-3846895D02*
X7791979Y-3846895D01*
X7791979Y-3846895D02*
X7753883Y-4227847D01*
X7753883Y-4227847D02*
X7791979Y-4189752D01*
X7791979Y-4189752D02*
X7868169Y-4151657D01*
X7868169Y-4151657D02*
X8058645Y-4151657D01*
X8058645Y-4151657D02*
X8134836Y-4189752D01*
X8134836Y-4189752D02*
X8172931Y-4227847D01*
X8172931Y-4227847D02*
X8211026Y-4304038D01*
X8211026Y-4304038D02*
X8211026Y-4494514D01*
X8211026Y-4494514D02*
X8172931Y-4570704D01*
X8172931Y-4570704D02*
X8134836Y-4608800D01*
X8134836Y-4608800D02*
X8058645Y-4646895D01*
X8058645Y-4646895D02*
X7868169Y-4646895D01*
X7868169Y-4646895D02*
X7791979Y-4608800D01*
X7791979Y-4608800D02*
X7753883Y-4570704D01*
X8439598Y-3846895D02*
X8706265Y-4646895D01*
X8706265Y-4646895D02*
X8972931Y-3846895D01*
X12096895Y-11619925D02*
X12668323Y-11619925D01*
X12668323Y-11619925D02*
X12782609Y-11648496D01*
X12782609Y-11648496D02*
X12858800Y-11705639D01*
X12858800Y-11705639D02*
X12896895Y-11791353D01*
X12896895Y-11791353D02*
X12896895Y-11848496D01*
X12896895Y-11048496D02*
X12896895Y-11334210D01*
X12896895Y-11334210D02*
X12096895Y-11334210D01*
X12820704Y-10505639D02*
X12858800Y-10534211D01*
X12858800Y-10534211D02*
X12896895Y-10619925D01*
X12896895Y-10619925D02*
X12896895Y-10677068D01*
X12896895Y-10677068D02*
X12858800Y-10762782D01*
X12858800Y-10762782D02*
X12782609Y-10819925D01*
X12782609Y-10819925D02*
X12706419Y-10848496D01*
X12706419Y-10848496D02*
X12554038Y-10877068D01*
X12554038Y-10877068D02*
X12439752Y-10877068D01*
X12439752Y-10877068D02*
X12287371Y-10848496D01*
X12287371Y-10848496D02*
X12211180Y-10819925D01*
X12211180Y-10819925D02*
X12134990Y-10762782D01*
X12134990Y-10762782D02*
X12096895Y-10677068D01*
X12096895Y-10677068D02*
X12096895Y-10619925D01*
X12096895Y-10619925D02*
X12134990Y-10534211D01*
X12134990Y-10534211D02*
X12173085Y-10505639D01*
X12096895Y-10077068D02*
X12668323Y-10077068D01*
X12668323Y-10077068D02*
X12782609Y-10105639D01*
X12782609Y-10105639D02*
X12858800Y-10162782D01*
X12858800Y-10162782D02*
X12896895Y-10248496D01*
X12896895Y-10248496D02*
X12896895Y-10305639D01*
X12896895Y-9505639D02*
X12896895Y-9791353D01*
X12896895Y-9791353D02*
X12096895Y-9791353D01*
X12820704Y-8962782D02*
X12858800Y-8991354D01*
X12858800Y-8991354D02*
X12896895Y-9077068D01*
X12896895Y-9077068D02*
X12896895Y-9134211D01*
X12896895Y-9134211D02*
X12858800Y-9219925D01*
X12858800Y-9219925D02*
X12782609Y-9277068D01*
X12782609Y-9277068D02*
X12706419Y-9305639D01*
X12706419Y-9305639D02*
X12554038Y-9334211D01*
X12554038Y-9334211D02*
X12439752Y-9334211D01*
X12439752Y-9334211D02*
X12287371Y-9305639D01*
X12287371Y-9305639D02*
X12211180Y-9277068D01*
X12211180Y-9277068D02*
X12134990Y-9219925D01*
X12134990Y-9219925D02*
X12096895Y-9134211D01*
X12096895Y-9134211D02*
X12096895Y-9077068D01*
X12096895Y-9077068D02*
X12134990Y-8991354D01*
X12134990Y-8991354D02*
X12173085Y-8962782D01*
X12096895Y-8534211D02*
X12668323Y-8534211D01*
X12668323Y-8534211D02*
X12782609Y-8562782D01*
X12782609Y-8562782D02*
X12858800Y-8619925D01*
X12858800Y-8619925D02*
X12896895Y-8705639D01*
X12896895Y-8705639D02*
X12896895Y-8762782D01*
X12896895Y-7962782D02*
X12896895Y-8248496D01*
X12896895Y-8248496D02*
X12096895Y-8248496D01*
X12820704Y-7419925D02*
X12858800Y-7448497D01*
X12858800Y-7448497D02*
X12896895Y-7534211D01*
X12896895Y-7534211D02*
X12896895Y-7591354D01*
X12896895Y-7591354D02*
X12858800Y-7677068D01*
X12858800Y-7677068D02*
X12782609Y-7734211D01*
X12782609Y-7734211D02*
X12706419Y-7762782D01*
X12706419Y-7762782D02*
X12554038Y-7791354D01*
X12554038Y-7791354D02*
X12439752Y-7791354D01*
X12439752Y-7791354D02*
X12287371Y-7762782D01*
X12287371Y-7762782D02*
X12211180Y-7734211D01*
X12211180Y-7734211D02*
X12134990Y-7677068D01*
X12134990Y-7677068D02*
X12096895Y-7591354D01*
X12096895Y-7591354D02*
X12096895Y-7534211D01*
X12096895Y-7534211D02*
X12134990Y-7448497D01*
X12134990Y-7448497D02*
X12173085Y-7419925D01*
X12096895Y-6991354D02*
X12668323Y-6991354D01*
X12668323Y-6991354D02*
X12782609Y-7019925D01*
X12782609Y-7019925D02*
X12858800Y-7077068D01*
X12858800Y-7077068D02*
X12896895Y-7162782D01*
X12896895Y-7162782D02*
X12896895Y-7219925D01*
X12896895Y-6419925D02*
X12896895Y-6705639D01*
X12896895Y-6705639D02*
X12096895Y-6705639D01*
X12820704Y-5877068D02*
X12858800Y-5905640D01*
X12858800Y-5905640D02*
X12896895Y-5991354D01*
X12896895Y-5991354D02*
X12896895Y-6048497D01*
X12896895Y-6048497D02*
X12858800Y-6134211D01*
X12858800Y-6134211D02*
X12782609Y-6191354D01*
X12782609Y-6191354D02*
X12706419Y-6219925D01*
X12706419Y-6219925D02*
X12554038Y-6248497D01*
X12554038Y-6248497D02*
X12439752Y-6248497D01*
X12439752Y-6248497D02*
X12287371Y-6219925D01*
X12287371Y-6219925D02*
X12211180Y-6191354D01*
X12211180Y-6191354D02*
X12134990Y-6134211D01*
X12134990Y-6134211D02*
X12096895Y-6048497D01*
X12096895Y-6048497D02*
X12096895Y-5991354D01*
X12096895Y-5991354D02*
X12134990Y-5905640D01*
X12134990Y-5905640D02*
X12173085Y-5877068D01*
D11*
%TO.C,U2*%
X14238095Y-17454819D02*
X14238095Y-18264342D01*
X14238095Y-18264342D02*
X14285714Y-18359580D01*
X14285714Y-18359580D02*
X14333333Y-18407200D01*
X14333333Y-18407200D02*
X14428571Y-18454819D01*
X14428571Y-18454819D02*
X14619047Y-18454819D01*
X14619047Y-18454819D02*
X14714285Y-18407200D01*
X14714285Y-18407200D02*
X14761904Y-18359580D01*
X14761904Y-18359580D02*
X14809523Y-18264342D01*
X14809523Y-18264342D02*
X14809523Y-17454819D01*
X15238095Y-17550057D02*
X15285714Y-17502438D01*
X15285714Y-17502438D02*
X15380952Y-17454819D01*
X15380952Y-17454819D02*
X15619047Y-17454819D01*
X15619047Y-17454819D02*
X15714285Y-17502438D01*
X15714285Y-17502438D02*
X15761904Y-17550057D01*
X15761904Y-17550057D02*
X15809523Y-17645295D01*
X15809523Y-17645295D02*
X15809523Y-17740533D01*
X15809523Y-17740533D02*
X15761904Y-17883390D01*
X15761904Y-17883390D02*
X15190476Y-18454819D01*
X15190476Y-18454819D02*
X15809523Y-18454819D01*
%TO.C,J5*%
X12191485Y-2583333D02*
X12905770Y-2583333D01*
X12905770Y-2583333D02*
X13048627Y-2630952D01*
X13048627Y-2630952D02*
X13143866Y-2726190D01*
X13143866Y-2726190D02*
X13191485Y-2869047D01*
X13191485Y-2869047D02*
X13191485Y-2964285D01*
X12191485Y-1630952D02*
X12191485Y-2107142D01*
X12191485Y-2107142D02*
X12667675Y-2154761D01*
X12667675Y-2154761D02*
X12620056Y-2107142D01*
X12620056Y-2107142D02*
X12572437Y-2011904D01*
X12572437Y-2011904D02*
X12572437Y-1773809D01*
X12572437Y-1773809D02*
X12620056Y-1678571D01*
X12620056Y-1678571D02*
X12667675Y-1630952D01*
X12667675Y-1630952D02*
X12762913Y-1583333D01*
X12762913Y-1583333D02*
X13001008Y-1583333D01*
X13001008Y-1583333D02*
X13096246Y-1630952D01*
X13096246Y-1630952D02*
X13143866Y-1678571D01*
X13143866Y-1678571D02*
X13191485Y-1773809D01*
X13191485Y-1773809D02*
X13191485Y-2011904D01*
X13191485Y-2011904D02*
X13143866Y-2107142D01*
X13143866Y-2107142D02*
X13096246Y-2154761D01*
%TO.C,J1*%
X2756666Y-13954819D02*
X2756666Y-14669104D01*
X2756666Y-14669104D02*
X2709047Y-14811961D01*
X2709047Y-14811961D02*
X2613809Y-14907200D01*
X2613809Y-14907200D02*
X2470952Y-14954819D01*
X2470952Y-14954819D02*
X2375714Y-14954819D01*
X3756666Y-14954819D02*
X3185238Y-14954819D01*
X3470952Y-14954819D02*
X3470952Y-13954819D01*
X3470952Y-13954819D02*
X3375714Y-14097676D01*
X3375714Y-14097676D02*
X3280476Y-14192914D01*
X3280476Y-14192914D02*
X3185238Y-14240533D01*
%TO.C,C3*%
X6833333Y-14359580D02*
X6785714Y-14407200D01*
X6785714Y-14407200D02*
X6642857Y-14454819D01*
X6642857Y-14454819D02*
X6547619Y-14454819D01*
X6547619Y-14454819D02*
X6404762Y-14407200D01*
X6404762Y-14407200D02*
X6309524Y-14311961D01*
X6309524Y-14311961D02*
X6261905Y-14216723D01*
X6261905Y-14216723D02*
X6214286Y-14026247D01*
X6214286Y-14026247D02*
X6214286Y-13883390D01*
X6214286Y-13883390D02*
X6261905Y-13692914D01*
X6261905Y-13692914D02*
X6309524Y-13597676D01*
X6309524Y-13597676D02*
X6404762Y-13502438D01*
X6404762Y-13502438D02*
X6547619Y-13454819D01*
X6547619Y-13454819D02*
X6642857Y-13454819D01*
X6642857Y-13454819D02*
X6785714Y-13502438D01*
X6785714Y-13502438D02*
X6833333Y-13550057D01*
X7166667Y-13454819D02*
X7785714Y-13454819D01*
X7785714Y-13454819D02*
X7452381Y-13835771D01*
X7452381Y-13835771D02*
X7595238Y-13835771D01*
X7595238Y-13835771D02*
X7690476Y-13883390D01*
X7690476Y-13883390D02*
X7738095Y-13931009D01*
X7738095Y-13931009D02*
X7785714Y-14026247D01*
X7785714Y-14026247D02*
X7785714Y-14264342D01*
X7785714Y-14264342D02*
X7738095Y-14359580D01*
X7738095Y-14359580D02*
X7690476Y-14407200D01*
X7690476Y-14407200D02*
X7595238Y-14454819D01*
X7595238Y-14454819D02*
X7309524Y-14454819D01*
X7309524Y-14454819D02*
X7214286Y-14407200D01*
X7214286Y-14407200D02*
X7166667Y-14359580D01*
%TO.C,C4*%
X13833333Y-14859580D02*
X13785714Y-14907200D01*
X13785714Y-14907200D02*
X13642857Y-14954819D01*
X13642857Y-14954819D02*
X13547619Y-14954819D01*
X13547619Y-14954819D02*
X13404762Y-14907200D01*
X13404762Y-14907200D02*
X13309524Y-14811961D01*
X13309524Y-14811961D02*
X13261905Y-14716723D01*
X13261905Y-14716723D02*
X13214286Y-14526247D01*
X13214286Y-14526247D02*
X13214286Y-14383390D01*
X13214286Y-14383390D02*
X13261905Y-14192914D01*
X13261905Y-14192914D02*
X13309524Y-14097676D01*
X13309524Y-14097676D02*
X13404762Y-14002438D01*
X13404762Y-14002438D02*
X13547619Y-13954819D01*
X13547619Y-13954819D02*
X13642857Y-13954819D01*
X13642857Y-13954819D02*
X13785714Y-14002438D01*
X13785714Y-14002438D02*
X13833333Y-14050057D01*
X14690476Y-14288152D02*
X14690476Y-14954819D01*
X14452381Y-13907200D02*
X14214286Y-14621485D01*
X14214286Y-14621485D02*
X14833333Y-14621485D01*
%TO.C,D1*%
X3011905Y-9954819D02*
X3011905Y-8954819D01*
X3011905Y-8954819D02*
X3250000Y-8954819D01*
X3250000Y-8954819D02*
X3392857Y-9002438D01*
X3392857Y-9002438D02*
X3488095Y-9097676D01*
X3488095Y-9097676D02*
X3535714Y-9192914D01*
X3535714Y-9192914D02*
X3583333Y-9383390D01*
X3583333Y-9383390D02*
X3583333Y-9526247D01*
X3583333Y-9526247D02*
X3535714Y-9716723D01*
X3535714Y-9716723D02*
X3488095Y-9811961D01*
X3488095Y-9811961D02*
X3392857Y-9907200D01*
X3392857Y-9907200D02*
X3250000Y-9954819D01*
X3250000Y-9954819D02*
X3011905Y-9954819D01*
X4535714Y-9954819D02*
X3964286Y-9954819D01*
X4250000Y-9954819D02*
X4250000Y-8954819D01*
X4250000Y-8954819D02*
X4154762Y-9097676D01*
X4154762Y-9097676D02*
X4059524Y-9192914D01*
X4059524Y-9192914D02*
X3964286Y-9240533D01*
%TO.C,J4*%
X4958152Y-2583333D02*
X5672437Y-2583333D01*
X5672437Y-2583333D02*
X5815294Y-2630952D01*
X5815294Y-2630952D02*
X5910533Y-2726190D01*
X5910533Y-2726190D02*
X5958152Y-2869047D01*
X5958152Y-2869047D02*
X5958152Y-2964285D01*
X5291485Y-1678571D02*
X5958152Y-1678571D01*
X4910533Y-1916666D02*
X5624818Y-2154761D01*
X5624818Y-2154761D02*
X5624818Y-1535714D01*
%TO.C,C5*%
X17333333Y-14859580D02*
X17285714Y-14907200D01*
X17285714Y-14907200D02*
X17142857Y-14954819D01*
X17142857Y-14954819D02*
X17047619Y-14954819D01*
X17047619Y-14954819D02*
X16904762Y-14907200D01*
X16904762Y-14907200D02*
X16809524Y-14811961D01*
X16809524Y-14811961D02*
X16761905Y-14716723D01*
X16761905Y-14716723D02*
X16714286Y-14526247D01*
X16714286Y-14526247D02*
X16714286Y-14383390D01*
X16714286Y-14383390D02*
X16761905Y-14192914D01*
X16761905Y-14192914D02*
X16809524Y-14097676D01*
X16809524Y-14097676D02*
X16904762Y-14002438D01*
X16904762Y-14002438D02*
X17047619Y-13954819D01*
X17047619Y-13954819D02*
X17142857Y-13954819D01*
X17142857Y-13954819D02*
X17285714Y-14002438D01*
X17285714Y-14002438D02*
X17333333Y-14050057D01*
X18238095Y-13954819D02*
X17761905Y-13954819D01*
X17761905Y-13954819D02*
X17714286Y-14431009D01*
X17714286Y-14431009D02*
X17761905Y-14383390D01*
X17761905Y-14383390D02*
X17857143Y-14335771D01*
X17857143Y-14335771D02*
X18095238Y-14335771D01*
X18095238Y-14335771D02*
X18190476Y-14383390D01*
X18190476Y-14383390D02*
X18238095Y-14431009D01*
X18238095Y-14431009D02*
X18285714Y-14526247D01*
X18285714Y-14526247D02*
X18285714Y-14764342D01*
X18285714Y-14764342D02*
X18238095Y-14859580D01*
X18238095Y-14859580D02*
X18190476Y-14907200D01*
X18190476Y-14907200D02*
X18095238Y-14954819D01*
X18095238Y-14954819D02*
X17857143Y-14954819D01*
X17857143Y-14954819D02*
X17761905Y-14907200D01*
X17761905Y-14907200D02*
X17714286Y-14859580D01*
%TO.C,U1*%
X15738095Y-11454819D02*
X15738095Y-12264342D01*
X15738095Y-12264342D02*
X15785714Y-12359580D01*
X15785714Y-12359580D02*
X15833333Y-12407200D01*
X15833333Y-12407200D02*
X15928571Y-12454819D01*
X15928571Y-12454819D02*
X16119047Y-12454819D01*
X16119047Y-12454819D02*
X16214285Y-12407200D01*
X16214285Y-12407200D02*
X16261904Y-12359580D01*
X16261904Y-12359580D02*
X16309523Y-12264342D01*
X16309523Y-12264342D02*
X16309523Y-11454819D01*
X17309523Y-12454819D02*
X16738095Y-12454819D01*
X17023809Y-12454819D02*
X17023809Y-11454819D01*
X17023809Y-11454819D02*
X16928571Y-11597676D01*
X16928571Y-11597676D02*
X16833333Y-11692914D01*
X16833333Y-11692914D02*
X16738095Y-11740533D01*
%TO.C,C2*%
X5859580Y-11866666D02*
X5907200Y-11914285D01*
X5907200Y-11914285D02*
X5954819Y-12057142D01*
X5954819Y-12057142D02*
X5954819Y-12152380D01*
X5954819Y-12152380D02*
X5907200Y-12295237D01*
X5907200Y-12295237D02*
X5811961Y-12390475D01*
X5811961Y-12390475D02*
X5716723Y-12438094D01*
X5716723Y-12438094D02*
X5526247Y-12485713D01*
X5526247Y-12485713D02*
X5383390Y-12485713D01*
X5383390Y-12485713D02*
X5192914Y-12438094D01*
X5192914Y-12438094D02*
X5097676Y-12390475D01*
X5097676Y-12390475D02*
X5002438Y-12295237D01*
X5002438Y-12295237D02*
X4954819Y-12152380D01*
X4954819Y-12152380D02*
X4954819Y-12057142D01*
X4954819Y-12057142D02*
X5002438Y-11914285D01*
X5002438Y-11914285D02*
X5050057Y-11866666D01*
X5050057Y-11485713D02*
X5002438Y-11438094D01*
X5002438Y-11438094D02*
X4954819Y-11342856D01*
X4954819Y-11342856D02*
X4954819Y-11104761D01*
X4954819Y-11104761D02*
X5002438Y-11009523D01*
X5002438Y-11009523D02*
X5050057Y-10961904D01*
X5050057Y-10961904D02*
X5145295Y-10914285D01*
X5145295Y-10914285D02*
X5240533Y-10914285D01*
X5240533Y-10914285D02*
X5383390Y-10961904D01*
X5383390Y-10961904D02*
X5954819Y-11533332D01*
X5954819Y-11533332D02*
X5954819Y-10914285D01*
%TO.C,J2*%
X26576666Y-13954819D02*
X26576666Y-14669104D01*
X26576666Y-14669104D02*
X26529047Y-14811961D01*
X26529047Y-14811961D02*
X26433809Y-14907200D01*
X26433809Y-14907200D02*
X26290952Y-14954819D01*
X26290952Y-14954819D02*
X26195714Y-14954819D01*
X27005238Y-14050057D02*
X27052857Y-14002438D01*
X27052857Y-14002438D02*
X27148095Y-13954819D01*
X27148095Y-13954819D02*
X27386190Y-13954819D01*
X27386190Y-13954819D02*
X27481428Y-14002438D01*
X27481428Y-14002438D02*
X27529047Y-14050057D01*
X27529047Y-14050057D02*
X27576666Y-14145295D01*
X27576666Y-14145295D02*
X27576666Y-14240533D01*
X27576666Y-14240533D02*
X27529047Y-14383390D01*
X27529047Y-14383390D02*
X26957619Y-14954819D01*
X26957619Y-14954819D02*
X27576666Y-14954819D01*
%TO.C,C1*%
X5859580Y-5916666D02*
X5907200Y-5964285D01*
X5907200Y-5964285D02*
X5954819Y-6107142D01*
X5954819Y-6107142D02*
X5954819Y-6202380D01*
X5954819Y-6202380D02*
X5907200Y-6345237D01*
X5907200Y-6345237D02*
X5811961Y-6440475D01*
X5811961Y-6440475D02*
X5716723Y-6488094D01*
X5716723Y-6488094D02*
X5526247Y-6535713D01*
X5526247Y-6535713D02*
X5383390Y-6535713D01*
X5383390Y-6535713D02*
X5192914Y-6488094D01*
X5192914Y-6488094D02*
X5097676Y-6440475D01*
X5097676Y-6440475D02*
X5002438Y-6345237D01*
X5002438Y-6345237D02*
X4954819Y-6202380D01*
X4954819Y-6202380D02*
X4954819Y-6107142D01*
X4954819Y-6107142D02*
X5002438Y-5964285D01*
X5002438Y-5964285D02*
X5050057Y-5916666D01*
X5954819Y-4964285D02*
X5954819Y-5535713D01*
X5954819Y-5249999D02*
X4954819Y-5249999D01*
X4954819Y-5249999D02*
X5097676Y-5345237D01*
X5097676Y-5345237D02*
X5192914Y-5440475D01*
X5192914Y-5440475D02*
X5240533Y-5535713D01*
%TO.C,C8*%
X9833333Y-18289580D02*
X9785714Y-18337200D01*
X9785714Y-18337200D02*
X9642857Y-18384819D01*
X9642857Y-18384819D02*
X9547619Y-18384819D01*
X9547619Y-18384819D02*
X9404762Y-18337200D01*
X9404762Y-18337200D02*
X9309524Y-18241961D01*
X9309524Y-18241961D02*
X9261905Y-18146723D01*
X9261905Y-18146723D02*
X9214286Y-17956247D01*
X9214286Y-17956247D02*
X9214286Y-17813390D01*
X9214286Y-17813390D02*
X9261905Y-17622914D01*
X9261905Y-17622914D02*
X9309524Y-17527676D01*
X9309524Y-17527676D02*
X9404762Y-17432438D01*
X9404762Y-17432438D02*
X9547619Y-17384819D01*
X9547619Y-17384819D02*
X9642857Y-17384819D01*
X9642857Y-17384819D02*
X9785714Y-17432438D01*
X9785714Y-17432438D02*
X9833333Y-17480057D01*
X10404762Y-17813390D02*
X10309524Y-17765771D01*
X10309524Y-17765771D02*
X10261905Y-17718152D01*
X10261905Y-17718152D02*
X10214286Y-17622914D01*
X10214286Y-17622914D02*
X10214286Y-17575295D01*
X10214286Y-17575295D02*
X10261905Y-17480057D01*
X10261905Y-17480057D02*
X10309524Y-17432438D01*
X10309524Y-17432438D02*
X10404762Y-17384819D01*
X10404762Y-17384819D02*
X10595238Y-17384819D01*
X10595238Y-17384819D02*
X10690476Y-17432438D01*
X10690476Y-17432438D02*
X10738095Y-17480057D01*
X10738095Y-17480057D02*
X10785714Y-17575295D01*
X10785714Y-17575295D02*
X10785714Y-17622914D01*
X10785714Y-17622914D02*
X10738095Y-17718152D01*
X10738095Y-17718152D02*
X10690476Y-17765771D01*
X10690476Y-17765771D02*
X10595238Y-17813390D01*
X10595238Y-17813390D02*
X10404762Y-17813390D01*
X10404762Y-17813390D02*
X10309524Y-17861009D01*
X10309524Y-17861009D02*
X10261905Y-17908628D01*
X10261905Y-17908628D02*
X10214286Y-18003866D01*
X10214286Y-18003866D02*
X10214286Y-18194342D01*
X10214286Y-18194342D02*
X10261905Y-18289580D01*
X10261905Y-18289580D02*
X10309524Y-18337200D01*
X10309524Y-18337200D02*
X10404762Y-18384819D01*
X10404762Y-18384819D02*
X10595238Y-18384819D01*
X10595238Y-18384819D02*
X10690476Y-18337200D01*
X10690476Y-18337200D02*
X10738095Y-18289580D01*
X10738095Y-18289580D02*
X10785714Y-18194342D01*
X10785714Y-18194342D02*
X10785714Y-18003866D01*
X10785714Y-18003866D02*
X10738095Y-17908628D01*
X10738095Y-17908628D02*
X10690476Y-17861009D01*
X10690476Y-17861009D02*
X10595238Y-17813390D01*
%TO.C,J3*%
X10166666Y-28454819D02*
X10166666Y-29169104D01*
X10166666Y-29169104D02*
X10119047Y-29311961D01*
X10119047Y-29311961D02*
X10023809Y-29407200D01*
X10023809Y-29407200D02*
X9880952Y-29454819D01*
X9880952Y-29454819D02*
X9785714Y-29454819D01*
X10547619Y-28454819D02*
X11166666Y-28454819D01*
X11166666Y-28454819D02*
X10833333Y-28835771D01*
X10833333Y-28835771D02*
X10976190Y-28835771D01*
X10976190Y-28835771D02*
X11071428Y-28883390D01*
X11071428Y-28883390D02*
X11119047Y-28931009D01*
X11119047Y-28931009D02*
X11166666Y-29026247D01*
X11166666Y-29026247D02*
X11166666Y-29264342D01*
X11166666Y-29264342D02*
X11119047Y-29359580D01*
X11119047Y-29359580D02*
X11071428Y-29407200D01*
X11071428Y-29407200D02*
X10976190Y-29454819D01*
X10976190Y-29454819D02*
X10690476Y-29454819D01*
X10690476Y-29454819D02*
X10595238Y-29407200D01*
X10595238Y-29407200D02*
X10547619Y-29359580D01*
%TO.C,G\u002A\u002A\u002A*%
G36*
X18699824Y-11114023D02*
G01*
X18757876Y-11119620D01*
X18757876Y-11325035D01*
X18757876Y-11530450D01*
X18699824Y-11536047D01*
X18641772Y-11541645D01*
X18641772Y-11325035D01*
X18641772Y-11108426D01*
X18699824Y-11114023D01*
G37*
G36*
X23547997Y-12534431D02*
G01*
X23553868Y-12557525D01*
X23541238Y-12587378D01*
X23518144Y-12593249D01*
X23488291Y-12580618D01*
X23482419Y-12557525D01*
X23495050Y-12527671D01*
X23518144Y-12521800D01*
X23547997Y-12534431D01*
G37*
G36*
X23673032Y-12534431D02*
G01*
X23678903Y-12557525D01*
X23666273Y-12587378D01*
X23643179Y-12593249D01*
X23613326Y-12580618D01*
X23607455Y-12557525D01*
X23620085Y-12527671D01*
X23643179Y-12521800D01*
X23673032Y-12534431D01*
G37*
G36*
X24133366Y-12527641D02*
G01*
X24141211Y-12551160D01*
X24140096Y-12561808D01*
X24123191Y-12595329D01*
X24093369Y-12609681D01*
X24066534Y-12599821D01*
X24055760Y-12572950D01*
X24054009Y-12554548D01*
X24065928Y-12528647D01*
X24099906Y-12521800D01*
X24133366Y-12527641D01*
G37*
G36*
X18747596Y-10952491D02*
G01*
X18763769Y-10965647D01*
X18763693Y-10997603D01*
X18763528Y-10999051D01*
X18753185Y-11034397D01*
X18725443Y-11050023D01*
X18699824Y-11053769D01*
X18660058Y-11054544D01*
X18644408Y-11039904D01*
X18641772Y-11004648D01*
X18645048Y-10968140D01*
X18662056Y-10952985D01*
X18703570Y-10949931D01*
X18705476Y-10949930D01*
X18747596Y-10952491D01*
G37*
G36*
X23996562Y-12643986D02*
G01*
X24011140Y-12669104D01*
X24001459Y-12698113D01*
X23974064Y-12716802D01*
X23962345Y-12718284D01*
X23928837Y-12734957D01*
X23905575Y-12782341D01*
X23894154Y-12856486D01*
X23893249Y-12889138D01*
X23891334Y-12938283D01*
X23881970Y-12961394D01*
X23859727Y-12968100D01*
X23848594Y-12968354D01*
X23827484Y-12967081D01*
X23814363Y-12958686D01*
X23807333Y-12936306D01*
X23804492Y-12893080D01*
X23803941Y-12822143D01*
X23803938Y-12807035D01*
X23803938Y-12645716D01*
X23861990Y-12648600D01*
X23911103Y-12647362D01*
X23946836Y-12640416D01*
X23983721Y-12638681D01*
X23996562Y-12643986D01*
G37*
G36*
X24119803Y-12648116D02*
G01*
X24132928Y-12656539D01*
X24139950Y-12678980D01*
X24142776Y-12722313D01*
X24143317Y-12793413D01*
X24143320Y-12807595D01*
X24142964Y-12883696D01*
X24140624Y-12930947D01*
X24134391Y-12956222D01*
X24122354Y-12966398D01*
X24102604Y-12968347D01*
X24098664Y-12968354D01*
X24077525Y-12967074D01*
X24064400Y-12958651D01*
X24057379Y-12936210D01*
X24054552Y-12892877D01*
X24054011Y-12821777D01*
X24054009Y-12807595D01*
X24054364Y-12731494D01*
X24056704Y-12684243D01*
X24062938Y-12658968D01*
X24074975Y-12648792D01*
X24094725Y-12646843D01*
X24098664Y-12646835D01*
X24119803Y-12648116D01*
G37*
G36*
X19469652Y-10950971D02*
G01*
X19492364Y-10957424D01*
X19514142Y-10974288D01*
X19539753Y-11006557D01*
X19573958Y-11059228D01*
X19621523Y-11137298D01*
X19624332Y-11141948D01*
X19740296Y-11333966D01*
X19745365Y-11141948D01*
X19750435Y-10949930D01*
X19803418Y-10949930D01*
X19856400Y-10949930D01*
X19856400Y-11244655D01*
X19856400Y-11539381D01*
X19795006Y-11539381D01*
X19767957Y-11537738D01*
X19745371Y-11529405D01*
X19722343Y-11509275D01*
X19693970Y-11472245D01*
X19655345Y-11413207D01*
X19620850Y-11358090D01*
X19508087Y-11176799D01*
X19502997Y-11358090D01*
X19497907Y-11539381D01*
X19447922Y-11539381D01*
X19407245Y-11535509D01*
X19386029Y-11527473D01*
X19381971Y-11506400D01*
X19378507Y-11455957D01*
X19375893Y-11382493D01*
X19374387Y-11292361D01*
X19374121Y-11232747D01*
X19374121Y-10949930D01*
X19441244Y-10949930D01*
X19469652Y-10950971D01*
G37*
G36*
X23310593Y-12648665D02*
G01*
X23357100Y-12657057D01*
X23372436Y-12676371D01*
X23358475Y-12710962D01*
X23317091Y-12765190D01*
X23293806Y-12792740D01*
X23212366Y-12887975D01*
X23293806Y-12893419D01*
X23345049Y-12899575D01*
X23369299Y-12911858D01*
X23375246Y-12933609D01*
X23372021Y-12950942D01*
X23357575Y-12961333D01*
X23324752Y-12966520D01*
X23266397Y-12968244D01*
X23232349Y-12968354D01*
X23161313Y-12967695D01*
X23118756Y-12964429D01*
X23097441Y-12956620D01*
X23090129Y-12942334D01*
X23089452Y-12930162D01*
X23101079Y-12897295D01*
X23131269Y-12850687D01*
X23165366Y-12809592D01*
X23241280Y-12727215D01*
X23170004Y-12718284D01*
X23116190Y-12704833D01*
X23093443Y-12680908D01*
X23092781Y-12678094D01*
X23093616Y-12662536D01*
X23107868Y-12653160D01*
X23142217Y-12648454D01*
X23203346Y-12646909D01*
X23231039Y-12646835D01*
X23310593Y-12648665D01*
G37*
G36*
X24442302Y-12655966D02*
G01*
X24481728Y-12681872D01*
X24486529Y-12688143D01*
X24499624Y-12726398D01*
X24486508Y-12748784D01*
X24454475Y-12751822D01*
X24410820Y-12732036D01*
X24404319Y-12727339D01*
X24364128Y-12712024D01*
X24330939Y-12725570D01*
X24309028Y-12761215D01*
X24302672Y-12812202D01*
X24314921Y-12868652D01*
X24339632Y-12891209D01*
X24378282Y-12895391D01*
X24414226Y-12881284D01*
X24425610Y-12868078D01*
X24453609Y-12847919D01*
X24479270Y-12851161D01*
X24504777Y-12864689D01*
X24504349Y-12888866D01*
X24497287Y-12905893D01*
X24466679Y-12942500D01*
X24423987Y-12967465D01*
X24381655Y-12981025D01*
X24355103Y-12983278D01*
X24326594Y-12975292D01*
X24321941Y-12973602D01*
X24259085Y-12933876D01*
X24223319Y-12871220D01*
X24214768Y-12807595D01*
X24228419Y-12728987D01*
X24269137Y-12673533D01*
X24336570Y-12641708D01*
X24337255Y-12641541D01*
X24388364Y-12640717D01*
X24442302Y-12655966D01*
G37*
G36*
X19151031Y-11111101D02*
G01*
X19217015Y-11151116D01*
X19265045Y-11211765D01*
X19289730Y-11288033D01*
X19285677Y-11374905D01*
X19282404Y-11388013D01*
X19245173Y-11461285D01*
X19184186Y-11514567D01*
X19107640Y-11543854D01*
X19023728Y-11545138D01*
X18982827Y-11534483D01*
X18911147Y-11492221D01*
X18866692Y-11426837D01*
X18849483Y-11338362D01*
X18849248Y-11325035D01*
X18963291Y-11325035D01*
X18976249Y-11382176D01*
X19009378Y-11424948D01*
X19054061Y-11448768D01*
X19101679Y-11449054D01*
X19143618Y-11421223D01*
X19143786Y-11421021D01*
X19159921Y-11384271D01*
X19167753Y-11332440D01*
X19167894Y-11325035D01*
X19156786Y-11255383D01*
X19123541Y-11213656D01*
X19069290Y-11200000D01*
X19017280Y-11216077D01*
X18979536Y-11258515D01*
X18963429Y-11318621D01*
X18963291Y-11325035D01*
X18849248Y-11325035D01*
X18862676Y-11234177D01*
X18903530Y-11165878D01*
X18972666Y-11118819D01*
X18986770Y-11113035D01*
X19072485Y-11096736D01*
X19151031Y-11111101D01*
G37*
G36*
X20553024Y-11243722D02*
G01*
X20553024Y-11539381D01*
X20499438Y-11539381D01*
X20445851Y-11539381D01*
X20444319Y-11320570D01*
X20442788Y-11101758D01*
X20384608Y-11316104D01*
X20326428Y-11530450D01*
X20266692Y-11530450D01*
X20206956Y-11530450D01*
X20158479Y-11337221D01*
X20138084Y-11258637D01*
X20119877Y-11193411D01*
X20106031Y-11149035D01*
X20099305Y-11133295D01*
X20095143Y-11145645D01*
X20091738Y-11187189D01*
X20089441Y-11251396D01*
X20088608Y-11330989D01*
X20088608Y-11539381D01*
X20035021Y-11539381D01*
X19981435Y-11539381D01*
X19981435Y-11243722D01*
X19981435Y-10948063D01*
X20074780Y-10953462D01*
X20168125Y-10958861D01*
X20213079Y-11133017D01*
X20232984Y-11206011D01*
X20250810Y-11263956D01*
X20264179Y-11299519D01*
X20269516Y-11307173D01*
X20278334Y-11291003D01*
X20292945Y-11247400D01*
X20311041Y-11183726D01*
X20324087Y-11133017D01*
X20367176Y-10958861D01*
X20460100Y-10953462D01*
X20553024Y-10948063D01*
X20553024Y-11243722D01*
G37*
G36*
X24645438Y-12525700D02*
G01*
X24658225Y-12544095D01*
X24661306Y-12587027D01*
X24661322Y-12593249D01*
X24662228Y-12641261D01*
X24670352Y-12660510D01*
X24693805Y-12657946D01*
X24723847Y-12646833D01*
X24782337Y-12641461D01*
X24837001Y-12663917D01*
X24861998Y-12689699D01*
X24868500Y-12716307D01*
X24873281Y-12767865D01*
X24875373Y-12833607D01*
X24875395Y-12838854D01*
X24874936Y-12905596D01*
X24871459Y-12944267D01*
X24862341Y-12962520D01*
X24844960Y-12968007D01*
X24831013Y-12968354D01*
X24806720Y-12966230D01*
X24793349Y-12954394D01*
X24787649Y-12924653D01*
X24786369Y-12868813D01*
X24786358Y-12855823D01*
X24780742Y-12772841D01*
X24764402Y-12721321D01*
X24738096Y-12702259D01*
X24702582Y-12716652D01*
X24689391Y-12728491D01*
X24670068Y-12767284D01*
X24661771Y-12835829D01*
X24661322Y-12862457D01*
X24660350Y-12921414D01*
X24655061Y-12953091D01*
X24641897Y-12965926D01*
X24617301Y-12968354D01*
X24616667Y-12968354D01*
X24572012Y-12968354D01*
X24572012Y-12745077D01*
X24572012Y-12521800D01*
X24616667Y-12521800D01*
X24645438Y-12525700D01*
G37*
G36*
X18248805Y-11048583D02*
G01*
X18248805Y-11147237D01*
X18293381Y-11118029D01*
X18353741Y-11098138D01*
X18420999Y-11106265D01*
X18482955Y-11140238D01*
X18498087Y-11154506D01*
X18535352Y-11217277D01*
X18550530Y-11294793D01*
X18544813Y-11376392D01*
X18519396Y-11451413D01*
X18475473Y-11509197D01*
X18456844Y-11522835D01*
X18401826Y-11550295D01*
X18355913Y-11553689D01*
X18302423Y-11533673D01*
X18293818Y-11529268D01*
X18252127Y-11513480D01*
X18234277Y-11520447D01*
X18213877Y-11534024D01*
X18175868Y-11539381D01*
X18123770Y-11539381D01*
X18123770Y-11308759D01*
X18248805Y-11308759D01*
X18256258Y-11384155D01*
X18279921Y-11429886D01*
X18321746Y-11449043D01*
X18338116Y-11450070D01*
X18388272Y-11437391D01*
X18408936Y-11415520D01*
X18421003Y-11375366D01*
X18427205Y-11320310D01*
X18427426Y-11308759D01*
X18421967Y-11255145D01*
X18401285Y-11221500D01*
X18382771Y-11207289D01*
X18347811Y-11188389D01*
X18320323Y-11191446D01*
X18293460Y-11207289D01*
X18262517Y-11236392D01*
X18250091Y-11277977D01*
X18248805Y-11308759D01*
X18123770Y-11308759D01*
X18123770Y-11244655D01*
X18123770Y-10949930D01*
X18186287Y-10949930D01*
X18248805Y-10949930D01*
X18248805Y-11048583D01*
G37*
G36*
X23708973Y-12648116D02*
G01*
X23722099Y-12656539D01*
X23729120Y-12678980D01*
X23731946Y-12722313D01*
X23732488Y-12793413D01*
X23732490Y-12807595D01*
X23732134Y-12883696D01*
X23729794Y-12930947D01*
X23723561Y-12956222D01*
X23711524Y-12966398D01*
X23691774Y-12968347D01*
X23687834Y-12968354D01*
X23654260Y-12962600D01*
X23643179Y-12951552D01*
X23629758Y-12947041D01*
X23597140Y-12958798D01*
X23594058Y-12960373D01*
X23556438Y-12978797D01*
X23532832Y-12983077D01*
X23505657Y-12975734D01*
X23500282Y-12973821D01*
X23464548Y-12951555D01*
X23442262Y-12911510D01*
X23431168Y-12847482D01*
X23428833Y-12777388D01*
X23429425Y-12710313D01*
X23432940Y-12671340D01*
X23441983Y-12652847D01*
X23459163Y-12647214D01*
X23473488Y-12646835D01*
X23497782Y-12648960D01*
X23511152Y-12660795D01*
X23516852Y-12690536D01*
X23518132Y-12746377D01*
X23518144Y-12759367D01*
X23523759Y-12842349D01*
X23540099Y-12893869D01*
X23566405Y-12912931D01*
X23601919Y-12898538D01*
X23615110Y-12886699D01*
X23634433Y-12847906D01*
X23642730Y-12779361D01*
X23643179Y-12752733D01*
X23644151Y-12693776D01*
X23649441Y-12662099D01*
X23662604Y-12649264D01*
X23687200Y-12646836D01*
X23687834Y-12646835D01*
X23708973Y-12648116D01*
G37*
G36*
X20962572Y-10950433D02*
G01*
X21021775Y-10952876D01*
X21060671Y-10958660D01*
X21086964Y-10969186D01*
X21108362Y-10985855D01*
X21116494Y-10993773D01*
X21152130Y-11052076D01*
X21160422Y-11119934D01*
X21143725Y-11187043D01*
X21104392Y-11243102D01*
X21052150Y-11275390D01*
X21040231Y-11287283D01*
X21051726Y-11311144D01*
X21072650Y-11336081D01*
X21106490Y-11378094D01*
X21142205Y-11428972D01*
X21173137Y-11478356D01*
X21192626Y-11515885D01*
X21196062Y-11528093D01*
X21180270Y-11535316D01*
X21141116Y-11539069D01*
X21129079Y-11539225D01*
X21092472Y-11536777D01*
X21064952Y-11525207D01*
X21038114Y-11497868D01*
X21003552Y-11448113D01*
X20992726Y-11431403D01*
X20941221Y-11358207D01*
X20897827Y-11313448D01*
X20857252Y-11292450D01*
X20831878Y-11289311D01*
X20816408Y-11297566D01*
X20806634Y-11326567D01*
X20800845Y-11382673D01*
X20799445Y-11409880D01*
X20794163Y-11530450D01*
X20736111Y-11536047D01*
X20678059Y-11541645D01*
X20678059Y-11245787D01*
X20678059Y-11127991D01*
X20803094Y-11127991D01*
X20804791Y-11173959D01*
X20816565Y-11194476D01*
X20848444Y-11199813D01*
X20873380Y-11200000D01*
X20932946Y-11195326D01*
X20985683Y-11183895D01*
X20990670Y-11182129D01*
X21025160Y-11160807D01*
X21032952Y-11125768D01*
X21032023Y-11115146D01*
X21023946Y-11083956D01*
X21002306Y-11065591D01*
X20957170Y-11052746D01*
X20943424Y-11049998D01*
X20873478Y-11040532D01*
X20830783Y-11047449D01*
X20809331Y-11074086D01*
X20803114Y-11123782D01*
X20803094Y-11127991D01*
X20678059Y-11127991D01*
X20678059Y-10949930D01*
X20875355Y-10949930D01*
X20962572Y-10950433D01*
G37*
G36*
X22642898Y-12602180D02*
G01*
X22642898Y-12682560D01*
X22714346Y-12682560D01*
X22785795Y-12682560D01*
X22785795Y-12602180D01*
X22785795Y-12521800D01*
X22857244Y-12521800D01*
X22928692Y-12521800D01*
X22928692Y-12745077D01*
X22928692Y-12968354D01*
X22857244Y-12968354D01*
X22785795Y-12968354D01*
X22785795Y-12879044D01*
X22785795Y-12789733D01*
X22714346Y-12789733D01*
X22642898Y-12789733D01*
X22642898Y-12879044D01*
X22642898Y-12968354D01*
X22572119Y-12968354D01*
X22501341Y-12968354D01*
X22496205Y-12803129D01*
X22491069Y-12637904D01*
X22428552Y-12637904D01*
X22366034Y-12637904D01*
X22360898Y-12803129D01*
X22355762Y-12968354D01*
X22293915Y-12968354D01*
X22232068Y-12968354D01*
X22232068Y-12808649D01*
X22230524Y-12736748D01*
X22226395Y-12679437D01*
X22220431Y-12645330D01*
X22217332Y-12639836D01*
X22194008Y-12634556D01*
X22143877Y-12628043D01*
X22075778Y-12621359D01*
X22038710Y-12618357D01*
X21961793Y-12612932D01*
X21913714Y-12611501D01*
X21887706Y-12615135D01*
X21877001Y-12624902D01*
X21874832Y-12641874D01*
X21874824Y-12644273D01*
X21878092Y-12665490D01*
X21893383Y-12677003D01*
X21928929Y-12681720D01*
X21983184Y-12682560D01*
X22042834Y-12683244D01*
X22074692Y-12687826D01*
X22086692Y-12700100D01*
X22086765Y-12723860D01*
X22085891Y-12731681D01*
X22080201Y-12759519D01*
X22065274Y-12774891D01*
X22032042Y-12782356D01*
X21977532Y-12786159D01*
X21918809Y-12790887D01*
X21887661Y-12799349D01*
X21875943Y-12814732D01*
X21874824Y-12826349D01*
X21878682Y-12845228D01*
X21895489Y-12855754D01*
X21933098Y-12860284D01*
X21990929Y-12861181D01*
X22107033Y-12861181D01*
X22107033Y-12914768D01*
X22107033Y-12968354D01*
X21919480Y-12968354D01*
X21731927Y-12968354D01*
X21731927Y-12745077D01*
X21731927Y-12521800D01*
X22187412Y-12521800D01*
X22642898Y-12521800D01*
X22642898Y-12602180D01*
G37*
G36*
X22549370Y-7284468D02*
G01*
X22567002Y-7304695D01*
X22573257Y-7306048D01*
X22580435Y-7309289D01*
X22596962Y-7319670D01*
X22624186Y-7338178D01*
X22663451Y-7365800D01*
X22716103Y-7403523D01*
X22783487Y-7452333D01*
X22866949Y-7513218D01*
X22967834Y-7587164D01*
X23087487Y-7675158D01*
X23227255Y-7778187D01*
X23388482Y-7897238D01*
X23572514Y-8033298D01*
X23780697Y-8187353D01*
X24014376Y-8360391D01*
X24274896Y-8553398D01*
X24375528Y-8627970D01*
X24533892Y-8745307D01*
X24710304Y-8875970D01*
X24905950Y-9020839D01*
X25122019Y-9180793D01*
X25359698Y-9356709D01*
X25620175Y-9549468D01*
X25904636Y-9759948D01*
X26214271Y-9989028D01*
X26550266Y-10237587D01*
X26911955Y-10505133D01*
X27061021Y-10615354D01*
X27204652Y-10721481D01*
X27339664Y-10821164D01*
X27462873Y-10912057D01*
X27571095Y-10991812D01*
X27661145Y-11058082D01*
X27729840Y-11108519D01*
X27773995Y-11140776D01*
X27782215Y-11146726D01*
X27835149Y-11186220D01*
X27874542Y-11218183D01*
X27893231Y-11236738D01*
X27893854Y-11238316D01*
X27889193Y-11245028D01*
X27873481Y-11259197D01*
X27844598Y-11282399D01*
X27800424Y-11316212D01*
X27738839Y-11362213D01*
X27657723Y-11421978D01*
X27554956Y-11497086D01*
X27428419Y-11589112D01*
X27275991Y-11699635D01*
X27193284Y-11759518D01*
X27093290Y-11831901D01*
X26992265Y-11905051D01*
X26886880Y-11981378D01*
X26773808Y-12063295D01*
X26649721Y-12153213D01*
X26511293Y-12253543D01*
X26355195Y-12366697D01*
X26178099Y-12495086D01*
X25976678Y-12641122D01*
X25892989Y-12701801D01*
X25547399Y-12952337D01*
X25215557Y-13192831D01*
X24898421Y-13422588D01*
X24596951Y-13640916D01*
X24312107Y-13847122D01*
X24044848Y-14040513D01*
X23796135Y-14220394D01*
X23566926Y-14386074D01*
X23358181Y-14536858D01*
X23170860Y-14672054D01*
X23005923Y-14790968D01*
X22864329Y-14892907D01*
X22747037Y-14977178D01*
X22655008Y-15043088D01*
X22589201Y-15089944D01*
X22550575Y-15117051D01*
X22539898Y-15124051D01*
X22521769Y-15115199D01*
X22479902Y-15088602D01*
X22419355Y-15047658D01*
X22345185Y-14995767D01*
X22285654Y-14953151D01*
X22235323Y-14916937D01*
X22157982Y-14861492D01*
X22055722Y-14788306D01*
X21930635Y-14698871D01*
X21784810Y-14594677D01*
X21620339Y-14477215D01*
X21439313Y-14347976D01*
X21243821Y-14208450D01*
X21035956Y-14060130D01*
X20817808Y-13904504D01*
X20591466Y-13743066D01*
X20359024Y-13577304D01*
X20122570Y-13408711D01*
X19884196Y-13238776D01*
X19645992Y-13068992D01*
X19410050Y-12900848D01*
X19178459Y-12735835D01*
X18953312Y-12575445D01*
X18736698Y-12421169D01*
X18530708Y-12274496D01*
X18337434Y-12136918D01*
X18158965Y-12009926D01*
X17997393Y-11895011D01*
X17861129Y-11798155D01*
X17715909Y-11694795D01*
X17579857Y-11597622D01*
X17455692Y-11508599D01*
X17346132Y-11429692D01*
X17253896Y-11362868D01*
X17181702Y-11310090D01*
X17132268Y-11273325D01*
X17108315Y-11254538D01*
X17106453Y-11252566D01*
X17107906Y-11250950D01*
X17282564Y-11250950D01*
X18993441Y-12471361D01*
X19236334Y-12644645D01*
X19485977Y-12822785D01*
X19739064Y-13003420D01*
X19992287Y-13184189D01*
X20242343Y-13362731D01*
X20485924Y-13536685D01*
X20719725Y-13703689D01*
X20940440Y-13861383D01*
X21144764Y-14007405D01*
X21329389Y-14139394D01*
X21491010Y-14254990D01*
X21606625Y-14337729D01*
X21766240Y-14451754D01*
X21917591Y-14559409D01*
X22058133Y-14658911D01*
X22185317Y-14748481D01*
X22296596Y-14826336D01*
X22389424Y-14890695D01*
X22461253Y-14939778D01*
X22509536Y-14971804D01*
X22531727Y-14984991D01*
X22532604Y-14985232D01*
X22554563Y-14975717D01*
X22599648Y-14948451D01*
X22662342Y-14907029D01*
X22737126Y-14855045D01*
X22782674Y-14822337D01*
X22848189Y-14774761D01*
X22918822Y-14723489D01*
X22996133Y-14667391D01*
X23081683Y-14605335D01*
X23177034Y-14536190D01*
X23283746Y-14458825D01*
X23403380Y-14372110D01*
X23537497Y-14274911D01*
X23687657Y-14166100D01*
X23855423Y-14044544D01*
X24042355Y-13909112D01*
X24250013Y-13758673D01*
X24479959Y-13592096D01*
X24733753Y-13408251D01*
X25012957Y-13206005D01*
X25319131Y-12984227D01*
X25402602Y-12923765D01*
X25730752Y-12686069D01*
X26030696Y-12468795D01*
X26303164Y-12271415D01*
X26548887Y-12093398D01*
X26768594Y-11934218D01*
X26963016Y-11793343D01*
X27132881Y-11670246D01*
X27278921Y-11564398D01*
X27401865Y-11475269D01*
X27502444Y-11402330D01*
X27581386Y-11345052D01*
X27639423Y-11302907D01*
X27677284Y-11275366D01*
X27679788Y-11273540D01*
X27724204Y-11241159D01*
X27292824Y-10921388D01*
X27158602Y-10821917D01*
X27004963Y-10708095D01*
X26841212Y-10586815D01*
X26676655Y-10464968D01*
X26520598Y-10349446D01*
X26399956Y-10260167D01*
X26305350Y-10190160D01*
X26185827Y-10101699D01*
X26045178Y-9997590D01*
X25887194Y-9880642D01*
X25715667Y-9753660D01*
X25534389Y-9619451D01*
X25347150Y-9480823D01*
X25157742Y-9340582D01*
X24969957Y-9201534D01*
X24893531Y-9144941D01*
X24589164Y-8919575D01*
X24312190Y-8714540D01*
X24061308Y-8528888D01*
X23835215Y-8361672D01*
X23632608Y-8211945D01*
X23452185Y-8078759D01*
X23292643Y-7961166D01*
X23152681Y-7858220D01*
X23030996Y-7768972D01*
X22926285Y-7692475D01*
X22837247Y-7627781D01*
X22762578Y-7573944D01*
X22700976Y-7530016D01*
X22651140Y-7495048D01*
X22611766Y-7468094D01*
X22581553Y-7448206D01*
X22559197Y-7434437D01*
X22543397Y-7425839D01*
X22532850Y-7421465D01*
X22526254Y-7420367D01*
X22523697Y-7420869D01*
X22515714Y-7425422D01*
X22498708Y-7436699D01*
X22471457Y-7455591D01*
X22432736Y-7482988D01*
X22381320Y-7519781D01*
X22315987Y-7566862D01*
X22235512Y-7625121D01*
X22138672Y-7695449D01*
X22024242Y-7778737D01*
X21890999Y-7875876D01*
X21737720Y-7987756D01*
X21563179Y-8115270D01*
X21366153Y-8259307D01*
X21145419Y-8420760D01*
X20899753Y-8600517D01*
X20627930Y-8799471D01*
X20328727Y-9018513D01*
X20276161Y-9057000D01*
X20205727Y-9108558D01*
X20109417Y-9179041D01*
X19990188Y-9266287D01*
X19850997Y-9368130D01*
X19694803Y-9482407D01*
X19524563Y-9606953D01*
X19343236Y-9739605D01*
X19153779Y-9878199D01*
X18959150Y-10020571D01*
X18762308Y-10164556D01*
X18677497Y-10226591D01*
X18488899Y-10364564D01*
X18307246Y-10497500D01*
X18134795Y-10623746D01*
X17973801Y-10741650D01*
X17826519Y-10849558D01*
X17695205Y-10945816D01*
X17582115Y-11028772D01*
X17489503Y-11096771D01*
X17419627Y-11148162D01*
X17374740Y-11181290D01*
X17359320Y-11192786D01*
X17282564Y-11250950D01*
X17107906Y-11250950D01*
X17119452Y-11238113D01*
X17154636Y-11208796D01*
X17205016Y-11170367D01*
X17217265Y-11161392D01*
X17270382Y-11122685D01*
X17348524Y-11065654D01*
X17447893Y-10993079D01*
X17564687Y-10907738D01*
X17695107Y-10812411D01*
X17835353Y-10709876D01*
X17981624Y-10602913D01*
X18130121Y-10494299D01*
X18277044Y-10386814D01*
X18418591Y-10283237D01*
X18550965Y-10186347D01*
X18670363Y-10098922D01*
X18772988Y-10023741D01*
X18775739Y-10021725D01*
X19065550Y-9809389D01*
X19356247Y-9596521D01*
X19651780Y-9380231D01*
X19956100Y-9157629D01*
X20273160Y-8925825D01*
X20606912Y-8681929D01*
X20961306Y-8423052D01*
X21340294Y-8146305D01*
X21374684Y-8121196D01*
X21552121Y-7991612D01*
X21721511Y-7867832D01*
X21880591Y-7751514D01*
X22027097Y-7644317D01*
X22158765Y-7547900D01*
X22273329Y-7463922D01*
X22368528Y-7394042D01*
X22442096Y-7339918D01*
X22491769Y-7303210D01*
X22515284Y-7285576D01*
X22516623Y-7284506D01*
X22539261Y-7271879D01*
X22549370Y-7284468D01*
G37*
G36*
X22595340Y-7525509D02*
G01*
X22618225Y-7542580D01*
X22667570Y-7579224D01*
X22741117Y-7633766D01*
X22836605Y-7704533D01*
X22951776Y-7789851D01*
X23084369Y-7888048D01*
X23232125Y-7997449D01*
X23392785Y-8116381D01*
X23564089Y-8243171D01*
X23743778Y-8376144D01*
X23830732Y-8440485D01*
X24018850Y-8579681D01*
X24203493Y-8716317D01*
X24381946Y-8848383D01*
X24551492Y-8973868D01*
X24709416Y-9090762D01*
X24853002Y-9197053D01*
X24979533Y-9290733D01*
X25086293Y-9369789D01*
X25170566Y-9432212D01*
X25229637Y-9475992D01*
X25241843Y-9485045D01*
X25295557Y-9524844D01*
X25375019Y-9583646D01*
X25477233Y-9659238D01*
X25599204Y-9749407D01*
X25737938Y-9851939D01*
X25890439Y-9964621D01*
X26053713Y-10085240D01*
X26224764Y-10211582D01*
X26400599Y-10341435D01*
X26510057Y-10422258D01*
X26680787Y-10548400D01*
X26843594Y-10668849D01*
X26996118Y-10781849D01*
X27135999Y-10885645D01*
X27260878Y-10978481D01*
X27368396Y-11058601D01*
X27456192Y-11124249D01*
X27521907Y-11173670D01*
X27563182Y-11205108D01*
X27577185Y-11216285D01*
X27580858Y-11221929D01*
X27580217Y-11229760D01*
X27573672Y-11240986D01*
X27559630Y-11256817D01*
X27536502Y-11278461D01*
X27502695Y-11307125D01*
X27456618Y-11344020D01*
X27396681Y-11390352D01*
X27321291Y-11447331D01*
X27228858Y-11516165D01*
X27117790Y-11598063D01*
X26986497Y-11694233D01*
X26833386Y-11805884D01*
X26656866Y-11934224D01*
X26455347Y-12080461D01*
X26227237Y-12245805D01*
X26104661Y-12334608D01*
X25889385Y-12490555D01*
X25676005Y-12645133D01*
X25467090Y-12796481D01*
X25265211Y-12942735D01*
X25072938Y-13082035D01*
X24892840Y-13212518D01*
X24727488Y-13332323D01*
X24579452Y-13439586D01*
X24451301Y-13532447D01*
X24345606Y-13609043D01*
X24264936Y-13667513D01*
X24233735Y-13690132D01*
X24125894Y-13768293D01*
X24020770Y-13844430D01*
X23924002Y-13914465D01*
X23841228Y-13974319D01*
X23778085Y-14019911D01*
X23750352Y-14039886D01*
X23690764Y-14082819D01*
X23612095Y-14139639D01*
X23524170Y-14203242D01*
X23436817Y-14266524D01*
X23428833Y-14272314D01*
X23224615Y-14420291D01*
X23045765Y-14549633D01*
X22892779Y-14659986D01*
X22766148Y-14750996D01*
X22666366Y-14822309D01*
X22593928Y-14873571D01*
X22549325Y-14904428D01*
X22533064Y-14914530D01*
X22517658Y-14904309D01*
X22476338Y-14875481D01*
X22412222Y-14830259D01*
X22328426Y-14770852D01*
X22228069Y-14699473D01*
X22114267Y-14618334D01*
X21990139Y-14529645D01*
X21946273Y-14498261D01*
X21854091Y-14432329D01*
X21735469Y-14347552D01*
X21593061Y-14245824D01*
X21429516Y-14129037D01*
X21247486Y-13999082D01*
X21049623Y-13857852D01*
X20838578Y-13707240D01*
X20617002Y-13549137D01*
X20387546Y-13385436D01*
X20152863Y-13218029D01*
X19915603Y-13048809D01*
X19678418Y-12879667D01*
X19615260Y-12834632D01*
X19387155Y-12671981D01*
X19163973Y-12512833D01*
X18947804Y-12358678D01*
X18740738Y-12211007D01*
X18544863Y-12071310D01*
X18362270Y-11941078D01*
X18195048Y-11821800D01*
X18045287Y-11714968D01*
X17915075Y-11622071D01*
X17806503Y-11544601D01*
X17721659Y-11484046D01*
X17662634Y-11441899D01*
X17641491Y-11426788D01*
X17564350Y-11370468D01*
X17498749Y-11320379D01*
X17449717Y-11280536D01*
X17422281Y-11254952D01*
X17418214Y-11248512D01*
X17429278Y-11236167D01*
X17474664Y-11236167D01*
X17486766Y-11248193D01*
X17526065Y-11279477D01*
X17590625Y-11328602D01*
X17678507Y-11394154D01*
X17787773Y-11474718D01*
X17916487Y-11568878D01*
X18062709Y-11675219D01*
X18224503Y-11792327D01*
X18399930Y-11918786D01*
X18587053Y-12053182D01*
X18783933Y-12194098D01*
X18894707Y-12273178D01*
X19128606Y-12440006D01*
X19376932Y-12617124D01*
X19635112Y-12801272D01*
X19898574Y-12989188D01*
X20162745Y-13177611D01*
X20423052Y-13363279D01*
X20674925Y-13542932D01*
X20913789Y-13713307D01*
X21135073Y-13871144D01*
X21334204Y-14013181D01*
X21426799Y-14079227D01*
X21602874Y-14204702D01*
X21770540Y-14323955D01*
X21927525Y-14435384D01*
X22071555Y-14537387D01*
X22200357Y-14628359D01*
X22311657Y-14706699D01*
X22403182Y-14770803D01*
X22472658Y-14819069D01*
X22517812Y-14849893D01*
X22536370Y-14861672D01*
X22536644Y-14861744D01*
X22554145Y-14851700D01*
X22596298Y-14823521D01*
X22658903Y-14780137D01*
X22737757Y-14724478D01*
X22828660Y-14659474D01*
X22886427Y-14617791D01*
X22990842Y-14542206D01*
X23116690Y-14451110D01*
X23256461Y-14349937D01*
X23402650Y-14244123D01*
X23547748Y-14139100D01*
X23684246Y-14040305D01*
X23696765Y-14031244D01*
X23837010Y-13929714D01*
X23991046Y-13818159D01*
X24150299Y-13702789D01*
X24306199Y-13589815D01*
X24450172Y-13485449D01*
X24572012Y-13397087D01*
X24691155Y-13310680D01*
X24831435Y-13208991D01*
X24985044Y-13097675D01*
X25144175Y-12982389D01*
X25301019Y-12868790D01*
X25447770Y-12762536D01*
X25482982Y-12737047D01*
X25773519Y-12526727D01*
X26036386Y-12336383D01*
X26272875Y-12165073D01*
X26484275Y-12011856D01*
X26671877Y-11875789D01*
X26836972Y-11755930D01*
X26980850Y-11651338D01*
X27104801Y-11561070D01*
X27210116Y-11484185D01*
X27298085Y-11419741D01*
X27369999Y-11366796D01*
X27427149Y-11324408D01*
X27470824Y-11291635D01*
X27502315Y-11267536D01*
X27522913Y-11251168D01*
X27533908Y-11241589D01*
X27536667Y-11238056D01*
X27522930Y-11223396D01*
X27486400Y-11193238D01*
X27433455Y-11152705D01*
X27398235Y-11126822D01*
X27363766Y-11101619D01*
X27302580Y-11056622D01*
X27216664Y-10993302D01*
X27108009Y-10913131D01*
X26978604Y-10817579D01*
X26830435Y-10708117D01*
X26665494Y-10586216D01*
X26485768Y-10453346D01*
X26293246Y-10310980D01*
X26089918Y-10160587D01*
X25877771Y-10003639D01*
X25658795Y-9841607D01*
X25434978Y-9675961D01*
X25208310Y-9508173D01*
X24980779Y-9339712D01*
X24754374Y-9172051D01*
X24531084Y-9006661D01*
X24312897Y-8845011D01*
X24250493Y-8798769D01*
X24032321Y-8637113D01*
X23835658Y-8491432D01*
X23653326Y-8356415D01*
X23478145Y-8226746D01*
X23302937Y-8097114D01*
X23120522Y-7962203D01*
X22923723Y-7816702D01*
X22878713Y-7783429D01*
X22783288Y-7713810D01*
X22696839Y-7652486D01*
X22623638Y-7602345D01*
X22567956Y-7566276D01*
X22534064Y-7547166D01*
X22526097Y-7544983D01*
X22507212Y-7557104D01*
X22463281Y-7587757D01*
X22398010Y-7634279D01*
X22315109Y-7694005D01*
X22218287Y-7764271D01*
X22111252Y-7842413D01*
X22070002Y-7872641D01*
X22002988Y-7921765D01*
X21909230Y-7990439D01*
X21790822Y-8077132D01*
X21649859Y-8180309D01*
X21488436Y-8298440D01*
X21308648Y-8429990D01*
X21112590Y-8573427D01*
X20902358Y-8727220D01*
X20680045Y-8889834D01*
X20447748Y-9059738D01*
X20207560Y-9235399D01*
X19961577Y-9415284D01*
X19711895Y-9597861D01*
X19561674Y-9707700D01*
X19319377Y-9884877D01*
X19084916Y-10056357D01*
X18859919Y-10220950D01*
X18646011Y-10377463D01*
X18444818Y-10524706D01*
X18257967Y-10661489D01*
X18087084Y-10786619D01*
X17933796Y-10898906D01*
X17799728Y-10997159D01*
X17686507Y-11080187D01*
X17595759Y-11146799D01*
X17529111Y-11195803D01*
X17488188Y-11226010D01*
X17474664Y-11236167D01*
X17429278Y-11236167D01*
X17432036Y-11233089D01*
X17470794Y-11199999D01*
X17530430Y-11152440D01*
X17606885Y-11093612D01*
X17696099Y-11026715D01*
X17749715Y-10987216D01*
X17827002Y-10930638D01*
X17929182Y-10855847D01*
X18052319Y-10765723D01*
X18192474Y-10663150D01*
X18345711Y-10551007D01*
X18508091Y-10432177D01*
X18675677Y-10309541D01*
X18844532Y-10185980D01*
X18946480Y-10111382D01*
X19117137Y-9986507D01*
X19291288Y-9859073D01*
X19464635Y-9732225D01*
X19632883Y-9609105D01*
X19791737Y-9492857D01*
X19936900Y-9386626D01*
X20064078Y-9293553D01*
X20168974Y-9216784D01*
X20213643Y-9184090D01*
X20601141Y-8900483D01*
X20962609Y-8635952D01*
X21300833Y-8388458D01*
X21618601Y-8155963D01*
X21918699Y-7936427D01*
X22032682Y-7853051D01*
X22538851Y-7482814D01*
X22595340Y-7525509D01*
G37*
G36*
X21540571Y-9582490D02*
G01*
X21547438Y-9628032D01*
X21552046Y-9695863D01*
X21553305Y-9763150D01*
X21554671Y-9839905D01*
X21558361Y-9901324D01*
X21563768Y-9940007D01*
X21568617Y-9949648D01*
X21574221Y-9966557D01*
X21580376Y-10013503D01*
X21586581Y-10084812D01*
X21592334Y-10174813D01*
X21596693Y-10266702D01*
X21601714Y-10370127D01*
X21607767Y-10461371D01*
X21614318Y-10534349D01*
X21620832Y-10582977D01*
X21626036Y-10600724D01*
X21639272Y-10630410D01*
X21643872Y-10663242D01*
X21645996Y-10693165D01*
X21652221Y-10689722D01*
X21659285Y-10673066D01*
X21667772Y-10667240D01*
X21675912Y-10694629D01*
X21683967Y-10756309D01*
X21686674Y-10784615D01*
X21694253Y-10850664D01*
X21702995Y-10899153D01*
X21711386Y-10922427D01*
X21714044Y-10923149D01*
X21731532Y-10928756D01*
X21737966Y-10939902D01*
X21757817Y-10954634D01*
X21788960Y-10947011D01*
X21820894Y-10922984D01*
X21843113Y-10888504D01*
X21845969Y-10878718D01*
X21863614Y-10784499D01*
X21880370Y-10672642D01*
X21885233Y-10634747D01*
X21897491Y-10581070D01*
X21919719Y-10555139D01*
X21929225Y-10551574D01*
X21948564Y-10541646D01*
X21959197Y-10518967D01*
X21963578Y-10474961D01*
X21964235Y-10429134D01*
X21967927Y-10349177D01*
X21977711Y-10276970D01*
X21991859Y-10220371D01*
X22008645Y-10187235D01*
X22018561Y-10181857D01*
X22027460Y-10198099D01*
X22033621Y-10240388D01*
X22035584Y-10291217D01*
X22036632Y-10350417D01*
X22041013Y-10379955D01*
X22050582Y-10385865D01*
X22062377Y-10378340D01*
X22081314Y-10341740D01*
X22091115Y-10271429D01*
X22092173Y-10246653D01*
X22094260Y-10194560D01*
X22096839Y-10177295D01*
X22100131Y-10193961D01*
X22101584Y-10208650D01*
X22109753Y-10264447D01*
X22121635Y-10310027D01*
X22123969Y-10315823D01*
X22132988Y-10350524D01*
X22142009Y-10409043D01*
X22149248Y-10479517D01*
X22149960Y-10488862D01*
X22164193Y-10596093D01*
X22188649Y-10675748D01*
X22196021Y-10690355D01*
X22219644Y-10744936D01*
X22231678Y-10797237D01*
X22232068Y-10805394D01*
X22243623Y-10878081D01*
X22273923Y-10945533D01*
X22316419Y-10994529D01*
X22330156Y-11003434D01*
X22365460Y-11018959D01*
X22384792Y-11014247D01*
X22393715Y-11002691D01*
X22408422Y-10969331D01*
X22410416Y-10957509D01*
X22422578Y-10933197D01*
X22451848Y-10899687D01*
X22455345Y-10896343D01*
X22493066Y-10839674D01*
X22500000Y-10794988D01*
X22504704Y-10754919D01*
X22516197Y-10735842D01*
X22517862Y-10735584D01*
X22531419Y-10720334D01*
X22535725Y-10692091D01*
X22542611Y-10642557D01*
X22556093Y-10598315D01*
X22576462Y-10548031D01*
X22588361Y-10592686D01*
X22600260Y-10637342D01*
X22614238Y-10592686D01*
X22628216Y-10548031D01*
X22642707Y-10592686D01*
X22652096Y-10617622D01*
X22656720Y-10613283D01*
X22658806Y-10576615D01*
X22658979Y-10570359D01*
X22663272Y-10522483D01*
X22671583Y-10505268D01*
X22682225Y-10514108D01*
X22693509Y-10544398D01*
X22703748Y-10591532D01*
X22711254Y-10650905D01*
X22714338Y-10717912D01*
X22714346Y-10721418D01*
X22718353Y-10757511D01*
X22734533Y-10766177D01*
X22747709Y-10763126D01*
X22768209Y-10761664D01*
X22780906Y-10778604D01*
X22790038Y-10821360D01*
X22792980Y-10842302D01*
X22802828Y-10893331D01*
X22815019Y-10925850D01*
X22822134Y-10932068D01*
X22836241Y-10947003D01*
X22839381Y-10967096D01*
X22854955Y-11010633D01*
X22893442Y-11049181D01*
X22942488Y-11072044D01*
X22963319Y-11074397D01*
X23016960Y-11062511D01*
X23056755Y-11033568D01*
X23071590Y-10997081D01*
X23086440Y-10972613D01*
X23107314Y-10967792D01*
X23136855Y-10956060D01*
X23143038Y-10939723D01*
X23152760Y-10905802D01*
X23175094Y-10879129D01*
X23199796Y-10868794D01*
X23213630Y-10877094D01*
X23226956Y-10884472D01*
X23237600Y-10860332D01*
X23252217Y-10833244D01*
X23270343Y-10838271D01*
X23287972Y-10872602D01*
X23295593Y-10901014D01*
X23309902Y-10956035D01*
X23323128Y-10978433D01*
X23337251Y-10971177D01*
X23339802Y-10967339D01*
X23353640Y-10960625D01*
X23366548Y-10986387D01*
X23380508Y-11021271D01*
X23402853Y-11055656D01*
X23441422Y-11101179D01*
X23451161Y-11111969D01*
X23496370Y-11138516D01*
X23558055Y-11147408D01*
X23621681Y-11138729D01*
X23672713Y-11112562D01*
X23674788Y-11110689D01*
X23711321Y-11084559D01*
X23739661Y-11074965D01*
X23768926Y-11061576D01*
X23794824Y-11034775D01*
X23816615Y-11007993D01*
X23830422Y-11009308D01*
X23841818Y-11026627D01*
X23870845Y-11049739D01*
X23895828Y-11047353D01*
X23926846Y-11047477D01*
X23941241Y-11073363D01*
X23955635Y-11103170D01*
X23967504Y-11110689D01*
X23991730Y-11120473D01*
X24029588Y-11144472D01*
X24035755Y-11148949D01*
X24069903Y-11169942D01*
X24106913Y-11179858D01*
X24159145Y-11180804D01*
X24204896Y-11177785D01*
X24268702Y-11170380D01*
X24319456Y-11160347D01*
X24344443Y-11150785D01*
X24379741Y-11133688D01*
X24427608Y-11122310D01*
X24474051Y-11118560D01*
X24505083Y-11124349D01*
X24509322Y-11128274D01*
X24544299Y-11155987D01*
X24606223Y-11177987D01*
X24686626Y-11193234D01*
X24777039Y-11200690D01*
X24868993Y-11199316D01*
X24954019Y-11188073D01*
X24968978Y-11184665D01*
X25048133Y-11177907D01*
X25154304Y-11190570D01*
X25156531Y-11190986D01*
X25196673Y-11196356D01*
X25257199Y-11200990D01*
X25340117Y-11204933D01*
X25447435Y-11208227D01*
X25581162Y-11210916D01*
X25743306Y-11213044D01*
X25935876Y-11214655D01*
X26160879Y-11215791D01*
X26322105Y-11216288D01*
X26550792Y-11217144D01*
X26755289Y-11218514D01*
X26933973Y-11220366D01*
X27085220Y-11222670D01*
X27207408Y-11225395D01*
X27298915Y-11228512D01*
X27358116Y-11231990D01*
X27383388Y-11235798D01*
X27384011Y-11236219D01*
X27392459Y-11247006D01*
X27393054Y-11256300D01*
X27383406Y-11264237D01*
X27361122Y-11270950D01*
X27323811Y-11276573D01*
X27269082Y-11281241D01*
X27194544Y-11285087D01*
X27097806Y-11288246D01*
X26976475Y-11290852D01*
X26828161Y-11293039D01*
X26650473Y-11294940D01*
X26441018Y-11296691D01*
X26285396Y-11297820D01*
X26088838Y-11299442D01*
X25900268Y-11301479D01*
X25723182Y-11303863D01*
X25561077Y-11306524D01*
X25417451Y-11309392D01*
X25295800Y-11312398D01*
X25199622Y-11315473D01*
X25132414Y-11318548D01*
X25098945Y-11321350D01*
X25015845Y-11328453D01*
X24952449Y-11323177D01*
X24941304Y-11320045D01*
X24898967Y-11312636D01*
X24834239Y-11309183D01*
X24760301Y-11310331D01*
X24751942Y-11310779D01*
X24668278Y-11318468D01*
X24609550Y-11331743D01*
X24565091Y-11353234D01*
X24556806Y-11358868D01*
X24519075Y-11380988D01*
X24501308Y-11380676D01*
X24500563Y-11377070D01*
X24490964Y-11368507D01*
X24468167Y-11384540D01*
X24435769Y-11402322D01*
X24419046Y-11397342D01*
X24389745Y-11382606D01*
X24355175Y-11374620D01*
X24308314Y-11361282D01*
X24280387Y-11345471D01*
X24239823Y-11330356D01*
X24179394Y-11327631D01*
X24112145Y-11335788D01*
X24051121Y-11353318D01*
X24011548Y-11376560D01*
X23978128Y-11403268D01*
X23954616Y-11414185D01*
X23933757Y-11426666D01*
X23901550Y-11458136D01*
X23889264Y-11472237D01*
X23858237Y-11505723D01*
X23843153Y-11511279D01*
X23840143Y-11499191D01*
X23835330Y-11473152D01*
X23816374Y-11471496D01*
X23786889Y-11485360D01*
X23761665Y-11491717D01*
X23743039Y-11472780D01*
X23732310Y-11449635D01*
X23708572Y-11412736D01*
X23681403Y-11396518D01*
X23680309Y-11396484D01*
X23642759Y-11385816D01*
X23631216Y-11377376D01*
X23596697Y-11364987D01*
X23547152Y-11370324D01*
X23496136Y-11389683D01*
X23457206Y-11419360D01*
X23451968Y-11426353D01*
X23424458Y-11454689D01*
X23400054Y-11460711D01*
X23380106Y-11469342D01*
X23365531Y-11512920D01*
X23364601Y-11517866D01*
X23345809Y-11577089D01*
X23317219Y-11618573D01*
X23284692Y-11636248D01*
X23258296Y-11627989D01*
X23238585Y-11617502D01*
X23232510Y-11636732D01*
X23232349Y-11645856D01*
X23225475Y-11675118D01*
X23208571Y-11675437D01*
X23187215Y-11650006D01*
X23169521Y-11609908D01*
X23154117Y-11575278D01*
X23142454Y-11569943D01*
X23140443Y-11573959D01*
X23124429Y-11589423D01*
X23104068Y-11579899D01*
X23090523Y-11552582D01*
X23089452Y-11541105D01*
X23078343Y-11506803D01*
X23051147Y-11464813D01*
X23046633Y-11459382D01*
X23011586Y-11426146D01*
X22978172Y-11417946D01*
X22952957Y-11422316D01*
X22889503Y-11447722D01*
X22859656Y-11483446D01*
X22857244Y-11499409D01*
X22844034Y-11531964D01*
X22828930Y-11547215D01*
X22809613Y-11579096D01*
X22795298Y-11643733D01*
X22788740Y-11701012D01*
X22779009Y-11774836D01*
X22766322Y-11817968D01*
X22751702Y-11828941D01*
X22736171Y-11806286D01*
X22729523Y-11786040D01*
X22721667Y-11763570D01*
X22717746Y-11772189D01*
X22716127Y-11803796D01*
X22704632Y-11857597D01*
X22678554Y-11914833D01*
X22672225Y-11924783D01*
X22639407Y-11962495D01*
X22613562Y-11966697D01*
X22593078Y-11936645D01*
X22578253Y-11881525D01*
X22566220Y-11842829D01*
X22552281Y-11825271D01*
X22551354Y-11825176D01*
X22540460Y-11809622D01*
X22535731Y-11772047D01*
X22535725Y-11770535D01*
X22531226Y-11735825D01*
X22520297Y-11725526D01*
X22519316Y-11726036D01*
X22504697Y-11718249D01*
X22491791Y-11685496D01*
X22491307Y-11683361D01*
X22471294Y-11632471D01*
X22436828Y-11578256D01*
X22396049Y-11530833D01*
X22357100Y-11500319D01*
X22339240Y-11494397D01*
X22310369Y-11505117D01*
X22284230Y-11545137D01*
X22275826Y-11564695D01*
X22253734Y-11612121D01*
X22233089Y-11644179D01*
X22227322Y-11649487D01*
X22217756Y-11671641D01*
X22208732Y-11720605D01*
X22201706Y-11787480D01*
X22199715Y-11818475D01*
X22192208Y-11907339D01*
X22180804Y-11969587D01*
X22167115Y-11999853D01*
X22147238Y-12013474D01*
X22142189Y-12009539D01*
X22133006Y-12010198D01*
X22115396Y-12029539D01*
X22098461Y-12072311D01*
X22089842Y-12139487D01*
X22089170Y-12166917D01*
X22086290Y-12224453D01*
X22078845Y-12266353D01*
X22071308Y-12280661D01*
X22058487Y-12304627D01*
X22052229Y-12347235D01*
X22052191Y-12348698D01*
X22049113Y-12384903D01*
X22043163Y-12391193D01*
X22035767Y-12373120D01*
X22028345Y-12336236D01*
X22022324Y-12286090D01*
X22019126Y-12228234D01*
X22018977Y-12219195D01*
X22017513Y-12158651D01*
X22013703Y-12128572D01*
X22005881Y-12123707D01*
X21993146Y-12137751D01*
X21975535Y-12157618D01*
X21961634Y-12153219D01*
X21942418Y-12120768D01*
X21939560Y-12115259D01*
X21919615Y-12050438D01*
X21910871Y-11957669D01*
X21910549Y-11933236D01*
X21908433Y-11871368D01*
X21902861Y-11826437D01*
X21894999Y-11807444D01*
X21894257Y-11807314D01*
X21881413Y-11791547D01*
X21869072Y-11752137D01*
X21865893Y-11735865D01*
X21854756Y-11691223D01*
X21841558Y-11666298D01*
X21837530Y-11664416D01*
X21822736Y-11650086D01*
X21821238Y-11639810D01*
X21808649Y-11608124D01*
X21795887Y-11594164D01*
X21771828Y-11583987D01*
X21751558Y-11605374D01*
X21734112Y-11626528D01*
X21718771Y-11616444D01*
X21716035Y-11612434D01*
X21706876Y-11608139D01*
X21698517Y-11627144D01*
X21690342Y-11672696D01*
X21681734Y-11748038D01*
X21673939Y-11834107D01*
X21662268Y-11875574D01*
X21642616Y-11887693D01*
X21630080Y-11894468D01*
X21620651Y-11918371D01*
X21613271Y-11964776D01*
X21606886Y-12039052D01*
X21603985Y-12084177D01*
X21594705Y-12216785D01*
X21584497Y-12318214D01*
X21572752Y-12393007D01*
X21558859Y-12445708D01*
X21553589Y-12459283D01*
X21547335Y-12489471D01*
X21540708Y-12547843D01*
X21534378Y-12626873D01*
X21529014Y-12719035D01*
X21527538Y-12751839D01*
X21521262Y-12873338D01*
X21513994Y-12961239D01*
X21505824Y-13015092D01*
X21496845Y-13034448D01*
X21487147Y-13018854D01*
X21479858Y-12986217D01*
X21475950Y-12981148D01*
X21472341Y-13007424D01*
X21469314Y-13060663D01*
X21467151Y-13136486D01*
X21466346Y-13195469D01*
X21465129Y-13299952D01*
X21463085Y-13374363D01*
X21459476Y-13424356D01*
X21453559Y-13455583D01*
X21444597Y-13473697D01*
X21431848Y-13484351D01*
X21428270Y-13486357D01*
X21422732Y-13488952D01*
X21417803Y-13489182D01*
X21413449Y-13485118D01*
X21409641Y-13474826D01*
X21406348Y-13456374D01*
X21403537Y-13427831D01*
X21401177Y-13387264D01*
X21399238Y-13332742D01*
X21397687Y-13262332D01*
X21396494Y-13174102D01*
X21395627Y-13066121D01*
X21395055Y-12936456D01*
X21394746Y-12783176D01*
X21394670Y-12604347D01*
X21394794Y-12398039D01*
X21395089Y-12162319D01*
X21395521Y-11895256D01*
X21396061Y-11594916D01*
X21396219Y-11508751D01*
X21396748Y-11248578D01*
X21397351Y-11001055D01*
X21398016Y-10768207D01*
X21398735Y-10552060D01*
X21399497Y-10354637D01*
X21400291Y-10177966D01*
X21401107Y-10024070D01*
X21401936Y-9894975D01*
X21402767Y-9792706D01*
X21403589Y-9719287D01*
X21404393Y-9676746D01*
X21405169Y-9667105D01*
X21405464Y-9672785D01*
X21410145Y-9763294D01*
X21416500Y-9824592D01*
X21423891Y-9855373D01*
X21431674Y-9854332D01*
X21439209Y-9820164D01*
X21445643Y-9754569D01*
X21454219Y-9679181D01*
X21466044Y-9631360D01*
X21479148Y-9612839D01*
X21491563Y-9625352D01*
X21501322Y-9670630D01*
X21504372Y-9702880D01*
X21507861Y-9749847D01*
X21510157Y-9766481D01*
X21511856Y-9751179D01*
X21513552Y-9702341D01*
X21514277Y-9676196D01*
X21518296Y-9606091D01*
X21524811Y-9568871D01*
X21532632Y-9561887D01*
X21540571Y-9582490D01*
G37*
D12*
%TO.C,U2*%
X12900000Y-23600000D02*
X12900000Y-23125000D01*
X13375000Y-19400000D02*
X12900000Y-19400000D01*
X13375000Y-23600000D02*
X12900000Y-23600000D01*
X16625000Y-19400000D02*
X17100000Y-19400000D01*
X16625000Y-23600000D02*
X17100000Y-23600000D01*
X17100000Y-19400000D02*
X17100000Y-19875000D01*
X17100000Y-23600000D02*
X17100000Y-23125000D01*
%TO.C,J5*%
X16336666Y-920000D02*
X24016666Y-920000D01*
X15066666Y-3580000D02*
X13736666Y-3580000D01*
X24016666Y-3580000D02*
X24016666Y-920000D01*
X16336666Y-3580000D02*
X16336666Y-920000D01*
X13736666Y-3580000D02*
X13736666Y-2250000D01*
X16336666Y-3580000D02*
X24016666Y-3580000D01*
%TO.C,J1*%
X6590000Y-21500000D02*
X7090000Y-21250000D01*
X7090000Y-21250000D02*
X7090000Y-21750000D01*
X7090000Y-21750000D02*
X6590000Y-21500000D01*
%TO.C,C3*%
X10261252Y-13265000D02*
X9738748Y-13265000D01*
X10261252Y-14735000D02*
X9738748Y-14735000D01*
%TO.C,C4*%
X13738748Y-15515000D02*
X14261252Y-15515000D01*
X13738748Y-16985000D02*
X14261252Y-16985000D01*
%TO.C,D1*%
X5760000Y-8600000D02*
X5760000Y-6900000D01*
X5760000Y-8600000D02*
X2500000Y-8600000D01*
X5760000Y-6900000D02*
X2500000Y-6900000D01*
%TO.C,J4*%
X9103333Y-920000D02*
X11703333Y-920000D01*
X11703333Y-3580000D02*
X11703333Y-920000D01*
X9103333Y-3580000D02*
X9103333Y-920000D01*
X9103333Y-3580000D02*
X11703333Y-3580000D01*
X7833333Y-3580000D02*
X6503333Y-3580000D01*
X6503333Y-3580000D02*
X6503333Y-2250000D01*
%TO.C,C5*%
X17761252Y-16985000D02*
X17238748Y-16985000D01*
X17761252Y-15515000D02*
X17238748Y-15515000D01*
%TO.C,U1*%
X9150000Y-5590000D02*
X15160000Y-5590000D01*
X11400000Y-12410000D02*
X15160000Y-12410000D01*
X15160000Y-5590000D02*
X15160000Y-6850000D01*
X15160000Y-12410000D02*
X15160000Y-11150000D01*
%TO.C,C2*%
X6515000Y-11261252D02*
X6515000Y-10738748D01*
X7985000Y-11261252D02*
X7985000Y-10738748D01*
%TO.C,J2*%
X22910000Y-21250000D02*
X23410000Y-21500000D01*
X22910000Y-21750000D02*
X22910000Y-21250000D01*
X23410000Y-21500000D02*
X22910000Y-21750000D01*
%TO.C,C1*%
X7985000Y-6738748D02*
X7985000Y-7261252D01*
X6515000Y-6738748D02*
X6515000Y-7261252D01*
%TO.C,C8*%
X10261252Y-16985000D02*
X9738748Y-16985000D01*
X10261252Y-15515000D02*
X9738748Y-15515000D01*
%TO.C,J3*%
X15250000Y-29910000D02*
X15000000Y-30410000D01*
X14750000Y-29910000D02*
X15250000Y-29910000D01*
X15000000Y-30410000D02*
X14750000Y-29910000D01*
%TD*%
%LPC*%
D13*
%TO.C,U2*%
X13065000Y-20500000D03*
X13065000Y-21000000D03*
X13065000Y-21500000D03*
X13065000Y-22000000D03*
X13065000Y-22500000D03*
D14*
X14000000Y-23435000D03*
X14500000Y-23435000D03*
X15000000Y-23435000D03*
X15500000Y-23435000D03*
X16000000Y-23435000D03*
D13*
X16935000Y-22500000D03*
X16935000Y-22000000D03*
X16935000Y-21500000D03*
X16935000Y-21000000D03*
X16935000Y-20500000D03*
D14*
X16000000Y-19565000D03*
D15*
X15500000Y-19565000D03*
D14*
X15000000Y-19565000D03*
X14500000Y-19565000D03*
X14000000Y-19565000D03*
D16*
X15000000Y-21500000D03*
%TD*%
D17*
%TO.C,J5*%
X15066666Y-2250000D03*
D18*
X17606666Y-2250000D03*
X20146666Y-2250000D03*
X22686666Y-2250000D03*
%TD*%
D19*
%TO.C,J1*%
X2870000Y-21500000D03*
D20*
X2870000Y-17120000D03*
X2870000Y-25880000D03*
%TD*%
D21*
%TO.C,H2*%
X29140000Y-2510000D03*
X28656726Y-3676726D03*
X28656726Y-1343274D03*
X27490000Y-4160000D03*
D22*
X27490000Y-2510000D03*
D21*
X27490000Y-860000D03*
X26323274Y-3676726D03*
X26323274Y-1343274D03*
X25840000Y-2510000D03*
%TD*%
D23*
%TO.C,C3*%
X9050000Y-14000000D03*
X10950000Y-14000000D03*
%TD*%
D24*
%TO.C,C4*%
X13050000Y-16250000D03*
X14950000Y-16250000D03*
%TD*%
D25*
%TO.C,D1*%
X5000000Y-7750000D03*
X2500000Y-7750000D03*
%TD*%
D18*
%TO.C,J4*%
X10373333Y-2250000D03*
D17*
X7833333Y-2250000D03*
%TD*%
D21*
%TO.C,H4*%
X25840000Y-34490000D03*
X26323274Y-33323274D03*
X26323274Y-35656726D03*
X27490000Y-32840000D03*
D22*
X27490000Y-34490000D03*
D21*
X27490000Y-36140000D03*
X28656726Y-33323274D03*
X28656726Y-35656726D03*
X29140000Y-34490000D03*
%TD*%
D23*
%TO.C,C5*%
X18450000Y-16250000D03*
X16550000Y-16250000D03*
%TD*%
D26*
%TO.C,U1*%
X10100000Y-6700000D03*
X10100000Y-9000000D03*
D27*
X16400000Y-9000000D03*
D26*
X10100000Y-11300000D03*
%TD*%
D21*
%TO.C,H3*%
X860000Y-34480000D03*
X1343274Y-33313274D03*
X1343274Y-35646726D03*
X2510000Y-32830000D03*
D22*
X2510000Y-34480000D03*
D21*
X2510000Y-36130000D03*
X3676726Y-33313274D03*
X3676726Y-35646726D03*
X4160000Y-34480000D03*
%TD*%
D28*
%TO.C,C2*%
X7250000Y-11950000D03*
X7250000Y-10050000D03*
%TD*%
D20*
%TO.C,J2*%
X27130000Y-17120000D03*
X27130000Y-25880000D03*
D19*
X27130000Y-21500000D03*
%TD*%
D29*
%TO.C,C1*%
X7250000Y-6050000D03*
X7250000Y-7950000D03*
%TD*%
D21*
%TO.C,H1*%
X870000Y-2510000D03*
X1353274Y-1343274D03*
X1353274Y-3676726D03*
X2520000Y-860000D03*
D22*
X2520000Y-2510000D03*
D21*
X2520000Y-4160000D03*
X3686726Y-1343274D03*
X3686726Y-3676726D03*
X4170000Y-2510000D03*
%TD*%
D23*
%TO.C,C8*%
X10950000Y-16250000D03*
X9050000Y-16250000D03*
%TD*%
D30*
%TO.C,J3*%
X19380000Y-34130000D03*
X10620000Y-34130000D03*
D31*
X15000000Y-34130000D03*
%TD*%
%LPD*%
M02*
