<?xml version="1.0" standalone="no"?>
<!DOCTYPE svg PUBLIC "-//W3C//DTD SVG 20010904//EN"
 "http://www.w3.org/TR/2001/REC-SVG-20010904/DTD/svg10.dtd">
<svg version="1.0" xmlns="http://www.w3.org/2000/svg"
 width="860.000000pt" height="860.000000pt" viewBox="0 0 860.000000 860.000000"
 preserveAspectRatio="xMidYMid meet">
<metadata>
Created by potrace 1.16, written by Peter Selinger 2001-2019
</metadata>
<g transform="translate(0.000000,860.000000) scale(0.100000,-0.100000)"
fill="#000000" stroke="none">
<path d="M200 7700 l0 -700 700 0 700 0 0 700 0 700 -700 0 -700 0 0 -700z
m1200 0 l0 -500 -500 0 -500 0 0 500 0 500 500 0 500 0 0 -500z"/>
<path d="M600 7700 l0 -300 300 0 300 0 0 300 0 300 -300 0 -300 0 0 -300z"/>
<path d="M1800 8100 l0 -300 100 0 100 0 0 -200 0 -200 -100 0 -100 0 0 -400
0 -400 100 0 100 0 0 -200 0 -200 -100 0 -100 0 0 -100 0 -100 -200 0 -200 0
0 100 0 100 100 0 100 0 0 100 0 100 -100 0 -100 0 0 -100 0 -100 -100 0 -100
0 0 100 0 100 -100 0 -100 0 0 100 0 100 100 0 100 0 0 100 0 100 -300 0 -300
0 0 -100 0 -100 100 0 100 0 0 -200 0 -200 100 0 100 0 0 -100 0 -100 200 0
200 0 0 -100 0 -100 -200 0 -200 0 0 -300 0 -300 -100 0 -100 0 0 -100 0 -100
100 0 100 0 0 -100 0 -100 -200 0 -200 0 0 100 0 100 -100 0 -100 0 0 -200 0
-200 -100 0 -100 0 0 -200 0 -200 100 0 100 0 0 -100 0 -100 -100 0 -100 0 0
-100 0 -100 100 0 100 0 0 -100 0 -100 -100 0 -100 0 0 -300 0 -300 300 0 300
0 0 -200 0 -200 -100 0 -100 0 0 100 0 100 -200 0 -200 0 0 -500 0 -500 100 0
100 0 0 300 0 300 200 0 200 0 0 100 0 100 100 0 100 0 0 100 0 100 100 0 100
0 0 100 0 100 -100 0 -100 0 0 300 0 300 -100 0 -100 0 0 100 0 100 -200 0
-200 0 0 100 0 100 100 0 100 0 0 300 0 300 200 0 200 0 0 -200 0 -200 -100 0
-100 0 0 -100 0 -100 100 0 100 0 0 -100 0 -100 100 0 100 0 0 -100 0 -100
100 0 100 0 0 -100 0 -100 100 0 100 0 0 -100 0 -100 -100 0 -100 0 0 -100 0
-100 100 0 100 0 0 -100 0 -100 -100 0 -100 0 0 -100 0 -100 -100 0 -100 0 0
-100 0 -100 -100 0 -100 0 0 -100 0 -100 -200 0 -200 0 0 -200 0 -200 500 0
500 0 0 100 0 100 100 0 100 0 0 -200 0 -200 100 0 100 0 0 -100 0 -100 100 0
100 0 0 -100 0 -100 100 0 100 0 0 -100 0 -100 -100 0 -100 0 0 -100 0 -100
200 0 200 0 0 -100 0 -100 -100 0 -100 0 0 -100 0 -100 -100 0 -100 0 0 100 0
100 -100 0 -100 0 0 300 0 300 -100 0 -100 0 0 -300 0 -300 100 0 100 0 0
-100 0 -100 100 0 100 0 0 -100 0 -100 400 0 400 0 0 100 0 100 100 0 100 0 0
-100 0 -100 100 0 100 0 0 200 0 200 -100 0 -100 0 0 100 0 100 -300 0 -300 0
0 300 0 300 100 0 100 0 0 -100 0 -100 200 0 200 0 0 -100 0 -100 200 0 200 0
0 -100 0 -100 100 0 100 0 0 100 0 100 100 0 100 0 0 -100 0 -100 100 0 100 0
0 -100 0 -100 300 0 300 0 0 100 0 100 -100 0 -100 0 0 100 0 100 -100 0 -100
0 0 100 0 100 -100 0 -100 0 0 -100 0 -100 -100 0 -100 0 0 100 0 100 -100 0
-100 0 0 100 0 100 100 0 100 0 0 100 0 100 -100 0 -100 0 0 100 0 100 100 0
100 0 0 100 0 100 300 0 300 0 0 -100 0 -100 100 0 100 0 0 -100 0 -100 100 0
100 0 0 -100 0 -100 100 0 100 0 0 -200 0 -200 -100 0 -100 0 0 100 0 100
-100 0 -100 0 0 -100 0 -100 100 0 100 0 0 -300 0 -300 -300 0 -300 0 0 -100
0 -100 500 0 500 0 0 100 0 100 100 0 100 0 0 -100 0 -100 100 0 100 0 0 100
0 100 100 0 100 0 0 -100 0 -100 100 0 100 0 0 100 0 100 100 0 100 0 0 -100
0 -100 100 0 100 0 0 100 0 100 200 0 200 0 0 -100 0 -100 300 0 300 0 0 300
0 300 -100 0 -100 0 0 100 0 100 100 0 100 0 0 100 0 100 100 0 100 0 0 -100
0 -100 100 0 100 0 0 -100 0 -100 -100 0 -100 0 0 -100 0 -100 100 0 100 0 0
-100 0 -100 100 0 100 0 0 200 0 200 100 0 100 0 0 100 0 100 -100 0 -100 0 0
100 0 100 100 0 100 0 0 100 0 100 -100 0 -100 0 0 100 0 100 100 0 100 0 0
100 0 100 -200 0 -200 0 0 100 0 100 -100 0 -100 0 0 100 0 100 -100 0 -100 0
0 100 0 100 100 0 100 0 0 100 0 100 100 0 100 0 0 -100 0 -100 200 0 200 0 0
100 0 100 -200 0 -200 0 0 100 0 100 -100 0 -100 0 0 100 0 100 -100 0 -100 0
0 100 0 100 100 0 100 0 0 100 0 100 100 0 100 0 0 100 0 100 -100 0 -100 0 0
300 0 300 100 0 100 0 0 -100 0 -100 200 0 200 0 0 300 0 300 -200 0 -200 0 0
100 0 100 200 0 200 0 0 200 0 200 -100 0 -100 0 0 200 0 200 100 0 100 0 0
100 0 100 -200 0 -200 0 0 100 0 100 100 0 100 0 0 100 0 100 -100 0 -100 0 0
-100 0 -100 -100 0 -100 0 0 100 0 100 -200 0 -200 0 0 -100 0 -100 100 0 100
0 0 -100 0 -100 -100 0 -100 0 0 -100 0 -100 100 0 100 0 0 -300 0 -300 -100
0 -100 0 0 100 0 100 -100 0 -100 0 0 100 0 100 -100 0 -100 0 0 100 0 100
-100 0 -100 0 0 100 0 100 100 0 100 0 0 100 0 100 -100 0 -100 0 0 100 0 100
100 0 100 0 0 100 0 100 100 0 100 0 0 100 0 100 100 0 100 0 0 -100 0 -100
100 0 100 0 0 100 0 100 -100 0 -100 0 0 100 0 100 -300 0 -300 0 0 400 0 400
-200 0 -200 0 0 100 0 100 -100 0 -100 0 0 -100 0 -100 100 0 100 0 0 -100 0
-100 100 0 100 0 0 -200 0 -200 -100 0 -100 0 0 100 0 100 -100 0 -100 0 0
100 0 100 -100 0 -100 0 0 100 0 100 -100 0 -100 0 0 -100 0 -100 -300 0 -300
0 0 100 0 100 -200 0 -200 0 0 100 0 100 100 0 100 0 0 100 0 100 100 0 100 0
0 -100 0 -100 100 0 100 0 0 -100 0 -100 100 0 100 0 0 100 0 100 200 0 200 0
0 300 0 300 -100 0 -100 0 0 -100 0 -100 -200 0 -200 0 0 100 0 100 -200 0
-200 0 0 -100 0 -100 -200 0 -200 0 0 100 0 100 -100 0 -100 0 0 -100 0 -100
-100 0 -100 0 0 100 0 100 -200 0 -200 0 0 -100 0 -100 -100 0 -100 0 0 -100
0 -100 -100 0 -100 0 0 -100 0 -100 -100 0 -100 0 0 -200 0 -200 100 0 100 0
0 -500 0 -500 -100 0 -100 0 0 100 0 100 -300 0 -300 0 0 -100 0 -100 -100 0
-100 0 0 100 0 100 -100 0 -100 0 0 200 0 200 100 0 100 0 0 100 0 100 -100 0
-100 0 0 -100 0 -100 -100 0 -100 0 0 200 0 200 300 0 300 0 0 100 0 100 -100
0 -100 0 0 100 0 100 -200 0 -200 0 0 200 0 200 100 0 100 0 0 -100 0 -100
100 0 100 0 0 100 0 100 200 0 200 0 0 100 0 100 -200 0 -200 0 0 -100 0 -100
-100 0 -100 0 0 100 0 100 -200 0 -200 0 0 -300z m2400 0 l0 -100 100 0 100 0
0 100 0 100 100 0 100 0 0 -100 0 -100 100 0 100 0 0 -100 0 -100 -100 0 -100
0 0 -100 0 -100 100 0 100 0 0 -100 0 -100 100 0 100 0 0 -200 0 -200 100 0
100 0 0 100 0 100 100 0 100 0 0 -100 0 -100 -100 0 -100 0 0 -100 0 -100 100
0 100 0 0 -100 0 -100 200 0 200 0 0 100 0 100 -100 0 -100 0 0 200 0 200 100
0 100 0 0 100 0 100 100 0 100 0 0 -100 0 -100 100 0 100 0 0 -100 0 -100 100
0 100 0 0 -200 0 -200 -100 0 -100 0 0 100 0 100 -100 0 -100 0 0 -100 0 -100
-100 0 -100 0 0 -100 0 -100 -200 0 -200 0 0 100 0 100 -100 0 -100 0 0 -200
0 -200 -100 0 -100 0 0 -100 0 -100 200 0 200 0 0 -100 0 -100 100 0 100 0 0
-100 0 -100 -100 0 -100 0 0 -100 0 -100 100 0 100 0 0 -100 0 -100 -200 0
-200 0 0 -100 0 -100 -100 0 -100 0 0 -100 0 -100 -100 0 -100 0 0 -200 0
-200 -100 0 -100 0 0 -100 0 -100 200 0 200 0 0 -200 0 -200 100 0 100 0 0
-200 0 -200 -100 0 -100 0 0 -100 0 -100 200 0 200 0 0 100 0 100 200 0 200 0
0 200 0 200 100 0 100 0 0 100 0 100 100 0 100 0 0 -100 0 -100 100 0 100 0 0
100 0 100 100 0 100 0 0 100 0 100 -400 0 -400 0 0 -100 0 -100 -100 0 -100 0
0 200 0 200 -100 0 -100 0 0 -200 0 -200 -100 0 -100 0 0 200 0 200 -100 0
-100 0 0 100 0 100 100 0 100 0 0 100 0 100 200 0 200 0 0 100 0 100 100 0
100 0 0 200 0 200 300 0 300 0 0 -300 0 -300 200 0 200 0 0 100 0 100 -100 0
-100 0 0 100 0 100 100 0 100 0 0 100 0 100 -100 0 -100 0 0 100 0 100 -400 0
-400 0 0 100 0 100 200 0 200 0 0 100 0 100 -200 0 -200 0 0 100 0 100 100 0
100 0 0 100 0 100 300 0 300 0 0 -100 0 -100 -100 0 -100 0 0 -200 0 -200 100
0 100 0 0 100 0 100 100 0 100 0 0 -100 0 -100 -100 0 -100 0 0 -100 0 -100
100 0 100 0 0 -100 0 -100 100 0 100 0 0 -100 0 -100 100 0 100 0 0 -100 0
-100 -100 0 -100 0 0 -200 0 -200 -100 0 -100 0 0 -100 0 -100 200 0 200 0 0
200 0 200 100 0 100 0 0 -300 0 -300 100 0 100 0 0 100 0 100 100 0 100 0 0
100 0 100 100 0 100 0 0 -100 0 -100 100 0 100 0 0 -100 0 -100 -100 0 -100 0
0 100 0 100 -100 0 -100 0 0 -100 0 -100 -100 0 -100 0 0 -400 0 -400 -100 0
-100 0 0 200 0 200 -100 0 -100 0 0 -200 0 -200 -100 0 -100 0 0 -200 0 -200
-100 0 -100 0 0 100 0 100 -100 0 -100 0 0 -100 0 -100 -100 0 -100 0 0 -200
0 -200 200 0 200 0 0 100 0 100 100 0 100 0 0 -100 0 -100 100 0 100 0 0 -100
0 -100 100 0 100 0 0 -100 0 -100 100 0 100 0 0 -100 0 -100 100 0 100 0 0
-100 0 -100 -100 0 -100 0 0 100 0 100 -200 0 -200 0 0 200 0 200 -100 0 -100
0 0 100 0 100 -100 0 -100 0 0 -100 0 -100 -100 0 -100 0 0 -100 0 -100 100 0
100 0 0 -100 0 -100 -100 0 -100 0 0 -100 0 -100 -100 0 -100 0 0 -100 0 -100
-100 0 -100 0 0 -100 0 -100 100 0 100 0 0 -100 0 -100 100 0 100 0 0 -100 0
-100 -100 0 -100 0 0 -100 0 -100 200 0 200 0 0 -100 0 -100 -100 0 -100 0 0
-100 0 -100 -100 0 -100 0 0 100 0 100 -100 0 -100 0 0 -100 0 -100 -100 0
-100 0 0 100 0 100 -100 0 -100 0 0 100 0 100 -100 0 -100 0 0 100 0 100 100
0 100 0 0 100 0 100 -100 0 -100 0 0 100 0 100 100 0 100 0 0 100 0 100 -200
0 -200 0 0 100 0 100 -200 0 -200 0 0 100 0 100 -100 0 -100 0 0 100 0 100
100 0 100 0 0 -100 0 -100 200 0 200 0 0 -100 0 -100 100 0 100 0 0 300 0 300
200 0 200 0 0 100 0 100 -400 0 -400 0 0 100 0 100 -200 0 -200 0 0 -100 0
-100 100 0 100 0 0 -100 0 -100 -100 0 -100 0 0 100 0 100 -100 0 -100 0 0
-100 0 -100 -100 0 -100 0 0 -100 0 -100 -200 0 -200 0 0 100 0 100 -400 0
-400 0 0 -100 0 -100 100 0 100 0 0 -100 0 -100 100 0 100 0 0 100 0 100 100
0 100 0 0 -100 0 -100 -100 0 -100 0 0 -200 0 -200 100 0 100 0 0 -100 0 -100
-100 0 -100 0 0 100 0 100 -100 0 -100 0 0 -100 0 -100 -200 0 -200 0 0 100 0
100 -100 0 -100 0 0 100 0 100 -100 0 -100 0 0 -100 0 -100 -100 0 -100 0 0
100 0 100 -100 0 -100 0 0 -100 0 -100 -100 0 -100 0 0 200 0 200 100 0 100 0
0 100 0 100 100 0 100 0 0 -200 0 -200 100 0 100 0 0 200 0 200 100 0 100 0 0
200 0 200 100 0 100 0 0 -100 0 -100 100 0 100 0 0 200 0 200 -200 0 -200 0 0
100 0 100 -100 0 -100 0 0 -100 0 -100 -100 0 -100 0 0 200 0 200 -100 0 -100
0 0 -100 0 -100 -100 0 -100 0 0 -100 0 -100 100 0 100 0 0 -100 0 -100 200 0
200 0 0 -100 0 -100 -200 0 -200 0 0 100 0 100 -100 0 -100 0 0 100 0 100
-100 0 -100 0 0 -100 0 -100 -100 0 -100 0 0 -100 0 -100 100 0 100 0 0 -100
0 -100 -100 0 -100 0 0 -100 0 -100 -300 0 -300 0 0 100 0 100 100 0 100 0 0
100 0 100 100 0 100 0 0 100 0 100 100 0 100 0 0 100 0 100 100 0 100 0 0 300
0 300 -100 0 -100 0 0 100 0 100 -100 0 -100 0 0 100 0 100 200 0 200 0 0
-200 0 -200 100 0 100 0 0 -100 0 -100 100 0 100 0 0 200 0 200 -100 0 -100 0
0 100 0 100 200 0 200 0 0 100 0 100 100 0 100 0 0 100 0 100 100 0 100 0 0
100 0 100 -700 0 -700 0 0 -100 0 -100 200 0 200 0 0 -100 0 -100 -200 0 -200
0 0 100 0 100 -100 0 -100 0 0 200 0 200 -100 0 -100 0 0 100 0 100 100 0 100
0 0 -100 0 -100 400 0 400 0 0 100 0 100 -300 0 -300 0 0 100 0 100 300 0 300
0 0 100 0 100 100 0 100 0 0 -100 0 -100 200 0 200 0 0 200 0 200 -100 0 -100
0 0 200 0 200 -100 0 -100 0 0 -100 0 -100 -100 0 -100 0 0 -100 0 -100 -100
0 -100 0 0 -100 0 -100 -300 0 -300 0 0 100 0 100 300 0 300 0 0 100 0 100
-200 0 -200 0 0 100 0 100 300 0 300 0 0 200 0 200 100 0 100 0 0 100 0 100
100 0 100 0 0 -200 0 -200 200 0 200 0 0 -100 0 -100 200 0 200 0 0 100 0 100
100 0 100 0 0 100 0 100 100 0 100 0 0 100 0 100 100 0 100 0 0 100 0 100
-100 0 -100 0 0 300 0 300 100 0 100 0 0 -200 0 -200 100 0 100 0 0 -100 0
-100 100 0 100 0 0 100 0 100 200 0 200 0 0 100 0 100 -100 0 -100 0 0 100 0
100 -100 0 -100 0 0 -100 0 -100 -100 0 -100 0 0 300 0 300 -100 0 -100 0 0
-100 0 -100 -100 0 -100 0 0 100 0 100 -100 0 -100 0 0 100 0 100 100 0 100 0
0 -100 0 -100 100 0 100 0 0 200 0 200 100 0 100 0 0 100 0 100 100 0 100 0 0
-100z m1400 -200 l0 -100 -100 0 -100 0 0 100 0 100 100 0 100 0 0 -100z
m1200 -1200 l0 -100 -100 0 -100 0 0 100 0 100 100 0 100 0 0 -100z m-3600
-400 l0 -100 -200 0 -200 0 0 100 0 100 200 0 200 0 0 -100z m4800 -800 l0
-300 100 0 100 0 0 -100 0 -100 -100 0 -100 0 0 100 0 100 -100 0 -100 0 0
300 0 300 100 0 100 0 0 -300z m-5800 -1400 l0 -100 -100 0 -100 0 0 100 0
100 100 0 100 0 0 -100z m3400 -400 l0 -100 -100 0 -100 0 0 100 0 100 100 0
100 0 0 -100z m-4800 -300 l0 -200 -200 0 -200 0 0 200 0 200 200 0 200 0 0
-200z m6800 -600 l0 -200 -100 0 -100 0 0 200 0 200 100 0 100 0 0 -200z
m-2200 -500 l0 -100 -100 0 -100 0 0 100 0 100 100 0 100 0 0 -100z m2000
-800 l0 -300 -300 0 -300 0 0 300 0 300 300 0 300 0 0 -300z m400 0 l0 -100
100 0 100 0 0 -100 0 -100 -100 0 -100 0 0 100 0 100 -100 0 -100 0 0 100 0
100 100 0 100 0 0 -100z m-4000 -400 l0 -100 -100 0 -100 0 0 100 0 100 100 0
100 0 0 -100z m1600 -400 l0 -300 -100 0 -100 0 0 300 0 300 100 0 100 0 0
-300z m1800 200 l0 -100 -100 0 -100 0 0 100 0 100 100 0 100 0 0 -100z
m-4200 -400 l0 -100 -200 0 -200 0 0 100 0 100 200 0 200 0 0 -100z m4400 0
l0 -100 -200 0 -200 0 0 100 0 100 200 0 200 0 0 -100z"/>
<path d="M4400 7900 l0 -100 -100 0 -100 0 0 -200 0 -200 200 0 200 0 0 100 0
100 -100 0 -100 0 0 100 0 100 100 0 100 0 0 100 0 100 -100 0 -100 0 0 -100z"/>
<path d="M4600 7100 l0 -100 100 0 100 0 0 100 0 100 -100 0 -100 0 0 -100z"/>
<path d="M5800 7100 l0 -100 100 0 100 0 0 100 0 100 -100 0 -100 0 0 -100z"/>
<path d="M5000 6700 l0 -100 -100 0 -100 0 0 -100 0 -100 -200 0 -200 0 0 100
0 100 -100 0 -100 0 0 -200 0 -200 -100 0 -100 0 0 100 0 100 -100 0 -100 0 0
-200 0 -200 -200 0 -200 0 0 -100 0 -100 -100 0 -100 0 0 -100 0 -100 -300 0
-300 0 0 -100 0 -100 100 0 100 0 0 -200 0 -200 -100 0 -100 0 0 -100 0 -100
100 0 100 0 0 -200 0 -200 100 0 100 0 0 -200 0 -200 -200 0 -200 0 0 -100 0
-100 100 0 100 0 0 -100 0 -100 100 0 100 0 0 -100 0 -100 100 0 100 0 0 100
0 100 100 0 100 0 0 100 0 100 100 0 100 0 0 -100 0 -100 100 0 100 0 0 -100
0 -100 100 0 100 0 0 100 0 100 100 0 100 0 0 -200 0 -200 -100 0 -100 0 0
-100 0 -100 -100 0 -100 0 0 100 0 100 -200 0 -200 0 0 -100 0 -100 -100 0
-100 0 0 100 0 100 -100 0 -100 0 0 -100 0 -100 100 0 100 0 0 -100 0 -100
100 0 100 0 0 100 0 100 100 0 100 0 0 -200 0 -200 100 0 100 0 0 100 0 100
100 0 100 0 0 -100 0 -100 100 0 100 0 0 100 0 100 100 0 100 0 0 100 0 100
100 0 100 0 0 100 0 100 100 0 100 0 0 -100 0 -100 100 0 100 0 0 100 0 100
-100 0 -100 0 0 300 0 300 -100 0 -100 0 0 100 0 100 -100 0 -100 0 0 -100 0
-100 -100 0 -100 0 0 100 0 100 -400 0 -400 0 0 100 0 100 -100 0 -100 0 0
200 0 200 -100 0 -100 0 0 200 0 200 300 0 300 0 0 100 0 100 -100 0 -100 0 0
100 0 100 -100 0 -100 0 0 100 0 100 200 0 200 0 0 100 0 100 200 0 200 0 0
-100 0 -100 -100 0 -100 0 0 -400 0 -400 100 0 100 0 0 -100 0 -100 100 0 100
0 0 -100 0 -100 200 0 200 0 0 200 0 200 100 0 100 0 0 100 0 100 -100 0 -100
0 0 -100 0 -100 -200 0 -200 0 0 100 0 100 -100 0 -100 0 0 100 0 100 300 0
300 0 0 200 0 200 -100 0 -100 0 0 100 0 100 -100 0 -100 0 0 200 0 200 100 0
100 0 0 -100 0 -100 100 0 100 0 0 -100 0 -100 100 0 100 0 0 300 0 300 100 0
100 0 0 100 0 100 100 0 100 0 0 100 0 100 -100 0 -100 0 0 -100z m-600 -1200
l0 -100 -100 0 -100 0 0 100 0 100 100 0 100 0 0 -100z m-1000 -1600 l0 -100
-100 0 -100 0 0 -100 0 -100 -100 0 -100 0 0 100 0 100 100 0 100 0 0 100 0
100 100 0 100 0 0 -100z m1200 -400 l0 -100 -100 0 -100 0 0 100 0 100 100 0
100 0 0 -100z"/>
<path d="M5200 5700 l0 -100 100 0 100 0 0 100 0 100 -100 0 -100 0 0 -100z"/>
<path d="M4800 5400 l0 -200 200 0 200 0 0 100 0 100 -100 0 -100 0 0 100 0
100 -100 0 -100 0 0 -200z"/>
<path d="M6000 5100 l0 -100 -100 0 -100 0 0 -100 0 -100 -100 0 -100 0 0
-100 0 -100 100 0 100 0 0 -100 0 -100 300 0 300 0 0 100 0 100 -100 0 -100 0
0 300 0 300 -100 0 -100 0 0 -100z"/>
<path d="M6800 5100 l0 -100 100 0 100 0 0 100 0 100 -100 0 -100 0 0 -100z"/>
<path d="M2000 4900 l0 -100 100 0 100 0 0 -100 0 -100 100 0 100 0 0 100 0
100 -100 0 -100 0 0 100 0 100 -100 0 -100 0 0 -100z"/>
<path d="M3400 4700 l0 -100 100 0 100 0 0 -100 0 -100 100 0 100 0 0 100 0
100 -100 0 -100 0 0 100 0 100 -100 0 -100 0 0 -100z"/>
<path d="M6800 4100 l0 -100 100 0 100 0 0 -100 0 -100 100 0 100 0 0 100 0
100 100 0 100 0 0 100 0 100 -300 0 -300 0 0 -100z"/>
<path d="M6000 3500 l0 -100 -100 0 -100 0 0 -100 0 -100 -200 0 -200 0 0
-100 0 -100 -100 0 -100 0 0 -100 0 -100 100 0 100 0 0 100 0 100 100 0 100 0
0 -100 0 -100 200 0 200 0 0 -100 0 -100 100 0 100 0 0 100 0 100 -100 0 -100
0 0 100 0 100 200 0 200 0 0 100 0 100 100 0 100 0 0 200 0 200 -100 0 -100 0
0 -200 0 -200 -200 0 -200 0 0 100 0 100 100 0 100 0 0 100 0 100 -100 0 -100
0 0 -100z m0 -400 l0 -100 -100 0 -100 0 0 100 0 100 100 0 100 0 0 -100z"/>
<path d="M2400 3300 l0 -100 200 0 200 0 0 100 0 100 -200 0 -200 0 0 -100z"/>
<path d="M1400 2300 l0 -100 100 0 100 0 0 100 0 100 -100 0 -100 0 0 -100z"/>
<path d="M3000 2100 l0 -100 -100 0 -100 0 0 -100 0 -100 300 0 300 0 0 100 0
100 -100 0 -100 0 0 100 0 100 -100 0 -100 0 0 -100z"/>
<path d="M5800 2100 l0 -100 100 0 100 0 0 -100 0 -100 -100 0 -100 0 0 -100
0 -100 100 0 100 0 0 100 0 100 100 0 100 0 0 100 0 100 100 0 100 0 0 100 0
100 -100 0 -100 0 0 -100 0 -100 -100 0 -100 0 0 100 0 100 -100 0 -100 0 0
-100z"/>
<path d="M6200 1100 l0 -100 100 0 100 0 0 100 0 100 -100 0 -100 0 0 -100z"/>
<path d="M5800 900 l0 -100 100 0 100 0 0 100 0 100 -100 0 -100 0 0 -100z"/>
<path d="M7000 1500 l0 -100 100 0 100 0 0 100 0 100 -100 0 -100 0 0 -100z"/>
<path d="M3000 8300 l0 -100 200 0 200 0 0 100 0 100 -200 0 -200 0 0 -100z"/>
<path d="M6200 8200 l0 -200 100 0 100 0 0 100 0 100 100 0 100 0 0 -200 0
-200 100 0 100 0 0 300 0 300 -300 0 -300 0 0 -200z"/>
<path d="M7000 7700 l0 -700 700 0 700 0 0 700 0 700 -700 0 -700 0 0 -700z
m1200 0 l0 -500 -500 0 -500 0 0 500 0 500 500 0 500 0 0 -500z"/>
<path d="M7400 7700 l0 -300 300 0 300 0 0 300 0 300 -300 0 -300 0 0 -300z"/>
<path d="M2800 7700 l0 -100 100 0 100 0 0 100 0 100 -100 0 -100 0 0 -100z"/>
<path d="M2600 7100 l0 -100 100 0 100 0 0 100 0 100 -100 0 -100 0 0 -100z"/>
<path d="M3000 7000 l0 -200 100 0 100 0 0 200 0 200 -100 0 -100 0 0 -200z"/>
<path d="M1400 6700 l0 -100 100 0 100 0 0 100 0 100 -100 0 -100 0 0 -100z"/>
<path d="M7800 6600 l0 -200 300 0 300 0 0 200 0 200 -300 0 -300 0 0 -200z"/>
<path d="M200 6500 l0 -100 100 0 100 0 0 -200 0 -200 -100 0 -100 0 0 -100 0
-100 100 0 100 0 0 -100 0 -100 -100 0 -100 0 0 -100 0 -100 200 0 200 0 0
200 0 200 -100 0 -100 0 0 100 0 100 100 0 100 0 0 200 0 200 -100 0 -100 0 0
100 0 100 -100 0 -100 0 0 -100z"/>
<path d="M8200 3500 l0 -300 100 0 100 0 0 300 0 300 -100 0 -100 0 0 -300z"/>
<path d="M4200 1700 l0 -100 100 0 100 0 0 100 0 100 -100 0 -100 0 0 -100z"/>
<path d="M200 900 l0 -700 700 0 700 0 0 700 0 700 -700 0 -700 0 0 -700z
m1200 0 l0 -500 -500 0 -500 0 0 500 0 500 500 0 500 0 0 -500z"/>
<path d="M600 900 l0 -300 300 0 300 0 0 300 0 300 -300 0 -300 0 0 -300z"/>
<path d="M3800 500 l0 -100 100 0 100 0 0 -100 0 -100 100 0 100 0 0 100 0
100 -100 0 -100 0 0 100 0 100 -100 0 -100 0 0 -100z"/>
</g>
</svg>
