<?xml version="1.0" encoding="UTF-8" standalone="no"?>
<svg
   version="1.0"
   width="526.16101mm"
   height="118.915mm"
   id="svg78"
   sodipodi:docname="current_source_channel_wave.svg"
   inkscape:version="1.3 (0e150ed6c4, 2023-07-21)"
   viewBox="0 0 1988.6423 449.44307"
   xmlns:inkscape="http://www.inkscape.org/namespaces/inkscape"
   xmlns:sodipodi="http://sodipodi.sourceforge.net/DTD/sodipodi-0.dtd"
   xmlns="http://www.w3.org/2000/svg"
   xmlns:svg="http://www.w3.org/2000/svg">
  <sodipodi:namedview
     id="namedview78"
     pagecolor="#ffffff"
     bordercolor="#000000"
     borderopacity="0.25"
     inkscape:showpageshadow="2"
     inkscape:pageopacity="0.0"
     inkscape:pagecheckerboard="0"
     inkscape:deskcolor="#d1d1d1"
     inkscape:document-units="mm"
     inkscape:zoom="0.75909493"
     inkscape:cx="1200.1134"
     inkscape:cy="279.93864"
     inkscape:window-width="1920"
     inkscape:window-height="1011"
     inkscape:window-x="0"
     inkscape:window-y="0"
     inkscape:window-maximized="1"
     inkscape:current-layer="svg78" />
  <defs
     id="defs1">
    <pattern
       id="EMFhbasepattern"
       patternUnits="userSpaceOnUse"
       width="6"
       height="6"
       x="0"
       y="0" />
  </defs>
  <path
     style="fill:none;stroke:#000000;stroke-width:1.00031px;stroke-linecap:round;stroke-linejoin:round;stroke-miterlimit:4;stroke-dasharray:none;stroke-opacity:1"
     d="m 71.318224,405.02159 v 7.00221"
     id="path1" />
  <text
     xml:space="preserve"
     style="font-style:normal;font-variant:normal;font-weight:normal;font-stretch:normal;font-size:26.6667px;line-height:125%;font-family:'TeX Gyre Pagella';-inkscape-font-specification:'TeX Gyre Pagella, Normal';font-variant-ligatures:normal;font-variant-caps:normal;font-variant-numeric:normal;font-variant-east-asian:normal;text-align:start;letter-spacing:0px;word-spacing:0px;text-anchor:start;fill:#000000;fill-opacity:1;stroke:none"
     x="48.020882"
     y="441.79233"
     id="text2"><tspan
       sodipodi:role="line"
       x="48.020882"
       y="441.79233"
       id="tspan2"><tspan
         dx="0"
         dy="0"
         style="font-style:normal;font-variant:normal;font-weight:normal;font-stretch:normal;font-size:26.6667px;font-family:'TeX Gyre Pagella';-inkscape-font-specification:'TeX Gyre Pagella, Normal';font-variant-ligatures:normal;font-variant-caps:normal;font-variant-numeric:normal;font-variant-east-asian:normal;fill:#000000"
         id="tspan1">0.0s</tspan></tspan></text>
  <path
     style="fill:none;stroke:#000000;stroke-width:1.00031px;stroke-linecap:round;stroke-linejoin:round;stroke-miterlimit:4;stroke-dasharray:none;stroke-opacity:1"
     d="m 247.3749,405.02159 v 7.00221"
     id="path2" />
  <text
     xml:space="preserve"
     style="font-style:normal;font-variant:normal;font-weight:normal;font-stretch:normal;font-size:26.6667px;line-height:125%;font-family:'TeX Gyre Pagella';-inkscape-font-specification:'TeX Gyre Pagella, Normal';font-variant-ligatures:normal;font-variant-caps:normal;font-variant-numeric:normal;font-variant-east-asian:normal;text-align:start;letter-spacing:0px;word-spacing:0px;text-anchor:start;fill:#000000;fill-opacity:1;stroke:none"
     x="228.07755"
     y="441.79233"
     id="text4"><tspan
       sodipodi:role="line"
       x="228.07755"
       y="441.79233"
       id="tspan4"><tspan
         dx="0"
         dy="0"
         style="font-style:normal;font-variant:normal;font-weight:normal;font-stretch:normal;font-size:26.6667px;font-family:'TeX Gyre Pagella';-inkscape-font-specification:'TeX Gyre Pagella, Normal';font-variant-ligatures:normal;font-variant-caps:normal;font-variant-numeric:normal;font-variant-east-asian:normal;fill:#000000"
         id="tspan3">0.3s</tspan></tspan></text>
  <path
     style="fill:none;stroke:#000000;stroke-width:1.00031px;stroke-linecap:round;stroke-linejoin:round;stroke-miterlimit:4;stroke-dasharray:none;stroke-opacity:1"
     d="m 428.4319,405.02159 v 7.00221"
     id="path4" />
  <text
     xml:space="preserve"
     style="font-style:normal;font-variant:normal;font-weight:normal;font-stretch:normal;font-size:26.6667px;line-height:125%;font-family:'TeX Gyre Pagella';-inkscape-font-specification:'TeX Gyre Pagella, Normal';font-variant-ligatures:normal;font-variant-caps:normal;font-variant-numeric:normal;font-variant-east-asian:normal;text-align:start;letter-spacing:0px;word-spacing:0px;text-anchor:start;fill:#000000;fill-opacity:1;stroke:none"
     x="409.13458"
     y="441.79233"
     id="text6"><tspan
       sodipodi:role="line"
       x="409.13458"
       y="441.79233"
       id="tspan6"><tspan
         dx="0"
         dy="0"
         style="font-style:normal;font-variant:normal;font-weight:normal;font-stretch:normal;font-size:26.6667px;font-family:'TeX Gyre Pagella';-inkscape-font-specification:'TeX Gyre Pagella, Normal';font-variant-ligatures:normal;font-variant-caps:normal;font-variant-numeric:normal;font-variant-east-asian:normal;fill:#000000"
         id="tspan5">0.6s</tspan></tspan></text>
  <path
     style="fill:none;stroke:#000000;stroke-width:1.00031px;stroke-linecap:round;stroke-linejoin:round;stroke-miterlimit:4;stroke-dasharray:none;stroke-opacity:1"
     d="m 608.4886,405.02159 v 7.00221"
     id="path6" />
  <text
     xml:space="preserve"
     style="font-style:normal;font-variant:normal;font-weight:normal;font-stretch:normal;font-size:26.6667px;line-height:125%;font-family:'TeX Gyre Pagella';-inkscape-font-specification:'TeX Gyre Pagella, Normal';font-variant-ligatures:normal;font-variant-caps:normal;font-variant-numeric:normal;font-variant-east-asian:normal;text-align:start;letter-spacing:0px;word-spacing:0px;text-anchor:start;fill:#000000;fill-opacity:1;stroke:none"
     x="589.19122"
     y="441.79233"
     id="text8"><tspan
       sodipodi:role="line"
       x="589.19122"
       y="441.79233"
       id="tspan8"><tspan
         dx="0"
         dy="0"
         style="font-style:normal;font-variant:normal;font-weight:normal;font-stretch:normal;font-size:26.6667px;font-family:'TeX Gyre Pagella';-inkscape-font-specification:'TeX Gyre Pagella, Normal';font-variant-ligatures:normal;font-variant-caps:normal;font-variant-numeric:normal;font-variant-east-asian:normal;fill:#000000"
         id="tspan7">0.9s</tspan></tspan></text>
  <path
     style="fill:none;stroke:#000000;stroke-width:1.00031px;stroke-linecap:round;stroke-linejoin:round;stroke-miterlimit:4;stroke-dasharray:none;stroke-opacity:1"
     d="m 789.54561,405.02159 v 7.00221"
     id="path8" />
  <text
     xml:space="preserve"
     style="font-style:normal;font-variant:normal;font-weight:normal;font-stretch:normal;font-size:26.6667px;line-height:125%;font-family:'TeX Gyre Pagella';-inkscape-font-specification:'TeX Gyre Pagella, Normal';font-variant-ligatures:normal;font-variant-caps:normal;font-variant-numeric:normal;font-variant-east-asian:normal;text-align:start;letter-spacing:0px;word-spacing:0px;text-anchor:start;fill:#000000;fill-opacity:1;stroke:none"
     x="770.24823"
     y="441.79233"
     id="text10"><tspan
       sodipodi:role="line"
       x="770.24823"
       y="441.79233"
       id="tspan10"><tspan
         dx="0"
         dy="0"
         style="font-style:normal;font-variant:normal;font-weight:normal;font-stretch:normal;font-size:26.6667px;font-family:'TeX Gyre Pagella';-inkscape-font-specification:'TeX Gyre Pagella, Normal';font-variant-ligatures:normal;font-variant-caps:normal;font-variant-numeric:normal;font-variant-east-asian:normal;fill:#000000"
         id="tspan9">1.2s</tspan></tspan></text>
  <path
     style="fill:none;stroke:#000000;stroke-width:1.00031px;stroke-linecap:round;stroke-linejoin:round;stroke-miterlimit:4;stroke-dasharray:none;stroke-opacity:1"
     d="m 969.6023,405.02159 v 7.00221"
     id="path10" />
  <text
     xml:space="preserve"
     style="font-style:normal;font-variant:normal;font-weight:normal;font-stretch:normal;font-size:26.6667px;line-height:125%;font-family:'TeX Gyre Pagella';-inkscape-font-specification:'TeX Gyre Pagella, Normal';font-variant-ligatures:normal;font-variant-caps:normal;font-variant-numeric:normal;font-variant-east-asian:normal;text-align:start;letter-spacing:0px;word-spacing:0px;text-anchor:start;fill:#000000;fill-opacity:1;stroke:none"
     x="950.30493"
     y="441.79233"
     id="text12"><tspan
       sodipodi:role="line"
       x="950.30493"
       y="441.79233"
       id="tspan12"><tspan
         dx="0"
         dy="0"
         style="font-style:normal;font-variant:normal;font-weight:normal;font-stretch:normal;font-size:26.6667px;font-family:'TeX Gyre Pagella';-inkscape-font-specification:'TeX Gyre Pagella, Normal';font-variant-ligatures:normal;font-variant-caps:normal;font-variant-numeric:normal;font-variant-east-asian:normal;fill:#000000"
         id="tspan11">1.5s</tspan></tspan></text>
  <path
     style="fill:none;stroke:#000000;stroke-width:1.00031px;stroke-linecap:round;stroke-linejoin:round;stroke-miterlimit:4;stroke-dasharray:none;stroke-opacity:1"
     d="m 1149.6591,405.02159 v 7.00221"
     id="path12" />
  <text
     xml:space="preserve"
     style="font-style:normal;font-variant:normal;font-weight:normal;font-stretch:normal;font-size:26.6667px;line-height:125%;font-family:'TeX Gyre Pagella';-inkscape-font-specification:'TeX Gyre Pagella, Normal';font-variant-ligatures:normal;font-variant-caps:normal;font-variant-numeric:normal;font-variant-east-asian:normal;text-align:start;letter-spacing:0px;word-spacing:0px;text-anchor:start;fill:#000000;fill-opacity:1;stroke:none"
     x="1130.3616"
     y="441.79233"
     id="text14"><tspan
       sodipodi:role="line"
       x="1130.3616"
       y="441.79233"
       id="tspan14"><tspan
         dx="0"
         dy="0"
         style="font-style:normal;font-variant:normal;font-weight:normal;font-stretch:normal;font-size:26.6667px;font-family:'TeX Gyre Pagella';-inkscape-font-specification:'TeX Gyre Pagella, Normal';font-variant-ligatures:normal;font-variant-caps:normal;font-variant-numeric:normal;font-variant-east-asian:normal;fill:#000000"
         id="tspan13">1.8s</tspan></tspan></text>
  <path
     style="fill:none;stroke:#000000;stroke-width:1.00031px;stroke-linecap:round;stroke-linejoin:round;stroke-miterlimit:4;stroke-dasharray:none;stroke-opacity:1"
     d="m 1330.7161,405.02159 v 7.00221"
     id="path14" />
  <text
     xml:space="preserve"
     style="font-style:normal;font-variant:normal;font-weight:normal;font-stretch:normal;font-size:26.6667px;line-height:125%;font-family:'TeX Gyre Pagella';-inkscape-font-specification:'TeX Gyre Pagella, Normal';font-variant-ligatures:normal;font-variant-caps:normal;font-variant-numeric:normal;font-variant-east-asian:normal;text-align:start;letter-spacing:0px;word-spacing:0px;text-anchor:start;fill:#000000;fill-opacity:1;stroke:none"
     x="1311.4186"
     y="441.79233"
     id="text16"><tspan
       sodipodi:role="line"
       x="1311.4186"
       y="441.79233"
       id="tspan16"><tspan
         dx="0"
         dy="0"
         style="font-style:normal;font-variant:normal;font-weight:normal;font-stretch:normal;font-size:26.6667px;font-family:'TeX Gyre Pagella';-inkscape-font-specification:'TeX Gyre Pagella, Normal';font-variant-ligatures:normal;font-variant-caps:normal;font-variant-numeric:normal;font-variant-east-asian:normal;fill:#000000"
         id="tspan15">2.1s</tspan></tspan></text>
  <path
     style="fill:none;stroke:#000000;stroke-width:1.00031px;stroke-linecap:round;stroke-linejoin:round;stroke-miterlimit:4;stroke-dasharray:none;stroke-opacity:1"
     d="m 1510.7728,405.02159 v 7.00221"
     id="path16" />
  <text
     xml:space="preserve"
     style="font-style:normal;font-variant:normal;font-weight:normal;font-stretch:normal;font-size:26.6667px;line-height:125%;font-family:'TeX Gyre Pagella';-inkscape-font-specification:'TeX Gyre Pagella, Normal';font-variant-ligatures:normal;font-variant-caps:normal;font-variant-numeric:normal;font-variant-east-asian:normal;text-align:start;letter-spacing:0px;word-spacing:0px;text-anchor:start;fill:#000000;fill-opacity:1;stroke:none"
     x="1491.4753"
     y="441.79233"
     id="text18"><tspan
       sodipodi:role="line"
       x="1491.4753"
       y="441.79233"
       id="tspan18"><tspan
         dx="0"
         dy="0"
         style="font-style:normal;font-variant:normal;font-weight:normal;font-stretch:normal;font-size:26.6667px;font-family:'TeX Gyre Pagella';-inkscape-font-specification:'TeX Gyre Pagella, Normal';font-variant-ligatures:normal;font-variant-caps:normal;font-variant-numeric:normal;font-variant-east-asian:normal;fill:#000000"
         id="tspan17">2.4s</tspan></tspan></text>
  <path
     style="fill:none;stroke:#000000;stroke-width:1.00031px;stroke-linecap:round;stroke-linejoin:round;stroke-miterlimit:4;stroke-dasharray:none;stroke-opacity:1"
     d="m 1691.8298,405.02159 v 7.00221"
     id="path18" />
  <text
     xml:space="preserve"
     style="font-style:normal;font-variant:normal;font-weight:normal;font-stretch:normal;font-size:26.6667px;line-height:125%;font-family:'TeX Gyre Pagella';-inkscape-font-specification:'TeX Gyre Pagella, Normal';font-variant-ligatures:normal;font-variant-caps:normal;font-variant-numeric:normal;font-variant-east-asian:normal;text-align:start;letter-spacing:0px;word-spacing:0px;text-anchor:start;fill:#000000;fill-opacity:1;stroke:none"
     x="1672.5323"
     y="441.79233"
     id="text20"><tspan
       sodipodi:role="line"
       x="1672.5323"
       y="441.79233"
       id="tspan20"><tspan
         dx="0"
         dy="0"
         style="font-style:normal;font-variant:normal;font-weight:normal;font-stretch:normal;font-size:26.6667px;font-family:'TeX Gyre Pagella';-inkscape-font-specification:'TeX Gyre Pagella, Normal';font-variant-ligatures:normal;font-variant-caps:normal;font-variant-numeric:normal;font-variant-east-asian:normal;fill:#000000"
         id="tspan19">2.7s</tspan></tspan></text>
  <path
     style="fill:none;stroke:#000000;stroke-width:1.00031px;stroke-linecap:round;stroke-linejoin:round;stroke-miterlimit:4;stroke-dasharray:none;stroke-opacity:1"
     d="m 1875.8865,405.02159 v 7.00221"
     id="path20" />
  <text
     xml:space="preserve"
     style="font-style:normal;font-variant:normal;font-weight:normal;font-stretch:normal;font-size:26.6667px;line-height:125%;font-family:'TeX Gyre Pagella';-inkscape-font-specification:'TeX Gyre Pagella, Normal';font-variant-ligatures:normal;font-variant-caps:normal;font-variant-numeric:normal;font-variant-east-asian:normal;text-align:start;letter-spacing:0px;word-spacing:0px;text-anchor:start;fill:#000000;fill-opacity:1;stroke:none"
     x="1854.5891"
     y="441.79233"
     id="text22"><tspan
       sodipodi:role="line"
       x="1854.5891"
       y="441.79233"
       id="tspan22"><tspan
         dx="0"
         dy="0"
         style="font-style:normal;font-variant:normal;font-weight:normal;font-stretch:normal;font-size:26.6667px;font-family:'TeX Gyre Pagella';-inkscape-font-specification:'TeX Gyre Pagella, Normal';font-variant-ligatures:normal;font-variant-caps:normal;font-variant-numeric:normal;font-variant-east-asian:normal;fill:#000000"
         id="tspan21">3.0s</tspan></tspan></text>
  <text
     xml:space="preserve"
     style="font-style:normal;font-variant:normal;font-weight:normal;font-stretch:normal;font-size:26.6667px;line-height:125%;font-family:'TeX Gyre Pagella';-inkscape-font-specification:'TeX Gyre Pagella, Normal';font-variant-ligatures:normal;font-variant-caps:normal;font-variant-numeric:normal;font-variant-east-asian:normal;text-align:start;letter-spacing:0px;word-spacing:0px;text-anchor:start;fill:#000000;fill-opacity:1;stroke:none"
     x="7.5733156"
     y="413.78793"
     id="text24"><tspan
       sodipodi:role="line"
       x="7.5733156"
       y="413.78793"
       id="tspan24"><tspan
         dx="0"
         dy="0"
         style="font-style:normal;font-variant:normal;font-weight:normal;font-stretch:normal;font-size:26.6667px;font-family:'TeX Gyre Pagella';-inkscape-font-specification:'TeX Gyre Pagella, Normal';font-variant-ligatures:normal;font-variant-caps:normal;font-variant-numeric:normal;font-variant-east-asian:normal;fill:#000000"
         id="tspan23">0.0V</tspan></tspan></text>
  <path
     style="fill:none;stroke:#000000;stroke-width:1.00031px;stroke-linecap:round;stroke-linejoin:round;stroke-miterlimit:4;stroke-dasharray:none;stroke-opacity:1"
     d="M 71.318224,405.02159 H 64.31602"
     id="path24" />
  <path
     style="fill:none;stroke:#000000;stroke-width:1.00031px;stroke-linecap:round;stroke-linejoin:round;stroke-miterlimit:4;stroke-dasharray:none;stroke-opacity:1"
     d="M 71.318224,375.01215 H 64.31602"
     id="path26" />
  <text
     xml:space="preserve"
     style="font-style:normal;font-variant:normal;font-weight:normal;font-stretch:normal;font-size:26.6667px;line-height:125%;font-family:'TeX Gyre Pagella';-inkscape-font-specification:'TeX Gyre Pagella, Normal';font-variant-ligatures:normal;font-variant-caps:normal;font-variant-numeric:normal;font-variant-east-asian:normal;text-align:start;letter-spacing:0px;word-spacing:0px;text-anchor:start;fill:#000000;fill-opacity:1;stroke:none"
     x="7.5733423"
     y="354.76935"
     id="text28"><tspan
       sodipodi:role="line"
       x="7.5733423"
       y="354.76935"
       id="tspan28"><tspan
         dx="0"
         dy="0"
         style="font-style:normal;font-variant:normal;font-weight:normal;font-stretch:normal;font-size:26.6667px;font-family:'TeX Gyre Pagella';-inkscape-font-specification:'TeX Gyre Pagella, Normal';font-variant-ligatures:normal;font-variant-caps:normal;font-variant-numeric:normal;font-variant-east-asian:normal;fill:#000000"
         id="tspan27">0.4V</tspan></tspan></text>
  <path
     style="fill:none;stroke:#000000;stroke-width:1.00031px;stroke-linecap:round;stroke-linejoin:round;stroke-miterlimit:4;stroke-dasharray:none;stroke-opacity:1"
     d="M 71.318224,346.00301 H 64.31602"
     id="path28" />
  <path
     style="fill:none;stroke:#000000;stroke-width:1.00031px;stroke-linecap:round;stroke-linejoin:round;stroke-miterlimit:4;stroke-dasharray:none;stroke-opacity:1"
     d="M 71.318224,315.99356 H 64.31602"
     id="path30" />
  <text
     xml:space="preserve"
     style="font-style:normal;font-variant:normal;font-weight:normal;font-stretch:normal;font-size:26.6667px;line-height:125%;font-family:'TeX Gyre Pagella';-inkscape-font-specification:'TeX Gyre Pagella, Normal';font-variant-ligatures:normal;font-variant-caps:normal;font-variant-numeric:normal;font-variant-east-asian:normal;text-align:start;letter-spacing:0px;word-spacing:0px;text-anchor:start;fill:#000000;fill-opacity:1;stroke:none"
     x="7.5733423"
     y="295.75076"
     id="text32"><tspan
       sodipodi:role="line"
       x="7.5733423"
       y="295.75076"
       id="tspan32"><tspan
         dx="0"
         dy="0"
         style="font-style:normal;font-variant:normal;font-weight:normal;font-stretch:normal;font-size:26.6667px;font-family:'TeX Gyre Pagella';-inkscape-font-specification:'TeX Gyre Pagella, Normal';font-variant-ligatures:normal;font-variant-caps:normal;font-variant-numeric:normal;font-variant-east-asian:normal;fill:#000000"
         id="tspan31">0.8V</tspan></tspan></text>
  <path
     style="fill:none;stroke:#000000;stroke-width:1.00031px;stroke-linecap:round;stroke-linejoin:round;stroke-miterlimit:4;stroke-dasharray:none;stroke-opacity:1"
     d="M 71.318224,286.98443 H 64.31602"
     id="path32" />
  <path
     style="fill:none;stroke:#000000;stroke-width:1.00031px;stroke-linecap:round;stroke-linejoin:round;stroke-miterlimit:4;stroke-dasharray:none;stroke-opacity:1"
     d="M 71.318224,256.97498 H 64.31602"
     id="path34" />
  <text
     xml:space="preserve"
     style="font-style:normal;font-variant:normal;font-weight:normal;font-stretch:normal;font-size:26.6667px;line-height:125%;font-family:'TeX Gyre Pagella';-inkscape-font-specification:'TeX Gyre Pagella, Normal';font-variant-ligatures:normal;font-variant-caps:normal;font-variant-numeric:normal;font-variant-east-asian:normal;text-align:start;letter-spacing:0px;word-spacing:0px;text-anchor:start;fill:#000000;fill-opacity:1;stroke:none"
     x="7.5733423"
     y="235.73187"
     id="text36"><tspan
       sodipodi:role="line"
       x="7.5733423"
       y="235.73187"
       id="tspan36"><tspan
         dx="0"
         dy="0"
         style="font-style:normal;font-variant:normal;font-weight:normal;font-stretch:normal;font-size:26.6667px;font-family:'TeX Gyre Pagella';-inkscape-font-specification:'TeX Gyre Pagella, Normal';font-variant-ligatures:normal;font-variant-caps:normal;font-variant-numeric:normal;font-variant-east-asian:normal;fill:#000000"
         id="tspan35">1.2V</tspan></tspan></text>
  <path
     style="fill:none;stroke:#000000;stroke-width:1.00031px;stroke-linecap:round;stroke-linejoin:round;stroke-miterlimit:4;stroke-dasharray:none;stroke-opacity:1"
     d="M 71.318224,226.96553 H 64.31602"
     id="path36" />
  <path
     style="fill:none;stroke:#000000;stroke-width:1.00031px;stroke-linecap:round;stroke-linejoin:round;stroke-miterlimit:4;stroke-dasharray:none;stroke-opacity:1"
     d="M 71.318224,197.9564 H 64.31602"
     id="path38" />
  <text
     xml:space="preserve"
     style="font-style:normal;font-variant:normal;font-weight:normal;font-stretch:normal;font-size:26.6667px;line-height:125%;font-family:'TeX Gyre Pagella';-inkscape-font-specification:'TeX Gyre Pagella, Normal';font-variant-ligatures:normal;font-variant-caps:normal;font-variant-numeric:normal;font-variant-east-asian:normal;text-align:start;letter-spacing:0px;word-spacing:0px;text-anchor:start;fill:#000000;fill-opacity:1;stroke:none"
     x="7.5733423"
     y="176.71329"
     id="text40"><tspan
       sodipodi:role="line"
       x="7.5733423"
       y="176.71329"
       id="tspan40"><tspan
         dx="0"
         dy="0"
         style="font-style:normal;font-variant:normal;font-weight:normal;font-stretch:normal;font-size:26.6667px;font-family:'TeX Gyre Pagella';-inkscape-font-specification:'TeX Gyre Pagella, Normal';font-variant-ligatures:normal;font-variant-caps:normal;font-variant-numeric:normal;font-variant-east-asian:normal;fill:#000000"
         id="tspan39">1.6V</tspan></tspan></text>
  <path
     style="fill:none;stroke:#000000;stroke-width:1.00031px;stroke-linecap:round;stroke-linejoin:round;stroke-miterlimit:4;stroke-dasharray:none;stroke-opacity:1"
     d="M 71.318224,167.94695 H 64.31602"
     id="path40" />
  <path
     style="fill:none;stroke:#000000;stroke-width:1.00031px;stroke-linecap:round;stroke-linejoin:round;stroke-miterlimit:4;stroke-dasharray:none;stroke-opacity:1"
     d="M 71.318224,137.9375 H 64.31602"
     id="path42" />
  <text
     xml:space="preserve"
     style="font-style:normal;font-variant:normal;font-weight:normal;font-stretch:normal;font-size:26.6667px;line-height:125%;font-family:'TeX Gyre Pagella';-inkscape-font-specification:'TeX Gyre Pagella, Normal';font-variant-ligatures:normal;font-variant-caps:normal;font-variant-numeric:normal;font-variant-east-asian:normal;text-align:start;letter-spacing:0px;word-spacing:0px;text-anchor:start;fill:#000000;fill-opacity:1;stroke:none"
     x="7.5733423"
     y="117.69472"
     id="text44"><tspan
       sodipodi:role="line"
       x="7.5733423"
       y="117.69472"
       id="tspan44"><tspan
         dx="0"
         dy="0"
         style="font-style:normal;font-variant:normal;font-weight:normal;font-stretch:normal;font-size:26.6667px;font-family:'TeX Gyre Pagella';-inkscape-font-specification:'TeX Gyre Pagella, Normal';font-variant-ligatures:normal;font-variant-caps:normal;font-variant-numeric:normal;font-variant-east-asian:normal;fill:#000000"
         id="tspan43">2.0V</tspan></tspan></text>
  <path
     style="fill:none;stroke:#000000;stroke-width:1.00031px;stroke-linecap:round;stroke-linejoin:round;stroke-miterlimit:4;stroke-dasharray:none;stroke-opacity:1"
     d="M 71.318224,108.92837 H 64.31602"
     id="path44" />
  <path
     style="fill:none;stroke:#000000;stroke-width:1.00031px;stroke-linecap:round;stroke-linejoin:round;stroke-miterlimit:4;stroke-dasharray:none;stroke-opacity:1"
     d="M 71.318224,78.918929 H 64.31602"
     id="path46" />
  <text
     xml:space="preserve"
     style="font-style:normal;font-variant:normal;font-weight:normal;font-stretch:normal;font-size:26.6667px;line-height:125%;font-family:'TeX Gyre Pagella';-inkscape-font-specification:'TeX Gyre Pagella, Normal';font-variant-ligatures:normal;font-variant-caps:normal;font-variant-numeric:normal;font-variant-east-asian:normal;text-align:start;letter-spacing:0px;word-spacing:0px;text-anchor:start;fill:#000000;fill-opacity:1;stroke:none"
     x="7.5733423"
     y="58.676163"
     id="text48"><tspan
       sodipodi:role="line"
       x="7.5733423"
       y="58.676163"
       id="tspan48"><tspan
         dx="0"
         dy="0"
         style="font-style:normal;font-variant:normal;font-weight:normal;font-stretch:normal;font-size:26.6667px;font-family:'TeX Gyre Pagella';-inkscape-font-specification:'TeX Gyre Pagella, Normal';font-variant-ligatures:normal;font-variant-caps:normal;font-variant-numeric:normal;font-variant-east-asian:normal;fill:#000000"
         id="tspan47">2.4V</tspan></tspan></text>
  <path
     style="fill:none;stroke:#000000;stroke-width:1.00031px;stroke-linecap:round;stroke-linejoin:round;stroke-miterlimit:4;stroke-dasharray:none;stroke-opacity:1"
     d="M 71.318224,49.909795 H 64.31602"
     id="path48" />
  <path
     style="fill:none;stroke:#000000;stroke-width:1.00031px;stroke-linecap:round;stroke-linejoin:round;stroke-miterlimit:4;stroke-dasharray:none;stroke-opacity:1"
     d="M 71.318224,19.900346 H 64.31602"
     id="path50" />
  <text
     xml:space="preserve"
     style="font-style:normal;font-variant:normal;font-weight:normal;font-stretch:normal;font-size:26.6667px;line-height:125%;font-family:'TeX Gyre Pagella';-inkscape-font-specification:'TeX Gyre Pagella, Normal';font-variant-ligatures:normal;font-variant-caps:normal;font-variant-numeric:normal;font-variant-east-asian:normal;text-align:start;letter-spacing:0px;word-spacing:0px;text-anchor:start;fill:#000000;fill-opacity:1;stroke:none"
     x="1888.9391"
     y="411.78793"
     id="text52"><tspan
       sodipodi:role="line"
       x="1888.9391"
       y="411.78793"
       id="tspan52"><tspan
         dx="0"
         dy="0"
         style="font-style:normal;font-variant:normal;font-weight:normal;font-stretch:normal;font-size:26.6667px;font-family:'TeX Gyre Pagella';-inkscape-font-specification:'TeX Gyre Pagella, Normal';font-variant-ligatures:normal;font-variant-caps:normal;font-variant-numeric:normal;font-variant-east-asian:normal;fill:#000000"
         id="tspan51">-500mA</tspan></tspan></text>
  <path
     style="fill:none;stroke:#000000;stroke-width:1.00031px;stroke-linecap:round;stroke-linejoin:round;stroke-miterlimit:4;stroke-dasharray:none;stroke-opacity:1"
     d="m 1875.8865,405.02159 h 7.0022"
     id="path52" />
  <text
     xml:space="preserve"
     style="font-style:normal;font-variant:normal;font-weight:normal;font-stretch:normal;font-size:26.6667px;line-height:125%;font-family:'TeX Gyre Pagella';-inkscape-font-specification:'TeX Gyre Pagella, Normal';font-variant-ligatures:normal;font-variant-caps:normal;font-variant-numeric:normal;font-variant-east-asian:normal;text-align:start;letter-spacing:0px;word-spacing:0px;text-anchor:start;fill:#000000;fill-opacity:1;stroke:none"
     x="1888.9391"
     y="376.77692"
     id="text54"><tspan
       sodipodi:role="line"
       x="1888.9391"
       y="376.77692"
       id="tspan54"><tspan
         dx="0"
         dy="0"
         style="font-style:normal;font-variant:normal;font-weight:normal;font-stretch:normal;font-size:26.6667px;font-family:'TeX Gyre Pagella';-inkscape-font-specification:'TeX Gyre Pagella, Normal';font-variant-ligatures:normal;font-variant-caps:normal;font-variant-numeric:normal;font-variant-east-asian:normal;fill:#000000"
         id="tspan53">-400mA</tspan></tspan></text>
  <path
     style="fill:none;stroke:#000000;stroke-width:1.00031px;stroke-linecap:round;stroke-linejoin:round;stroke-miterlimit:4;stroke-dasharray:none;stroke-opacity:1"
     d="m 1875.8865,370.01057 h 7.0022"
     id="path54" />
  <text
     xml:space="preserve"
     style="font-style:normal;font-variant:normal;font-weight:normal;font-stretch:normal;font-size:26.6667px;line-height:125%;font-family:'TeX Gyre Pagella';-inkscape-font-specification:'TeX Gyre Pagella, Normal';font-variant-ligatures:normal;font-variant-caps:normal;font-variant-numeric:normal;font-variant-east-asian:normal;text-align:start;letter-spacing:0px;word-spacing:0px;text-anchor:start;fill:#000000;fill-opacity:1;stroke:none"
     x="1888.9391"
     y="341.76587"
     id="text56"><tspan
       sodipodi:role="line"
       x="1888.9391"
       y="341.76587"
       id="tspan56"><tspan
         dx="0"
         dy="0"
         style="font-style:normal;font-variant:normal;font-weight:normal;font-stretch:normal;font-size:26.6667px;font-family:'TeX Gyre Pagella';-inkscape-font-specification:'TeX Gyre Pagella, Normal';font-variant-ligatures:normal;font-variant-caps:normal;font-variant-numeric:normal;font-variant-east-asian:normal;fill:#000000"
         id="tspan55">-300mA</tspan></tspan></text>
  <path
     style="fill:none;stroke:#000000;stroke-width:1.00031px;stroke-linecap:round;stroke-linejoin:round;stroke-miterlimit:4;stroke-dasharray:none;stroke-opacity:1"
     d="m 1875.8865,334.99955 h 7.0022"
     id="path56" />
  <text
     xml:space="preserve"
     style="font-style:normal;font-variant:normal;font-weight:normal;font-stretch:normal;font-size:26.6667px;line-height:125%;font-family:'TeX Gyre Pagella';-inkscape-font-specification:'TeX Gyre Pagella, Normal';font-variant-ligatures:normal;font-variant-caps:normal;font-variant-numeric:normal;font-variant-east-asian:normal;text-align:start;letter-spacing:0px;word-spacing:0px;text-anchor:start;fill:#000000;fill-opacity:1;stroke:none"
     x="1888.9391"
     y="306.75485"
     id="text58"><tspan
       sodipodi:role="line"
       x="1888.9391"
       y="306.75485"
       id="tspan58"><tspan
         dx="0"
         dy="0"
         style="font-style:normal;font-variant:normal;font-weight:normal;font-stretch:normal;font-size:26.6667px;font-family:'TeX Gyre Pagella';-inkscape-font-specification:'TeX Gyre Pagella, Normal';font-variant-ligatures:normal;font-variant-caps:normal;font-variant-numeric:normal;font-variant-east-asian:normal;fill:#000000"
         id="tspan57">-200mA</tspan></tspan></text>
  <path
     style="fill:none;stroke:#000000;stroke-width:1.00031px;stroke-linecap:round;stroke-linejoin:round;stroke-miterlimit:4;stroke-dasharray:none;stroke-opacity:1"
     d="m 1875.8865,299.98852 h 7.0022"
     id="path58" />
  <text
     xml:space="preserve"
     style="font-style:normal;font-variant:normal;font-weight:normal;font-stretch:normal;font-size:26.6667px;line-height:125%;font-family:'TeX Gyre Pagella';-inkscape-font-specification:'TeX Gyre Pagella, Normal';font-variant-ligatures:normal;font-variant-caps:normal;font-variant-numeric:normal;font-variant-east-asian:normal;text-align:start;letter-spacing:0px;word-spacing:0px;text-anchor:start;fill:#000000;fill-opacity:1;stroke:none"
     x="1888.9391"
     y="271.74384"
     id="text60"><tspan
       sodipodi:role="line"
       x="1888.9391"
       y="271.74384"
       id="tspan60"><tspan
         dx="0"
         dy="0"
         style="font-style:normal;font-variant:normal;font-weight:normal;font-stretch:normal;font-size:26.6667px;font-family:'TeX Gyre Pagella';-inkscape-font-specification:'TeX Gyre Pagella, Normal';font-variant-ligatures:normal;font-variant-caps:normal;font-variant-numeric:normal;font-variant-east-asian:normal;fill:#000000"
         id="tspan59">-100mA</tspan></tspan></text>
  <path
     style="fill:none;stroke:#000000;stroke-width:1.00031px;stroke-linecap:round;stroke-linejoin:round;stroke-miterlimit:4;stroke-dasharray:none;stroke-opacity:1"
     d="m 1875.8865,264.9775 h 7.0022"
     id="path60" />
  <text
     xml:space="preserve"
     style="font-style:normal;font-variant:normal;font-weight:normal;font-stretch:normal;font-size:26.6667px;line-height:125%;font-family:'TeX Gyre Pagella';-inkscape-font-specification:'TeX Gyre Pagella, Normal';font-variant-ligatures:normal;font-variant-caps:normal;font-variant-numeric:normal;font-variant-east-asian:normal;text-align:start;letter-spacing:0px;word-spacing:0px;text-anchor:start;fill:#000000;fill-opacity:1;stroke:none"
     x="1907.7281"
     y="236.73282"
     id="text62"><tspan
       sodipodi:role="line"
       x="1907.7281"
       y="236.73282"
       id="tspan62"><tspan
         dx="0"
         dy="0"
         style="font-style:normal;font-variant:normal;font-weight:normal;font-stretch:normal;font-size:26.6667px;font-family:'TeX Gyre Pagella';-inkscape-font-specification:'TeX Gyre Pagella, Normal';font-variant-ligatures:normal;font-variant-caps:normal;font-variant-numeric:normal;font-variant-east-asian:normal;fill:#000000"
         id="tspan61">0mA</tspan></tspan></text>
  <path
     style="fill:none;stroke:#000000;stroke-width:1.00031px;stroke-linecap:round;stroke-linejoin:round;stroke-miterlimit:4;stroke-dasharray:none;stroke-opacity:1"
     d="m 1875.8865,229.96648 h 7.0022"
     id="path62" />
  <text
     xml:space="preserve"
     style="font-style:normal;font-variant:normal;font-weight:normal;font-stretch:normal;font-size:26.6667px;line-height:125%;font-family:'TeX Gyre Pagella';-inkscape-font-specification:'TeX Gyre Pagella, Normal';font-variant-ligatures:normal;font-variant-caps:normal;font-variant-numeric:normal;font-variant-east-asian:normal;text-align:start;letter-spacing:0px;word-spacing:0px;text-anchor:start;fill:#000000;fill-opacity:1;stroke:none"
     x="1893.2682"
     y="201.72179"
     id="text64"><tspan
       sodipodi:role="line"
       x="1893.2682"
       y="201.72179"
       id="tspan64"><tspan
         dx="0"
         dy="0"
         style="font-style:normal;font-variant:normal;font-weight:normal;font-stretch:normal;font-size:26.6667px;font-family:'TeX Gyre Pagella';-inkscape-font-specification:'TeX Gyre Pagella, Normal';font-variant-ligatures:normal;font-variant-caps:normal;font-variant-numeric:normal;font-variant-east-asian:normal;fill:#000000"
         id="tspan63">100mA</tspan></tspan></text>
  <path
     style="fill:none;stroke:#000000;stroke-width:1.00031px;stroke-linecap:round;stroke-linejoin:round;stroke-miterlimit:4;stroke-dasharray:none;stroke-opacity:1"
     d="m 1875.8865,194.95545 h 7.0022"
     id="path64" />
  <text
     xml:space="preserve"
     style="font-style:normal;font-variant:normal;font-weight:normal;font-stretch:normal;font-size:26.6667px;line-height:125%;font-family:'TeX Gyre Pagella';-inkscape-font-specification:'TeX Gyre Pagella, Normal';font-variant-ligatures:normal;font-variant-caps:normal;font-variant-numeric:normal;font-variant-east-asian:normal;text-align:start;letter-spacing:0px;word-spacing:0px;text-anchor:start;fill:#000000;fill-opacity:1;stroke:none"
     x="1893.2682"
     y="166.71075"
     id="text66"><tspan
       sodipodi:role="line"
       x="1893.2682"
       y="166.71075"
       id="tspan66"><tspan
         dx="0"
         dy="0"
         style="font-style:normal;font-variant:normal;font-weight:normal;font-stretch:normal;font-size:26.6667px;font-family:'TeX Gyre Pagella';-inkscape-font-specification:'TeX Gyre Pagella, Normal';font-variant-ligatures:normal;font-variant-caps:normal;font-variant-numeric:normal;font-variant-east-asian:normal;fill:#000000"
         id="tspan65">200mA</tspan></tspan></text>
  <path
     style="fill:none;stroke:#000000;stroke-width:1.00031px;stroke-linecap:round;stroke-linejoin:round;stroke-miterlimit:4;stroke-dasharray:none;stroke-opacity:1"
     d="m 1875.8865,159.94443 h 7.0022"
     id="path66" />
  <text
     xml:space="preserve"
     style="font-style:normal;font-variant:normal;font-weight:normal;font-stretch:normal;font-size:26.6667px;line-height:125%;font-family:'TeX Gyre Pagella';-inkscape-font-specification:'TeX Gyre Pagella, Normal';font-variant-ligatures:normal;font-variant-caps:normal;font-variant-numeric:normal;font-variant-east-asian:normal;text-align:start;letter-spacing:0px;word-spacing:0px;text-anchor:start;fill:#000000;fill-opacity:1;stroke:none"
     x="1893.2682"
     y="131.69975"
     id="text68"><tspan
       sodipodi:role="line"
       x="1893.2682"
       y="131.69975"
       id="tspan68"><tspan
         dx="0"
         dy="0"
         style="font-style:normal;font-variant:normal;font-weight:normal;font-stretch:normal;font-size:26.6667px;font-family:'TeX Gyre Pagella';-inkscape-font-specification:'TeX Gyre Pagella, Normal';font-variant-ligatures:normal;font-variant-caps:normal;font-variant-numeric:normal;font-variant-east-asian:normal;fill:#000000"
         id="tspan67">300mA</tspan></tspan></text>
  <path
     style="fill:none;stroke:#000000;stroke-width:1.00031px;stroke-linecap:round;stroke-linejoin:round;stroke-miterlimit:4;stroke-dasharray:none;stroke-opacity:1"
     d="m 1875.8865,124.93341 h 7.0022"
     id="path68" />
  <text
     xml:space="preserve"
     style="font-style:normal;font-variant:normal;font-weight:normal;font-stretch:normal;font-size:26.6667px;line-height:125%;font-family:'TeX Gyre Pagella';-inkscape-font-specification:'TeX Gyre Pagella, Normal';font-variant-ligatures:normal;font-variant-caps:normal;font-variant-numeric:normal;font-variant-east-asian:normal;text-align:start;letter-spacing:0px;word-spacing:0px;text-anchor:start;fill:#000000;fill-opacity:1;stroke:none"
     x="1893.2682"
     y="96.688728"
     id="text70"><tspan
       sodipodi:role="line"
       x="1893.2682"
       y="96.688728"
       id="tspan70"><tspan
         dx="0"
         dy="0"
         style="font-style:normal;font-variant:normal;font-weight:normal;font-stretch:normal;font-size:26.6667px;font-family:'TeX Gyre Pagella';-inkscape-font-specification:'TeX Gyre Pagella, Normal';font-variant-ligatures:normal;font-variant-caps:normal;font-variant-numeric:normal;font-variant-east-asian:normal;fill:#000000"
         id="tspan69">400mA</tspan></tspan></text>
  <path
     style="fill:none;stroke:#000000;stroke-width:1.00031px;stroke-linecap:round;stroke-linejoin:round;stroke-miterlimit:4;stroke-dasharray:none;stroke-opacity:1"
     d="m 1875.8865,89.922394 h 7.0022"
     id="path70" />
  <text
     xml:space="preserve"
     style="font-style:normal;font-variant:normal;font-weight:normal;font-stretch:normal;font-size:26.6667px;line-height:125%;font-family:'TeX Gyre Pagella';-inkscape-font-specification:'TeX Gyre Pagella, Normal';font-variant-ligatures:normal;font-variant-caps:normal;font-variant-numeric:normal;font-variant-east-asian:normal;text-align:start;letter-spacing:0px;word-spacing:0px;text-anchor:start;fill:#000000;fill-opacity:1;stroke:none"
     x="1893.2682"
     y="61.677738"
     id="text72"><tspan
       sodipodi:role="line"
       x="1893.2682"
       y="61.677738"
       id="tspan72"><tspan
         dx="0"
         dy="0"
         style="font-style:normal;font-variant:normal;font-weight:normal;font-stretch:normal;font-size:26.6667px;font-family:'TeX Gyre Pagella';-inkscape-font-specification:'TeX Gyre Pagella, Normal';font-variant-ligatures:normal;font-variant-caps:normal;font-variant-numeric:normal;font-variant-east-asian:normal;fill:#000000"
         id="tspan71">500mA</tspan></tspan></text>
  <path
     style="fill:none;stroke:#000000;stroke-width:1.00031px;stroke-linecap:round;stroke-linejoin:round;stroke-miterlimit:4;stroke-dasharray:none;stroke-opacity:1"
     d="m 1875.8865,54.91137 h 7.0022"
     id="path72" />
  <text
     xml:space="preserve"
     style="font-style:normal;font-variant:normal;font-weight:normal;font-stretch:normal;font-size:26.6667px;line-height:125%;font-family:'TeX Gyre Pagella';-inkscape-font-specification:'TeX Gyre Pagella, Normal';font-variant-ligatures:normal;font-variant-caps:normal;font-variant-numeric:normal;font-variant-east-asian:normal;text-align:start;letter-spacing:0px;word-spacing:0px;text-anchor:start;fill:#000000;fill-opacity:1;stroke:none"
     x="1893.2682"
     y="26.666698"
     id="text74"><tspan
       sodipodi:role="line"
       x="1893.2682"
       y="26.666698"
       id="tspan74"><tspan
         dx="0"
         dy="0"
         style="font-style:normal;font-variant:normal;font-weight:normal;font-stretch:normal;font-size:26.6667px;font-family:'TeX Gyre Pagella';-inkscape-font-specification:'TeX Gyre Pagella, Normal';font-variant-ligatures:normal;font-variant-caps:normal;font-variant-numeric:normal;font-variant-east-asian:normal;fill:#000000"
         id="tspan73">600mA</tspan></tspan></text>
  <path
     style="fill:none;stroke:#000000;stroke-width:1.00031px;stroke-linecap:round;stroke-linejoin:round;stroke-miterlimit:4;stroke-dasharray:none;stroke-opacity:1"
     d="m 1875.8865,19.900346 h 7.0022"
     id="path74" />
  <path
     style="fill:none;stroke:#000000;stroke-width:1.00031px;stroke-linecap:round;stroke-linejoin:round;stroke-miterlimit:4;stroke-dasharray:none;stroke-opacity:1"
     d="M 71.318224,19.900346 H 1875.8865 V 405.02159 H 71.318224 V 19.900346"
     id="path75" />
  <text
     xml:space="preserve"
     style="font-style:normal;font-variant:normal;font-weight:normal;font-stretch:normal;font-size:26.6667px;line-height:125%;font-family:'TeX Gyre Pagella';-inkscape-font-specification:'TeX Gyre Pagella, Normal';font-variant-ligatures:normal;font-variant-caps:normal;font-variant-numeric:normal;font-variant-east-asian:normal;text-align:start;letter-spacing:0px;word-spacing:0px;text-anchor:start;fill:#ff6600;fill-opacity:1;stroke:#ff6600"
     x="1737.4167"
     y="103.19235"
     id="text76"><tspan
       sodipodi:role="line"
       x="1737.4167"
       y="103.19235"
       id="tspan76"><tspan
         dx="0"
         dy="0"
         style="font-style:normal;font-variant:normal;font-weight:normal;font-stretch:normal;font-size:26.6667px;font-family:'TeX Gyre Pagella';-inkscape-font-specification:'TeX Gyre Pagella, Normal';font-variant-ligatures:normal;font-variant-caps:normal;font-variant-numeric:normal;font-variant-east-asian:normal;fill:#ff6600;stroke:#ff6600"
         id="tspan75">V(dac)</tspan></tspan></text>
  <path
     style="fill:none;stroke:#ff6600;stroke-width:3.77953;stroke-linecap:round;stroke-linejoin:round;stroke-miterlimit:4;stroke-dasharray:none;stroke-opacity:1"
     d="m 71.318224,219.96333 1.000315,-2.00063 1.000315,-2.00063 1.000315,-3.00095 1.000315,-2.00063 2.00063,-2.00063 1.000315,-2.00063 1.000315,-2.00063 1.000315,-2.00063 1.000315,-2.00063 1.000315,-3.00094 1.000315,-2.00063 1.000315,-2.00063 1.000315,-2.00063 2.00063,-2.00063 1.000315,-2.00063 1.000315,-2.00063 1.000315,-2.00063 1.000315,-3.00095 1.000315,-2.00063 1.000315,-2.00063 3.000944,-4.00126 2.00063,-4.00126 2.000632,-5.00157 2.00063,-4.00126 3.00094,-4.00126 2.00062,-4.00126 2.00063,-4.00126 3.00094,-4.00126 2.00063,-4.00126 2.00063,-4.00126 2.00063,-4.00126 3.00095,-4.00126 2.00063,-4.00126 2.00063,-3.00094 3.00094,-4.00126 2.00063,-4.00126 2.00063,-3.00095 2.00063,-4.00125 3.00094,-3.00094 2.00063,-4.001262 2.00063,-2.00063 1.00032,-3.000945 2.00063,-2.00063 2.00063,-2.000629 1.00031,-3.000945 2.00063,-2.00063 2.00063,-2.00063 1.00032,-2.00063 2.00063,-2.00063 2.00063,-2.00063 1.00031,-2.00063 2.00063,-2.00063 2.00063,-2.00063 2.00063,-2.00063 1.00031,-2.00063 2.00063,-2.000629 2.00063,-2.00063 3.00095,-3.000945 2.00063,-2.00063 3.00094,-3.000945 3.00095,-2.00063 1.00031,-2.00063 2.00063,-1.000315 2.00063,-1.000315 3.00095,-2.00063 3.00094,-2.00063 2.00063,-1.000315 3.00095,-2.00063 3.00094,-2.000629 h 2.00063 l 3.00095,-2.00063 7.0022,-2.00063 5.00158,-1.000315 h 5.00157 5.00158 l 6.00189,1.000315 5.00157,1.000315 5.00158,2.00063 6.00189,2.00063 5.00157,3.000944 2.00063,1.000315 2.00063,2.00063 2.00063,1.000315 2.00063,1.000315 2.00063,2.00063 3.00095,3.000945 2.00063,2.00063 2.00063,2.00063 2.00063,1.000315 2.00063,2.00063 2.00063,2.00063 2.00063,2.00063 2.00063,2.000629 2.00063,2.00063 2.00063,3.000945 2.00063,2.00063 2.00062,2.00063 2.00063,3.000945 2.00063,2.00063 2.00063,4.00126 3.00095,3.000945 2.00063,4.001259 3.00094,3.000945 2.00063,4.00126 3.00095,4.001262 2.00063,3.00094 3.00094,4.00125 3.00095,4.00126 2.00063,4.00126 3.00094,5.00158 2.00063,4.00126 3.00095,4.00125 2.00063,4.00126 3.00094,5.00158 2.00063,4.00126 3.00095,5.00157 3.00094,4.00126 2.00063,5.00158 3.00095,5.00157 1.00031,2.00063 1.00032,3.00095 2.00063,2.00063 1.00031,3.00094 1.00032,2.00063 2.00063,3.00095 1.00031,2.00063 1.00032,3.00094 2.00063,2.00063 1.00031,3.00095 1.00032,2.00063 2.00063,3.00094 1.00031,2.00063 1.00032,3.00095 1.00031,2.00063 2.00063,3.00094 1.00032,2.00063 1.00031,3.00095 2.00063,2.00063 1.00032,3.00094 1.00031,2.00063 1.00032,2.00063 1.00031,2.00063 1.00032,2.00063 1.00031,2.00063 1.00032,2.00063 1.00031,2.00063 2.00063,2.00063 1.00032,2.00063 1.00031,2.00063 5.00158,11.00347 3.00094,6.00189 6.00189,10.00314 3.00095,7.00221 4.00126,7.0022 5.00157,9.00284 2.00063,3.00094 1.00032,3.00095 2.00063,3.00094 1.00031,3.00095 2.00063,2.00063 2.00063,3.00094 1.00031,3.00095 2.00063,3.00094 1.00032,2.00063 2.00063,3.00095 2.00063,3.00094 1.00031,2.00063 2.00063,3.00095 1.00032,2.00063 2.00063,3.00094 1.00031,3.00095 2.00063,2.00063 2.00063,3.00094 1.00032,2.00063 2.00063,2.00063 5.00157,8.00252 5.00158,8.00252 6.00189,7.00221 5.00157,6.00189 5.00158,6.00189 6.00189,6.00189 5.00157,5.00157 3.00095,3.00094 4.00126,3.00095 3.00094,3.00094 4.00126,2.00063 2.00063,2.00063 3.00095,2.00063 2.00063,1.00032 2.00063,1.00031 3.00094,1.00032 2.00063,1.00031 2.00063,1.00032 h 2.00063 l 2.00063,1.00031 2.00063,1.00032 h 3.00095 2.00063 l 3.00094,1.00031 h 2.00063 2.00063 2.00063 2.00063 2.00063 l 2.00063,-1.00031 h 2.00063 2.00063 l 2.00063,-1.00032 3.00095,-1.00031 2.00062,-1.00032 h 2.00063 l 2.00063,-1.00031 3.00095,-2.00063 2.00063,-1.00032 2.00063,-1.00031 3.00094,-2.00063 4.00126,-2.00063 3.00095,-3.00095 4.00126,-3.00094 3.00094,-3.00094 5.00158,-5.00158 6.00189,-6.00189 5.00157,-6.00189 5.00158,-6.00189 6.00189,-7.0022 5.00157,-7.00221 5.00158,-8.00252 2.00063,-2.00063 1.00031,-2.00063 1.00032,-3.00094 2.00063,-2.00063 1.00031,-2.00063 2.00063,-2.00063 1.00032,-2.00063 1.00031,-3.00095 2.00063,-2.00063 1.00032,-2.00063 2.00063,-3.00094 1.00031,-2.00063 2.00063,-2.00063 1.00032,-3.00095 1.00031,-2.00063 2.00063,-3.00094 1.00032,-2.00063 2.00063,-3.00095 1.00031,-2.00063 1.00032,-3.00094 2.00063,-3.00095 1.00031,-2.00063 1.00032,-2.00063 1.00031,-2.00063 1.00032,-2.00063 2.00063,-3.00094 1.00031,-2.00063 1.00032,-2.00063 1.00031,-2.00063 1.00032,-2.00063 1.00031,-2.00063 5.00158,-8.00252 5.00157,-10.00315 2.00063,-3.00094 1.00032,-2.00063 1.00031,-2.00063 1.00032,-2.00063 1.00031,-2.00063 1.00032,-2.00063 1.00031,-2.00063 1.00032,-2.00063 1.00031,-2.00063 1.00031,-2.00063 1.00032,-2.00063 1.00031,-2.00063 1.00032,-2.00063 1.00031,-2.00063 1.00032,-2.00063 1.00031,-2.00063 1.00032,-2.00063 1.00031,-2.00063 1.00032,-2.00063 2.00063,-3.00095 1.00031,-2.00063 1.00032,-2.00063 1.00031,-2.00063 1.00032,-2.00063 1.00031,-2.00063 2.00063,-3.00094 1.00032,-2.00063 1.00031,-2.00063 1.00032,-2.00063 1.00031,-2.00063 1.00032,-2.00063 2.00063,-4.00126 2.00063,-4.00126 2.00063,-4.00126 3.00094,-4.00126 2.00063,-4.00126 2.00063,-4.00126 2.00063,-4.00126 2.00063,-4.00126 3.00095,-4.00126 2.00063,-4.00126 2.00063,-4.00126 2.00063,-4.00126 2.00063,-3.00095 3.00094,-4.00125 2.00063,-4.00126 2.00063,-3.00095 2.00063,-4.00126 2.00063,-4.00126 3.00095,-3.00094 2.00063,-4.00126 2.00063,-2.00062 2.00063,-3.00095 1.00031,-3.000942 2.00063,-3.000945 2.00063,-2.00063 2.00063,-3.000944 2.00063,-2.00063 2.00063,-3.000945 1.00032,-2.00063 2.00063,-3.000945 2.00063,-2.00063 2.00063,-2.00063 2.00063,-3.000945 2.00063,-2.00063 2.00063,-2.00063 1.00031,-2.00063 2.00063,-2.000629 2.00063,-2.00063 2.00063,-2.00063 2.00063,-2.00063 3.00095,-3.000945 2.00063,-1.000315 1.00031,-2.00063 2.00063,-1.000315 3.00095,-2.00063 1.00031,-2.00063 2.00063,-1.000315 2.00063,-1.000315 3.00095,-2.00063 3.00094,-2.00063 2.00063,-1.000315 3.00094,-1.000314 3.00095,-2.00063 h 2.00063 l 5.00157,-2.00063 5.00158,-1.000315 5.00157,-1.000315 h 6.00189 5.00158 l 5.00157,1.000315 6.00189,2.00063 5.00158,2.00063 5.00157,3.000944 2.00063,1.000315 2.00063,2.00063 2.00063,1.000315 3.00095,1.000315 2.00063,2.00063 2.00063,2.00063 2.00063,1.000315 2.00063,2.00063 2.00063,2.00063 2.00063,2.00063 2.00063,2.00063 2.00063,2.00063 3.00094,2.00063 2.00063,3.000944 2.00063,2.00063 2.00063,3.000945 2.00063,2.00063 2.00063,3.000945 2.00063,2.00063 2.00063,3.000945 3.00095,3.000945 2.00063,4.00126 3.00094,3.000944 2.00063,4.00126 3.00095,3.000945 2.00063,4.001257 3.00094,4.00125 2.00063,4.00126 3.00095,3.00095 2.00063,4.00126 2.00063,4.00126 3.00094,4.00126 2.00063,5.00157 3.00094,4.00126 2.00063,4.00126 3.00095,4.00126 2.00063,5.00157 3.00094,4.00126 2.00063,5.00158 3.00095,4.00126 1.00031,3.00094 2.00063,2.00063 1.00032,3.00095 1.00031,3.00094 2.00063,2.00063 1.00032,3.00095 2.00063,3.00094 1.00031,2.00063 1.00032,3.00095 2.00063,3.00094 1.00031,2.00063 2.00063,3.00095 1.00032,3.00094 1.00031,2.00063 2.00063,3.00095 1.00032,3.00094 2.00063,3.00095 1.00031,2.00063 1.00032,3.00094 2.00063,3.00095 3.00094,7.0022 1.00032,2.00063 1.00031,2.00063 2.00063,3.00095 1.00032,2.00063 1.00031,2.00063 1.00032,2.00063 1.00031,2.00063 1.00032,2.00063 1.00031,2.00063 1.00032,2.00063 1.00031,2.00063 1.00032,2.00063 1.00031,2.00063 6.00189,10.00314 3.00095,6.00189 4.00124,7.00221 5.0016,10.00315 2.0007,3.00094 1.0003,2.00063 2.0006,3.00095 1.0003,3.00094 2.0007,3.00095 2.0006,3.00094 1.0003,2.00063 2.0006,3.00095 1.0003,3.00094 2.0007,3.00095 2.0006,2.00063 1.0003,3.00094 2.0007,2.00063 1.0003,3.00095 2.0006,3.00094 1.0003,2.00063 2.0007,3.00095 2.0006,2.00063 1.0003,2.00063 2.0007,3.00094 5.0015,8.00252 5.0016,7.00221 6.0019,7.0022 5.0016,7.00221 5.0015,6.00189 6.0019,6.00189 5.0016,5.00157 3.0009,3.00094 4.0013,3.00095 3.001,3.00094 4.0012,2.00063 2.0006,1.00032 3.001,2.00063 2.0006,1.00031 2.0006,1.00032 3.001,2.00063 2.0006,1.00031 2.0007,1.00032 h 2.0006 l 3.0009,1.00031 2.0007,1.00032 h 2.0006 l 3.0009,1.00031 h 2.0007 2.0006 3.0009 3.001 2.0006 l 3.001,-1.00031 h 2.0006 l 3.0009,-1.00032 h 2.0007 l 2.0006,-1.00031 3.0009,-1.00032 2.0007,-1.00031 2.0006,-1.00032 3.0009,-2.00063 2.0007,-1.00031 2.0006,-1.00032 5.0016,-3.00094 4.0012,-3.00095 3.001,-3.00094 4.0012,-3.00094 5.0016,-5.00158 5.0016,-6.00189 5.0016,-6.00189 6.0019,-6.00189 5.0015,-7.0022 5.0016,-7.00221 6.0019,-8.00252 1.0003,-2.00063 1.0003,-2.00063 2.0007,-3.00094 1.0003,-2.00063 2.0006,-2.00063 1.0003,-2.00063 1.0003,-2.00063 2.0007,-3.00095 1.0003,-2.00063 2.0006,-2.00063 1.0003,-3.00094 1.0003,-2.00063 2.0007,-2.00063 1.0003,-3.00095 2.0006,-2.00063 1.0003,-3.00094 2.0007,-2.00063 1.0003,-3.00095 1.0003,-2.00063 2.0006,-3.00094 2.0006,-3.00095 1.0004,-2.00063 1.0003,-2.00063 1.0003,-2.00063 1.0003,-2.00063 2.0006,-3.00094 1.0003,-2.00063 1.0004,-2.00063 1.0003,-2.00063 1.0003,-2.00063 1.0003,-2.00063 4.0013,-8.00252 6.0019,-10.00315 1.0003,-4.00126 2.0006,-3.00094 1.0003,-2.00063 2.0006,-2.00063 1.0004,-2.00063 1.0003,-2.00063 1.0003,-2.00063 1.0003,-2.00063 1.0003,-2.00063 1.0003,-2.00063 1.0004,-2.00063 1.0003,-2.00063 1.0003,-2.00063 1.0003,-2.00063 1.0003,-2.00063 1.0003,-2.00063 1.0003,-2.00063 1.0004,-2.00063 1.0003,-3.00095 1.0003,-2.00063 1.0003,-2.00063 1.0003,-2.00063 1.0003,-2.00063 1.0003,-2.00063 2.0007,-3.00094 1.0003,-2.00063 1.0003,-2.00063 1.0003,-2.00063 1.0003,-2.00063 1.0004,-2.00063 2.0006,-4.00126 3.0009,-4.00126 2.0007,-4.00126 2.0006,-4.00126 2.0006,-4.00126 2.0006,-4.00126 3.001,-4.00126 2.0006,-4.00126 2.0006,-4.00126 2.0007,-4.00126 2.0006,-4.00126 3.001,-4.00126 2.0006,-3.00095 2.0006,-4.00125 2.0006,-4.00126 2.0007,-3.00095 3.0009,-4.00126 2.0006,-4.00126 2.0007,-3.00094 2.0006,-4.00126 2.0006,-2.00062 2.0007,-3.00095 2.0006,-3.000942 2.0006,-3.000945 1.0003,-2.00063 2.0007,-3.000944 2.0006,-2.00063 2.0006,-3.000945 2.0007,-2.00063 2.0006,-3.000945 2.0006,-2.00063 1.0003,-2.00063 2.0007,-3.000945 2.0006,-2.00063 2.0006,-2.00063 2.0007,-2.00063 2.0006,-2.000629 1.0003,-2.00063 2.0006,-2.00063 2.0007,-2.00063 2.0006,-1.000315 1.0003,-2.00063 2.0006,-1.000315 1.0004,-2.00063 2.0006,-1.000315 2.0006,-1.000315 3.001,-3.000945 3.0009,-2.00063 2.0006,-1.000315 3.001,-2.00063 3.0009,-2.00063 2.0007,-1.000314 3.0009,-1.000315 3.0009,-2.00063 5.0016,-1.000315 5.0016,-1.000315 6.0019,-1.000315 h 5.0016 5.0015 l 6.0019,1.000315 5.0016,2.00063 5.0016,2.00063 5.0015,3.000944 3.001,1.000315 2.0006,2.00063 2.0006,1.000315 2.0007,1.000315 2.0006,2.00063 2.0006,2.00063 2.0007,1.000315 2.0006,2.00063 2.0006,2.00063 3.001,2.00063 2.0006,2.00063 2.0006,2.00063 2.0007,2.00063 2.0006,3.000944 2.0006,2.00063 2.0007,3.000945 2.0006,2.00063 2.0006,3.000945 3.001,2.00063 2.0006,3.000945 2.0006,3.000945 3.001,4.00126 2.0006,3.000944 3.0009,4.00126 2.0007,3.000945 3.0009,4.001257 2.0006,4.00125 2.0007,4.00126 3.0009,3.00095 2.0006,4.00126 3.001,4.00126 2.0006,4.00126 3.001,5.00157 2.0006,4.00126 3.0009,4.00126 2.0007,4.00126 3.0009,5.00157 2.0006,4.00126 3.001,5.00158 2.0006,4.00126 1.0003,3.00094 2.0007,3.00095 1.0003,2.00063 2.0006,3.00094 1.0003,2.00063 1.0003,3.00095 2.0007,3.00094 1.0003,2.00063 2.0006,3.00095 1.0003,3.00094 2.0007,2.00063 1.0003,3.00095 1.0003,3.00094 2.0006,2.00063 1.0003,3.00095 2.0007,3.00094 1.0003,3.00095 1.0003,2.00063 2.0006,3.00094 1.0003,3.00095 4.0013,7.0022 1.0003,2.00063 1.0003,2.00063 2.0007,3.00095 1.0003,2.00063 1.0003,2.00063 1.0003,2.00063 1.0003,2.00063 1.0003,2.00063 1.0003,2.00063 1.0004,2.00063 1.0003,2.00063 1.0003,2.00063 1.0003,2.00063 5.0016,10.00314 4.0012,6.00189 3.001,7.00221 5.0016,10.00315 2.0006,3.00094 2.0006,2.00063 1.0003,3.00095 2.0007,3.00094 1.0003,3.00095 2.0006,3.00094 2.0006,2.00063 1.0004,3.00095 2.0006,3.00094 1.0003,3.00095 2.0006,2.00063 1.0003,3.00094 2.0007,2.00063 2.0006,3.00095 1.0003,3.00094 2.0007,2.00063 1.0003,3.00095 2.0006,2.00063 2.0006,3.00094 1.0003,2.00063 5.0016,8.00252 6.0019,7.00221 5.0016,7.0022 5.0016,7.00221 6.0018,6.00189 5.0016,6.00189 5.0016,5.00157 4.0013,3.00094 3.0009,3.00095 4.0013,3.00094 3.0009,2.00063 2.0006,1.00032 2.0007,1.00031 2.0006,1.00032 3.0009,2.00063 2.0007,1.00031 2.0006,1.00032 3.0009,2.00063 h 2.0007 l 2.0006,1.00031 h 2.0006 l 2.0007,1.00032 h 2.0006 l 2.0006,1.00031 h 2.0007 2.0006 3.0009 3.001 2.0006 l 2.0006,-1.00031 h 2.0007 2.0006 l 2.0006,-1.00032 3.001,-1.00031 h 2.0006 l 2.0006,-1.00032 3.001,-2.00063 h 2.0006 l 2.0006,-1.00031 3.001,-2.00063 2.0006,-1.00032 2.0006,-2.00063 5.0016,-3.00094 4.0013,-3.00095 3.0009,-3.00094 5.0016,-5.00157 6.0019,-6.00189 5.0016,-6.00189 5.0015,-6.00189 5.0016,-7.00221 6.0019,-7.0022 5.0016,-8.00252 2.0006,-3.00095 1.0003,-2.00063 2.0006,-3.00094 1.0004,-2.00063 2.0006,-3.00095 2.0006,-2.00063 2.0006,-3.00094 1.0004,-2.00063 2.0006,-3.00095 1.0003,-2.00063 1.0003,-2.00063 2.0007,-3.00094 1.0003,-2.00063 1.0003,-2.00063 1.0003,-2.00063 2.0006,-3.00095 1.0003,-2.00063 1.0004,-2.00063 2.0006,-2.00063 1.0003,-2.00063 1.0003,-2.00063 1.0003,-2.00063 2.0007,-3.00094 1.0003,-2.00063 1.0003,-2.00063 1.0003,-2.00063 1.0003,-2.00063 1.0003,-2.00063 1.0004,-2.00063 1.0003,-2.00063 1.0003,-2.00063 1.0003,-2.00063 4.0013,-6.00189 5.0015,-11.00346 4.0013,-6.00189 10.0031,-21.00662 2.0007,-3.00094"
     id="path76" />
  <text
     xml:space="preserve"
     style="font-style:normal;font-variant:normal;font-weight:normal;font-stretch:normal;font-size:26.6667px;line-height:125%;font-family:'TeX Gyre Pagella';-inkscape-font-specification:'TeX Gyre Pagella, Normal';font-variant-ligatures:normal;font-variant-caps:normal;font-variant-numeric:normal;font-variant-east-asian:normal;text-align:start;letter-spacing:0px;word-spacing:0px;text-anchor:start;fill:#000080;fill-opacity:1;stroke:#000080"
     x="1737.4167"
     y="69.598686"
     id="text78"><tspan
       sodipodi:role="line"
       x="1737.4167"
       y="69.598686"
       id="tspan78"><tspan
         dx="0"
         dy="0"
         style="font-style:normal;font-variant:normal;font-weight:normal;font-stretch:normal;font-size:26.6667px;font-family:'TeX Gyre Pagella';-inkscape-font-specification:'TeX Gyre Pagella, Normal';font-variant-ligatures:normal;font-variant-caps:normal;font-variant-numeric:normal;font-variant-east-asian:normal;fill:#000080;stroke:#000080"
         id="tspan77">I(R_coil)</tspan></tspan></text>
  <path
     style="fill:none;stroke:#000080;stroke-width:3.77953;stroke-linecap:round;stroke-linejoin:round;stroke-miterlimit:4;stroke-dasharray:15.1181, 15.1181;stroke-dashoffset:0;stroke-opacity:1"
     d="m 71.318224,226.96553 1.000315,-2.00063 1.000315,-2.00063 1.000315,-2.00063 1.000315,-2.00063 2.00063,-2.00063 1.000315,-2.00063 1.000315,-2.00063 1.000315,-2.00063 1.000315,-2.00063 1.000315,-2.00063 1.000315,-2.00063 1.000315,-2.00063 1.000315,-2.00063 2.00063,-2.00063 1.000315,-2.00063 1.000315,-2.00063 1.000315,-2.00063 1.000315,-2.00063 1.000315,-2.00063 1.000315,-2.00063 3.000944,-4.00126 2.00063,-4.00126 2.000632,-4.00126 2.00063,-4.00126 3.00094,-4.00126 2.00062,-4.00126 2.00063,-4.00126 3.00094,-4.00126 2.00063,-4.00126 2.00063,-3.00094 2.00063,-4.00126 3.00095,-4.00126 2.00063,-3.00095 2.00063,-4.00126 3.00094,-3.00094 2.00063,-4.00126 2.00063,-3.00094 2.00063,-3.00095 3.00094,-4.00126 2.00063,-3.00094 2.00063,-2.00063 1.00032,-3.00095 2.00063,-2.00062 2.00063,-2.00063 1.00031,-2.00063 2.00063,-2.000627 2.00063,-2.00063 1.00032,-2.00063 2.00063,-2.00063 2.00063,-2.00063 1.00031,-2.000629 2.00063,-2.00063 2.00063,-2.00063 2.00063,-2.00063 3.00094,-3.000945 2.00063,-2.00063 3.00095,-3.000945 2.00063,-1.000315 1.00031,-2.00063 2.00063,-1.000315 1.00032,-2.00063 2.00063,-1.000315 3.00094,-2.00063 2.00063,-1.000314 3.00095,-2.00063 3.00094,-2.00063 2.00063,-1.000315 3.00095,-2.00063 3.00094,-2.00063 h 2.00063 l 3.00095,-1.000315 7.0022,-2.00063 5.00158,-1.000315 5.00157,-1.000315 h 5.00158 l 6.00189,1.000315 5.00157,1.000315 5.00158,2.00063 6.00189,2.00063 5.00157,3.000945 2.00063,1.000315 2.00063,1.000315 2.00063,2.00063 2.00063,1.000315 2.00063,2.000629 3.00095,3.000945 2.00063,1.000315 2.00063,2.00063 2.00063,1.000315 2.00063,2.00063 2.00063,2.00063 2.00063,2.00063 2.00063,2.00063 2.00063,2.00063 2.00063,2.00063 2.00063,2.00063 2.00062,2.00063 2.00063,3.000944 2.00063,2.00063 2.00063,3.000945 3.00095,4.001262 2.00063,3.00094 3.00094,3.00094 2.00063,4.00126 3.00095,3.00094 2.00063,4.00126 3.00094,4.00126 3.00095,3.00095 2.00063,4.00125 3.00094,4.00126 2.00063,4.00126 3.00095,4.00126 2.00063,4.00126 3.00094,4.00126 2.00063,5.00158 3.00095,4.00126 3.00094,4.00126 2.00063,5.00157 3.00095,4.00126 1.00031,3.00095 1.00032,2.00063 2.00063,2.00063 1.00031,3.00094 1.00032,2.00063 2.00063,2.00063 1.00031,3.00095 1.00032,2.00063 2.00063,2.00063 1.00031,3.00094 1.00032,2.00063 2.00063,2.00063 1.00031,3.00095 1.00032,2.00063 1.00031,3.00094 2.00063,2.00063 1.00032,2.00063 1.00031,3.00095 2.00063,2.00063 1.00032,3.00094 1.00031,2.00063 1.00032,2.00063 2.00063,3.00095 1.00031,2.00063 1.00032,2.00063 1.00031,2.00063 2.00063,2.00063 1.00032,2.00063 1.00031,2.00063 5.00158,10.00315 3.00094,6.00189 6.00189,9.00283 3.00095,7.0022 4.00126,6.00189 5.00157,9.00284 2.00063,3.00094 1.00032,3.00095 2.00063,2.00063 1.00031,3.00094 2.00063,3.00095 2.00063,2.00063 1.00031,3.00094 2.00063,2.00063 1.00032,3.00095 2.00063,2.00063 2.00063,3.00094 1.00031,2.00063 2.00063,3.00095 1.00032,2.00063 2.00063,3.00094 1.00031,2.00063 2.00063,2.00063 2.00063,3.00095 1.00032,2.00063 2.00063,2.00063 5.00157,8.00252 5.00158,7.0022 6.00189,6.00189 5.00157,6.00189 5.00158,6.00189 6.00189,6.00189 5.00157,4.00126 3.00095,3.00095 4.00126,3.00094 3.00094,3.00094 4.00126,2.00063 2.00063,1.00032 3.00095,2.00063 2.00063,1.00031 2.00063,1.00032 3.00094,2.00063 h 2.00063 l 2.00063,1.00031 2.00063,1.00032 h 2.00063 l 2.00063,1.00031 h 3.00095 l 2.00063,1.00032 h 3.00094 2.00063 2.00063 2.00063 2.00063 2.00063 l 2.00063,-1.00032 h 2.00063 2.00063 l 2.00063,-1.00031 3.00095,-1.00032 h 2.00062 l 2.00063,-1.00031 2.00063,-1.00032 3.00095,-1.00031 2.00063,-1.00032 2.00063,-1.00031 3.00094,-2.00063 4.00126,-3.00095 3.00095,-2.00063 4.00126,-3.00094 3.00094,-3.00094 5.00158,-5.00158 6.00189,-5.00157 5.00157,-5.00158 5.00158,-7.0022 6.00189,-6.00189 5.00157,-7.00221 5.00158,-7.0022 2.00063,-2.00063 1.00031,-2.00063 1.00032,-2.00063 2.00063,-2.00063 1.00031,-3.00095 2.00063,-2.00063 1.00032,-2.00063 1.00031,-2.00063 2.00063,-2.00063 1.00032,-2.00063 2.00063,-2.00063 1.00031,-3.00094 2.00063,-2.00063 1.00032,-2.00063 1.00031,-3.00095 2.00063,-2.00063 1.00032,-2.00063 2.00063,-2.00063 1.00031,-3.00094 1.00032,-2.00063 1.00031,-2.00063 1.00032,-2.00063 2.00063,-3.00095 1.00031,-2.00063 1.00032,-2.00063 2.00063,-3.00094 1.00031,-2.00063 1.00032,-2.00063 2.00063,-3.00095 1.00031,-2.00063 1.00032,-2.00063 4.00126,-6.00189 5.00157,-9.00283 2.00063,-4.00126 2.00063,-3.00094 1.00032,-2.00063 1.00031,-2.00063 1.00032,-2.00063 1.00031,-2.00063 1.00032,-2.00063 1.00031,-2.00063 2.00063,-3.00095 1.00031,-2.00063 1.00032,-2.00063 1.00031,-2.00063 1.00032,-2.00063 2.00063,-3.00094 1.00031,-2.00063 1.00032,-2.00063 2.00063,-3.00095 1.00031,-2.00063 1.00032,-2.00063 2.00063,-3.00094 1.00031,-2.00063 1.00032,-2.00063 1.00031,-2.00063 2.00063,-3.00095 1.00032,-2.00063 1.00031,-2.00063 3.00095,-5.00157 2.00063,-4.00126 2.00063,-4.00126 3.00094,-4.00126 2.00063,-4.00126 2.00063,-4.00126 2.00063,-3.00095 2.00063,-4.00126 3.00095,-4.00126 2.00063,-4.00126 2.00063,-3.00094 2.00063,-4.00126 2.00063,-3.00095 3.00094,-4.00126 2.00063,-3.00094 2.00063,-4.00126 2.00063,-3.00095 2.00063,-3.00094 3.00095,-4.00126 2.00063,-3.00094 2.00063,-3.00095 2.00063,-2.00063 1.00031,-3.00094 2.00063,-3.00095 2.00063,-2.00063 2.00063,-2.00062 2.00063,-3.00094 2.00063,-2.00063 1.00032,-3.000947 2.00063,-2.00063 2.00063,-2.00063 2.00063,-2.00063 2.00063,-2.000629 2.00063,-2.00063 2.00063,-2.00063 1.00031,-2.00063 2.00063,-2.00063 2.00063,-2.00063 2.00063,-2.00063 2.00063,-2.00063 3.00095,-2.00063 2.00063,-2.00063 3.00094,-2.00063 1.00032,-2.00063 2.00063,-1.000315 3.00094,-2.000629 2.00063,-1.000315 3.00095,-2.00063 3.00094,-2.00063 2.00063,-1.000315 3.00094,-1.000315 3.00095,-2.00063 h 2.00063 l 5.00157,-2.00063 5.00158,-1.000315 5.00157,-1.000315 h 6.00189 l 5.00158,1.000315 5.00157,1.000315 6.00189,1.000315 5.00158,2.00063 5.00157,3.000945 2.00063,1.000315 2.00063,1.000315 2.00063,2.00063 3.00095,1.000315 2.00063,2.000629 2.00063,1.000315 2.00063,2.00063 2.00063,2.00063 2.00063,1.000315 2.00063,2.00063 2.00063,2.00063 2.00063,2.00063 3.00094,2.00063 2.00063,2.00063 2.00063,3.000945 2.00063,2.00063 2.00063,2.00063 2.00063,3.000944 2.00063,2.00063 2.00063,3.000945 3.00095,3.000947 2.00063,3.00094 3.00094,3.00094 2.00063,4.00126 3.00095,3.00094 2.00063,4.00126 3.00094,3.00095 2.00063,4.00126 3.00095,3.00094 2.00063,4.00126 2.00063,4.00126 3.00094,4.00126 2.00063,4.00126 3.00094,4.00126 2.00063,4.00126 3.00095,4.00126 2.00063,4.00126 3.00094,4.00126 2.00063,4.00126 3.00095,5.00157 1.00031,2.00063 2.00063,3.00095 1.00032,2.00063 1.00031,3.00094 2.00063,2.00063 1.00032,3.00095 2.00063,2.00063 1.00031,3.00094 1.00032,2.00063 2.00063,3.00095 1.00031,2.00063 2.00063,3.00094 1.00032,2.00063 1.00031,3.00095 2.00063,2.00063 1.00032,3.00094 2.00063,3.00095 1.00031,2.00063 1.00032,3.00094 2.00063,2.00063 3.00094,7.00221 1.00032,2.00063 2.00063,3.00094 1.00031,2.00063 1.00032,2.00063 1.00031,2.00063 1.00032,2.00063 2.00063,3.00095 1.00031,2.00063 1.00032,2.00063 1.00031,2.00063 1.00032,2.00063 7.0022,11.00346 3.00095,6.00189 4.00124,6.00189 5.0016,10.00315 2.0007,2.00063 1.0003,3.00094 2.0006,3.00095 1.0003,2.00063 2.0007,3.00094 2.0006,3.00095 1.0003,2.00063 2.0006,3.00094 1.0003,2.00063 2.0007,3.00095 2.0006,2.00063 1.0003,3.00094 2.0007,2.00063 1.0003,3.00095 2.0006,2.00063 1.0003,3.00094 2.0007,2.00063 2.0006,2.00063 1.0003,3.00095 2.0007,2.00063 5.0015,7.0022 5.0016,7.00221 6.0019,7.0022 5.0016,6.00189 5.0015,6.00189 6.0019,5.00158 5.0016,5.00157 3.0009,3.00095 4.0013,3.00094 3.001,3.00094 4.0012,2.00063 2.0006,1.00032 3.001,2.00063 2.0006,1.00031 2.0006,1.00032 3.001,1.00031 2.0006,1.00032 2.0007,1.00031 h 2.0006 l 3.0009,1.00032 2.0007,1.00031 h 2.0006 l 3.0009,1.00032 h 2.0007 2.0006 3.0009 3.001 2.0006 l 3.001,-1.00032 h 2.0006 l 3.0009,-1.00031 h 2.0007 l 2.0006,-1.00032 3.0009,-1.00031 2.0007,-1.00032 h 2.0006 l 3.0009,-2.00063 2.0007,-1.00031 2.0006,-1.00032 5.0016,-4.00126 4.0012,-2.00063 3.001,-3.00094 4.0012,-3.00094 5.0016,-5.00158 5.0016,-5.00157 5.0016,-5.00158 6.0019,-7.0022 5.0015,-6.00189 5.0016,-7.00221 6.0019,-7.0022 1.0003,-2.00063 1.0003,-2.00063 2.0007,-2.00063 1.0003,-2.00063 2.0006,-3.00095 1.0003,-2.00063 1.0003,-2.00063 2.0007,-2.00063 1.0003,-2.00063 2.0006,-2.00063 1.0003,-3.00094 1.0003,-2.00063 2.0007,-2.00063 1.0003,-2.00063 2.0006,-3.00095 1.0003,-2.00063 2.0007,-2.00063 1.0003,-3.00094 1.0003,-2.00063 2.0006,-2.00063 1.0003,-2.00063 1.0003,-2.00063 2.0007,-3.00095 1.0003,-2.00063 1.0003,-2.00063 2.0006,-3.00094 1.0003,-2.00063 1.0004,-2.00063 2.0006,-3.00095 1.0003,-2.00063 1.0003,-2.00063 3.001,-6.00189 6.0019,-9.00283 1.0003,-4.00126 2.0006,-3.00094 1.0003,-2.00063 2.0006,-2.00063 1.0004,-2.00063 1.0003,-2.00063 1.0003,-2.00063 1.0003,-2.00063 2.0006,-3.00095 1.0004,-2.00063 1.0003,-2.00063 1.0003,-2.00063 1.0003,-2.00063 2.0006,-3.00094 1.0003,-2.00063 1.0004,-2.00063 1.0003,-3.00095 1.0003,-2.00063 1.0003,-2.00063 1.0003,-2.00063 2.0006,-3.00094 1.0004,-2.00063 1.0003,-2.00063 2.0006,-3.00095 1.0003,-2.00063 1.0003,-2.00063 3.001,-5.00157 3.0009,-4.00126 2.0007,-4.00126 2.0006,-4.00126 2.0006,-4.00126 2.0006,-4.00126 3.001,-3.00095 2.0006,-4.00126 2.0006,-4.00126 2.0007,-4.00126 2.0006,-3.00094 3.001,-4.00126 2.0006,-3.00095 2.0006,-4.00126 2.0006,-3.00094 2.0007,-4.00126 3.0009,-3.00095 2.0006,-3.00094 2.0007,-4.00126 2.0006,-3.00094 2.0006,-3.00095 2.0007,-2.00063 2.0006,-3.00094 2.0006,-3.00095 1.0003,-2.00063 2.0007,-2.00062 2.0006,-3.00094 2.0006,-2.00063 2.0007,-3.000947 2.0006,-2.00063 2.0006,-2.00063 1.0003,-2.00063 2.0007,-2.000629 2.0006,-2.00063 2.0006,-2.00063 2.0007,-2.00063 2.0006,-2.00063 1.0003,-2.00063 2.0006,-2.00063 2.0007,-2.00063 2.0006,-1.000315 3.0009,-3.000945 3.001,-2.00063 2.0006,-2.00063 3.001,-2.000629 3.0009,-2.00063 2.0006,-1.000315 3.001,-2.00063 3.0009,-2.00063 2.0007,-1.000315 3.0009,-1.000315 3.0009,-1.000315 5.0016,-2.00063 5.0016,-1.000315 6.0019,-1.000315 h 5.0016 l 5.0015,1.000315 6.0019,1.000315 5.0016,1.000315 5.0016,2.00063 5.0015,3.000945 3.001,1.000315 2.0006,1.000315 2.0006,2.00063 2.0007,1.000315 2.0006,2.000629 2.0006,1.000315 2.0007,2.00063 2.0006,2.00063 2.0006,1.000315 3.001,2.00063 2.0006,2.00063 2.0006,2.00063 2.0007,2.00063 2.0006,2.00063 2.0006,3.000945 2.0007,2.00063 2.0006,2.00063 2.0006,3.000944 3.001,2.00063 2.0006,3.000945 2.0006,3.000947 3.001,3.00094 2.0006,4.00125 3.0009,3.00095 2.0007,3.00094 3.0009,4.00126 2.0006,3.00095 2.0007,4.00126 3.0009,3.00094 2.0006,4.00126 3.001,4.00126 2.0006,4.00126 3.001,4.00126 2.0006,4.00126 3.0009,4.00126 2.0007,4.00126 3.0009,4.00126 2.0006,4.00126 3.001,4.00126 2.0006,5.00157 1.0003,2.00063 2.0007,3.00095 1.0003,2.00063 2.0006,3.00094 1.0003,2.00063 1.0003,3.00095 2.0007,2.00063 1.0003,3.00094 2.0006,2.00063 1.0003,3.00095 2.0007,2.00063 1.0003,3.00094 1.0003,2.00063 2.0006,3.00095 1.0003,2.00063 2.0007,3.00094 1.0003,3.00095 1.0003,2.00063 2.0006,3.00094 1.0003,2.00063 4.0013,7.00221 1.0003,2.00063 2.0006,3.00094 1.0004,2.00063 1.0003,2.00063 1.0003,2.00063 1.0003,2.00063 2.0006,3.00095 1.0003,2.00063 1.0004,2.00063 1.0003,2.00063 1.0003,2.00063 6.0019,11.00346 4.0012,6.00189 3.001,6.00189 5.0016,10.00315 2.0006,2.00063 2.0006,3.00094 1.0003,3.00095 2.0007,2.00063 1.0003,3.00094 2.0006,3.00095 2.0006,2.00063 1.0004,3.00094 2.0006,2.00063 1.0003,3.00095 2.0006,2.00063 1.0003,3.00094 2.0007,2.00063 2.0006,3.00095 1.0003,2.00063 2.0007,3.00094 1.0003,2.00063 2.0006,2.00063 2.0006,3.00095 1.0003,2.00063 5.0016,7.0022 6.0019,7.00221 5.0016,7.0022 5.0016,6.00189 6.0018,6.00189 5.0016,5.00158 5.0016,5.00157 4.0013,3.00095 3.0009,3.00094 4.0013,3.00094 3.0009,2.00063 2.0006,1.00032 2.0007,1.00031 2.0006,1.00032 3.0009,2.00063 2.0007,1.00031 h 2.0006 l 3.0009,2.00063 h 2.0007 l 2.0006,1.00032 h 2.0006 l 2.0007,1.00031 h 2.0006 l 2.0006,1.00032 h 2.0007 2.0006 3.0009 3.001 2.0006 2.0006 l 2.0007,-1.00032 h 2.0006 2.0006 l 3.001,-1.00031 2.0006,-1.00032 2.0006,-1.00031 3.001,-1.00032 2.0006,-1.00031 2.0006,-1.00032 3.001,-2.00063 2.0006,-1.00031 2.0006,-1.00032 5.0016,-3.00094 4.0013,-3.00095 3.0009,-3.00094 5.0016,-5.00157 6.0019,-5.00158 5.0016,-6.00189 5.0015,-6.00189 5.0016,-6.00189 6.0019,-7.0022 5.0016,-7.00221 1.0003,-2.00063 2.0006,-3.00094 2.0006,-3.00095 2.0007,-3.00094 3.0009,-3.00095 1.0003,-2.00063 2.0007,-3.00094 2.0006,-3.00095 1.0003,-2.00063 2.0006,-3.00094 1.0004,-2.00063 2.0006,-3.00095 1.0003,-2.00063 1.0003,-2.00063 2.0006,-3.00094 1.0004,-2.00063 2.0006,-2.00063 2.0006,-3.00095 1.0003,-2.00063 1.0003,-2.00063 1.0004,-2.00063 2.0006,-3.00094 1.0003,-2.00063 1.0003,-2.00063 1.0003,-2.00063 1.0004,-2.00063 2.0006,-3.00095 1.0003,-2.00063 4.0013,-6.00189 5.0015,-10.00314 4.0013,-6.00189 10.0031,-20.0063 2.0007,-3.00095"
     id="path78" />
</svg>
