<?xml version="1.0" encoding="UTF-8" standalone="no"?>
<!DOCTYPE svg PUBLIC "-//W3C//DTD SVG 1.1//EN" "http://www.w3.org/Graphics/SVG/1.1/DTD/svg11.dtd">
<!-- Created with matplotlib (http://matplotlib.org/) -->
<svg height="346pt" version="1.1" viewBox="0 0 708 346" width="708pt" xmlns="http://www.w3.org/2000/svg" xmlns:xlink="http://www.w3.org/1999/xlink"><script xmlns=""/>
 <defs>
  <style type="text/css">
*{stroke-linecap:butt;stroke-linejoin:round;stroke-miterlimit:100000;}
  </style>
 </defs>
 <g id="figure_1">
  <g id="patch_1">
   <path d="M -0 346.956406  L 708.732813 346.956406  L 708.732813 0  L -0 0  z " style="fill:#ffffff;"/>
  </g>
  <g id="axes_1">
   <g id="patch_2">
    <path d="M 51.482813 305.078281  L 341.332813 305.078281  L 341.332813 37.575156  L 51.482813 37.575156  z " style="fill:#ffffff;"/>
   </g>
   <g id="line2d_1">
    <path clip-path="url(#p43e1b27c28)" d="M 51.482812 266.863549  L 159.466146 266.863549  L 160.602812 75.789888  L 232.212813 75.789888  L 233.349479 266.863549  L 341.332813 266.863549  L 341.332813 266.863549  " style="fill:none;stroke:#6a9fb5;stroke-linecap:square;stroke-width:4.0;"/>
   </g>
   <g id="patch_3">
    <path d="M 51.482813 305.078281  L 51.482813 37.575156  " style="fill:none;stroke:#000000;stroke-linecap:square;stroke-linejoin:miter;"/>
   </g>
   <g id="patch_4">
    <path d="M 51.482812 37.575156  L 341.332813 37.575156  " style="fill:none;stroke:#000000;stroke-linecap:square;stroke-linejoin:miter;"/>
   </g>
   <g id="patch_5">
    <path d="M 341.332813 305.078281  L 341.332813 37.575156  " style="fill:none;stroke:#000000;stroke-linecap:square;stroke-linejoin:miter;"/>
   </g>
   <g id="patch_6">
    <path d="M 51.482812 305.078281  L 341.332813 305.078281  " style="fill:none;stroke:#000000;stroke-linecap:square;stroke-linejoin:miter;"/>
   </g>
   <g id="matplotlib.axis_1">
    <g id="xtick_1">
     <g id="line2d_2">
      <path clip-path="url(#p43e1b27c28)" d="M 51.482812 305.078281  L 51.482812 37.575156  " style="fill:none;stroke:#000000;stroke-dasharray:1.000000,3.000000;stroke-dashoffset:0.0;stroke-width:0.5;"/>
     </g>
     <g id="line2d_3">
      <defs>
       <path d="M 0 0  L 0 -4  " id="m86d5b64f71" style="stroke:#000000;stroke-width:0.5;"/>
      </defs>
      <g>
       <use style="stroke:#000000;stroke-width:0.5;" x="51.4828125" xlink:href="#m86d5b64f71" y="305.07828125"/>
      </g>
     </g>
     <g id="line2d_4">
      <defs>
       <path d="M 0 0  L 0 4  " id="m487012fa93" style="stroke:#000000;stroke-width:0.5;"/>
      </defs>
      <g>
       <use style="stroke:#000000;stroke-width:0.5;" x="51.4828125" xlink:href="#m487012fa93" y="37.57515625"/>
      </g>
     </g>
     <g id="text_1">
      <!-- −2.0 -->
      <defs>
       <path d="M 31.78125 66.40625  Q 24.171875 66.40625 20.328125 58.90625  Q 16.5 51.421875 16.5 36.375  Q 16.5 21.390625 20.328125 13.890625  Q 24.171875 6.390625 31.78125 6.390625  Q 39.453125 6.390625 43.28125 13.890625  Q 47.125 21.390625 47.125 36.375  Q 47.125 51.421875 43.28125 58.90625  Q 39.453125 66.40625 31.78125 66.40625  M 31.78125 74.21875  Q 44.046875 74.21875 50.515625 64.515625  Q 56.984375 54.828125 56.984375 36.375  Q 56.984375 17.96875 50.515625 8.265625  Q 44.046875 -1.421875 31.78125 -1.421875  Q 19.53125 -1.421875 13.0625 8.265625  Q 6.59375 17.96875 6.59375 36.375  Q 6.59375 54.828125 13.0625 64.515625  Q 19.53125 74.21875 31.78125 74.21875  " id="BitstreamVeraSans-Roman-30"/>
       <path d="M 10.6875 12.40625  L 21 12.40625  L 21 0  L 10.6875 0  z " id="BitstreamVeraSans-Roman-2e"/>
       <path d="M 19.1875 8.296875  L 53.609375 8.296875  L 53.609375 0  L 7.328125 0  L 7.328125 8.296875  Q 12.9375 14.109375 22.625 23.890625  Q 32.328125 33.6875 34.8125 36.53125  Q 39.546875 41.84375 41.421875 45.53125  Q 43.3125 49.21875 43.3125 52.78125  Q 43.3125 58.59375 39.234375 62.25  Q 35.15625 65.921875 28.609375 65.921875  Q 23.96875 65.921875 18.8125 64.3125  Q 13.671875 62.703125 7.8125 59.421875  L 7.8125 69.390625  Q 13.765625 71.78125 18.9375 73  Q 24.125 74.21875 28.421875 74.21875  Q 39.75 74.21875 46.484375 68.546875  Q 53.21875 62.890625 53.21875 53.421875  Q 53.21875 48.921875 51.53125 44.890625  Q 49.859375 40.875 45.40625 35.40625  Q 44.1875 33.984375 37.640625 27.21875  Q 31.109375 20.453125 19.1875 8.296875  " id="BitstreamVeraSans-Roman-32"/>
       <path d="M 10.59375 35.5  L 73.1875 35.5  L 73.1875 27.203125  L 10.59375 27.203125  z " id="BitstreamVeraSans-Roman-2212"/>
      </defs>
      <g transform="translate(39.34140625 316.67671875)scale(0.1 -0.1)">
       <use xlink:href="#BitstreamVeraSans-Roman-2212"/>
       <use x="83.7890625" xlink:href="#BitstreamVeraSans-Roman-32"/>
       <use x="147.412109375" xlink:href="#BitstreamVeraSans-Roman-2e"/>
       <use x="179.19921875" xlink:href="#BitstreamVeraSans-Roman-30"/>
      </g>
     </g>
    </g>
    <g id="xtick_2">
     <g id="line2d_5">
      <path clip-path="url(#p43e1b27c28)" d="M 87.714062 305.078281  L 87.714062 37.575156  " style="fill:none;stroke:#000000;stroke-dasharray:1.000000,3.000000;stroke-dashoffset:0.0;stroke-width:0.5;"/>
     </g>
     <g id="line2d_6">
      <g>
       <use style="stroke:#000000;stroke-width:0.5;" x="87.7140625" xlink:href="#m86d5b64f71" y="305.07828125"/>
      </g>
     </g>
     <g id="line2d_7">
      <g>
       <use style="stroke:#000000;stroke-width:0.5;" x="87.7140625" xlink:href="#m487012fa93" y="37.57515625"/>
      </g>
     </g>
     <g id="text_2">
      <!-- −1.5 -->
      <defs>
       <path d="M 10.796875 72.90625  L 49.515625 72.90625  L 49.515625 64.59375  L 19.828125 64.59375  L 19.828125 46.734375  Q 21.96875 47.46875 24.109375 47.828125  Q 26.265625 48.1875 28.421875 48.1875  Q 40.625 48.1875 47.75 41.5  Q 54.890625 34.8125 54.890625 23.390625  Q 54.890625 11.625 47.5625 5.09375  Q 40.234375 -1.421875 26.90625 -1.421875  Q 22.3125 -1.421875 17.546875 -0.640625  Q 12.796875 0.140625 7.71875 1.703125  L 7.71875 11.625  Q 12.109375 9.234375 16.796875 8.0625  Q 21.484375 6.890625 26.703125 6.890625  Q 35.15625 6.890625 40.078125 11.328125  Q 45.015625 15.765625 45.015625 23.390625  Q 45.015625 31 40.078125 35.4375  Q 35.15625 39.890625 26.703125 39.890625  Q 22.75 39.890625 18.8125 39.015625  Q 14.890625 38.140625 10.796875 36.28125  z " id="BitstreamVeraSans-Roman-35"/>
       <path d="M 12.40625 8.296875  L 28.515625 8.296875  L 28.515625 63.921875  L 10.984375 60.40625  L 10.984375 69.390625  L 28.421875 72.90625  L 38.28125 72.90625  L 38.28125 8.296875  L 54.390625 8.296875  L 54.390625 0  L 12.40625 0  z " id="BitstreamVeraSans-Roman-31"/>
      </defs>
      <g transform="translate(75.57265625 316.67671875)scale(0.1 -0.1)">
       <use xlink:href="#BitstreamVeraSans-Roman-2212"/>
       <use x="83.7890625" xlink:href="#BitstreamVeraSans-Roman-31"/>
       <use x="147.412109375" xlink:href="#BitstreamVeraSans-Roman-2e"/>
       <use x="179.19921875" xlink:href="#BitstreamVeraSans-Roman-35"/>
      </g>
     </g>
    </g>
    <g id="xtick_3">
     <g id="line2d_8">
      <path clip-path="url(#p43e1b27c28)" d="M 123.945312 305.078281  L 123.945312 37.575156  " style="fill:none;stroke:#000000;stroke-dasharray:1.000000,3.000000;stroke-dashoffset:0.0;stroke-width:0.5;"/>
     </g>
     <g id="line2d_9">
      <g>
       <use style="stroke:#000000;stroke-width:0.5;" x="123.9453125" xlink:href="#m86d5b64f71" y="305.07828125"/>
      </g>
     </g>
     <g id="line2d_10">
      <g>
       <use style="stroke:#000000;stroke-width:0.5;" x="123.9453125" xlink:href="#m487012fa93" y="37.57515625"/>
      </g>
     </g>
     <g id="text_3">
      <!-- −1.0 -->
      <g transform="translate(111.80390625 316.67671875)scale(0.1 -0.1)">
       <use xlink:href="#BitstreamVeraSans-Roman-2212"/>
       <use x="83.7890625" xlink:href="#BitstreamVeraSans-Roman-31"/>
       <use x="147.412109375" xlink:href="#BitstreamVeraSans-Roman-2e"/>
       <use x="179.19921875" xlink:href="#BitstreamVeraSans-Roman-30"/>
      </g>
     </g>
    </g>
    <g id="xtick_4">
     <g id="line2d_11">
      <path clip-path="url(#p43e1b27c28)" d="M 160.176562 305.078281  L 160.176562 37.575156  " style="fill:none;stroke:#000000;stroke-dasharray:1.000000,3.000000;stroke-dashoffset:0.0;stroke-width:0.5;"/>
     </g>
     <g id="line2d_12">
      <g>
       <use style="stroke:#000000;stroke-width:0.5;" x="160.1765625" xlink:href="#m86d5b64f71" y="305.07828125"/>
      </g>
     </g>
     <g id="line2d_13">
      <g>
       <use style="stroke:#000000;stroke-width:0.5;" x="160.1765625" xlink:href="#m487012fa93" y="37.57515625"/>
      </g>
     </g>
     <g id="text_4">
      <!-- −0.5 -->
      <g transform="translate(148.03515625 316.67671875)scale(0.1 -0.1)">
       <use xlink:href="#BitstreamVeraSans-Roman-2212"/>
       <use x="83.7890625" xlink:href="#BitstreamVeraSans-Roman-30"/>
       <use x="147.412109375" xlink:href="#BitstreamVeraSans-Roman-2e"/>
       <use x="179.19921875" xlink:href="#BitstreamVeraSans-Roman-35"/>
      </g>
     </g>
    </g>
    <g id="xtick_5">
     <g id="line2d_14">
      <path clip-path="url(#p43e1b27c28)" d="M 196.407813 305.078281  L 196.407813 37.575156  " style="fill:none;stroke:#000000;stroke-dasharray:1.000000,3.000000;stroke-dashoffset:0.0;stroke-width:0.5;"/>
     </g>
     <g id="line2d_15">
      <g>
       <use style="stroke:#000000;stroke-width:0.5;" x="196.4078125" xlink:href="#m86d5b64f71" y="305.07828125"/>
      </g>
     </g>
     <g id="line2d_16">
      <g>
       <use style="stroke:#000000;stroke-width:0.5;" x="196.4078125" xlink:href="#m487012fa93" y="37.57515625"/>
      </g>
     </g>
     <g id="text_5">
      <!-- 0.0 -->
      <g transform="translate(188.45625 316.67671875)scale(0.1 -0.1)">
       <use xlink:href="#BitstreamVeraSans-Roman-30"/>
       <use x="63.623046875" xlink:href="#BitstreamVeraSans-Roman-2e"/>
       <use x="95.41015625" xlink:href="#BitstreamVeraSans-Roman-30"/>
      </g>
     </g>
    </g>
    <g id="xtick_6">
     <g id="line2d_17">
      <path clip-path="url(#p43e1b27c28)" d="M 232.639063 305.078281  L 232.639063 37.575156  " style="fill:none;stroke:#000000;stroke-dasharray:1.000000,3.000000;stroke-dashoffset:0.0;stroke-width:0.5;"/>
     </g>
     <g id="line2d_18">
      <g>
       <use style="stroke:#000000;stroke-width:0.5;" x="232.6390625" xlink:href="#m86d5b64f71" y="305.07828125"/>
      </g>
     </g>
     <g id="line2d_19">
      <g>
       <use style="stroke:#000000;stroke-width:0.5;" x="232.6390625" xlink:href="#m487012fa93" y="37.57515625"/>
      </g>
     </g>
     <g id="text_6">
      <!-- 0.5 -->
      <g transform="translate(224.6875 316.67671875)scale(0.1 -0.1)">
       <use xlink:href="#BitstreamVeraSans-Roman-30"/>
       <use x="63.623046875" xlink:href="#BitstreamVeraSans-Roman-2e"/>
       <use x="95.41015625" xlink:href="#BitstreamVeraSans-Roman-35"/>
      </g>
     </g>
    </g>
    <g id="xtick_7">
     <g id="line2d_20">
      <path clip-path="url(#p43e1b27c28)" d="M 268.870313 305.078281  L 268.870313 37.575156  " style="fill:none;stroke:#000000;stroke-dasharray:1.000000,3.000000;stroke-dashoffset:0.0;stroke-width:0.5;"/>
     </g>
     <g id="line2d_21">
      <g>
       <use style="stroke:#000000;stroke-width:0.5;" x="268.8703125" xlink:href="#m86d5b64f71" y="305.07828125"/>
      </g>
     </g>
     <g id="line2d_22">
      <g>
       <use style="stroke:#000000;stroke-width:0.5;" x="268.8703125" xlink:href="#m487012fa93" y="37.57515625"/>
      </g>
     </g>
     <g id="text_7">
      <!-- 1.0 -->
      <g transform="translate(260.91875 316.67671875)scale(0.1 -0.1)">
       <use xlink:href="#BitstreamVeraSans-Roman-31"/>
       <use x="63.623046875" xlink:href="#BitstreamVeraSans-Roman-2e"/>
       <use x="95.41015625" xlink:href="#BitstreamVeraSans-Roman-30"/>
      </g>
     </g>
    </g>
    <g id="xtick_8">
     <g id="line2d_23">
      <path clip-path="url(#p43e1b27c28)" d="M 305.101562 305.078281  L 305.101562 37.575156  " style="fill:none;stroke:#000000;stroke-dasharray:1.000000,3.000000;stroke-dashoffset:0.0;stroke-width:0.5;"/>
     </g>
     <g id="line2d_24">
      <g>
       <use style="stroke:#000000;stroke-width:0.5;" x="305.1015625" xlink:href="#m86d5b64f71" y="305.07828125"/>
      </g>
     </g>
     <g id="line2d_25">
      <g>
       <use style="stroke:#000000;stroke-width:0.5;" x="305.1015625" xlink:href="#m487012fa93" y="37.57515625"/>
      </g>
     </g>
     <g id="text_8">
      <!-- 1.5 -->
      <g transform="translate(297.15 316.67671875)scale(0.1 -0.1)">
       <use xlink:href="#BitstreamVeraSans-Roman-31"/>
       <use x="63.623046875" xlink:href="#BitstreamVeraSans-Roman-2e"/>
       <use x="95.41015625" xlink:href="#BitstreamVeraSans-Roman-35"/>
      </g>
     </g>
    </g>
    <g id="xtick_9">
     <g id="line2d_26">
      <path clip-path="url(#p43e1b27c28)" d="M 341.332813 305.078281  L 341.332813 37.575156  " style="fill:none;stroke:#000000;stroke-dasharray:1.000000,3.000000;stroke-dashoffset:0.0;stroke-width:0.5;"/>
     </g>
     <g id="line2d_27">
      <g>
       <use style="stroke:#000000;stroke-width:0.5;" x="341.3328125" xlink:href="#m86d5b64f71" y="305.07828125"/>
      </g>
     </g>
     <g id="line2d_28">
      <g>
       <use style="stroke:#000000;stroke-width:0.5;" x="341.3328125" xlink:href="#m487012fa93" y="37.57515625"/>
      </g>
     </g>
     <g id="text_9">
      <!-- 2.0 -->
      <g transform="translate(333.38125 316.67671875)scale(0.1 -0.1)">
       <use xlink:href="#BitstreamVeraSans-Roman-32"/>
       <use x="63.623046875" xlink:href="#BitstreamVeraSans-Roman-2e"/>
       <use x="95.41015625" xlink:href="#BitstreamVeraSans-Roman-30"/>
      </g>
     </g>
    </g>
    <g id="text_10">
     <!-- $t \; \mathrm{[s]} $ -->
     <defs>
      <path d="M 3.328125 -0.296875  L 3.328125 16.015625  Q 3.328125 16.796875 4.203125 16.796875  L 5.421875 16.796875  Q 6 16.796875 6.203125 16.015625  Q 8.984375 1.515625 19.671875 1.515625  Q 24.421875 1.515625 27.609375 3.65625  Q 30.8125 5.8125 30.8125 10.296875  Q 30.8125 13.53125 28.3125 15.796875  Q 25.828125 18.0625 22.40625 18.890625  L 15.71875 20.21875  Q 12.359375 20.953125 9.59375 22.453125  Q 6.84375 23.96875 5.078125 26.484375  Q 3.328125 29 3.328125 32.328125  Q 3.328125 36.71875 5.640625 39.515625  Q 7.953125 42.328125 11.65625 43.578125  Q 15.375 44.828125 19.671875 44.828125  Q 24.8125 44.828125 28.609375 42.09375  L 31.5 44.578125  Q 31.5 44.828125 31.984375 44.828125  L 32.71875 44.828125  Q 33.015625 44.828125 33.25 44.546875  Q 33.5 44.28125 33.5 44  L 33.5 30.90625  Q 33.5 29.984375 32.71875 29.984375  L 31.5 29.984375  Q 30.609375 29.984375 30.609375 30.90625  Q 30.609375 36.140625 27.703125 39.3125  Q 24.8125 42.484375 19.578125 42.484375  Q 15.09375 42.484375 11.796875 40.8125  Q 8.5 39.15625 8.5 35.109375  Q 8.5 32.328125 10.859375 30.546875  Q 13.234375 28.765625 16.40625 27.984375  L 23.1875 26.703125  Q 26.609375 25.921875 29.5625 24.0625  Q 32.515625 22.21875 34.25 19.375  Q 35.984375 16.546875 35.984375 12.984375  Q 35.984375 9.375 34.734375 6.703125  Q 33.5 4.046875 31.265625 2.28125  Q 29.046875 0.53125 26.015625 -0.296875  Q 23 -1.125 19.671875 -1.125  Q 13.421875 -1.125 8.984375 3.078125  L 5.328125 -0.875  Q 5.328125 -1.125 4.78125 -1.125  L 4.203125 -1.125  Q 3.328125 -1.125 3.328125 -0.296875  " id="Cmr10-73"/>
      <path d="M 2.203125 -25  L 2.203125 -21  L 11.921875 -21  L 11.921875 71  L 2.203125 71  L 2.203125 75  L 15.921875 75  L 15.921875 -25  z " id="Cmr10-5d"/>
      <path d="M 11.8125 -25  L 11.8125 75  L 25.484375 75  L 25.484375 71  L 15.828125 71  L 15.828125 -21  L 25.484375 -21  L 25.484375 -25  z " id="Cmr10-5b"/>
      <path d="M 6.203125 8.109375  Q 6.203125 9.578125 6.5 10.890625  L 13.71875 39.59375  L 3.21875 39.59375  Q 2.203125 39.59375 2.203125 40.921875  Q 2.59375 43.109375 3.515625 43.109375  L 14.59375 43.109375  L 18.609375 59.421875  Q 19 60.75 20.171875 61.671875  Q 21.34375 62.59375 22.796875 62.59375  Q 24.078125 62.59375 24.921875 61.828125  Q 25.78125 61.078125 25.78125 59.8125  Q 25.78125 59.515625 25.75 59.34375  Q 25.734375 59.1875 25.6875 58.984375  L 21.6875 43.109375  L 31.984375 43.109375  Q 33.015625 43.109375 33.015625 41.796875  Q 32.953125 41.546875 32.8125 40.953125  Q 32.671875 40.375 32.421875 39.984375  Q 32.171875 39.59375 31.6875 39.59375  L 20.796875 39.59375  L 13.625 10.6875  Q 12.890625 7.859375 12.890625 5.8125  Q 12.890625 1.515625 15.828125 1.515625  Q 20.21875 1.515625 23.609375 5.640625  Q 27 9.765625 28.8125 14.703125  Q 29.203125 15.28125 29.59375 15.28125  L 30.8125 15.28125  Q 31.203125 15.28125 31.4375 15.015625  Q 31.6875 14.75 31.6875 14.40625  Q 31.6875 14.203125 31.59375 14.109375  Q 29.390625 8.0625 25.1875 3.46875  Q 21 -1.125 15.578125 -1.125  Q 11.625 -1.125 8.90625 1.453125  Q 6.203125 4.046875 6.203125 8.109375  " id="Cmmi10-74"/>
     </defs>
     <g transform="translate(183.9278125 335.75640625)scale(0.16 -0.16)">
      <use xlink:href="#Cmmi10-74"/>
      <use transform="translate(60.471115234375006 0.0)" xlink:href="#Cmr10-5b"/>
      <use transform="translate(88.156662109375 0.0)" xlink:href="#Cmr10-73"/>
      <use transform="translate(127.560958984375 0.0)" xlink:href="#Cmr10-5d"/>
     </g>
    </g>
   </g>
   <g id="matplotlib.axis_2">
    <g id="ytick_1">
     <g id="line2d_29">
      <path clip-path="url(#p43e1b27c28)" d="M 51.482813 305.078281  L 341.332813 305.078281  " style="fill:none;stroke:#000000;stroke-dasharray:1.000000,3.000000;stroke-dashoffset:0.0;stroke-width:0.5;"/>
     </g>
     <g id="line2d_30">
      <defs>
       <path d="M 0 0  L 4 0  " id="m94e187671f" style="stroke:#000000;stroke-width:0.5;"/>
      </defs>
      <g>
       <use style="stroke:#000000;stroke-width:0.5;" x="51.4828125" xlink:href="#m94e187671f" y="305.07828125"/>
      </g>
     </g>
     <g id="line2d_31">
      <defs>
       <path d="M 0 0  L -4 0  " id="md3ccb7961c" style="stroke:#000000;stroke-width:0.5;"/>
      </defs>
      <g>
       <use style="stroke:#000000;stroke-width:0.5;" x="341.3328125" xlink:href="#md3ccb7961c" y="305.07828125"/>
      </g>
     </g>
     <g id="text_11">
      <!-- −0.2 -->
      <g transform="translate(23.2 307.83765625)scale(0.1 -0.1)">
       <use xlink:href="#BitstreamVeraSans-Roman-2212"/>
       <use x="83.7890625" xlink:href="#BitstreamVeraSans-Roman-30"/>
       <use x="147.412109375" xlink:href="#BitstreamVeraSans-Roman-2e"/>
       <use x="179.19921875" xlink:href="#BitstreamVeraSans-Roman-32"/>
      </g>
     </g>
    </g>
    <g id="ytick_2">
     <g id="line2d_32">
      <path clip-path="url(#p43e1b27c28)" d="M 51.482813 266.863549  L 341.332813 266.863549  " style="fill:none;stroke:#000000;stroke-dasharray:1.000000,3.000000;stroke-dashoffset:0.0;stroke-width:0.5;"/>
     </g>
     <g id="line2d_33">
      <g>
       <use style="stroke:#000000;stroke-width:0.5;" x="51.4828125" xlink:href="#m94e187671f" y="266.863549107"/>
      </g>
     </g>
     <g id="line2d_34">
      <g>
       <use style="stroke:#000000;stroke-width:0.5;" x="341.3328125" xlink:href="#md3ccb7961c" y="266.863549107"/>
      </g>
     </g>
     <g id="text_12">
      <!-- 0.0 -->
      <g transform="translate(31.5796875 269.622924107)scale(0.1 -0.1)">
       <use xlink:href="#BitstreamVeraSans-Roman-30"/>
       <use x="63.623046875" xlink:href="#BitstreamVeraSans-Roman-2e"/>
       <use x="95.41015625" xlink:href="#BitstreamVeraSans-Roman-30"/>
      </g>
     </g>
    </g>
    <g id="ytick_3">
     <g id="line2d_35">
      <path clip-path="url(#p43e1b27c28)" d="M 51.482813 228.648817  L 341.332813 228.648817  " style="fill:none;stroke:#000000;stroke-dasharray:1.000000,3.000000;stroke-dashoffset:0.0;stroke-width:0.5;"/>
     </g>
     <g id="line2d_36">
      <g>
       <use style="stroke:#000000;stroke-width:0.5;" x="51.4828125" xlink:href="#m94e187671f" y="228.648816964"/>
      </g>
     </g>
     <g id="line2d_37">
      <g>
       <use style="stroke:#000000;stroke-width:0.5;" x="341.3328125" xlink:href="#md3ccb7961c" y="228.648816964"/>
      </g>
     </g>
     <g id="text_13">
      <!-- 0.2 -->
      <g transform="translate(31.5796875 231.408191964)scale(0.1 -0.1)">
       <use xlink:href="#BitstreamVeraSans-Roman-30"/>
       <use x="63.623046875" xlink:href="#BitstreamVeraSans-Roman-2e"/>
       <use x="95.41015625" xlink:href="#BitstreamVeraSans-Roman-32"/>
      </g>
     </g>
    </g>
    <g id="ytick_4">
     <g id="line2d_38">
      <path clip-path="url(#p43e1b27c28)" d="M 51.482813 190.434085  L 341.332813 190.434085  " style="fill:none;stroke:#000000;stroke-dasharray:1.000000,3.000000;stroke-dashoffset:0.0;stroke-width:0.5;"/>
     </g>
     <g id="line2d_39">
      <g>
       <use style="stroke:#000000;stroke-width:0.5;" x="51.4828125" xlink:href="#m94e187671f" y="190.434084821"/>
      </g>
     </g>
     <g id="line2d_40">
      <g>
       <use style="stroke:#000000;stroke-width:0.5;" x="341.3328125" xlink:href="#md3ccb7961c" y="190.434084821"/>
      </g>
     </g>
     <g id="text_14">
      <!-- 0.4 -->
      <defs>
       <path d="M 37.796875 64.3125  L 12.890625 25.390625  L 37.796875 25.390625  z M 35.203125 72.90625  L 47.609375 72.90625  L 47.609375 25.390625  L 58.015625 25.390625  L 58.015625 17.1875  L 47.609375 17.1875  L 47.609375 0  L 37.796875 0  L 37.796875 17.1875  L 4.890625 17.1875  L 4.890625 26.703125  z " id="BitstreamVeraSans-Roman-34"/>
      </defs>
      <g transform="translate(31.5796875 193.193459821)scale(0.1 -0.1)">
       <use xlink:href="#BitstreamVeraSans-Roman-30"/>
       <use x="63.623046875" xlink:href="#BitstreamVeraSans-Roman-2e"/>
       <use x="95.41015625" xlink:href="#BitstreamVeraSans-Roman-34"/>
      </g>
     </g>
    </g>
    <g id="ytick_5">
     <g id="line2d_41">
      <path clip-path="url(#p43e1b27c28)" d="M 51.482813 152.219353  L 341.332813 152.219353  " style="fill:none;stroke:#000000;stroke-dasharray:1.000000,3.000000;stroke-dashoffset:0.0;stroke-width:0.5;"/>
     </g>
     <g id="line2d_42">
      <g>
       <use style="stroke:#000000;stroke-width:0.5;" x="51.4828125" xlink:href="#m94e187671f" y="152.219352679"/>
      </g>
     </g>
     <g id="line2d_43">
      <g>
       <use style="stroke:#000000;stroke-width:0.5;" x="341.3328125" xlink:href="#md3ccb7961c" y="152.219352679"/>
      </g>
     </g>
     <g id="text_15">
      <!-- 0.6 -->
      <defs>
       <path d="M 33.015625 40.375  Q 26.375 40.375 22.484375 35.828125  Q 18.609375 31.296875 18.609375 23.390625  Q 18.609375 15.53125 22.484375 10.953125  Q 26.375 6.390625 33.015625 6.390625  Q 39.65625 6.390625 43.53125 10.953125  Q 47.40625 15.53125 47.40625 23.390625  Q 47.40625 31.296875 43.53125 35.828125  Q 39.65625 40.375 33.015625 40.375  M 52.59375 71.296875  L 52.59375 62.3125  Q 48.875 64.0625 45.09375 64.984375  Q 41.3125 65.921875 37.59375 65.921875  Q 27.828125 65.921875 22.671875 59.328125  Q 17.53125 52.734375 16.796875 39.40625  Q 19.671875 43.65625 24.015625 45.921875  Q 28.375 48.1875 33.59375 48.1875  Q 44.578125 48.1875 50.953125 41.515625  Q 57.328125 34.859375 57.328125 23.390625  Q 57.328125 12.15625 50.6875 5.359375  Q 44.046875 -1.421875 33.015625 -1.421875  Q 20.359375 -1.421875 13.671875 8.265625  Q 6.984375 17.96875 6.984375 36.375  Q 6.984375 53.65625 15.1875 63.9375  Q 23.390625 74.21875 37.203125 74.21875  Q 40.921875 74.21875 44.703125 73.484375  Q 48.484375 72.75 52.59375 71.296875  " id="BitstreamVeraSans-Roman-36"/>
      </defs>
      <g transform="translate(31.5796875 154.978727679)scale(0.1 -0.1)">
       <use xlink:href="#BitstreamVeraSans-Roman-30"/>
       <use x="63.623046875" xlink:href="#BitstreamVeraSans-Roman-2e"/>
       <use x="95.41015625" xlink:href="#BitstreamVeraSans-Roman-36"/>
      </g>
     </g>
    </g>
    <g id="ytick_6">
     <g id="line2d_44">
      <path clip-path="url(#p43e1b27c28)" d="M 51.482813 114.004621  L 341.332813 114.004621  " style="fill:none;stroke:#000000;stroke-dasharray:1.000000,3.000000;stroke-dashoffset:0.0;stroke-width:0.5;"/>
     </g>
     <g id="line2d_45">
      <g>
       <use style="stroke:#000000;stroke-width:0.5;" x="51.4828125" xlink:href="#m94e187671f" y="114.004620536"/>
      </g>
     </g>
     <g id="line2d_46">
      <g>
       <use style="stroke:#000000;stroke-width:0.5;" x="341.3328125" xlink:href="#md3ccb7961c" y="114.004620536"/>
      </g>
     </g>
     <g id="text_16">
      <!-- 0.8 -->
      <defs>
       <path d="M 31.78125 34.625  Q 24.75 34.625 20.71875 30.859375  Q 16.703125 27.09375 16.703125 20.515625  Q 16.703125 13.921875 20.71875 10.15625  Q 24.75 6.390625 31.78125 6.390625  Q 38.8125 6.390625 42.859375 10.171875  Q 46.921875 13.96875 46.921875 20.515625  Q 46.921875 27.09375 42.890625 30.859375  Q 38.875 34.625 31.78125 34.625  M 21.921875 38.8125  Q 15.578125 40.375 12.03125 44.71875  Q 8.5 49.078125 8.5 55.328125  Q 8.5 64.0625 14.71875 69.140625  Q 20.953125 74.21875 31.78125 74.21875  Q 42.671875 74.21875 48.875 69.140625  Q 55.078125 64.0625 55.078125 55.328125  Q 55.078125 49.078125 51.53125 44.71875  Q 48 40.375 41.703125 38.8125  Q 48.828125 37.15625 52.796875 32.3125  Q 56.78125 27.484375 56.78125 20.515625  Q 56.78125 9.90625 50.3125 4.234375  Q 43.84375 -1.421875 31.78125 -1.421875  Q 19.734375 -1.421875 13.25 4.234375  Q 6.78125 9.90625 6.78125 20.515625  Q 6.78125 27.484375 10.78125 32.3125  Q 14.796875 37.15625 21.921875 38.8125  M 18.3125 54.390625  Q 18.3125 48.734375 21.84375 45.5625  Q 25.390625 42.390625 31.78125 42.390625  Q 38.140625 42.390625 41.71875 45.5625  Q 45.3125 48.734375 45.3125 54.390625  Q 45.3125 60.0625 41.71875 63.234375  Q 38.140625 66.40625 31.78125 66.40625  Q 25.390625 66.40625 21.84375 63.234375  Q 18.3125 60.0625 18.3125 54.390625  " id="BitstreamVeraSans-Roman-38"/>
      </defs>
      <g transform="translate(31.5796875 116.763995536)scale(0.1 -0.1)">
       <use xlink:href="#BitstreamVeraSans-Roman-30"/>
       <use x="63.623046875" xlink:href="#BitstreamVeraSans-Roman-2e"/>
       <use x="95.41015625" xlink:href="#BitstreamVeraSans-Roman-38"/>
      </g>
     </g>
    </g>
    <g id="ytick_7">
     <g id="line2d_47">
      <path clip-path="url(#p43e1b27c28)" d="M 51.482813 75.789888  L 341.332813 75.789888  " style="fill:none;stroke:#000000;stroke-dasharray:1.000000,3.000000;stroke-dashoffset:0.0;stroke-width:0.5;"/>
     </g>
     <g id="line2d_48">
      <g>
       <use style="stroke:#000000;stroke-width:0.5;" x="51.4828125" xlink:href="#m94e187671f" y="75.7898883929"/>
      </g>
     </g>
     <g id="line2d_49">
      <g>
       <use style="stroke:#000000;stroke-width:0.5;" x="341.3328125" xlink:href="#md3ccb7961c" y="75.7898883929"/>
      </g>
     </g>
     <g id="text_17">
      <!-- 1.0 -->
      <g transform="translate(31.5796875 78.5492633929)scale(0.1 -0.1)">
       <use xlink:href="#BitstreamVeraSans-Roman-31"/>
       <use x="63.623046875" xlink:href="#BitstreamVeraSans-Roman-2e"/>
       <use x="95.41015625" xlink:href="#BitstreamVeraSans-Roman-30"/>
      </g>
     </g>
    </g>
    <g id="ytick_8">
     <g id="text_18">
      <!-- 1.2 -->
      <g transform="translate(31.5796875 40.33453125)scale(0.1 -0.1)">
       <use xlink:href="#BitstreamVeraSans-Roman-31"/>
       <use x="63.623046875" xlink:href="#BitstreamVeraSans-Roman-2e"/>
       <use x="95.41015625" xlink:href="#BitstreamVeraSans-Roman-32"/>
      </g>
     </g>
    </g>
    <g id="text_19">
     <!-- $s(t)$ -->
     <defs>
      <path d="M 6.5 -25  Q 5.609375 -25 5.609375 -24.125  Q 5.609375 -23.6875 5.8125 -23.484375  Q 22.90625 -6.78125 22.90625 25  Q 22.90625 56.78125 6 73.296875  Q 5.609375 73.53125 5.609375 74.125  Q 5.609375 74.46875 5.875 74.734375  Q 6.15625 75 6.5 75  L 7.421875 75  Q 7.71875 75 7.90625 74.8125  Q 15.09375 69.140625 19.875 61.03125  Q 24.65625 52.9375 26.875 43.75  Q 29.109375 34.578125 29.109375 25  Q 29.109375 17.921875 27.90625 11.0625  Q 26.703125 4.203125 24.09375 -2.453125  Q 21.484375 -9.125 17.484375 -14.765625  Q 13.484375 -20.40625 7.90625 -24.8125  Q 7.71875 -25 7.421875 -25  z " id="Cmr10-29"/>
      <path d="M 31 -24.8125  Q 25.4375 -20.40625 21.40625 -14.71875  Q 17.390625 -9.03125 14.8125 -2.578125  Q 12.25 3.859375 10.984375 10.890625  Q 9.71875 17.921875 9.71875 25  Q 9.71875 32.171875 10.984375 39.203125  Q 12.25 46.234375 14.859375 52.734375  Q 17.484375 59.234375 21.53125 64.890625  Q 25.59375 70.5625 31 74.8125  Q 31 75 31.5 75  L 32.421875 75  Q 32.71875 75 32.953125 74.734375  Q 33.203125 74.46875 33.203125 74.125  Q 33.203125 73.6875 33.015625 73.484375  Q 28.125 68.703125 24.875 63.234375  Q 21.625 57.765625 19.640625 51.578125  Q 17.671875 45.40625 16.796875 38.78125  Q 15.921875 32.171875 15.921875 25  Q 15.921875 -6.78125 32.90625 -23.296875  Q 33.203125 -23.578125 33.203125 -24.125  Q 33.203125 -24.359375 32.9375 -24.671875  Q 32.671875 -25 32.421875 -25  L 31.5 -25  Q 31 -25 31 -24.8125  " id="Cmr10-28"/>
      <path d="M 8.6875 6.109375  Q 11.375 1.515625 19.484375 1.515625  Q 23 1.515625 26.171875 2.703125  Q 29.34375 3.90625 31.421875 6.296875  Q 33.5 8.6875 33.5 12.109375  Q 33.5 14.703125 31.640625 16.359375  Q 29.78125 18.015625 27.09375 18.609375  L 21.6875 19.671875  Q 17.96875 20.609375 15.578125 23.140625  Q 13.1875 25.6875 13.1875 29.296875  Q 13.1875 33.734375 15.59375 37.15625  Q 18.015625 40.578125 21.96875 42.375  Q 25.921875 44.1875 30.171875 44.1875  Q 34.71875 44.1875 38.296875 42.015625  Q 41.890625 39.84375 41.890625 35.59375  Q 41.890625 33.296875 40.59375 31.53125  Q 39.3125 29.78125 37.015625 29.78125  Q 35.6875 29.78125 34.734375 30.640625  Q 33.796875 31.5 33.796875 32.8125  Q 33.796875 33.984375 34.453125 35.078125  Q 35.109375 36.1875 36.203125 36.84375  Q 37.3125 37.5 38.484375 37.5  Q 37.59375 39.65625 35.171875 40.625  Q 32.765625 41.609375 29.984375 41.609375  Q 27.4375 41.609375 24.890625 40.578125  Q 22.359375 39.546875 20.8125 37.5625  Q 19.28125 35.59375 19.28125 32.90625  Q 19.28125 31.109375 20.546875 29.734375  Q 21.828125 28.375 23.6875 27.78125  L 29.5 26.609375  Q 32.28125 26.03125 34.59375 24.53125  Q 36.921875 23.046875 38.25 20.765625  Q 39.59375 18.5 39.59375 15.578125  Q 39.59375 11.859375 37.515625 8.25  Q 35.453125 4.640625 32.421875 2.484375  Q 27.09375 -1.125 19.390625 -1.125  Q 14.0625 -1.125 9.609375 1.3125  Q 5.171875 3.765625 5.171875 8.59375  Q 5.171875 11.328125 6.75 13.34375  Q 8.34375 15.375 11.078125 15.375  Q 12.703125 15.375 13.796875 14.390625  Q 14.890625 13.421875 14.890625 11.8125  Q 14.890625 9.515625 13.171875 7.8125  Q 11.46875 6.109375 9.1875 6.109375  z " id="Cmmi10-73"/>
     </defs>
     <g transform="translate(19.2 184.20671875)rotate(-90.0)scale(0.16 -0.16)">
      <use xlink:href="#Cmmi10-73"/>
      <use transform="translate(46.77734375 0.0)" xlink:href="#Cmr10-28"/>
      <use transform="translate(85.595703125 0.0)" xlink:href="#Cmmi10-74"/>
      <use transform="translate(121.6796875 0.0)" xlink:href="#Cmr10-29"/>
     </g>
    </g>
   </g>
   <g id="text_20">
    <!-- $\mathrm{rect}(t)$ -->
    <defs>
     <path d="M 2.59375 0  L 2.59375 3.515625  Q 6 3.515625 8.203125 4.046875  Q 10.40625 4.59375 10.40625 6.6875  L 10.40625 33.984375  Q 10.40625 36.671875 9.59375 37.859375  Q 8.796875 39.0625 7.28125 39.328125  Q 5.765625 39.59375 2.59375 39.59375  L 2.59375 43.109375  L 16.890625 44.1875  L 16.890625 34.421875  Q 18.5 38.765625 21.484375 41.46875  Q 24.46875 44.1875 28.71875 44.1875  Q 31.6875 44.1875 34.03125 42.421875  Q 36.375 40.671875 36.375 37.796875  Q 36.375 35.984375 35.078125 34.640625  Q 33.796875 33.296875 31.890625 33.296875  Q 30.03125 33.296875 28.703125 34.609375  Q 27.390625 35.9375 27.390625 37.796875  Q 27.390625 40.484375 29.296875 41.609375  L 28.71875 41.609375  Q 24.65625 41.609375 22.09375 38.671875  Q 19.53125 35.75 18.453125 31.390625  Q 17.390625 27.046875 17.390625 23.09375  L 17.390625 6.6875  Q 17.390625 3.515625 27.09375 3.515625  L 27.09375 0  z " id="Cmr10-72"/>
     <path d="M 10.203125 12.015625  L 10.203125 39.59375  L 1.90625 39.59375  L 1.90625 42.1875  Q 8.453125 42.1875 11.515625 48.28125  Q 14.59375 54.390625 14.59375 61.53125  L 17.484375 61.53125  L 17.484375 43.109375  L 31.59375 43.109375  L 31.59375 39.59375  L 17.484375 39.59375  L 17.484375 12.203125  Q 17.484375 8.0625 18.875 4.9375  Q 20.265625 1.8125 23.875 1.8125  Q 27.296875 1.8125 28.8125 5.109375  Q 30.328125 8.40625 30.328125 12.203125  L 30.328125 18.109375  L 33.203125 18.109375  L 33.203125 12.015625  Q 33.203125 8.890625 32.046875 5.828125  Q 30.90625 2.78125 28.65625 0.828125  Q 26.421875 -1.125 23.1875 -1.125  Q 17.1875 -1.125 13.6875 2.46875  Q 10.203125 6.0625 10.203125 12.015625  " id="Cmr10-74"/>
     <path d="M 24.90625 -1.125  Q 18.796875 -1.125 13.6875 2.078125  Q 8.59375 5.28125 5.6875 10.625  Q 2.78125 15.96875 2.78125 21.921875  Q 2.78125 27.78125 5.4375 33.046875  Q 8.109375 38.328125 12.859375 41.578125  Q 17.625 44.828125 23.484375 44.828125  Q 28.078125 44.828125 31.46875 43.28125  Q 34.859375 41.75 37.0625 39.015625  Q 39.265625 36.28125 40.375 32.5625  Q 41.5 28.859375 41.5 24.421875  Q 41.5 23.09375 40.484375 23.09375  L 11.53125 23.09375  L 11.53125 22.015625  Q 11.53125 13.71875 14.875 7.765625  Q 18.21875 1.8125 25.78125 1.8125  Q 28.859375 1.8125 31.46875 3.171875  Q 34.078125 4.546875 36 6.984375  Q 37.9375 9.421875 38.625 12.203125  Q 38.71875 12.546875 38.984375 12.8125  Q 39.265625 13.09375 39.59375 13.09375  L 40.484375 13.09375  Q 41.5 13.09375 41.5 11.8125  Q 40.09375 6.15625 35.40625 2.515625  Q 30.71875 -1.125 24.90625 -1.125  M 11.625 25.59375  L 34.421875 25.59375  Q 34.421875 29.34375 33.375 33.203125  Q 32.328125 37.0625 29.875 39.625  Q 27.4375 42.1875 23.484375 42.1875  Q 17.828125 42.1875 14.71875 36.890625  Q 11.625 31.59375 11.625 25.59375  " id="Cmr10-65"/>
     <path d="M 24.90625 -1.125  Q 18.84375 -1.125 13.90625 2.015625  Q 8.984375 5.171875 6.15625 10.421875  Q 3.328125 15.671875 3.328125 21.578125  Q 3.328125 27.484375 6.125 32.90625  Q 8.9375 38.328125 13.890625 41.578125  Q 18.84375 44.828125 24.90625 44.828125  Q 30.765625 44.828125 35.5625 42.53125  Q 40.375 40.234375 40.375 35.015625  Q 40.375 33.0625 38.984375 31.609375  Q 37.59375 30.171875 35.59375 30.171875  Q 33.59375 30.171875 32.203125 31.609375  Q 30.8125 33.0625 30.8125 35.015625  Q 30.8125 36.765625 31.9375 38.0625  Q 33.0625 39.359375 34.71875 39.703125  Q 31.25 41.890625 25 41.890625  Q 20.21875 41.890625 17.28125 38.71875  Q 14.359375 35.546875 13.1875 30.859375  Q 12.015625 26.171875 12.015625 21.578125  Q 12.015625 16.75 13.453125 12.234375  Q 14.890625 7.71875 18.09375 4.765625  Q 21.296875 1.8125 26.125 1.8125  Q 30.859375 1.8125 34.171875 4.71875  Q 37.5 7.625 38.71875 12.3125  Q 38.71875 12.890625 39.5 12.890625  L 40.71875 12.890625  Q 41.015625 12.890625 41.25 12.625  Q 41.5 12.359375 41.5 12.015625  L 41.5 11.71875  Q 39.984375 5.8125 35.484375 2.34375  Q 31 -1.125 24.90625 -1.125  " id="Cmr10-63"/>
    </defs>
    <g transform="translate(173.9278125 19.2)scale(0.16 -0.16)">
     <use xlink:href="#Cmr10-72"/>
     <use transform="translate(39.111328125 0.0)" xlink:href="#Cmr10-65"/>
     <use transform="translate(83.49609375 0.0)" xlink:href="#Cmr10-63"/>
     <use transform="translate(127.880859375 0.0)" xlink:href="#Cmr10-74"/>
     <use transform="translate(166.69921875 0.0)" xlink:href="#Cmr10-28"/>
     <use transform="translate(205.517578125 0.0)" xlink:href="#Cmmi10-74"/>
     <use transform="translate(241.6015625 0.0)" xlink:href="#Cmr10-29"/>
    </g>
   </g>
  </g>
  <g id="axes_2">
   <g id="patch_7">
    <path d="M 408.501563 305.078281  L 698.351562 305.078281  L 698.351562 37.575156  L 408.501563 37.575156  z " style="fill:#ffffff;"/>
   </g>
   <g id="line2d_50">
    <path clip-path="url(#pbeeccbf43c)" d="M 408.501563 238.2025  L 415.294922 245.957613  L 417.559375 248.237393  L 419.823828 250.202282  L 422.088281 251.76583  L 423.220508 252.373353  L 424.352734 252.853864  L 425.484961 253.200531  L 426.617188 253.407659  L 427.749414 253.470766  L 428.881641 253.386641  L 430.013867 253.1534  L 431.146094 252.770521  L 432.27832 252.238877  L 433.410547 251.560748  L 434.542773 250.73983  L 436.807227 248.691409  L 439.07168 246.150799  L 441.336133 243.195918  L 444.732813 238.2025  L 452.658398 226.06365  L 454.922852 223.07124  L 457.187305 220.533179  L 458.319531 219.472187  L 459.451758 218.568185  L 460.583984 217.83353  L 461.716211 217.279321  L 462.848438 216.915278  L 463.980664 216.74962  L 465.112891 216.788967  L 466.245117 217.038239  L 467.377344 217.500575  L 468.50957 218.177269  L 469.641797 219.067712  L 470.774023 220.169354  L 471.90625 221.477679  L 473.038477 222.986195  L 475.30293 226.568034  L 477.567383 230.824166  L 479.831836 235.634484  L 483.228516 243.561121  L 488.889648 257.156143  L 491.154102 262.137402  L 493.418555 266.540091  L 494.550781 268.45916  L 495.683008 270.156385  L 496.815234 271.607611  L 497.947461 272.789796  L 499.079688 273.681204  L 500.211914 274.261595  L 501.344141 274.512403  L 502.476367 274.416903  L 503.608594 273.960371  L 504.74082 273.130228  L 505.873047 271.916173  L 507.005273 270.310296  L 508.1375 268.307179  L 509.269727 265.903979  L 510.401953 263.100494  L 511.53418 259.899207  L 512.666406 256.305316  L 514.930859 247.974102  L 517.195312 238.2025  L 519.459766 227.128017  L 521.724219 214.927451  L 525.120898 194.988193  L 530.782031 159.535184  L 535.310938 131.766388  L 537.575391 118.898533  L 539.839844 107.090307  L 542.104297 96.605072  L 544.36875 87.679107  L 545.500977 83.86569  L 546.633203 80.515206  L 547.76543 77.646866  L 548.897656 75.277154  L 550.029883 73.419714  L 551.162109 72.085258  L 552.294336 71.281487  L 553.426563 71.013047  L 554.558789 71.281487  L 555.691016 72.085258  L 556.823242 73.419714  L 557.955469 75.277154  L 559.087695 77.646866  L 560.219922 80.515206  L 561.352148 83.86569  L 562.484375 87.679107  L 564.748828 96.605072  L 567.013281 107.090307  L 569.277734 118.898533  L 571.542188 131.766388  L 574.938867 152.431546  L 582.864453 201.813124  L 586.261133 221.156005  L 588.525586 232.817951  L 590.790039 243.260713  L 593.054492 252.326739  L 595.318945 259.899207  L 596.451172 263.100494  L 597.583398 265.903979  L 598.715625 268.307179  L 599.847852 270.310296  L 600.980078 271.916173  L 602.112305 273.130228  L 603.244531 273.960371  L 604.376758 274.416903  L 605.508984 274.512403  L 606.641211 274.261595  L 607.773438 273.681204  L 608.905664 272.789796  L 610.037891 271.607611  L 611.170117 270.156385  L 612.302344 268.45916  L 614.566797 264.424246  L 616.83125 259.705842  L 620.22793 251.80891  L 625.889063 238.2025  L 628.153516 233.168644  L 630.417969 228.618656  L 632.682422 224.686446  L 634.946875 221.477679  L 636.079102 220.169354  L 637.211328 219.067712  L 638.343555 218.177269  L 639.475781 217.500575  L 640.608008 217.038239  L 641.740234 216.788967  L 642.872461 216.74962  L 644.004688 216.915278  L 645.136914 217.279321  L 646.269141 217.83353  L 647.401367 218.568185  L 648.533594 219.472187  L 650.798047 221.737683  L 653.0625 224.518555  L 655.326953 227.690014  L 658.723633 232.886926  L 664.384766 241.592648  L 666.649219 244.719514  L 668.913672 247.478223  L 671.178125 249.781223  L 673.442578 251.560748  L 674.574805 252.238877  L 675.707031 252.770521  L 676.839258 253.1534  L 677.971484 253.386641  L 679.103711 253.470766  L 680.235937 253.407659  L 681.368164 253.200531  L 682.500391 252.853864  L 683.632617 252.373353  L 685.89707 251.039187  L 688.161523 249.26485  L 690.425977 247.131076  L 693.822656 243.458156  L 697.219336 239.516839  L 697.219336 239.516839  " style="fill:none;stroke:#ac4142;stroke-linecap:square;stroke-width:4.0;"/>
   </g>
   <g id="patch_8">
    <path d="M 408.501563 305.078281  L 408.501563 37.575156  " style="fill:none;stroke:#000000;stroke-linecap:square;stroke-linejoin:miter;"/>
   </g>
   <g id="patch_9">
    <path d="M 408.501563 37.575156  L 698.351562 37.575156  " style="fill:none;stroke:#000000;stroke-linecap:square;stroke-linejoin:miter;"/>
   </g>
   <g id="patch_10">
    <path d="M 698.351562 305.078281  L 698.351562 37.575156  " style="fill:none;stroke:#000000;stroke-linecap:square;stroke-linejoin:miter;"/>
   </g>
   <g id="patch_11">
    <path d="M 408.501563 305.078281  L 698.351562 305.078281  " style="fill:none;stroke:#000000;stroke-linecap:square;stroke-linejoin:miter;"/>
   </g>
   <g id="matplotlib.axis_3">
    <g id="xtick_10">
     <g id="line2d_51">
      <path clip-path="url(#pbeeccbf43c)" d="M 408.501563 305.078281  L 408.501563 37.575156  " style="fill:none;stroke:#000000;stroke-dasharray:1.000000,3.000000;stroke-dashoffset:0.0;stroke-width:0.5;"/>
     </g>
     <g id="line2d_52">
      <g>
       <use style="stroke:#000000;stroke-width:0.5;" x="408.5015625" xlink:href="#m86d5b64f71" y="305.07828125"/>
      </g>
     </g>
     <g id="line2d_53">
      <g>
       <use style="stroke:#000000;stroke-width:0.5;" x="408.5015625" xlink:href="#m487012fa93" y="37.57515625"/>
      </g>
     </g>
     <g id="text_21">
      <!-- −4 -->
      <g transform="translate(401.13046875 316.67671875)scale(0.1 -0.1)">
       <use xlink:href="#BitstreamVeraSans-Roman-2212"/>
       <use x="83.7890625" xlink:href="#BitstreamVeraSans-Roman-34"/>
      </g>
     </g>
    </g>
    <g id="xtick_11">
     <g id="line2d_54">
      <path clip-path="url(#pbeeccbf43c)" d="M 444.732813 305.078281  L 444.732813 37.575156  " style="fill:none;stroke:#000000;stroke-dasharray:1.000000,3.000000;stroke-dashoffset:0.0;stroke-width:0.5;"/>
     </g>
     <g id="line2d_55">
      <g>
       <use style="stroke:#000000;stroke-width:0.5;" x="444.7328125" xlink:href="#m86d5b64f71" y="305.07828125"/>
      </g>
     </g>
     <g id="line2d_56">
      <g>
       <use style="stroke:#000000;stroke-width:0.5;" x="444.7328125" xlink:href="#m487012fa93" y="37.57515625"/>
      </g>
     </g>
     <g id="text_22">
      <!-- −3 -->
      <defs>
       <path d="M 40.578125 39.3125  Q 47.65625 37.796875 51.625 33  Q 55.609375 28.21875 55.609375 21.1875  Q 55.609375 10.40625 48.1875 4.484375  Q 40.765625 -1.421875 27.09375 -1.421875  Q 22.515625 -1.421875 17.65625 -0.515625  Q 12.796875 0.390625 7.625 2.203125  L 7.625 11.71875  Q 11.71875 9.328125 16.59375 8.109375  Q 21.484375 6.890625 26.8125 6.890625  Q 36.078125 6.890625 40.9375 10.546875  Q 45.796875 14.203125 45.796875 21.1875  Q 45.796875 27.640625 41.28125 31.265625  Q 36.765625 34.90625 28.71875 34.90625  L 20.21875 34.90625  L 20.21875 43.015625  L 29.109375 43.015625  Q 36.375 43.015625 40.234375 45.921875  Q 44.09375 48.828125 44.09375 54.296875  Q 44.09375 59.90625 40.109375 62.90625  Q 36.140625 65.921875 28.71875 65.921875  Q 24.65625 65.921875 20.015625 65.03125  Q 15.375 64.15625 9.8125 62.3125  L 9.8125 71.09375  Q 15.4375 72.65625 20.34375 73.4375  Q 25.25 74.21875 29.59375 74.21875  Q 40.828125 74.21875 47.359375 69.109375  Q 53.90625 64.015625 53.90625 55.328125  Q 53.90625 49.265625 50.4375 45.09375  Q 46.96875 40.921875 40.578125 39.3125  " id="BitstreamVeraSans-Roman-33"/>
      </defs>
      <g transform="translate(437.36171875 316.67671875)scale(0.1 -0.1)">
       <use xlink:href="#BitstreamVeraSans-Roman-2212"/>
       <use x="83.7890625" xlink:href="#BitstreamVeraSans-Roman-33"/>
      </g>
     </g>
    </g>
    <g id="xtick_12">
     <g id="line2d_57">
      <path clip-path="url(#pbeeccbf43c)" d="M 480.964063 305.078281  L 480.964063 37.575156  " style="fill:none;stroke:#000000;stroke-dasharray:1.000000,3.000000;stroke-dashoffset:0.0;stroke-width:0.5;"/>
     </g>
     <g id="line2d_58">
      <g>
       <use style="stroke:#000000;stroke-width:0.5;" x="480.9640625" xlink:href="#m86d5b64f71" y="305.07828125"/>
      </g>
     </g>
     <g id="line2d_59">
      <g>
       <use style="stroke:#000000;stroke-width:0.5;" x="480.9640625" xlink:href="#m487012fa93" y="37.57515625"/>
      </g>
     </g>
     <g id="text_23">
      <!-- −2 -->
      <g transform="translate(473.59296875 316.67671875)scale(0.1 -0.1)">
       <use xlink:href="#BitstreamVeraSans-Roman-2212"/>
       <use x="83.7890625" xlink:href="#BitstreamVeraSans-Roman-32"/>
      </g>
     </g>
    </g>
    <g id="xtick_13">
     <g id="line2d_60">
      <path clip-path="url(#pbeeccbf43c)" d="M 517.195312 305.078281  L 517.195312 37.575156  " style="fill:none;stroke:#000000;stroke-dasharray:1.000000,3.000000;stroke-dashoffset:0.0;stroke-width:0.5;"/>
     </g>
     <g id="line2d_61">
      <g>
       <use style="stroke:#000000;stroke-width:0.5;" x="517.1953125" xlink:href="#m86d5b64f71" y="305.07828125"/>
      </g>
     </g>
     <g id="line2d_62">
      <g>
       <use style="stroke:#000000;stroke-width:0.5;" x="517.1953125" xlink:href="#m487012fa93" y="37.57515625"/>
      </g>
     </g>
     <g id="text_24">
      <!-- −1 -->
      <g transform="translate(509.82421875 316.67671875)scale(0.1 -0.1)">
       <use xlink:href="#BitstreamVeraSans-Roman-2212"/>
       <use x="83.7890625" xlink:href="#BitstreamVeraSans-Roman-31"/>
      </g>
     </g>
    </g>
    <g id="xtick_14">
     <g id="line2d_63">
      <path clip-path="url(#pbeeccbf43c)" d="M 553.426563 305.078281  L 553.426563 37.575156  " style="fill:none;stroke:#000000;stroke-dasharray:1.000000,3.000000;stroke-dashoffset:0.0;stroke-width:0.5;"/>
     </g>
     <g id="line2d_64">
      <g>
       <use style="stroke:#000000;stroke-width:0.5;" x="553.4265625" xlink:href="#m86d5b64f71" y="305.07828125"/>
      </g>
     </g>
     <g id="line2d_65">
      <g>
       <use style="stroke:#000000;stroke-width:0.5;" x="553.4265625" xlink:href="#m487012fa93" y="37.57515625"/>
      </g>
     </g>
     <g id="text_25">
      <!-- 0 -->
      <g transform="translate(550.2453125 316.67671875)scale(0.1 -0.1)">
       <use xlink:href="#BitstreamVeraSans-Roman-30"/>
      </g>
     </g>
    </g>
    <g id="xtick_15">
     <g id="line2d_66">
      <path clip-path="url(#pbeeccbf43c)" d="M 589.657813 305.078281  L 589.657813 37.575156  " style="fill:none;stroke:#000000;stroke-dasharray:1.000000,3.000000;stroke-dashoffset:0.0;stroke-width:0.5;"/>
     </g>
     <g id="line2d_67">
      <g>
       <use style="stroke:#000000;stroke-width:0.5;" x="589.6578125" xlink:href="#m86d5b64f71" y="305.07828125"/>
      </g>
     </g>
     <g id="line2d_68">
      <g>
       <use style="stroke:#000000;stroke-width:0.5;" x="589.6578125" xlink:href="#m487012fa93" y="37.57515625"/>
      </g>
     </g>
     <g id="text_26">
      <!-- 1 -->
      <g transform="translate(586.4765625 316.67671875)scale(0.1 -0.1)">
       <use xlink:href="#BitstreamVeraSans-Roman-31"/>
      </g>
     </g>
    </g>
    <g id="xtick_16">
     <g id="line2d_69">
      <path clip-path="url(#pbeeccbf43c)" d="M 625.889063 305.078281  L 625.889063 37.575156  " style="fill:none;stroke:#000000;stroke-dasharray:1.000000,3.000000;stroke-dashoffset:0.0;stroke-width:0.5;"/>
     </g>
     <g id="line2d_70">
      <g>
       <use style="stroke:#000000;stroke-width:0.5;" x="625.8890625" xlink:href="#m86d5b64f71" y="305.07828125"/>
      </g>
     </g>
     <g id="line2d_71">
      <g>
       <use style="stroke:#000000;stroke-width:0.5;" x="625.8890625" xlink:href="#m487012fa93" y="37.57515625"/>
      </g>
     </g>
     <g id="text_27">
      <!-- 2 -->
      <g transform="translate(622.7078125 316.67671875)scale(0.1 -0.1)">
       <use xlink:href="#BitstreamVeraSans-Roman-32"/>
      </g>
     </g>
    </g>
    <g id="xtick_17">
     <g id="line2d_72">
      <path clip-path="url(#pbeeccbf43c)" d="M 662.120312 305.078281  L 662.120312 37.575156  " style="fill:none;stroke:#000000;stroke-dasharray:1.000000,3.000000;stroke-dashoffset:0.0;stroke-width:0.5;"/>
     </g>
     <g id="line2d_73">
      <g>
       <use style="stroke:#000000;stroke-width:0.5;" x="662.1203125" xlink:href="#m86d5b64f71" y="305.07828125"/>
      </g>
     </g>
     <g id="line2d_74">
      <g>
       <use style="stroke:#000000;stroke-width:0.5;" x="662.1203125" xlink:href="#m487012fa93" y="37.57515625"/>
      </g>
     </g>
     <g id="text_28">
      <!-- 3 -->
      <g transform="translate(658.9390625 316.67671875)scale(0.1 -0.1)">
       <use xlink:href="#BitstreamVeraSans-Roman-33"/>
      </g>
     </g>
    </g>
    <g id="xtick_18">
     <g id="line2d_75">
      <path clip-path="url(#pbeeccbf43c)" d="M 698.351562 305.078281  L 698.351562 37.575156  " style="fill:none;stroke:#000000;stroke-dasharray:1.000000,3.000000;stroke-dashoffset:0.0;stroke-width:0.5;"/>
     </g>
     <g id="line2d_76">
      <g>
       <use style="stroke:#000000;stroke-width:0.5;" x="698.3515625" xlink:href="#m86d5b64f71" y="305.07828125"/>
      </g>
     </g>
     <g id="line2d_77">
      <g>
       <use style="stroke:#000000;stroke-width:0.5;" x="698.3515625" xlink:href="#m487012fa93" y="37.57515625"/>
      </g>
     </g>
     <g id="text_29">
      <!-- 4 -->
      <g transform="translate(695.1703125 316.67671875)scale(0.1 -0.1)">
       <use xlink:href="#BitstreamVeraSans-Roman-34"/>
      </g>
     </g>
    </g>
    <g id="text_30">
     <!-- $f \; \mathrm{[Hz]}$ -->
     <defs>
      <path d="M 9.71875 -16.5  Q 11.578125 -17.921875 14.203125 -17.921875  Q 17.78125 -17.921875 20.015625 -10.015625  Q 20.953125 -6.203125 25.09375 15.09375  L 29.6875 39.59375  L 21.09375 39.59375  Q 20.125 39.59375 20.125 40.921875  Q 20.515625 43.109375 21.390625 43.109375  L 30.328125 43.109375  L 31.5 49.609375  Q 32.078125 52.640625 32.5625 54.8125  Q 33.0625 56.984375 33.625 58.828125  Q 34.1875 60.6875 35.296875 62.984375  Q 37.015625 66.265625 39.921875 68.390625  Q 42.828125 70.515625 46.1875 70.515625  Q 48.390625 70.515625 50.46875 69.703125  Q 52.546875 68.890625 53.859375 67.28125  Q 55.171875 65.671875 55.171875 63.484375  Q 55.171875 60.9375 53.484375 59.046875  Q 51.8125 57.171875 49.421875 57.171875  Q 47.796875 57.171875 46.65625 58.171875  Q 45.515625 59.1875 45.515625 60.796875  Q 45.515625 62.984375 47 64.625  Q 48.484375 66.265625 50.6875 66.5  Q 48.828125 67.921875 46.09375 67.921875  Q 44.578125 67.921875 43.234375 66.5  Q 41.890625 65.09375 41.5 63.484375  Q 40.875 60.9375 38.71875 49.703125  L 37.5 43.109375  L 47.796875 43.109375  Q 48.78125 43.109375 48.78125 41.796875  Q 48.734375 41.546875 48.578125 40.9375  Q 48.4375 40.328125 48.171875 39.953125  Q 47.90625 39.59375 47.515625 39.59375  L 36.8125 39.59375  L 32.171875 15.1875  Q 31.296875 9.859375 30.140625 4.359375  Q 29 -1.125 26.921875 -6.90625  Q 24.859375 -12.703125 21.625 -16.609375  Q 18.40625 -20.515625 14.015625 -20.515625  Q 10.640625 -20.515625 7.984375 -18.578125  Q 5.328125 -16.65625 5.328125 -13.484375  Q 5.328125 -10.9375 6.953125 -9.046875  Q 8.59375 -7.171875 11.078125 -7.171875  Q 12.75 -7.171875 13.859375 -8.171875  Q 14.984375 -9.1875 14.984375 -10.796875  Q 14.984375 -12.9375 13.390625 -14.71875  Q 11.8125 -16.5 9.71875 -16.5  " id="Cmmi10-66"/>
      <path d="M 3.078125 0  L 3.078125 3.515625  Q 13.375 3.515625 13.375 6.6875  L 13.375 61.625  Q 13.375 64.796875 3.078125 64.796875  L 3.078125 68.3125  L 33.015625 68.3125  L 33.015625 64.796875  Q 22.703125 64.796875 22.703125 61.625  L 22.703125 37.3125  L 52.203125 37.3125  L 52.203125 61.625  Q 52.203125 64.796875 41.890625 64.796875  L 41.890625 68.3125  L 71.78125 68.3125  L 71.78125 64.796875  Q 61.53125 64.796875 61.53125 61.625  L 61.53125 6.6875  Q 61.53125 3.515625 71.78125 3.515625  L 71.78125 0  L 41.890625 0  L 41.890625 3.515625  Q 52.203125 3.515625 52.203125 6.6875  L 52.203125 33.796875  L 22.703125 33.796875  L 22.703125 6.6875  Q 22.703125 3.515625 33.015625 3.515625  L 33.015625 0  z " id="Cmr10-48"/>
      <path d="M 3.90625 0  Q 2.78125 0 2.78125 1.125  L 2.78125 1.90625  Q 2.78125 2.296875 3.078125 2.59375  L 31 40.484375  L 22.015625 40.484375  Q 17.78125 40.484375 15.015625 39.9375  Q 12.25 39.40625 10.46875 37.90625  Q 8.6875 36.421875 7.875 33.8125  Q 7.078125 31.203125 7.078125 26.609375  L 4.203125 26.609375  L 5.328125 43.109375  L 38.8125 43.109375  Q 39.265625 43.109375 39.578125 42.796875  Q 39.890625 42.484375 39.890625 42  L 39.890625 41.40625  Q 39.890625 41.109375 39.703125 40.71875  L 11.71875 2.875  L 21.296875 2.875  Q 25.640625 2.875 28.546875 3.40625  Q 31.453125 3.953125 33.5 6  Q 35.40625 7.90625 36.109375 11.125  Q 36.8125 14.359375 37.203125 19.09375  L 40.09375 19.09375  L 38.375 0  z " id="Cmr10-7a"/>
     </defs>
     <g transform="translate(533.5065625 335.75640625)scale(0.16 -0.16)">
      <use xlink:href="#Cmmi10-66"/>
      <use transform="translate(73.264083984375 0.0)" xlink:href="#Cmr10-5b"/>
      <use transform="translate(100.949630859375 0.0)" xlink:href="#Cmr10-48"/>
      <use transform="translate(175.94963085937502 0.0)" xlink:href="#Cmr10-7a"/>
      <use transform="translate(220.33439648437502 0.0)" xlink:href="#Cmr10-5d"/>
     </g>
    </g>
   </g>
   <g id="matplotlib.axis_4">
    <g id="ytick_9">
     <g id="line2d_78">
      <path clip-path="url(#pbeeccbf43c)" d="M 408.501563 305.078281  L 698.351562 305.078281  " style="fill:none;stroke:#000000;stroke-dasharray:1.000000,3.000000;stroke-dashoffset:0.0;stroke-width:0.5;"/>
     </g>
     <g id="line2d_79">
      <g>
       <use style="stroke:#000000;stroke-width:0.5;" x="408.5015625" xlink:href="#m94e187671f" y="305.07828125"/>
      </g>
     </g>
     <g id="line2d_80">
      <g>
       <use style="stroke:#000000;stroke-width:0.5;" x="698.3515625" xlink:href="#md3ccb7961c" y="305.07828125"/>
      </g>
     </g>
     <g id="text_31">
      <!-- −0.4 -->
      <g transform="translate(380.21875 307.83765625)scale(0.1 -0.1)">
       <use xlink:href="#BitstreamVeraSans-Roman-2212"/>
       <use x="83.7890625" xlink:href="#BitstreamVeraSans-Roman-30"/>
       <use x="147.412109375" xlink:href="#BitstreamVeraSans-Roman-2e"/>
       <use x="179.19921875" xlink:href="#BitstreamVeraSans-Roman-34"/>
      </g>
     </g>
    </g>
    <g id="ytick_10">
     <g id="line2d_81">
      <path clip-path="url(#pbeeccbf43c)" d="M 408.501563 271.640391  L 698.351562 271.640391  " style="fill:none;stroke:#000000;stroke-dasharray:1.000000,3.000000;stroke-dashoffset:0.0;stroke-width:0.5;"/>
     </g>
     <g id="line2d_82">
      <g>
       <use style="stroke:#000000;stroke-width:0.5;" x="408.5015625" xlink:href="#m94e187671f" y="271.640390625"/>
      </g>
     </g>
     <g id="line2d_83">
      <g>
       <use style="stroke:#000000;stroke-width:0.5;" x="698.3515625" xlink:href="#md3ccb7961c" y="271.640390625"/>
      </g>
     </g>
     <g id="text_32">
      <!-- −0.2 -->
      <g transform="translate(380.21875 274.399765625)scale(0.1 -0.1)">
       <use xlink:href="#BitstreamVeraSans-Roman-2212"/>
       <use x="83.7890625" xlink:href="#BitstreamVeraSans-Roman-30"/>
       <use x="147.412109375" xlink:href="#BitstreamVeraSans-Roman-2e"/>
       <use x="179.19921875" xlink:href="#BitstreamVeraSans-Roman-32"/>
      </g>
     </g>
    </g>
    <g id="ytick_11">
     <g id="line2d_84">
      <path clip-path="url(#pbeeccbf43c)" d="M 408.501563 238.2025  L 698.351562 238.2025  " style="fill:none;stroke:#000000;stroke-dasharray:1.000000,3.000000;stroke-dashoffset:0.0;stroke-width:0.5;"/>
     </g>
     <g id="line2d_85">
      <g>
       <use style="stroke:#000000;stroke-width:0.5;" x="408.5015625" xlink:href="#m94e187671f" y="238.2025"/>
      </g>
     </g>
     <g id="line2d_86">
      <g>
       <use style="stroke:#000000;stroke-width:0.5;" x="698.3515625" xlink:href="#md3ccb7961c" y="238.2025"/>
      </g>
     </g>
     <g id="text_33">
      <!-- 0.0 -->
      <g transform="translate(388.5984375 240.961875)scale(0.1 -0.1)">
       <use xlink:href="#BitstreamVeraSans-Roman-30"/>
       <use x="63.623046875" xlink:href="#BitstreamVeraSans-Roman-2e"/>
       <use x="95.41015625" xlink:href="#BitstreamVeraSans-Roman-30"/>
      </g>
     </g>
    </g>
    <g id="ytick_12">
     <g id="line2d_87">
      <path clip-path="url(#pbeeccbf43c)" d="M 408.501563 204.764609  L 698.351562 204.764609  " style="fill:none;stroke:#000000;stroke-dasharray:1.000000,3.000000;stroke-dashoffset:0.0;stroke-width:0.5;"/>
     </g>
     <g id="line2d_88">
      <g>
       <use style="stroke:#000000;stroke-width:0.5;" x="408.5015625" xlink:href="#m94e187671f" y="204.764609375"/>
      </g>
     </g>
     <g id="line2d_89">
      <g>
       <use style="stroke:#000000;stroke-width:0.5;" x="698.3515625" xlink:href="#md3ccb7961c" y="204.764609375"/>
      </g>
     </g>
     <g id="text_34">
      <!-- 0.2 -->
      <g transform="translate(388.5984375 207.523984375)scale(0.1 -0.1)">
       <use xlink:href="#BitstreamVeraSans-Roman-30"/>
       <use x="63.623046875" xlink:href="#BitstreamVeraSans-Roman-2e"/>
       <use x="95.41015625" xlink:href="#BitstreamVeraSans-Roman-32"/>
      </g>
     </g>
    </g>
    <g id="ytick_13">
     <g id="line2d_90">
      <path clip-path="url(#pbeeccbf43c)" d="M 408.501563 171.326719  L 698.351562 171.326719  " style="fill:none;stroke:#000000;stroke-dasharray:1.000000,3.000000;stroke-dashoffset:0.0;stroke-width:0.5;"/>
     </g>
     <g id="line2d_91">
      <g>
       <use style="stroke:#000000;stroke-width:0.5;" x="408.5015625" xlink:href="#m94e187671f" y="171.32671875"/>
      </g>
     </g>
     <g id="line2d_92">
      <g>
       <use style="stroke:#000000;stroke-width:0.5;" x="698.3515625" xlink:href="#md3ccb7961c" y="171.32671875"/>
      </g>
     </g>
     <g id="text_35">
      <!-- 0.4 -->
      <g transform="translate(388.5984375 174.08609375)scale(0.1 -0.1)">
       <use xlink:href="#BitstreamVeraSans-Roman-30"/>
       <use x="63.623046875" xlink:href="#BitstreamVeraSans-Roman-2e"/>
       <use x="95.41015625" xlink:href="#BitstreamVeraSans-Roman-34"/>
      </g>
     </g>
    </g>
    <g id="ytick_14">
     <g id="line2d_93">
      <path clip-path="url(#pbeeccbf43c)" d="M 408.501563 137.888828  L 698.351562 137.888828  " style="fill:none;stroke:#000000;stroke-dasharray:1.000000,3.000000;stroke-dashoffset:0.0;stroke-width:0.5;"/>
     </g>
     <g id="line2d_94">
      <g>
       <use style="stroke:#000000;stroke-width:0.5;" x="408.5015625" xlink:href="#m94e187671f" y="137.888828125"/>
      </g>
     </g>
     <g id="line2d_95">
      <g>
       <use style="stroke:#000000;stroke-width:0.5;" x="698.3515625" xlink:href="#md3ccb7961c" y="137.888828125"/>
      </g>
     </g>
     <g id="text_36">
      <!-- 0.6 -->
      <g transform="translate(388.5984375 140.648203125)scale(0.1 -0.1)">
       <use xlink:href="#BitstreamVeraSans-Roman-30"/>
       <use x="63.623046875" xlink:href="#BitstreamVeraSans-Roman-2e"/>
       <use x="95.41015625" xlink:href="#BitstreamVeraSans-Roman-36"/>
      </g>
     </g>
    </g>
    <g id="ytick_15">
     <g id="line2d_96">
      <path clip-path="url(#pbeeccbf43c)" d="M 408.501563 104.450938  L 698.351562 104.450938  " style="fill:none;stroke:#000000;stroke-dasharray:1.000000,3.000000;stroke-dashoffset:0.0;stroke-width:0.5;"/>
     </g>
     <g id="line2d_97">
      <g>
       <use style="stroke:#000000;stroke-width:0.5;" x="408.5015625" xlink:href="#m94e187671f" y="104.4509375"/>
      </g>
     </g>
     <g id="line2d_98">
      <g>
       <use style="stroke:#000000;stroke-width:0.5;" x="698.3515625" xlink:href="#md3ccb7961c" y="104.4509375"/>
      </g>
     </g>
     <g id="text_37">
      <!-- 0.8 -->
      <g transform="translate(388.5984375 107.2103125)scale(0.1 -0.1)">
       <use xlink:href="#BitstreamVeraSans-Roman-30"/>
       <use x="63.623046875" xlink:href="#BitstreamVeraSans-Roman-2e"/>
       <use x="95.41015625" xlink:href="#BitstreamVeraSans-Roman-38"/>
      </g>
     </g>
    </g>
    <g id="ytick_16">
     <g id="line2d_99">
      <path clip-path="url(#pbeeccbf43c)" d="M 408.501563 71.013047  L 698.351562 71.013047  " style="fill:none;stroke:#000000;stroke-dasharray:1.000000,3.000000;stroke-dashoffset:0.0;stroke-width:0.5;"/>
     </g>
     <g id="line2d_100">
      <g>
       <use style="stroke:#000000;stroke-width:0.5;" x="408.5015625" xlink:href="#m94e187671f" y="71.013046875"/>
      </g>
     </g>
     <g id="line2d_101">
      <g>
       <use style="stroke:#000000;stroke-width:0.5;" x="698.3515625" xlink:href="#md3ccb7961c" y="71.013046875"/>
      </g>
     </g>
     <g id="text_38">
      <!-- 1.0 -->
      <g transform="translate(388.5984375 73.772421875)scale(0.1 -0.1)">
       <use xlink:href="#BitstreamVeraSans-Roman-31"/>
       <use x="63.623046875" xlink:href="#BitstreamVeraSans-Roman-2e"/>
       <use x="95.41015625" xlink:href="#BitstreamVeraSans-Roman-30"/>
      </g>
     </g>
    </g>
    <g id="ytick_17">
     <g id="text_39">
      <!-- 1.2 -->
      <g transform="translate(388.5984375 40.33453125)scale(0.1 -0.1)">
       <use xlink:href="#BitstreamVeraSans-Roman-31"/>
       <use x="63.623046875" xlink:href="#BitstreamVeraSans-Roman-2e"/>
       <use x="95.41015625" xlink:href="#BitstreamVeraSans-Roman-32"/>
      </g>
     </g>
    </g>
    <g id="text_40">
     <!-- $S(f)$ -->
     <defs>
      <path d="M 6.109375 -2.203125  Q 5.8125 -2.203125 5.5625 -1.859375  Q 5.328125 -1.515625 5.328125 -1.21875  L 11.078125 22.125  Q 11.28125 22.703125 11.921875 22.703125  L 13.09375 22.703125  Q 13.484375 22.703125 13.703125 22.40625  Q 13.921875 22.125 13.921875 21.6875  Q 13.09375 18.265625 13.09375 15.578125  Q 13.09375 8.34375 18.0625 4.828125  Q 23.046875 1.3125 30.609375 1.3125  Q 33.890625 1.3125 37.0625 2.921875  Q 40.234375 4.546875 42.59375 7.125  Q 44.96875 9.71875 46.375 12.90625  Q 47.796875 16.109375 47.796875 19.390625  Q 47.796875 22.90625 45.9375 25.65625  Q 44.09375 28.421875 40.828125 29.203125  L 28.609375 32.421875  Q 23.6875 33.734375 20.75 37.71875  Q 17.828125 41.703125 17.828125 46.6875  Q 17.828125 52.6875 21.390625 58.25  Q 24.953125 63.8125 30.6875 67.15625  Q 36.421875 70.515625 42.390625 70.515625  Q 46.96875 70.515625 50.796875 68.828125  Q 54.640625 67.140625 56.6875 63.484375  L 62.40625 70.21875  Q 62.984375 70.515625 63.09375 70.515625  L 63.71875 70.515625  Q 64.109375 70.515625 64.34375 70.171875  Q 64.59375 69.828125 64.59375 69.484375  L 58.796875 46.296875  Q 58.640625 45.609375 58.015625 45.609375  L 56.78125 45.609375  Q 55.90625 45.609375 55.90625 46.6875  Q 56.390625 49.859375 56.390625 52.203125  Q 56.390625 56.84375 54.796875 60.28125  Q 53.21875 63.71875 50.015625 65.5  Q 46.828125 67.28125 42.09375 67.28125  Q 38.09375 67.28125 34.125 64.984375  Q 30.171875 62.703125 27.734375 58.890625  Q 25.296875 55.078125 25.296875 50.984375  Q 25.296875 47.75 27.171875 45.265625  Q 29.046875 42.78125 32.171875 41.890625  L 44.390625 38.71875  Q 47.703125 37.84375 50.171875 35.625  Q 52.640625 33.40625 53.90625 30.34375  Q 55.171875 27.296875 55.171875 23.6875  Q 55.171875 18.953125 53.171875 14.328125  Q 51.171875 9.71875 47.578125 5.90625  Q 44 2.09375 39.453125 -0.046875  Q 34.90625 -2.203125 30.171875 -2.203125  Q 18.265625 -2.203125 13.09375 4.78125  L 7.515625 -1.90625  Q 6.9375 -2.203125 6.78125 -2.203125  z " id="Cmmi10-53"/>
     </defs>
     <g transform="translate(376.21875 186.36671875)rotate(-90.0)scale(0.16 -0.16)">
      <use xlink:href="#Cmmi10-53"/>
      <use transform="translate(61.279296875 0.0)" xlink:href="#Cmr10-28"/>
      <use transform="translate(100.09765625 0.0)" xlink:href="#Cmmi10-66"/>
      <use transform="translate(148.974609375 0.0)" xlink:href="#Cmr10-29"/>
     </g>
    </g>
   </g>
   <g id="text_41">
    <!-- $\mathrm{sinc}(f)$ -->
    <defs>
     <path d="M 2.984375 0  L 2.984375 3.515625  Q 6.390625 3.515625 8.59375 4.046875  Q 10.796875 4.59375 10.796875 6.6875  L 10.796875 33.984375  Q 10.796875 36.671875 9.984375 37.859375  Q 9.1875 39.0625 7.671875 39.328125  Q 6.15625 39.59375 2.984375 39.59375  L 2.984375 43.109375  L 17.484375 44.1875  L 17.484375 34.421875  Q 19.484375 38.71875 23.40625 41.453125  Q 27.34375 44.1875 31.984375 44.1875  Q 38.921875 44.1875 42.40625 40.859375  Q 45.90625 37.546875 45.90625 30.71875  L 45.90625 6.6875  Q 45.90625 4.59375 48.09375 4.046875  Q 50.296875 3.515625 53.71875 3.515625  L 53.71875 0  L 30.8125 0  L 30.8125 3.515625  Q 34.234375 3.515625 36.421875 4.046875  Q 38.625 4.59375 38.625 6.6875  L 38.625 30.421875  Q 38.625 35.296875 37.203125 38.453125  Q 35.796875 41.609375 31.390625 41.609375  Q 25.59375 41.609375 21.84375 36.96875  Q 18.109375 32.328125 18.109375 26.421875  L 18.109375 6.6875  Q 18.109375 4.59375 20.3125 4.046875  Q 22.515625 3.515625 25.875 3.515625  L 25.875 0  z " id="Cmr10-6e"/>
     <path d="M 3.078125 0  L 3.078125 3.515625  Q 6.5 3.515625 8.6875 4.046875  Q 10.890625 4.59375 10.890625 6.6875  L 10.890625 33.984375  Q 10.890625 37.84375 9.390625 38.71875  Q 7.90625 39.59375 3.515625 39.59375  L 3.515625 43.109375  L 17.921875 44.1875  L 17.921875 6.6875  Q 17.921875 4.59375 19.828125 4.046875  Q 21.734375 3.515625 24.90625 3.515625  L 24.90625 0  z M 7.328125 61.375  Q 7.328125 63.578125 8.984375 65.234375  Q 10.640625 66.890625 12.796875 66.890625  Q 14.203125 66.890625 15.515625 66.15625  Q 16.84375 65.4375 17.578125 64.109375  Q 18.3125 62.796875 18.3125 61.375  Q 18.3125 59.234375 16.640625 57.5625  Q 14.984375 55.90625 12.796875 55.90625  Q 10.640625 55.90625 8.984375 57.5625  Q 7.328125 59.234375 7.328125 61.375  " id="Cmr10-69"/>
    </defs>
    <g transform="translate(529.9065625 19.2)scale(0.16 -0.16)">
     <use xlink:href="#Cmr10-73"/>
     <use transform="translate(39.404296875 0.0)" xlink:href="#Cmr10-69"/>
     <use transform="translate(67.08984375 0.0)" xlink:href="#Cmr10-6e"/>
     <use transform="translate(122.607421875 0.0)" xlink:href="#Cmr10-63"/>
     <use transform="translate(166.9921875 0.0)" xlink:href="#Cmr10-28"/>
     <use transform="translate(205.810546875 0.0)" xlink:href="#Cmmi10-66"/>
     <use transform="translate(254.6875 0.0)" xlink:href="#Cmr10-29"/>
    </g>
   </g>
  </g>
 </g>
 <defs>
  <clipPath id="p43e1b27c28">
   <rect height="267.503125" width="289.85" x="51.4828125" y="37.57515625"/>
  </clipPath>
  <clipPath id="pbeeccbf43c">
   <rect height="267.503125" width="289.85" x="408.5015625" y="37.57515625"/>
  </clipPath>
 </defs>
</svg>