<?xml version="1.0" encoding="UTF-8" standalone="no"?>
<!-- Created with Inkscape (http://www.inkscape.org/) -->

<svg
   width="70.374405mm"
   height="42.976517mm"
   viewBox="0 0 70.374405 42.976517"
   version="1.1"
   id="svg1"
   inkscape:version="1.3 (0e150ed6c4, 2023-07-21)"
   sodipodi:docname="simple_pulse_sequence.svg"
   xmlns:inkscape="http://www.inkscape.org/namespaces/inkscape"
   xmlns:sodipodi="http://sodipodi.sourceforge.net/DTD/sodipodi-0.dtd"
   xmlns="http://www.w3.org/2000/svg"
   xmlns:svg="http://www.w3.org/2000/svg">
  <sodipodi:namedview
     id="namedview1"
     pagecolor="#ffffff"
     bordercolor="#000000"
     borderopacity="0.25"
     inkscape:showpageshadow="2"
     inkscape:pageopacity="0.0"
     inkscape:pagecheckerboard="0"
     inkscape:deskcolor="#d1d1d1"
     inkscape:document-units="mm"
     inkscape:zoom="1.9225408"
     inkscape:cx="119.11321"
     inkscape:cy="36.670223"
     inkscape:window-width="1920"
     inkscape:window-height="1011"
     inkscape:window-x="0"
     inkscape:window-y="0"
     inkscape:window-maximized="1"
     inkscape:current-layer="layer1"
     showgrid="false" />
  <defs
     id="defs1" />
  <g
     inkscape:label="Layer 1"
     inkscape:groupmode="layer"
     id="layer1"
     transform="translate(-53.480359,-108.25037)">
    <path
       style="fill:none;stroke:#000000;stroke-width:0.5;stroke-linejoin:round;stroke-dasharray:none"
       d="m 74.547109,127.92848 c 0.334725,-8.07005 0.669451,-15.01372 1.004176,-16.68166 0.334726,-1.6668 0.669451,1.95237 1.004177,7.93351 0.334725,5.98001 0.66945,13.77586 1.004176,18.32799 0.334839,4.55212 0.669564,5.567 1.00429,2.87508 0.334725,-2.69304 0.669451,-8.78227 1.004176,-14.06028 0.334726,-5.27915 0.669451,-9.33409 1.004176,-9.81535 0.334726,-0.48127 0.669565,2.56334 1.00429,6.79463 0.334726,4.23014 0.669451,9.2715 1.004177,11.8997 0.334725,2.6282 0.669451,2.68509 1.004176,0.46989 0.334725,-2.21519 0.669451,-6.46696 1.00429,-9.86086 0.334725,-3.3939 0.669451,-5.67281 1.004176,-5.57041 0.334726,0.10126 0.669451,2.51783 1.004177,5.45322 0.334725,2.93653 0.66945,6.13929 1.004176,7.59219 0.334839,1.45404 0.669565,1.08086 1.00429,-0.65079 0.334725,-1.73165 0.669451,-4.64656 1.004176,-6.79008 0.334726,-2.14238 0.669451,-3.35408 1.004176,-3.00707 0.33484,0.34702 0.669565,2.18676 1.004291,4.18919 0.334725,2.0013 0.66945,3.99691 1.004176,4.75237 0.334725,0.75433 0.669451,0.23779 1.004176,-1.0672 0.334725,-1.30386 0.669565,-3.26989 1.00429,-4.59537 0.334726,-1.32433 0.669451,-1.9171 1.004176,-1.5041 0.334726,0.413 0.669456,1.77261 1.004176,3.11402 0.334727,1.34254 0.669444,2.55765 1.004284,2.91149 0.334727,0.35271 0.669444,-0.16383 1.004174,-1.1184 0.334717,-0.95457 0.668987,-2.25843 1.004624,-3.05941 0.334497,-0.80097 0.668989,-1.04559 1.003489,-0.6542 0.3345,0.39138 0.67014,1.36985 1.00463,2.25501 0.3345,0.88517 0.669,1.6065 1.00463,1.73848 0.3345,0.13198 0.669,-0.32084 1.0035,-1.00349 0.3345,-0.68265 0.67013,-1.53255 1.00463,-2.00357 0.3345,-0.46989 0.669,-0.53019 1.00349,-0.19797 0.33564,0.33336 0.67014,1.02397 1.00463,1.5974 0.3345,0.57456 0.669,0.9887 1.00464,1.0069 0.33449,0.0182 0.66899,-0.35156 1.00349,-0.82942 0.3345,-0.47785 0.67013,-1.02283 1.00463,-1.28906 0.3345,-0.26624 0.669,-0.23893 1.00463,0.0273 0.3345,0.26737 0.669,0.74409 1.0035,1.11044 0.33449,0.36522 0.67013,0.59277 1.00463,0.5575 0.3345,-0.0341 0.66899,-0.32084 1.00349,-0.64965 0.33564,-0.32881 0.67013,-0.67127 1.00463,-0.81463 0.3345,-0.14336 0.669,-0.0796 1.00463,0.12401 0.3345,0.2048 0.669,0.52906 1.0035,0.75774 0.33563,0.22869 0.67013,0.34474 1.00463,0.29127 0.3345,-0.0535 0.66899,-0.26737 1.00463,-0.49037 0.3345,-0.22186 0.669,-0.43348 1.00349,-0.50516 0.3345,-0.0705 0.67014,10e-4 1.00464,0.15246 0.33449,0.15132 0.66899,0.36863 1.00349,0.50857 0.33563,0.13994 0.67013,0.19228 1.00463,0.13767 0.3345,-0.0558 0.67013,-0.21162 1.00463,-0.35953"
       title="sin(2*pi*x)*exp(-0.4*x)"
       id="path2" />
    <path
       style="fill:none;stroke:#000000;stroke-width:0.5;stroke-linejoin:round;stroke-dasharray:none"
       d="M 53.480359,126.34907 H 65.857197"
       id="path1"
       sodipodi:nodetypes="cc" />
    <rect
       style="fill:#808080;stroke:#000000;stroke-width:0.526827;stroke-linejoin:round;stroke-dasharray:none"
       id="rect1"
       width="9.8453627"
       height="35.670551"
       x="65.918312"
       y="108.51379" />
    <text
       xml:space="preserve"
       style="font-style:normal;font-variant:normal;font-weight:normal;font-stretch:normal;font-size:4.23333px;line-height:1.25;font-family:'TeX Gyre Pagella';-inkscape-font-specification:'TeX Gyre Pagella, Normal';font-variant-ligatures:normal;font-variant-caps:normal;font-variant-numeric:normal;font-variant-east-asian:normal;stroke-width:0.264583"
       x="90.878166"
       y="111.58718"
       id="text2"><tspan
         sodipodi:role="line"
         id="tspan2"
         style="font-style:normal;font-variant:normal;font-weight:normal;font-stretch:normal;font-size:4.23333px;font-family:'TeX Gyre Pagella';-inkscape-font-specification:'TeX Gyre Pagella, Normal';font-variant-ligatures:normal;font-variant-caps:normal;font-variant-numeric:normal;font-variant-east-asian:normal;stroke-width:0.264583"
         x="90.878166"
         y="111.58718">NMR signal</tspan></text>
    <text
       xml:space="preserve"
       style="font-style:normal;font-variant:normal;font-weight:normal;font-stretch:normal;font-size:4.23333px;line-height:1.25;font-family:'TeX Gyre Pagella';-inkscape-font-specification:'TeX Gyre Pagella, Normal';font-variant-ligatures:normal;font-variant-caps:normal;font-variant-numeric:normal;font-variant-east-asian:normal;stroke-width:0.264583"
       x="62.66431"
       y="150.03732"
       id="text2-6"><tspan
         sodipodi:role="line"
         id="tspan2-7"
         style="font-style:normal;font-variant:normal;font-weight:normal;font-stretch:normal;font-size:4.23333px;font-family:'TeX Gyre Pagella';-inkscape-font-specification:'TeX Gyre Pagella, Normal';font-variant-ligatures:normal;font-variant-caps:normal;font-variant-numeric:normal;font-variant-east-asian:normal;stroke-width:0.264583"
         x="62.66431"
         y="150.03732">RF pulse</tspan></text>
    <text
       xml:space="preserve"
       style="font-size:5.64444px;line-height:1.25;font-family:xkcd;-inkscape-font-specification:xkcd;stroke-width:0.264583"
       x="82.778374"
       y="153.59119"
       id="text3"><tspan
         sodipodi:role="line"
         id="tspan3"
         style="stroke-width:0.264583"
         x="82.778374"
         y="153.59119" /></text>
  </g>
</svg>
