<?xml version="1.0" encoding="UTF-8" standalone="no"?>
<!-- Created with Inkscape (http://www.inkscape.org/) -->

<svg
   width="91.672905mm"
   height="38.156925mm"
   viewBox="0 0 91.672904 38.156925"
   version="1.1"
   id="svg1"
   inkscape:version="1.3 (0e150ed6c4, 2023-07-21)"
   sodipodi:docname="spin_echo_sequence_margin.svg"
   xmlns:inkscape="http://www.inkscape.org/namespaces/inkscape"
   xmlns:sodipodi="http://sodipodi.sourceforge.net/DTD/sodipodi-0.dtd"
   xmlns="http://www.w3.org/2000/svg"
   xmlns:svg="http://www.w3.org/2000/svg">
  <sodipodi:namedview
     id="namedview1"
     pagecolor="#ffffff"
     bordercolor="#000000"
     borderopacity="0.25"
     inkscape:showpageshadow="2"
     inkscape:pageopacity="0.0"
     inkscape:pagecheckerboard="0"
     inkscape:deskcolor="#d1d1d1"
     inkscape:document-units="mm"
     inkscape:zoom="15.380326"
     inkscape:cx="50.811666"
     inkscape:cy="22.528781"
     inkscape:window-width="1920"
     inkscape:window-height="1011"
     inkscape:window-x="0"
     inkscape:window-y="0"
     inkscape:window-maximized="1"
     inkscape:current-layer="g7" />
  <defs
     id="defs1">
    <marker
       style="overflow:visible"
       id="marker10"
       refX="0"
       refY="0"
       orient="auto-start-reverse"
       inkscape:stockid="Triangle arrow"
       markerWidth="1"
       markerHeight="1"
       viewBox="0 0 1 1"
       inkscape:isstock="true"
       inkscape:collect="always"
       preserveAspectRatio="xMidYMid">
      <path
         transform="scale(0.5)"
         style="fill:context-stroke;fill-rule:evenodd;stroke:context-stroke;stroke-width:1pt"
         d="M 5.77,0 -2.88,5 V -5 Z"
         id="path10" />
    </marker>
    <marker
       style="overflow:visible"
       id="Triangle"
       refX="0"
       refY="0"
       orient="auto-start-reverse"
       inkscape:stockid="Triangle arrow"
       markerWidth="1"
       markerHeight="1"
       viewBox="0 0 1 1"
       inkscape:isstock="true"
       inkscape:collect="always"
       preserveAspectRatio="xMidYMid">
      <path
         transform="scale(0.5)"
         style="fill:context-stroke;fill-rule:evenodd;stroke:context-stroke;stroke-width:1pt"
         d="M 5.77,0 -2.88,5 V -5 Z"
         id="path135" />
    </marker>
    <marker
       style="overflow:visible"
       id="Triangle-6"
       refX="0"
       refY="0"
       orient="auto-start-reverse"
       inkscape:stockid="Triangle arrow"
       markerWidth="1"
       markerHeight="1"
       viewBox="0 0 1 1"
       inkscape:isstock="true"
       inkscape:collect="always"
       preserveAspectRatio="xMidYMid">
      <path
         transform="scale(0.5)"
         style="fill:context-stroke;fill-rule:evenodd;stroke:context-stroke;stroke-width:1pt"
         d="M 5.77,0 -2.88,5 V -5 Z"
         id="path135-1" />
    </marker>
    <marker
       style="overflow:visible"
       id="marker10-3"
       refX="0"
       refY="0"
       orient="auto-start-reverse"
       inkscape:stockid="Triangle arrow"
       markerWidth="1"
       markerHeight="1"
       viewBox="0 0 1 1"
       inkscape:isstock="true"
       inkscape:collect="always"
       preserveAspectRatio="xMidYMid">
      <path
         transform="scale(0.5)"
         style="fill:context-stroke;fill-rule:evenodd;stroke:context-stroke;stroke-width:1pt"
         d="M 5.77,0 -2.88,5 V -5 Z"
         id="path10-7" />
    </marker>
  </defs>
  <g
     inkscape:label="Layer 1"
     inkscape:groupmode="layer"
     id="layer1"
     transform="translate(-100.34928,-106.3988)">
    <path
       style="fill:none;stroke:#000000;stroke-width:0.5;stroke-linejoin:round;stroke-dasharray:none"
       d="m 108.37202,126.34907 h 3.45388"
       id="path1"
       sodipodi:nodetypes="cc" />
    <path
       style="fill:none;stroke:#000000;stroke-width:0.5;stroke-linejoin:round;stroke-dasharray:none"
       d="m 112.45173,126.34907 h 24.31331"
       id="path1-4"
       sodipodi:nodetypes="cc" />
    <path
       style="fill:none;stroke:#000000;stroke-width:0.5;stroke-linejoin:round;stroke-dasharray:none"
       d="m 146.84885,126.40987 h 4.4192"
       id="path1-4-7"
       sodipodi:nodetypes="cc" />
    <text
       xml:space="preserve"
       style="font-style:normal;font-variant:normal;font-weight:normal;font-stretch:normal;font-size:4.93889px;line-height:1.25;font-family:'TeX Gyre Pagella';-inkscape-font-specification:'TeX Gyre Pagella, Normal';font-variant-ligatures:normal;font-variant-caps:normal;font-variant-numeric:normal;font-variant-east-asian:normal;stroke-width:0.264583"
       x="158.38298"
       y="143.15802"
       id="text2"><tspan
         sodipodi:role="line"
         id="tspan2"
         style="font-style:normal;font-variant:normal;font-weight:normal;font-stretch:normal;font-size:4.93889px;font-family:'TeX Gyre Pagella';-inkscape-font-specification:'TeX Gyre Pagella, Normal';font-variant-ligatures:normal;font-variant-caps:normal;font-variant-numeric:normal;font-variant-east-asian:normal;stroke-width:0.264583"
         x="158.38298"
         y="143.15802">NMR signal</tspan></text>
    <text
       xml:space="preserve"
       style="font-style:normal;font-variant:normal;font-weight:normal;font-stretch:normal;font-size:4.93889px;line-height:1.25;font-family:'TeX Gyre Pagella';-inkscape-font-specification:'TeX Gyre Pagella, Normal';font-variant-ligatures:normal;font-variant-caps:normal;font-variant-numeric:normal;font-variant-east-asian:normal;stroke-width:0.264583"
       x="162.19438"
       y="111.20104"
       id="text2-4"><tspan
         sodipodi:role="line"
         id="tspan2-2"
         style="font-style:normal;font-variant:normal;font-weight:normal;font-stretch:normal;font-size:4.93889px;font-family:'TeX Gyre Pagella';-inkscape-font-specification:'TeX Gyre Pagella, Normal';font-variant-ligatures:normal;font-variant-caps:normal;font-variant-numeric:normal;font-variant-east-asian:normal;stroke-width:0.264583"
         x="162.19438"
         y="111.20104">Spin Echo</tspan></text>
    <text
       xml:space="preserve"
       style="font-style:normal;font-variant:normal;font-weight:normal;font-stretch:normal;font-size:4.93889px;line-height:1.25;font-family:'TeX Gyre Pagella';-inkscape-font-specification:'TeX Gyre Pagella, Normal';font-variant-ligatures:normal;font-variant-caps:normal;font-variant-numeric:normal;font-variant-east-asian:normal;stroke-width:0.264583"
       x="100.24062"
       y="143.15802"
       id="text2-6"><tspan
         sodipodi:role="line"
         id="tspan2-7"
         style="font-style:normal;font-variant:normal;font-weight:normal;font-stretch:normal;font-size:4.93889px;font-family:'TeX Gyre Pagella';-inkscape-font-specification:'TeX Gyre Pagella, Normal';font-variant-ligatures:normal;font-variant-caps:normal;font-variant-numeric:normal;font-variant-east-asian:normal;stroke-width:0.264583"
         x="100.24062"
         y="143.15802">RF pulse</tspan></text>
    <text
       xml:space="preserve"
       style="font-style:normal;font-variant:normal;font-weight:normal;font-stretch:normal;font-size:4.93889px;line-height:1.25;font-family:'TeX Gyre Pagella';-inkscape-font-specification:'TeX Gyre Pagella, Normal';font-variant-ligatures:normal;font-variant-caps:normal;font-variant-numeric:normal;font-variant-east-asian:normal;stroke-width:0.264583"
       x="140.21378"
       y="111.20104"
       id="text2-6-1-5"><tspan
         sodipodi:role="line"
         id="tspan5-4"
         x="140.21378"
         y="111.20104"
         style="font-size:4.93889px">π</tspan></text>
    <text
       xml:space="preserve"
       style="font-style:normal;font-variant:normal;font-weight:normal;font-stretch:normal;font-size:4.93889px;line-height:1.25;font-family:'TeX Gyre Pagella';-inkscape-font-specification:'TeX Gyre Pagella, Normal';font-variant-ligatures:normal;font-variant-caps:normal;font-variant-numeric:normal;font-variant-east-asian:normal;stroke-width:0.264583"
       x="132.23218"
       y="143.15802"
       id="text2-6-7"><tspan
         sodipodi:role="line"
         id="tspan2-7-3"
         style="font-style:normal;font-variant:normal;font-weight:normal;font-stretch:normal;font-size:4.93889px;font-family:'TeX Gyre Pagella';-inkscape-font-specification:'TeX Gyre Pagella, Normal';font-variant-ligatures:normal;font-variant-caps:normal;font-variant-numeric:normal;font-variant-east-asian:normal;stroke-width:0.264583"
         x="132.23218"
         y="143.15802">RF pulse</tspan></text>
    <text
       xml:space="preserve"
       style="font-style:normal;font-variant:normal;font-weight:normal;font-stretch:normal;font-size:4.93889px;line-height:1.25;font-family:'TeX Gyre Pagella';-inkscape-font-specification:'TeX Gyre Pagella, Normal';font-variant-ligatures:normal;font-variant-caps:normal;font-variant-numeric:normal;font-variant-east-asian:normal;stroke-width:0.264583"
       x="123.05174"
       y="137.66655"
       id="text2-6-7-6"><tspan
         id="tspan2-7-3-0"
         style="font-style:normal;font-variant:normal;font-weight:normal;font-stretch:normal;font-size:4.93889px;font-family:'TeX Gyre Pagella';-inkscape-font-specification:'TeX Gyre Pagella, Normal';font-variant-ligatures:normal;font-variant-caps:normal;font-variant-numeric:normal;font-variant-east-asian:normal;stroke-width:0.264583"
         x="123.05174"
         y="137.66655"
         sodipodi:role="line">τ</tspan></text>
    <text
       xml:space="preserve"
       style="font-style:normal;font-variant:normal;font-weight:normal;font-stretch:normal;font-size:4.93889px;line-height:1.25;font-family:'TeX Gyre Pagella';-inkscape-font-specification:'TeX Gyre Pagella, Normal';font-variant-ligatures:normal;font-variant-caps:normal;font-variant-numeric:normal;font-variant-east-asian:normal;stroke-width:0.264583"
       x="157.35829"
       y="137.66655"
       id="text2-6-7-6-8"><tspan
         sodipodi:role="line"
         id="tspan2-7-3-0-3"
         style="font-style:normal;font-variant:normal;font-weight:normal;font-stretch:normal;font-size:4.93889px;font-family:'TeX Gyre Pagella';-inkscape-font-specification:'TeX Gyre Pagella, Normal';font-variant-ligatures:normal;font-variant-caps:normal;font-variant-numeric:normal;font-variant-east-asian:normal;stroke-width:0.264583"
         x="157.35829"
         y="137.66655">τ</tspan></text>
    <text
       xml:space="preserve"
       style="font-size:5.64444px;line-height:1.25;font-family:xkcd;-inkscape-font-specification:xkcd;stroke-width:0.264583"
       x="82.778374"
       y="153.59119"
       id="text3"><tspan
         sodipodi:role="line"
         id="tspan3"
         style="stroke-width:0.264583"
         x="82.778374"
         y="153.59119" /></text>
    <rect
       style="fill:#808080;stroke:#000000;stroke-width:0.5;stroke-linejoin:round;stroke-dasharray:none"
       id="rect3"
       width="5"
       height="22.212654"
       x="107.28008"
       y="115.24274" />
    <rect
       style="fill:#808080;stroke:#000000;stroke-width:0.5;stroke-linejoin:round;stroke-dasharray:none"
       id="rect3-9"
       width="10"
       height="22.212654"
       x="136.77164"
       y="115.30354" />
    <g
       id="g5"
       transform="matrix(0.41484123,0,0,0.53153505,102.56064,58.432036)"
       style="stroke-width:1.06479;stroke-dasharray:none">
      <path
         style="fill:none;stroke:#000000;stroke-width:1.06479;stroke-linejoin:round;stroke-dasharray:none"
         d="m 166.23061,127.92848 c 0.33472,-8.07005 0.66945,-15.01372 1.00417,-16.68166 0.33473,-1.6668 0.66945,1.95237 1.00418,7.93351 0.33472,5.98001 0.66945,13.77586 1.00418,18.32799 0.33484,4.55212 0.66956,5.567 1.00429,2.87508 0.33472,-2.69304 0.66945,-8.78227 1.00417,-14.06028 0.33473,-5.27915 0.66946,-9.33409 1.00418,-9.81535 0.33473,-0.48127 0.66957,2.56334 1.00429,6.79463 0.33473,4.23014 0.66945,9.2715 1.00418,11.8997 0.33473,2.6282 0.66945,2.68509 1.00418,0.46989 0.33472,-2.21519 0.66945,-6.46696 1.00429,-9.86086 0.33472,-3.3939 0.66945,-5.67281 1.00417,-5.57041 0.33473,0.10126 0.66945,2.51783 1.00418,5.45322 0.33472,2.93653 0.66945,6.13929 1.00418,7.59219 0.33484,1.45404 0.66956,1.08086 1.00429,-0.65079 0.33472,-1.73165 0.66945,-4.64656 1.00417,-6.79008 0.33473,-2.14238 0.66946,-3.35408 1.00418,-3.00707 0.33484,0.34702 0.66957,2.18676 1.00429,4.18919 0.33473,2.0013 0.66945,3.99691 1.00418,4.75237 0.33472,0.75433 0.66945,0.23779 1.00418,-1.0672 0.33472,-1.30386 0.66956,-3.26989 1.00429,-4.59537 0.33472,-1.32433 0.66945,-1.9171 1.00417,-1.5041 0.33473,0.413 0.66946,1.77261 1.00418,3.11402 0.33473,1.34254 0.66944,2.55765 1.00428,2.91149 0.33473,0.35271 0.66945,-0.16383 1.00418,-1.1184 0.33472,-0.95457 0.66899,-2.25843 1.00463,-3.05941 0.3345,-0.80097 0.66899,-1.04559 1.00349,-0.6542 0.3345,0.39138 0.67014,1.36985 1.00463,2.25501 0.3345,0.88517 0.669,1.6065 1.00463,1.73848 0.3345,0.13198 0.669,-0.32084 1.0035,-1.00349 0.3345,-0.68265 0.67013,-1.53255 1.00463,-2.00357 0.3345,-0.46989 0.669,-0.53019 1.00349,-0.19797 0.33564,0.33336 0.67014,1.02397 1.00463,1.5974 0.3345,0.57456 0.669,0.9887 1.00464,1.0069 0.33449,0.0182 0.66899,-0.35156 1.00349,-0.82942 0.3345,-0.47785 0.67013,-1.02283 1.00463,-1.28906 0.3345,-0.26624 0.669,-0.23893 1.00463,0.0273 0.3345,0.26737 0.669,0.74409 1.0035,1.11044 0.33449,0.36522 0.67013,0.59277 1.00463,0.5575 0.3345,-0.0341 0.66899,-0.32084 1.00349,-0.64965 0.33564,-0.32881 0.67013,-0.67127 1.00463,-0.81463 0.3345,-0.14336 0.669,-0.0796 1.00463,0.12401 0.3345,0.2048 0.669,0.52906 1.0035,0.75774 0.33563,0.22869 0.67013,0.34474 1.00463,0.29127 0.3345,-0.0535 0.66899,-0.26737 1.00463,-0.49037 0.3345,-0.22186 0.669,-0.43348 1.00349,-0.50516 0.3345,-0.0705 0.67014,10e-4 1.00464,0.15246 0.33449,0.15132 0.66899,0.36863 1.00349,0.50857 0.33563,0.13994 0.67013,0.19228 1.00463,0.13767 0.3345,-0.0558 0.67013,-0.21162 1.00463,-0.35953"
         title="sin(2*pi*x)*exp(-0.4*x)"
         id="path2" />
      <path
         style="fill:none;stroke:#000000;stroke-width:1.06479;stroke-linejoin:round;stroke-dasharray:none"
         d="m 117.16916,127.89102 c 0.334,-0.149 0.668,-0.307 1.002,-0.363 0.333,-0.056 0.667,-0.002 1.001,0.139 0.334,0.141 0.668,0.359 1.001,0.512 0.334,0.153 0.668,0.225 1.002,0.154 0.334,-0.072 0.667,-0.285 1.001,-0.509 0.334,-0.225 0.668,-0.441 1.002,-0.495 0.333,-0.055 0.667,0.063 1.001,0.294 0.334,0.23 0.668,0.558 1.001,0.764 0.334,0.206 0.668,0.269 1.002,0.125 0.334,-0.144 0.667,-0.49 1.001,-0.822 0.334,-0.331 0.668,-0.62 1.002,-0.655 0.333,-0.035 0.667,0.194 1.001,0.563 0.334,0.369 0.668,0.85 1.001,1.119 0.334,0.269 0.668,0.297 1.002,0.029 0.334,-0.268 0.667,-0.818 1.001,-1.301 0.334,-0.482 0.668,-0.854 1.002,-0.836 0.333,0.018 0.667,0.436 1.001,1.015 0.334,0.578 0.668,1.274 1.001,1.611 0.334,0.336 0.668,0.274 1.002,-0.2 0.334,-0.474 0.667,-1.332 1.001,-2.02 0.334,-0.689 0.668,-1.145 1.002,-1.012 0.333,0.132 0.667,0.86 1.001,1.753 0.334,0.893 0.668,1.879 1.001,2.274 0.334,0.396 0.668,0.147 1.002,-0.66 0.334,-0.806 0.667,-2.121 1.001,-3.085 0.334,-0.964 0.668,-1.483 1.002,-1.128 0.333,0.355 0.667,1.583 1.001,2.936 0.334,1.354 0.668,2.723 1.001,3.141 0.334,0.418 0.668,-0.182 1.002,-1.517 0.334,-1.336 0.667,-3.318 1.001,-4.635 0.334,-1.317 0.668,-1.835 1.002,-1.076 0.333,0.76 0.667,2.774 1.001,4.793 0.334,2.019 0.668,3.873 1.001,4.226 0.334,0.353 0.668,-0.875 1.002,-3.034 0.334,-2.16 0.667,-5.1 1.001,-6.848 0.334,-1.749 0.668,-2.119 1.002,-0.657 0.333,1.463 0.667,4.696 1.001,7.658 0.334,2.962 0.668,5.394 1.001,5.5 0.334,0.107 0.668,-2.197 1.002,-5.618 0.334,-3.422 0.667,-7.708 1.001,-9.946 0.334,-2.238 0.668,-2.172 1.002,0.474 0.333,2.646 0.667,7.733 1.001,12.002 0.334,4.269 0.668,7.333 1.001,6.853 0.334,-0.479 0.668,-4.577 1.002,-9.899 0.334,-5.323 0.667,-11.459 1.001,-14.181 0.334,-2.722 0.668,-1.686 1.002,2.899 0.333,4.585 0.667,12.45 1.001,18.486 0.334,6.036 0.668,9.673 1.001,8.001 0.334,-1.672 0.668,-8.686 1.002,-16.824"
         title="sin(2*pi*x)*exp(0.4*x)"
         id="path5"
         sodipodi:nodetypes="ccsccccccsccscsccccsccsccsccccscsccccsccscsccscscc" />
    </g>
    <g
       id="g7"
       transform="translate(38.42559,7.9374627)">
      <text
         xml:space="preserve"
         style="font-style:normal;font-variant:normal;font-weight:normal;font-stretch:normal;font-size:4.93889px;line-height:1.25;font-family:'TeX Gyre Pagella';-inkscape-font-specification:'TeX Gyre Pagella, Normal';font-variant-ligatures:normal;font-variant-caps:normal;font-variant-numeric:normal;font-variant-east-asian:normal;stroke-width:0.264583"
         x="69.765244"
         y="100.89621"
         id="text2-6-1"><tspan
           sodipodi:role="line"
           id="tspan5"
           x="69.765244"
           y="100.89621"
           style="font-size:4.93889px">π</tspan></text>
      <text
         xml:space="preserve"
         style="font-style:normal;font-variant:normal;font-weight:normal;font-stretch:normal;font-size:4.93889px;line-height:1.25;font-family:'TeX Gyre Pagella';-inkscape-font-specification:'TeX Gyre Pagella, Normal';font-variant-ligatures:normal;font-variant-caps:normal;font-variant-numeric:normal;font-variant-east-asian:normal;stroke-width:0.264583"
         x="70.298645"
         y="105.67046"
         id="text2-6-1-0"><tspan
           sodipodi:role="line"
           id="tspan5-49"
           x="70.298645"
           y="105.67046"
           style="font-size:4.93889px">2</tspan></text>
      <path
         style="fill:none;stroke:#000000;stroke-width:0.282222;stroke-linecap:butt;stroke-linejoin:bevel;stroke-dasharray:none"
         d="m 69.426874,101.62874 h 3.855238"
         id="path6"
         sodipodi:nodetypes="cc" />
    </g>
    <text
       xml:space="preserve"
       style="font-size:5.64444px;line-height:1.25;font-family:xkcd;-inkscape-font-specification:xkcd;stroke-width:0.264583"
       x="71.053383"
       y="106.06082"
       id="text6"><tspan
         sodipodi:role="line"
         id="tspan6"
         style="stroke-width:0.264583"
         x="71.053383"
         y="106.06082" /></text>
    <path
       style="fill:none;stroke:#000000;stroke-width:0.25;stroke-linecap:butt;stroke-linejoin:bevel;stroke-dasharray:none;marker-start:url(#Triangle);marker-end:url(#marker10)"
       d="m 113.43866,134.48871 h 22.14505"
       id="path7"
       sodipodi:nodetypes="cc" />
    <path
       style="fill:none;stroke:#000000;stroke-width:0.25;stroke-linecap:butt;stroke-linejoin:bevel;stroke-dasharray:none;marker-start:url(#Triangle-6);marker-end:url(#marker10-3)"
       d="M 147.98708,134.48871 H 169.6484"
       id="path7-1"
       sodipodi:nodetypes="cc" />
  </g>
</svg>
