<?xml version="1.0" encoding="UTF-8" standalone="no"?>
<svg xmlns:svg="http://www.w3.org/2000/svg" xmlns="http://www.w3.org/2000/svg" version="1.0" width="374.6" height="569.9" viewBox="0 0 374.6 569.9" xml:space="preserve"><script xmlns=""/>
<g transform="translate(50,50)">
<polygon points="8,390.9 0,395.9 0,246.9 8,251.9 8,390.9"/>
<rect width="8" height="114" x="26" y="264.4"/>
<polygon points="129,460.9 129,469.9 0,395.9 8,390.9 129,460.9"/>
<polygon points="249.5,390.9 257.5,395.9 129,469.9 129,460.9 249.5,390.9"/>
<rect width="8.1" height="113.8" x="174.2" y="350" transform="matrix(0.4965,0.8681,-0.8681,0.4965,442.9482,50.1267)"/>
<polygon points="249.5,251.9 257.5,246.9 257.5,395.9 249.5,390.9 249.5,251.9"/>
<polygon points="129,181.9 129,177.4 133,174.9 257.5,246.9 249.5,251.9 129,181.9"/>
<rect width="8.1" height="113.8" x="174.2" y="179" transform="matrix(0.4962,-0.8682,0.8682,0.4962,-114.9894,273.601)"/>
<polygon points="8,251.9 0,246.9 125,174.9 129,177.4 129,181.9 8,251.9"/>
<path d="M 150.8,47.8 L 160.3,50.2 C 158.3,58 154.7,63.9 149.6,68 C 144.5,72.1 138.1,74.1 130.7,74.1 C 123,74.1 116.7,72.5 111.9,69.4 C 107.1,66.3 103.4,61.7 100.9,55.7 C 98.4,49.7 97,43.4 97,36.5 C 97,29 98.4,22.5 101.3,17 C 104.2,11.5 108.2,7.2 113.4,4.3 C 118.6,1.4 124.4,8.8817842e-016 130.7,8.8817842e-016 C 137.9,8.8817842e-016 143.9,1.8 148.7,5.5 C 153.6,9.2 157,14.3 158.9,20.9 L 149.5,23.1 C 147.8,17.9 145.4,14.1 142.3,11.7 C 139.1,9.3 135.2,8.1 130.4,8.1 C 124.9,8.1 120.3,9.4 116.6,12.1 C 112.9,14.7 110.3,18.3 108.8,22.7 C 107.3,27.1 106.6,31.7 106.6,36.5 C 106.6,42.6 107.5,47.9 109.3,52.5 C 111.1,57 113.8,60.4 117.6,62.7 C 121.3,65 125.4,66.1 129.7,66.1 C 135,66.1 139.5,64.6 143.2,61.5 C 146.9,58.4 149.4,53.8 150.8,47.8 z"/>
<polygon points="172.2,72.9 172.2,1.3 181.7,1.3 181.7,30.7 219,30.7 219,1.3 228.5,1.3 228.5,72.9 219,72.9 219,39.1 181.7,39.1 181.7,72.9 172.2,72.9"/>
<path d="M 239.5,77.5 L 246.1,76.6 C 246.9,80.3 248.1,82.9 249.9,84.5 C 251.7,86.1 253.9,86.9 256.6,86.9 C 259.7,86.9 262.4,85.8 264.5,83.7 C 266.6,81.6 267.7,78.9 267.7,75.7 C 267.7,72.7 266.7,70.2 264.7,68.2 C 262.7,66.2 260.2,65.3 257.1,65.3 C 255.8,65.3 254.3,65.5 252.4,66 L 253.1,60.2 C 253.5,60.2 253.9,60.3 254.2,60.3 C 257,60.3 259.6,59.6 261.8,58.1 C 264,56.6 265.2,54.4 265.2,51.3 C 265.2,48.9 264.4,46.9 262.7,45.3 C 261,43.7 258.9,42.9 256.3,42.9 C 253.7,42.9 251.5,43.7 249.8,45.3 C 248.1,46.9 247,49.3 246.5,52.5 L 239.9,51.4 C 240.7,47 242.6,43.6 245.4,41.2 C 248.3,38.8 251.9,37.6 256.1,37.6 C 259.1,37.6 261.8,38.2 264.3,39.5 C 266.8,40.8 268.7,42.5 270,44.6 C 271.3,46.7 272,49.1 272,51.5 C 272,53.8 271.4,55.9 270.1,57.8 C 268.9,59.7 267,61.2 264.6,62.3 C 267.8,63 270.2,64.6 272,66.9 C 273.8,69.2 274.6,72.1 274.6,75.6 C 274.6,80.3 272.9,84.3 269.5,87.5 C 266.1,90.8 261.7,92.4 256.5,92.4 C 251.8,92.4 247.9,91 244.7,88.2 C 241.5,85.4 240,81.9 239.5,77.5 z"/>
<polygon points="125,85.9 133,85.9 133,174.9 129,177.4 125,174.9 125,85.9"/>
</g>
</svg>