<?xml version="1.0" encoding="utf-8" standalone="no"?>
<!DOCTYPE svg PUBLIC "-//W3C//DTD SVG 1.1//EN"
  "http://www.w3.org/Graphics/SVG/1.1/DTD/svg11.dtd">
<svg xmlns:xlink="http://www.w3.org/1999/xlink" width="453.543307pt" height="226.771654pt" viewBox="0 0 453.543307 226.771654" xmlns="http://www.w3.org/2000/svg" version="1.1">
 <metadata>
  <rdf:RDF xmlns:dc="http://purl.org/dc/elements/1.1/" xmlns:cc="http://creativecommons.org/ns#" xmlns:rdf="http://www.w3.org/1999/02/22-rdf-syntax-ns#">
   <cc:Work>
    <dc:type rdf:resource="http://purl.org/dc/dcmitype/StillImage"/>
    <dc:date>2023-09-18T15:40:52.871903</dc:date>
    <dc:format>image/svg+xml</dc:format>
    <dc:creator>
     <cc:Agent>
      <dc:title>Matplotlib v3.8.0, https://matplotlib.org/</dc:title>
     </cc:Agent>
    </dc:creator>
   </cc:Work>
  </rdf:RDF>
 </metadata>
 <defs>
  <style type="text/css">*{stroke-linejoin: round; stroke-linecap: butt}</style>
 </defs>
 <g id="figure_1">
  <g id="patch_1">
   <path d="M 0 226.771654 
L 453.543307 226.771654 
L 453.543307 0 
L 0 0 
z
" style="fill: #ffffff"/>
  </g>
  <g id="axes_1">
   <g id="patch_2">
    <path d="M 65.66899 175.872976 
L 220.696414 175.872976 
L 220.696414 6.629928 
L 65.66899 6.629928 
z
" style="fill: #ffffff"/>
   </g>
   <g id="matplotlib.axis_1">
    <g id="xtick_1">
     <g id="line2d_1">
      <defs>
       <path id="m8683a3a88e" d="M 0 0 
L 0 -3.5 
" style="stroke: #575757; stroke-width: 0.8"/>
      </defs>
      <g>
       <use xlink:href="#m8683a3a88e" x="65.66899" y="195.872976" style="fill: #575757; stroke: #575757; stroke-width: 0.8"/>
      </g>
     </g>
     <g id="text_1">
      <!-- −1.0 -->
      <g style="fill: #575757" transform="translate(55.61899 206.632351) scale(0.1 -0.1)">
       <defs>
        <path id="TeXGyrePagella-Regular-2212" d="M 512 1408 
L 4352 1408 
C 4339 1472 4333 1536 4333 1600 
C 4333 1664 4339 1728 4352 1792 
L 512 1792 
C 525 1728 531 1664 531 1600 
C 531 1536 525 1472 512 1408 
z
" transform="scale(0.015625)"/>
        <path id="TeXGyrePagella-Regular-31" d="M 384 3827 
L 429 3552 
L 493 3552 
L 1318 3923 
L 1338 3930 
C 1376 3930 1389 3872 1389 3718 
L 1389 614 
C 1389 282 1318 211 973 192 
L 614 173 
L 614 -19 
C 966 -6 1318 0 1670 0 
C 2003 0 2342 -6 2675 -19 
L 2675 173 
L 2342 192 
C 1990 211 1926 282 1926 614 
L 1926 4410 
L 1837 4442 
C 1421 4224 966 4032 384 3827 
z
" transform="scale(0.015625)"/>
        <path id="TeXGyrePagella-Regular-2e" d="M 429 339 
C 429 147 602 -32 787 -32 
C 992 -32 1171 141 1171 339 
C 1171 531 992 710 794 710 
C 602 710 429 531 429 339 
z
" transform="scale(0.015625)"/>
        <path id="TeXGyrePagella-Regular-30" d="M 186 2074 
C 186 1325 320 678 544 365 
C 768 51 1126 -128 1523 -128 
C 2490 -128 2976 704 2976 2342 
C 2976 3744 2560 4410 1683 4410 
C 691 4410 186 3622 186 2074 
z
M 723 2304 
C 723 3654 960 4186 1568 4186 
C 2189 4186 2438 3558 2438 2022 
C 2438 659 2195 96 1606 96 
C 986 96 723 742 723 2304 
z
" transform="scale(0.015625)"/>
       </defs>
       <use xlink:href="#TeXGyrePagella-Regular-2212"/>
       <use xlink:href="#TeXGyrePagella-Regular-31" x="75.999985"/>
       <use xlink:href="#TeXGyrePagella-Regular-2e" x="125.999969"/>
       <use xlink:href="#TeXGyrePagella-Regular-30" x="150.999954"/>
      </g>
     </g>
    </g>
    <g id="xtick_2">
     <g id="line2d_2">
      <g>
       <use xlink:href="#m8683a3a88e" x="104.425846" y="195.872976" style="fill: #575757; stroke: #575757; stroke-width: 0.8"/>
      </g>
     </g>
     <g id="text_2">
      <!-- −0.5 -->
      <g style="fill: #575757" transform="translate(94.375846 206.632351) scale(0.1 -0.1)">
       <defs>
        <path id="TeXGyrePagella-Regular-35" d="M 83 877 
C 230 512 307 307 397 26 
C 576 -70 832 -128 1107 -128 
C 1536 -128 1990 58 2342 365 
C 2733 710 2938 1146 2938 1619 
C 2938 2342 2419 2854 1690 2854 
C 1382 2854 1152 2771 755 2534 
L 813 3872 
L 2765 3840 
L 2797 3872 
C 2784 3987 2784 4026 2784 4122 
C 2784 4224 2784 4262 2797 4378 
C 2797 4378 2765 4410 2765 4410 
C 2765 4410 2086 4378 1651 4378 
C 1216 4378 538 4410 538 4410 
C 538 4410 506 4378 506 4378 
L 518 3501 
C 518 2938 499 2342 480 2061 
L 608 2022 
C 909 2323 1082 2413 1395 2413 
C 2010 2413 2394 1978 2394 1286 
C 2394 576 1984 160 1286 160 
C 941 160 621 275 531 442 
L 237 966 
L 83 877 
z
" transform="scale(0.015625)"/>
       </defs>
       <use xlink:href="#TeXGyrePagella-Regular-2212"/>
       <use xlink:href="#TeXGyrePagella-Regular-30" x="75.999985"/>
       <use xlink:href="#TeXGyrePagella-Regular-2e" x="125.999969"/>
       <use xlink:href="#TeXGyrePagella-Regular-35" x="150.999954"/>
      </g>
     </g>
    </g>
    <g id="xtick_3">
     <g id="line2d_3">
      <g>
       <use xlink:href="#m8683a3a88e" x="143.182702" y="195.872976" style="fill: #575757; stroke: #575757; stroke-width: 0.8"/>
      </g>
     </g>
     <g id="text_3">
      <!-- 0.0 -->
      <g style="fill: #575757" transform="translate(136.932702 206.632351) scale(0.1 -0.1)">
       <use xlink:href="#TeXGyrePagella-Regular-30"/>
       <use xlink:href="#TeXGyrePagella-Regular-2e" x="49.999985"/>
       <use xlink:href="#TeXGyrePagella-Regular-30" x="74.999969"/>
      </g>
     </g>
    </g>
    <g id="xtick_4">
     <g id="line2d_4">
      <g>
       <use xlink:href="#m8683a3a88e" x="181.939558" y="195.872976" style="fill: #575757; stroke: #575757; stroke-width: 0.8"/>
      </g>
     </g>
     <g id="text_4">
      <!-- 0.5 -->
      <g style="fill: #575757" transform="translate(175.689558 206.632351) scale(0.1 -0.1)">
       <use xlink:href="#TeXGyrePagella-Regular-30"/>
       <use xlink:href="#TeXGyrePagella-Regular-2e" x="49.999985"/>
       <use xlink:href="#TeXGyrePagella-Regular-35" x="74.999969"/>
      </g>
     </g>
    </g>
    <g id="xtick_5">
     <g id="line2d_5">
      <g>
       <use xlink:href="#m8683a3a88e" x="220.696414" y="195.872976" style="fill: #575757; stroke: #575757; stroke-width: 0.8"/>
      </g>
     </g>
     <g id="text_5">
      <!-- 1.0 -->
      <g style="fill: #575757" transform="translate(214.446414 206.632351) scale(0.1 -0.1)">
       <use xlink:href="#TeXGyrePagella-Regular-31"/>
       <use xlink:href="#TeXGyrePagella-Regular-2e" x="49.999985"/>
       <use xlink:href="#TeXGyrePagella-Regular-30" x="74.999969"/>
      </g>
     </g>
    </g>
    <g id="text_6">
     <!-- Time [s] -->
     <g style="fill: #575757" transform="translate(124.222546 220.701101) scale(0.1 -0.1)">
      <defs>
       <path id="TeXGyrePagella-Regular-54" d="M 115 4429 
C 147 4064 160 3814 160 3398 
L 358 3398 
L 384 3904 
C 390 4058 461 4115 640 4115 
L 1632 4115 
C 1651 3898 1658 3750 1658 3475 
L 1658 768 
C 1658 262 1626 211 1331 192 
L 1024 173 
L 1024 -19 
C 1338 -6 1645 0 1958 0 
C 2272 0 2586 -6 2899 -19 
L 2899 173 
L 2592 192 
C 2298 211 2266 262 2266 768 
L 2266 3475 
C 2266 3763 2272 3904 2291 4115 
L 3283 4115 
C 3462 4115 3533 4058 3539 3904 
L 3565 3398 
L 3763 3398 
C 3763 3814 3776 4064 3808 4429 
L 2426 4410 
L 1414 4410 
L 115 4429 
z
" transform="scale(0.015625)"/>
       <path id="TeXGyrePagella-Regular-69" d="M 134 -19 
C 403 -6 666 0 934 0 
C 1203 0 1466 -6 1734 -19 
L 1734 173 
L 1440 192 
C 1222 205 1203 250 1203 653 
L 1203 2976 
L 1146 3002 
C 819 2867 486 2778 147 2739 
L 147 2560 
L 384 2560 
C 640 2560 666 2515 666 2093 
L 666 653 
C 666 250 646 205 429 192 
L 134 173 
L 134 -19 
z
M 614 3789 
C 614 3597 742 3469 934 3469 
C 1126 3469 1254 3597 1254 3789 
C 1254 3974 1126 4109 941 4109 
C 742 4109 614 3981 614 3789 
z
" transform="scale(0.015625)"/>
       <path id="TeXGyrePagella-Regular-6d" d="M 102 -19 
C 371 -6 646 0 915 0 
C 1171 0 1421 -6 1677 -19 
L 1677 173 
L 1408 192 
C 1190 205 1171 250 1171 653 
L 1171 2010 
C 1171 2298 1594 2611 1978 2611 
C 2323 2611 2560 2285 2560 1798 
L 2560 653 
C 2560 250 2541 205 2323 192 
L 2029 173 
L 2029 -19 
C 2298 -6 2560 0 2829 0 
C 3098 0 3360 -6 3629 -19 
L 3629 173 
L 3334 192 
C 3117 205 3098 250 3098 653 
L 3098 2010 
C 3098 2298 3520 2611 3904 2611 
C 4250 2611 4486 2285 4486 1798 
L 4486 -19 
C 4653 -6 4826 0 4992 0 
C 5184 0 5370 -6 5562 -19 
L 5562 173 
L 5261 192 
C 5043 205 5024 250 5024 653 
L 5024 1971 
C 5024 2605 4653 3002 4064 3002 
C 3840 3002 3654 2944 3539 2842 
L 3053 2406 
C 2848 2829 2586 3002 2144 3002 
C 1907 3002 1728 2944 1613 2842 
L 1171 2432 
L 1171 2976 
L 1114 3002 
C 787 2867 454 2778 115 2739 
L 115 2560 
L 352 2560 
C 608 2560 634 2515 634 2093 
L 634 653 
C 634 250 614 205 397 192 
L 102 173 
L 102 -19 
z
" transform="scale(0.015625)"/>
       <path id="TeXGyrePagella-Regular-65" d="M 166 1402 
C 166 998 256 653 435 410 
C 685 70 1120 -128 1600 -128 
C 1837 -128 2074 -77 2336 38 
C 2509 109 2643 192 2669 230 
L 2797 448 
L 2714 512 
C 2304 269 2157 211 1882 211 
C 1466 211 1120 397 941 710 
C 819 922 774 1101 762 1472 
L 1696 1472 
C 2138 1472 2413 1491 2854 1562 
C 2861 1651 2867 1709 2867 1786 
C 2867 2522 2394 3002 1677 3002 
C 1440 3002 1165 2918 902 2765 
C 378 2464 166 2067 166 1402 
z
M 774 1728 
C 774 2029 800 2170 883 2336 
C 1018 2618 1293 2790 1600 2790 
C 1811 2790 1978 2707 2093 2534 
C 2234 2323 2298 2138 2298 1709 
L 1581 1690 
C 1286 1690 1120 1696 774 1728 
z
" transform="scale(0.015625)"/>
       <path id="TeXGyrePagella-Regular-20" transform="scale(0.015625)"/>
       <path id="TeXGyrePagella-Regular-5b" d="M 794 -1600 
L 2214 -1600 
C 2202 -1562 2195 -1517 2195 -1472 
C 2195 -1427 2202 -1382 2214 -1344 
L 1203 -1344 
L 1203 4544 
L 2214 4544 
C 2202 4582 2195 4627 2195 4672 
C 2195 4717 2202 4762 2214 4800 
L 794 4800 
L 794 -1600 
z
" transform="scale(0.015625)"/>
       <path id="TeXGyrePagella-Regular-73" d="M 192 26 
C 525 -83 774 -128 1069 -128 
C 1907 -128 2502 320 2502 947 
C 2502 1146 2451 1293 2323 1421 
C 2157 1587 1946 1658 1382 1766 
C 858 1869 685 1997 685 2291 
C 685 2611 909 2790 1299 2790 
C 1728 2790 2054 2566 2054 2266 
L 2054 2118 
L 2234 2118 
C 2240 2490 2246 2643 2266 2842 
C 1926 2957 1696 3002 1434 3002 
C 691 3002 237 2650 237 2074 
C 237 1766 378 1549 672 1414 
C 845 1338 1184 1235 1619 1139 
C 1907 1075 2029 941 2029 698 
C 2029 352 1709 109 1254 109 
C 787 109 454 333 454 653 
L 454 915 
L 262 915 
C 262 474 243 282 192 26 
z
" transform="scale(0.015625)"/>
       <path id="TeXGyrePagella-Regular-5d" d="M 525 -1344 
C 538 -1382 544 -1427 544 -1472 
C 544 -1517 538 -1562 525 -1600 
L 1946 -1600 
L 1946 4800 
L 525 4800 
C 538 4762 544 4717 544 4672 
C 544 4627 538 4582 525 4544 
L 1536 4544 
L 1536 -1344 
L 525 -1344 
z
" transform="scale(0.015625)"/>
      </defs>
      <use xlink:href="#TeXGyrePagella-Regular-54"/>
      <use xlink:href="#TeXGyrePagella-Regular-69" x="61.299988"/>
      <use xlink:href="#TeXGyrePagella-Regular-6d" x="89.999985"/>
      <use xlink:href="#TeXGyrePagella-Regular-65" x="178.299973"/>
      <use xlink:href="#TeXGyrePagella-Regular-20" x="226.199966"/>
      <use xlink:href="#TeXGyrePagella-Regular-5b" x="251.199951"/>
      <use xlink:href="#TeXGyrePagella-Regular-73" x="293.999939"/>
      <use xlink:href="#TeXGyrePagella-Regular-5d" x="336.399933"/>
     </g>
    </g>
   </g>
   <g id="matplotlib.axis_2">
    <g id="ytick_1">
     <g id="line2d_6">
      <defs>
       <path id="m6ee27b319a" d="M 0 0 
L 3.5 0 
" style="stroke: #575757; stroke-width: 0.8"/>
      </defs>
      <g>
       <use xlink:href="#m6ee27b319a" x="45.66899" y="175.872976" style="fill: #575757; stroke: #575757; stroke-width: 0.8"/>
      </g>
     </g>
     <g id="text_7">
      <!-- −1.00 -->
      <g style="fill: #575757" transform="translate(17.06899 179.502664) scale(0.1 -0.1)">
       <use xlink:href="#TeXGyrePagella-Regular-2212"/>
       <use xlink:href="#TeXGyrePagella-Regular-31" x="75.999985"/>
       <use xlink:href="#TeXGyrePagella-Regular-2e" x="125.999969"/>
       <use xlink:href="#TeXGyrePagella-Regular-30" x="150.999954"/>
       <use xlink:href="#TeXGyrePagella-Regular-30" x="200.999939"/>
      </g>
     </g>
    </g>
    <g id="ytick_2">
     <g id="line2d_7">
      <g>
       <use xlink:href="#m6ee27b319a" x="45.66899" y="154.717595" style="fill: #575757; stroke: #575757; stroke-width: 0.8"/>
      </g>
     </g>
     <g id="text_8">
      <!-- −0.75 -->
      <g style="fill: #575757" transform="translate(17.06899 158.347282) scale(0.1 -0.1)">
       <defs>
        <path id="TeXGyrePagella-Regular-37" d="M 282 3053 
L 474 3053 
L 518 3411 
C 570 3808 614 3859 909 3859 
L 2618 3859 
C 2362 3334 2163 2963 1920 2573 
L 358 64 
L 416 -19 
C 416 -19 595 0 710 0 
C 826 0 1005 -19 1005 -19 
C 1274 678 1440 1094 2010 2112 
L 3181 4218 
L 3181 4410 
C 2490 4384 2432 4378 1747 4378 
C 1075 4378 966 4384 346 4410 
L 282 4378 
C 282 4378 301 3968 301 3706 
C 301 3450 282 3053 282 3053 
z
" transform="scale(0.015625)"/>
       </defs>
       <use xlink:href="#TeXGyrePagella-Regular-2212"/>
       <use xlink:href="#TeXGyrePagella-Regular-30" x="75.999985"/>
       <use xlink:href="#TeXGyrePagella-Regular-2e" x="125.999969"/>
       <use xlink:href="#TeXGyrePagella-Regular-37" x="150.999954"/>
       <use xlink:href="#TeXGyrePagella-Regular-35" x="200.999939"/>
      </g>
     </g>
    </g>
    <g id="ytick_3">
     <g id="line2d_8">
      <g>
       <use xlink:href="#m6ee27b319a" x="45.66899" y="133.562214" style="fill: #575757; stroke: #575757; stroke-width: 0.8"/>
      </g>
     </g>
     <g id="text_9">
      <!-- −0.50 -->
      <g style="fill: #575757" transform="translate(17.06899 137.191901) scale(0.1 -0.1)">
       <use xlink:href="#TeXGyrePagella-Regular-2212"/>
       <use xlink:href="#TeXGyrePagella-Regular-30" x="75.999985"/>
       <use xlink:href="#TeXGyrePagella-Regular-2e" x="125.999969"/>
       <use xlink:href="#TeXGyrePagella-Regular-35" x="150.999954"/>
       <use xlink:href="#TeXGyrePagella-Regular-30" x="200.999939"/>
      </g>
     </g>
    </g>
    <g id="ytick_4">
     <g id="line2d_9">
      <g>
       <use xlink:href="#m6ee27b319a" x="45.66899" y="112.406833" style="fill: #575757; stroke: #575757; stroke-width: 0.8"/>
      </g>
     </g>
     <g id="text_10">
      <!-- −0.25 -->
      <g style="fill: #575757" transform="translate(17.06899 116.03652) scale(0.1 -0.1)">
       <defs>
        <path id="TeXGyrePagella-Regular-32" d="M 102 -19 
C 576 -6 1056 0 1530 0 
C 2016 0 2509 -6 2995 -19 
C 2982 115 2982 179 2982 269 
C 2982 352 2982 416 2995 557 
L 781 493 
L 1946 1728 
C 2566 2387 2758 2739 2758 3219 
C 2758 3955 2259 4410 1446 4410 
C 986 4410 672 4282 358 3962 
L 250 3091 
L 435 3091 
L 518 3386 
C 621 3757 851 3917 1280 3917 
C 1830 3917 2182 3571 2182 3027 
C 2182 2547 1914 2074 1190 1306 
L 102 147 
L 102 -19 
z
" transform="scale(0.015625)"/>
       </defs>
       <use xlink:href="#TeXGyrePagella-Regular-2212"/>
       <use xlink:href="#TeXGyrePagella-Regular-30" x="75.999985"/>
       <use xlink:href="#TeXGyrePagella-Regular-2e" x="125.999969"/>
       <use xlink:href="#TeXGyrePagella-Regular-32" x="150.999954"/>
       <use xlink:href="#TeXGyrePagella-Regular-35" x="200.999939"/>
      </g>
     </g>
    </g>
    <g id="ytick_5">
     <g id="line2d_10">
      <g>
       <use xlink:href="#m6ee27b319a" x="45.66899" y="91.251452" style="fill: #575757; stroke: #575757; stroke-width: 0.8"/>
      </g>
     </g>
     <g id="text_11">
      <!-- 0.00 -->
      <g style="fill: #575757" transform="translate(24.66899 94.881139) scale(0.1 -0.1)">
       <use xlink:href="#TeXGyrePagella-Regular-30"/>
       <use xlink:href="#TeXGyrePagella-Regular-2e" x="49.999985"/>
       <use xlink:href="#TeXGyrePagella-Regular-30" x="74.999969"/>
       <use xlink:href="#TeXGyrePagella-Regular-30" x="124.999954"/>
      </g>
     </g>
    </g>
    <g id="ytick_6">
     <g id="line2d_11">
      <g>
       <use xlink:href="#m6ee27b319a" x="45.66899" y="70.096071" style="fill: #575757; stroke: #575757; stroke-width: 0.8"/>
      </g>
     </g>
     <g id="text_12">
      <!-- 0.25 -->
      <g style="fill: #575757" transform="translate(24.66899 73.725758) scale(0.1 -0.1)">
       <use xlink:href="#TeXGyrePagella-Regular-30"/>
       <use xlink:href="#TeXGyrePagella-Regular-2e" x="49.999985"/>
       <use xlink:href="#TeXGyrePagella-Regular-32" x="74.999969"/>
       <use xlink:href="#TeXGyrePagella-Regular-35" x="124.999954"/>
      </g>
     </g>
    </g>
    <g id="ytick_7">
     <g id="line2d_12">
      <g>
       <use xlink:href="#m6ee27b319a" x="45.66899" y="48.94069" style="fill: #575757; stroke: #575757; stroke-width: 0.8"/>
      </g>
     </g>
     <g id="text_13">
      <!-- 0.50 -->
      <g style="fill: #575757" transform="translate(24.66899 52.570377) scale(0.1 -0.1)">
       <use xlink:href="#TeXGyrePagella-Regular-30"/>
       <use xlink:href="#TeXGyrePagella-Regular-2e" x="49.999985"/>
       <use xlink:href="#TeXGyrePagella-Regular-35" x="74.999969"/>
       <use xlink:href="#TeXGyrePagella-Regular-30" x="124.999954"/>
      </g>
     </g>
    </g>
    <g id="ytick_8">
     <g id="line2d_13">
      <g>
       <use xlink:href="#m6ee27b319a" x="45.66899" y="27.785309" style="fill: #575757; stroke: #575757; stroke-width: 0.8"/>
      </g>
     </g>
     <g id="text_14">
      <!-- 0.75 -->
      <g style="fill: #575757" transform="translate(24.66899 31.414996) scale(0.1 -0.1)">
       <use xlink:href="#TeXGyrePagella-Regular-30"/>
       <use xlink:href="#TeXGyrePagella-Regular-2e" x="49.999985"/>
       <use xlink:href="#TeXGyrePagella-Regular-37" x="74.999969"/>
       <use xlink:href="#TeXGyrePagella-Regular-35" x="124.999954"/>
      </g>
     </g>
    </g>
    <g id="ytick_9">
     <g id="line2d_14">
      <g>
       <use xlink:href="#m6ee27b319a" x="45.66899" y="6.629928" style="fill: #575757; stroke: #575757; stroke-width: 0.8"/>
      </g>
     </g>
     <g id="text_15">
      <!-- 1.00 -->
      <g style="fill: #575757" transform="translate(24.66899 10.259615) scale(0.1 -0.1)">
       <use xlink:href="#TeXGyrePagella-Regular-31"/>
       <use xlink:href="#TeXGyrePagella-Regular-2e" x="49.999985"/>
       <use xlink:href="#TeXGyrePagella-Regular-30" x="74.999969"/>
       <use xlink:href="#TeXGyrePagella-Regular-30" x="124.999954"/>
      </g>
     </g>
    </g>
    <g id="text_16">
     <!-- f(t) = sin(2πft) -->
     <g style="fill: #575757" transform="translate(10.259615 125.779577) rotate(-90) scale(0.1 -0.1)">
      <defs>
       <path id="TeXGyrePagella-Regular-66" d="M 147 -19 
C 416 -6 678 0 947 0 
C 1216 0 1478 -6 1747 -19 
L 1747 173 
L 1453 192 
C 1235 205 1216 250 1216 653 
L 1216 2464 
L 2010 2464 
L 2054 2803 
C 1773 2784 1498 2778 1216 2778 
L 1216 3322 
C 1216 4058 1299 4237 1664 4237 
C 1837 4237 1952 4192 2106 4058 
L 2182 4096 
L 2182 4589 
C 2048 4640 1971 4659 1888 4659 
C 1683 4659 1459 4550 1318 4390 
L 947 3968 
C 762 3757 678 3469 678 3046 
L 678 2778 
L 237 2579 
L 237 2438 
L 678 2464 
L 678 653 
C 678 250 659 205 442 192 
L 147 173 
L 147 -19 
z
" transform="scale(0.015625)"/>
       <path id="TeXGyrePagella-Regular-28" d="M 794 1344 
C 794 320 1331 -678 2214 -1562 
C 2234 -1523 2259 -1491 2291 -1459 
C 2323 -1427 2355 -1402 2394 -1382 
C 1581 -570 1203 403 1203 1344 
L 1203 1856 
C 1203 2797 1581 3770 2394 4582 
C 2355 4602 2323 4627 2291 4659 
C 2259 4691 2234 4723 2214 4762 
C 1331 3878 794 2880 794 1856 
L 794 1344 
z
" transform="scale(0.015625)"/>
       <path id="TeXGyrePagella-Regular-74" d="M 141 2419 
L 627 2445 
L 627 602 
C 627 128 838 -77 1331 -77 
C 1478 -77 1632 -45 1670 0 
L 1978 339 
L 1894 448 
C 1734 358 1638 326 1517 326 
C 1267 326 1165 454 1165 768 
L 1165 2445 
L 1984 2445 
L 2042 2790 
L 1165 2752 
L 1165 2995 
C 1165 3264 1184 3494 1235 3904 
L 1158 3974 
C 1005 3878 813 3795 614 3731 
C 634 3539 640 3418 640 3226 
L 640 2778 
L 141 2554 
L 141 2419 
z
" transform="scale(0.015625)"/>
       <path id="TeXGyrePagella-Regular-29" d="M 525 -1382 
C 563 -1402 595 -1427 627 -1459 
C 659 -1491 685 -1523 704 -1562 
C 1587 -678 2125 320 2125 1344 
L 2125 1856 
C 2125 2880 1587 3878 704 4762 
C 685 4723 659 4691 627 4659 
C 595 4627 563 4602 525 4582 
C 1338 3770 1715 2797 1715 1856 
L 1715 1344 
C 1715 403 1338 -570 525 -1382 
z
" transform="scale(0.015625)"/>
       <path id="TeXGyrePagella-Regular-3d" d="M 512 704 
L 4352 704 
C 4339 768 4333 832 4333 896 
C 4333 960 4339 1024 4352 1088 
L 512 1088 
C 525 1024 531 960 531 896 
C 531 832 525 768 512 704 
z
M 512 2112 
L 4352 2112 
C 4339 2176 4333 2240 4333 2304 
C 4333 2368 4339 2432 4352 2496 
L 512 2496 
C 525 2432 531 2368 531 2304 
C 531 2240 525 2176 512 2112 
z
" transform="scale(0.015625)"/>
       <path id="TeXGyrePagella-Regular-6e" d="M 38 -19 
C 301 -6 570 0 832 0 
C 1094 0 1363 -6 1626 -19 
L 1626 173 
L 1338 192 
C 1120 205 1101 250 1101 653 
L 1101 2010 
C 1101 2298 1523 2611 1914 2611 
C 2342 2611 2624 2291 2624 1798 
L 2624 -19 
C 2790 -6 2963 0 3130 0 
C 3309 0 3482 -6 3661 -19 
L 3661 173 
L 3398 192 
C 3181 205 3162 243 3162 653 
L 3162 1888 
C 3162 2637 2810 3002 2093 3002 
C 1856 3002 1722 2957 1587 2842 
L 1101 2419 
L 1101 2976 
L 1043 3002 
C 717 2867 384 2778 45 2739 
L 45 2560 
L 282 2560 
C 538 2560 563 2515 563 2093 
L 563 653 
C 563 250 544 205 326 192 
L 38 173 
L 38 -19 
z
" transform="scale(0.015625)"/>
       <path id="TeXGyrePagella-Regular-3c0" d="M 307 2310 
L 410 2259 
L 461 2304 
C 525 2688 787 2707 1171 2707 
C 1248 2707 1370 2701 1510 2701 
C 1261 1242 1094 800 723 -13 
L 800 -70 
L 1254 96 
C 1389 595 1600 1568 1734 2694 
L 2989 2650 
C 2957 2253 2816 1094 2906 685 
C 3046 13 3322 -70 3526 -70 
C 3872 -70 4045 13 4403 352 
L 4320 474 
L 4179 365 
C 4192 378 4032 230 3917 230 
C 3603 230 3469 416 3386 813 
C 3354 973 3328 1146 3328 1331 
L 3341 2650 
C 3494 2650 3648 2656 3795 2675 
C 3917 2675 4051 2739 4147 2778 
C 4198 2912 4224 2925 4320 3078 
L 4256 3155 
C 4083 3098 3795 3034 3578 3034 
C 3494 3027 3328 3021 3162 3021 
L 1030 3078 
C 525 3078 384 2867 307 2310 
z
" transform="scale(0.015625)"/>
      </defs>
      <use xlink:href="#TeXGyrePagella-Regular-66"/>
      <use xlink:href="#TeXGyrePagella-Regular-28" x="33.299988"/>
      <use xlink:href="#TeXGyrePagella-Regular-74" x="78.899979"/>
      <use xlink:href="#TeXGyrePagella-Regular-29" x="111.499969"/>
      <use xlink:href="#TeXGyrePagella-Regular-20" x="157.09996"/>
      <use xlink:href="#TeXGyrePagella-Regular-3d" x="182.099945"/>
      <use xlink:href="#TeXGyrePagella-Regular-20" x="258.09993"/>
      <use xlink:href="#TeXGyrePagella-Regular-73" x="283.099915"/>
      <use xlink:href="#TeXGyrePagella-Regular-69" x="325.499908"/>
      <use xlink:href="#TeXGyrePagella-Regular-6e" x="354.199905"/>
      <use xlink:href="#TeXGyrePagella-Regular-28" x="412.399902"/>
      <use xlink:href="#TeXGyrePagella-Regular-32" x="457.999893"/>
      <use xlink:href="#TeXGyrePagella-Regular-3c0" x="507.999878"/>
      <use xlink:href="#TeXGyrePagella-Regular-66" x="579.099869"/>
      <use xlink:href="#TeXGyrePagella-Regular-74" x="612.399857"/>
      <use xlink:href="#TeXGyrePagella-Regular-29" x="644.999847"/>
     </g>
    </g>
   </g>
   <g id="line2d_15">
    <path d="M 65.692246 88.061732 
L 66.312418 18.14049 
L 66.560487 7.295662 
L 66.622504 6.656324 
L 66.684521 6.871396 
L 66.808556 9.847472 
L 67.056624 25.388736 
L 67.428727 67.155828 
L 68.23495 163.282383 
L 68.483019 174.91846 
L 68.607053 175.764061 
L 68.731088 173.203978 
L 68.917139 163.24049 
L 69.227225 132.904306 
L 70.281517 12.549076 
L 70.467569 6.865412 
L 70.529586 6.658354 
L 70.65362 8.800865 
L 70.839672 18.180685 
L 71.149757 47.783288 
L 72.266067 172.080382 
L 72.452118 175.872925 
L 72.514135 175.436247 
L 72.63817 172.025094 
L 72.886238 155.706389 
L 73.320358 104.910477 
L 74.064565 18.086998 
L 74.312633 7.282414 
L 74.37465 6.653735 
L 74.436668 6.879491 
L 74.560702 9.876584 
L 74.808771 25.455561 
L 75.180874 67.257794 
L 75.987097 163.33814 
L 76.235166 174.934322 
L 76.297183 175.773296 
L 76.3592 175.7586 
L 76.483234 173.177414 
L 76.669286 163.184534 
L 76.979372 132.8117 
L 78.033663 12.510063 
L 78.219715 6.857551 
L 78.281732 6.661177 
L 78.405767 8.824865 
L 78.591818 18.23438 
L 78.901904 47.874568 
L 80.018213 172.1118 
L 80.204264 175.872741 
L 80.266282 175.42539 
L 80.390316 171.993325 
L 80.638385 155.63743 
L 81.072505 104.805512 
L 81.816711 18.033621 
L 82.06478 7.269299 
L 82.126797 6.651279 
L 82.188814 6.88772 
L 82.312848 9.905824 
L 82.560917 25.52249 
L 82.93302 67.359797 
L 83.739243 163.393784 
L 83.987312 174.950053 
L 84.049329 175.778389 
L 84.111346 175.753006 
L 84.235381 173.150721 
L 84.421432 163.128464 
L 84.731518 132.719028 
L 85.78581 12.471173 
L 85.971861 6.849822 
L 86.033879 6.664134 
L 86.157913 8.848995 
L 86.343964 18.28819 
L 86.65405 47.965917 
L 87.770359 172.14309 
L 87.956411 175.872424 
L 88.018428 175.414399 
L 88.142462 171.961429 
L 88.390531 155.568369 
L 88.824651 104.700525 
L 89.568857 17.980359 
L 89.816926 7.256317 
L 89.878943 6.648957 
L 89.94096 6.896081 
L 90.064995 9.935192 
L 90.313063 25.589523 
L 90.685166 67.461839 
L 91.49139 163.449313 
L 91.739458 174.965651 
L 91.801475 175.78335 
L 91.863493 175.747278 
L 91.987527 173.123899 
L 92.173579 163.07228 
L 92.483664 132.62629 
L 93.537956 12.432408 
L 93.724008 6.842227 
L 93.786025 6.667224 
L 93.910059 8.873256 
L 94.096111 18.342115 
L 94.406197 48.057334 
L 95.522506 172.174252 
L 95.708557 175.871973 
L 95.770574 175.403276 
L 95.894609 171.929406 
L 96.142677 155.499206 
L 96.576798 104.595517 
L 97.321004 17.927214 
L 97.569072 7.243467 
L 97.63109 6.646769 
L 97.693107 6.904576 
L 97.817141 9.964689 
L 98.06521 25.656659 
L 98.437313 67.563918 
L 99.243536 163.504729 
L 99.491605 174.981116 
L 99.553622 175.788176 
L 99.615639 175.741417 
L 99.739673 173.096947 
L 99.925725 163.015983 
L 100.235811 132.533487 
L 101.290103 12.393768 
L 101.476154 6.834765 
L 101.538171 6.670448 
L 101.662206 8.897646 
L 101.848257 18.396156 
L 102.158343 48.148819 
L 103.274652 172.205286 
L 103.460704 175.871388 
L 103.584738 174.062834 
L 103.77079 165.15263 
L 104.080875 136.148128 
L 105.197184 10.934157 
L 105.383236 6.644714 
L 105.445253 6.913204 
L 105.569287 9.994314 
L 105.817356 25.723899 
L 106.189459 67.666034 
L 106.995682 163.56003 
L 107.243751 174.99645 
L 107.305768 175.792869 
L 107.367785 175.735422 
L 107.49182 173.069866 
L 107.677871 162.959573 
L 107.987957 132.440619 
L 109.042249 12.355252 
L 109.228301 6.827437 
L 109.290318 6.673806 
L 109.414352 8.922166 
L 109.600404 18.450311 
L 109.910489 48.240372 
L 111.026799 172.236193 
L 111.21285 175.870669 
L 111.336884 174.04089 
L 111.522936 165.100763 
L 111.833022 136.057946 
L 112.949331 10.900734 
L 113.135382 6.642793 
L 113.1974 6.921965 
L 113.321434 10.024068 
L 113.569503 25.791243 
L 113.941606 67.768187 
L 114.747829 163.615217 
L 114.995897 175.011651 
L 115.057915 175.797429 
L 115.119932 175.729294 
L 115.243966 173.042655 
L 115.430018 162.903049 
L 115.740104 132.347686 
L 116.794395 12.316861 
L 116.980447 6.820241 
L 117.042464 6.677297 
L 117.166498 8.946817 
L 117.35255 18.504581 
L 117.662636 48.331994 
L 118.778945 172.266971 
L 118.964996 175.869817 
L 119.089031 174.018814 
L 119.275082 165.048779 
L 119.585168 135.967693 
L 120.701477 10.867439 
L 120.887529 6.641005 
L 120.949546 6.93086 
L 121.07358 10.05395 
L 121.321649 25.85869 
L 121.755769 76.151412 
L 122.499975 163.67029 
L 122.748044 175.02672 
L 122.810061 175.801855 
L 122.872078 175.723033 
L 122.996113 173.015316 
L 123.244181 157.957033 
L 123.616284 116.643746 
L 124.484525 15.728592 
L 124.732593 6.813179 
L 124.794611 6.680921 
L 124.918645 8.971597 
L 125.104696 18.558967 
L 125.414782 48.423683 
L 126.531091 172.297622 
L 126.717143 175.868832 
L 126.841177 173.996608 
L 127.027229 164.996679 
L 127.337315 135.87737 
L 128.453624 10.83427 
L 128.639675 6.639351 
L 128.701692 6.939887 
L 128.825727 10.08396 
L 129.073795 25.92624 
L 129.507916 76.256066 
L 130.252122 163.725248 
L 130.50019 175.041656 
L 130.562207 175.806148 
L 130.624225 175.716638 
L 130.748259 172.987847 
L 130.996328 157.891542 
L 131.368431 116.542278 
L 132.236671 15.680679 
L 132.48474 6.806251 
L 132.546757 6.68468 
L 132.670791 8.996508 
L 132.856843 18.613467 
L 133.166929 48.515439 
L 134.283238 172.328145 
L 134.469289 175.867712 
L 134.593324 173.974272 
L 134.779375 164.944462 
L 135.089461 135.786976 
L 136.20577 10.801229 
L 136.391822 6.637831 
L 136.453839 6.949048 
L 136.577873 10.114098 
L 136.825942 25.993894 
L 137.260062 76.360744 
L 138.004268 163.780093 
L 138.252337 175.056461 
L 138.314354 175.810307 
L 138.376371 175.710109 
L 138.500405 172.960249 
L 138.748474 157.825946 
L 139.120577 116.440769 
L 139.988817 15.632884 
L 140.236886 6.799456 
L 140.298903 6.688572 
L 140.422938 9.021548 
L 140.608989 18.668082 
L 140.919075 48.607263 
L 142.035384 172.358539 
L 142.221436 175.866459 
L 142.34547 173.951804 
L 142.531521 164.892129 
L 142.841607 135.696512 
L 143.957916 10.768314 
L 144.143968 6.636444 
L 144.205985 6.958342 
L 144.330019 10.144364 
L 144.578088 26.06165 
L 145.012208 76.465445 
L 145.756414 163.834822 
L 146.004483 175.071133 
L 146.0665 175.814332 
L 146.128517 175.703448 
L 146.252552 172.932522 
L 146.50062 157.760244 
L 146.872723 116.339221 
L 147.740964 15.58521 
L 147.989033 6.792794 
L 148.05105 6.692597 
L 148.175084 9.046718 
L 148.361136 18.722811 
L 148.671221 48.699155 
L 149.78753 172.388806 
L 149.973582 175.865073 
L 150.097616 173.929206 
L 150.283668 164.839679 
L 150.593754 135.605977 
L 151.710063 10.735527 
L 151.896114 6.635191 
L 151.958131 6.967769 
L 152.082166 10.174759 
L 152.330235 26.12951 
L 152.764355 76.57017 
L 153.508561 163.889437 
L 153.756629 175.085672 
L 153.818647 175.818224 
L 153.880664 175.696653 
L 154.004698 172.904666 
L 154.252767 157.694438 
L 154.62487 116.237634 
L 155.49311 15.537655 
L 155.741179 6.786266 
L 155.803196 6.696756 
L 155.92723 9.072018 
L 156.113282 18.777655 
L 156.423368 48.791114 
L 157.539677 172.418944 
L 157.725728 175.863552 
L 157.849763 173.906478 
L 158.035814 164.787114 
L 158.3459 135.515372 
L 159.462209 10.702866 
L 159.648261 6.634072 
L 159.710278 6.977329 
L 159.834312 10.205282 
L 160.082381 26.197472 
L 160.516501 76.674918 
L 161.260707 163.943937 
L 161.508776 175.100079 
L 161.570793 175.821982 
L 161.63281 175.689724 
L 161.756845 172.876682 
L 162.004913 157.628527 
L 162.377016 116.136006 
L 163.245257 15.490219 
L 163.493325 6.779871 
L 163.555342 6.701048 
L 163.679377 9.097448 
L 163.865428 18.832614 
L 164.175514 48.88314 
L 165.291823 172.448954 
L 165.477875 175.861899 
L 165.601909 173.883619 
L 165.787961 164.734432 
L 166.098047 135.424698 
L 167.214356 10.670333 
L 167.400407 6.633086 
L 167.462424 6.987022 
L 167.586459 10.235932 
L 167.834527 26.265537 
L 168.268647 76.779689 
L 169.012854 163.998322 
L 169.260922 175.114354 
L 169.322939 175.825607 
L 169.384957 175.682662 
L 169.508991 172.848568 
L 169.75706 157.562511 
L 170.129163 116.03434 
L 170.935386 19.599854 
L 171.183455 7.694969 
L 171.307489 6.705475 
L 171.431523 9.123007 
L 171.617575 18.887686 
L 171.927661 48.975232 
L 173.04397 172.478836 
L 173.230021 175.860111 
L 173.354056 173.860629 
L 173.540107 164.681634 
L 173.850193 135.333954 
L 174.966502 10.637927 
L 175.152553 6.632234 
L 175.214571 6.996849 
L 175.338605 10.266711 
L 175.586674 26.333705 
L 176.020794 76.884483 
L 176.765 164.052593 
L 177.013069 175.128496 
L 177.075086 175.829098 
L 177.137103 175.675467 
L 177.261137 172.820325 
L 177.509206 157.49639 
L 177.881309 115.932634 
L 178.687532 19.543331 
L 178.935601 7.678216 
L 179.059635 6.710034 
L 179.18367 9.148697 
L 179.369721 18.942874 
L 179.679807 49.067392 
L 180.796116 172.508589 
L 180.982168 175.85819 
L 181.106202 173.837509 
L 181.292253 164.62872 
L 181.602339 135.24314 
L 182.718648 10.605649 
L 182.9047 6.631516 
L 182.966717 7.006808 
L 183.090751 10.297617 
L 183.33882 26.401976 
L 183.77294 76.989299 
L 184.517146 164.106748 
L 184.765215 175.142506 
L 184.827232 175.832456 
L 184.889249 175.668138 
L 185.013284 172.791954 
L 185.261352 157.430164 
L 185.633455 115.83089 
L 186.439679 19.48692 
L 186.687747 7.661594 
L 186.811782 6.714727 
L 186.935816 9.174516 
L 187.121868 18.998175 
L 187.431953 49.159618 
L 188.548262 172.538215 
L 188.734314 175.856135 
L 188.858348 173.814258 
L 189.0444 164.57569 
L 189.354486 135.152256 
L 190.470795 10.573498 
L 190.656846 6.630931 
L 190.718863 7.016901 
L 190.842898 10.328652 
L 191.090966 26.470348 
L 191.525087 77.094139 
L 192.269293 164.160788 
L 192.517361 175.156383 
L 192.579379 175.835679 
L 192.641396 175.660677 
L 192.76543 172.763453 
L 193.013499 157.363834 
L 193.385602 115.729106 
L 194.191825 19.430623 
L 194.439894 7.645104 
L 194.563928 6.719554 
L 194.687962 9.200464 
L 194.874014 19.05359 
L 195.1841 49.25191 
L 196.300409 172.567711 
L 196.48646 175.853946 
L 196.610495 173.790877 
L 196.796546 164.522544 
L 197.106632 135.061303 
L 198.222941 10.541474 
L 198.408993 6.63048 
L 198.47101 7.027126 
L 198.595044 10.359814 
L 198.843113 26.538823 
L 199.277233 77.199 
L 200.021439 164.214714 
L 200.269508 175.170128 
L 200.331525 175.83877 
L 200.393542 175.653081 
L 200.517576 172.734824 
L 200.765645 157.2974 
L 201.137748 115.627284 
L 201.943971 19.37444 
L 202.19204 7.628746 
L 202.316074 6.724514 
L 202.440109 9.226542 
L 202.62616 19.10912 
L 202.936246 49.344269 
L 204.052555 172.59708 
L 204.238607 175.851624 
L 204.362641 173.767366 
L 204.548693 164.469283 
L 204.858778 134.970282 
L 205.975088 10.509578 
L 206.161139 6.630162 
L 206.223156 7.037485 
L 206.347191 10.391104 
L 206.595259 26.607401 
L 207.029379 77.303884 
L 207.773586 164.268523 
L 208.021654 175.18374 
L 208.083671 175.841727 
L 208.145689 175.645353 
L 208.269723 172.706067 
L 208.517792 157.230861 
L 208.889895 115.525424 
L 209.696118 19.31837 
L 209.944186 7.61252 
L 210.068221 6.729608 
L 210.192255 9.25275 
L 210.378307 19.164763 
L 210.688393 49.436695 
L 211.804702 172.62632 
L 211.990753 175.849169 
L 212.114787 173.743724 
L 212.300839 164.415906 
L 212.610925 134.879191 
L 213.727234 10.47781 
L 213.913285 6.629979 
L 213.975303 7.047976 
L 214.099337 10.422522 
L 214.347406 26.67608 
L 214.781526 77.408789 
L 215.525732 164.322218 
L 215.773801 175.197219 
L 215.835818 175.84455 
L 215.897835 175.637491 
L 216.021869 172.67718 
L 216.269938 157.164218 
L 216.642041 115.423525 
L 217.448264 19.262414 
L 217.696333 7.596427 
L 217.820367 6.734835 
L 217.944402 9.279087 
L 218.130453 19.220521 
L 218.440539 49.529186 
L 219.494831 169.924486 
L 219.680882 175.631507 
L 219.7429 175.846579 
L 219.866934 173.719953 
L 220.052985 164.362413 
L 220.363071 134.788031 
L 220.673157 94.441171 
L 220.673157 94.441171 
" style="fill: none; stroke: #1f77b4; stroke-width: 1.5; stroke-linecap: square"/>
   </g>
   <g id="patch_3">
    <path d="M 45.66899 175.872976 
L 45.66899 6.629928 
" style="fill: none; stroke: #575757; stroke-width: 0.8; stroke-linejoin: miter; stroke-linecap: square"/>
   </g>
   <g id="patch_4">
    <path d="M 65.66899 195.872976 
L 220.696414 195.872976 
" style="fill: none; stroke: #575757; stroke-width: 0.8; stroke-linejoin: miter; stroke-linecap: square"/>
   </g>
  </g>
  <g id="axes_2">
   <g id="patch_5">
    <path d="M 290.515644 175.872976 
L 445.543067 175.872976 
L 445.543067 6.629928 
L 290.515644 6.629928 
z
" style="fill: #ffffff"/>
   </g>
   <g id="matplotlib.axis_3">
    <g id="xtick_6">
     <g id="line2d_16">
      <g>
       <use xlink:href="#m8683a3a88e" x="290.515644" y="195.872976" style="fill: #575757; stroke: #575757; stroke-width: 0.8"/>
      </g>
     </g>
     <g id="text_17">
      <!-- 10 -->
      <g style="fill: #575757" transform="translate(285.515644 206.632351) scale(0.1 -0.1)">
       <use xlink:href="#TeXGyrePagella-Regular-31"/>
       <use xlink:href="#TeXGyrePagella-Regular-30" x="49.999985"/>
      </g>
     </g>
    </g>
    <g id="xtick_7">
     <g id="line2d_17">
      <g>
       <use xlink:href="#m8683a3a88e" x="329.272499" y="195.872976" style="fill: #575757; stroke: #575757; stroke-width: 0.8"/>
      </g>
     </g>
     <g id="text_18">
      <!-- 15 -->
      <g style="fill: #575757" transform="translate(324.272499 206.632351) scale(0.1 -0.1)">
       <use xlink:href="#TeXGyrePagella-Regular-31"/>
       <use xlink:href="#TeXGyrePagella-Regular-35" x="49.999985"/>
      </g>
     </g>
    </g>
    <g id="xtick_8">
     <g id="line2d_18">
      <g>
       <use xlink:href="#m8683a3a88e" x="368.029355" y="195.872976" style="fill: #575757; stroke: #575757; stroke-width: 0.8"/>
      </g>
     </g>
     <g id="text_19">
      <!-- 20 -->
      <g style="fill: #575757" transform="translate(363.029355 206.632351) scale(0.1 -0.1)">
       <use xlink:href="#TeXGyrePagella-Regular-32"/>
       <use xlink:href="#TeXGyrePagella-Regular-30" x="49.999985"/>
      </g>
     </g>
    </g>
    <g id="xtick_9">
     <g id="line2d_19">
      <g>
       <use xlink:href="#m8683a3a88e" x="406.786211" y="195.872976" style="fill: #575757; stroke: #575757; stroke-width: 0.8"/>
      </g>
     </g>
     <g id="text_20">
      <!-- 25 -->
      <g style="fill: #575757" transform="translate(401.786211 206.632351) scale(0.1 -0.1)">
       <use xlink:href="#TeXGyrePagella-Regular-32"/>
       <use xlink:href="#TeXGyrePagella-Regular-35" x="49.999985"/>
      </g>
     </g>
    </g>
    <g id="xtick_10">
     <g id="line2d_20">
      <g>
       <use xlink:href="#m8683a3a88e" x="445.543067" y="195.872976" style="fill: #575757; stroke: #575757; stroke-width: 0.8"/>
      </g>
     </g>
     <g id="text_21">
      <!-- 30 -->
      <g style="fill: #575757" transform="translate(440.543067 206.632351) scale(0.1 -0.1)">
       <defs>
        <path id="TeXGyrePagella-Regular-33" d="M 96 979 
C 230 589 282 358 320 38 
C 659 -77 941 -128 1178 -128 
C 1690 -128 2278 160 2630 589 
C 2848 851 2957 1133 2957 1434 
C 2957 1741 2829 2010 2598 2170 
C 2438 2285 2291 2336 1971 2394 
C 2483 2790 2675 3085 2675 3462 
C 2675 4032 2202 4410 1491 4410 
C 1056 4410 768 4288 461 3981 
L 275 3187 
L 474 3187 
L 589 3546 
C 659 3763 1062 3981 1395 3981 
C 1811 3981 2150 3642 2150 3238 
C 2150 2758 1773 2355 1318 2355 
C 1267 2355 1018 2374 1018 2374 
L 941 2035 
L 986 1997 
C 1229 2106 1350 2138 1523 2138 
C 2054 2138 2362 1798 2362 1216 
C 2362 563 1971 134 1376 134 
C 1082 134 819 230 627 410 
C 474 550 390 698 269 1043 
L 96 979 
z
" transform="scale(0.015625)"/>
       </defs>
       <use xlink:href="#TeXGyrePagella-Regular-33"/>
       <use xlink:href="#TeXGyrePagella-Regular-30" x="49.999985"/>
      </g>
     </g>
    </g>
    <g id="text_22">
     <!-- Frequency [Hz] -->
     <g style="fill: #575757" transform="translate(332.569199 220.941726) scale(0.1 -0.1)">
      <defs>
       <path id="TeXGyrePagella-Regular-46" d="M 141 -19 
C 454 -6 762 0 1075 0 
C 1389 0 1702 -6 2016 -19 
L 2016 173 
L 1709 192 
C 1414 211 1382 262 1382 768 
L 1382 2093 
L 2406 2112 
C 2688 2112 2810 2086 2854 1875 
C 2880 1734 2886 1498 2886 1498 
L 3078 1498 
C 3066 1734 3059 1971 3059 2208 
C 3059 2458 3066 2701 3078 2950 
L 2886 2950 
L 2854 2618 
C 2835 2400 2675 2374 2394 2374 
C 2048 2374 1664 2381 1382 2400 
L 1382 4109 
C 1574 4154 1690 4160 2067 4160 
C 2374 4160 2733 4122 2931 4070 
C 3085 4032 3104 4000 3104 3853 
L 3104 3437 
L 3328 3437 
C 3328 3821 3360 4128 3430 4410 
L 2650 4429 
C 2189 4416 1728 4410 1267 4410 
C 890 4410 518 4416 141 4429 
L 141 4237 
L 448 4218 
C 742 4198 774 4147 774 3642 
L 774 768 
C 774 262 742 211 448 192 
L 141 173 
L 141 -19 
z
" transform="scale(0.015625)"/>
       <path id="TeXGyrePagella-Regular-72" d="M 134 -19 
C 397 -6 659 0 922 0 
C 1229 0 1530 -6 1837 -19 
L 1837 173 
L 1504 192 
C 1216 211 1203 230 1203 653 
L 1203 1754 
C 1203 2138 1459 2458 1773 2458 
C 1965 2458 2099 2368 2202 2163 
L 2336 2163 
L 2394 2931 
C 2323 2976 2208 3002 2093 3002 
C 1901 3002 1696 2899 1562 2739 
L 1203 2317 
L 1203 2976 
L 1146 3002 
C 819 2867 486 2778 147 2739 
L 147 2560 
L 384 2560 
C 640 2560 666 2515 666 2093 
L 666 653 
C 666 250 646 205 429 192 
L 134 173 
L 134 -19 
z
" transform="scale(0.015625)"/>
       <path id="TeXGyrePagella-Regular-71" d="M 224 1306 
C 224 467 730 -77 1523 -77 
C 1658 -77 1766 -51 1850 0 
L 2515 422 
L 2515 -1126 
C 2515 -1530 2490 -1574 2278 -1587 
L 1907 -1606 
L 1907 -1798 
C 2202 -1786 2502 -1779 2797 -1779 
C 3059 -1779 3322 -1786 3584 -1798 
L 3584 -1606 
L 3290 -1587 
C 3072 -1574 3053 -1530 3053 -1126 
L 3053 2035 
C 3053 2432 3091 2675 3200 2918 
L 3078 2989 
L 2765 2790 
C 2438 2938 2163 3002 1888 3002 
C 1702 3002 1478 2950 1382 2893 
L 845 2547 
C 435 2285 224 1862 224 1306 
z
M 781 1587 
C 781 2291 1139 2701 1754 2701 
C 2067 2701 2291 2624 2515 2438 
L 2515 768 
C 2515 678 2362 512 2189 416 
C 2035 333 1888 288 1734 288 
C 1171 288 781 813 781 1587 
z
" transform="scale(0.015625)"/>
       <path id="TeXGyrePagella-Regular-75" d="M 115 2560 
L 352 2560 
C 608 2560 634 2515 634 2093 
L 634 1018 
C 634 570 672 371 787 211 
C 928 19 1171 -77 1536 -77 
C 1824 -77 2080 13 2253 173 
L 2682 570 
C 2682 384 2675 282 2656 -19 
C 2835 -6 3008 0 3187 0 
C 3366 0 3539 -6 3718 -19 
L 3718 173 
L 3456 192 
C 3238 205 3219 243 3219 653 
L 3219 2976 
L 3162 3002 
C 2835 2867 2502 2778 2163 2739 
L 2163 2560 
L 2400 2560 
C 2656 2560 2682 2515 2682 2093 
L 2682 1050 
C 2682 909 2592 730 2445 582 
C 2266 403 2061 314 1811 314 
C 1587 314 1408 384 1306 506 
C 1216 608 1171 806 1171 1088 
L 1171 2976 
L 1114 3002 
C 787 2867 454 2778 115 2739 
L 115 2560 
z
" transform="scale(0.015625)"/>
       <path id="TeXGyrePagella-Regular-63" d="M 166 1344 
C 166 480 774 -128 1632 -128 
C 1965 -128 2445 -6 2509 90 
L 2643 294 
L 2579 390 
C 2342 262 2138 205 1907 205 
C 1197 205 730 755 730 1600 
C 730 2285 1050 2669 1626 2669 
C 1907 2669 2214 2541 2330 2381 
L 2374 1990 
L 2554 1990 
C 2554 2285 2586 2547 2643 2778 
C 2387 2931 2163 3002 1901 3002 
C 1594 3002 1235 2880 851 2637 
C 403 2355 166 1907 166 1344 
z
" transform="scale(0.015625)"/>
       <path id="TeXGyrePagella-Regular-79" d="M 77 2758 
L 192 2746 
C 352 2726 435 2656 525 2432 
L 1581 -154 
L 1434 -544 
C 1229 -1082 979 -1382 736 -1382 
C 634 -1382 518 -1331 410 -1235 
L 326 -1235 
L 173 -1715 
C 294 -1779 397 -1811 518 -1811 
C 947 -1811 1222 -1581 1466 -1024 
L 2765 1971 
C 3021 2554 3142 2733 3302 2746 
L 3482 2758 
L 3482 2938 
C 3277 2925 3078 2918 2874 2918 
C 2669 2918 2470 2925 2266 2938 
L 2266 2758 
L 2432 2746 
C 2701 2726 2758 2650 2662 2419 
L 1901 550 
C 1760 794 1696 941 1574 1254 
L 1165 2330 
C 1056 2611 1069 2733 1318 2746 
L 1562 2758 
L 1562 2938 
C 1312 2925 1069 2918 819 2918 
C 570 2918 326 2925 77 2938 
L 77 2758 
z
" transform="scale(0.015625)"/>
       <path id="TeXGyrePagella-Regular-48" d="M 141 -19 
C 454 -6 762 0 1075 0 
C 1389 0 1702 -6 2016 -19 
L 2016 173 
L 1709 192 
C 1414 211 1382 262 1382 768 
L 1382 2195 
C 1555 2208 1658 2208 1914 2208 
L 3411 2208 
C 3667 2208 3770 2208 3942 2195 
L 3942 768 
C 3942 262 3910 211 3616 192 
L 3309 173 
L 3309 -19 
C 3622 -6 3930 0 4243 0 
C 4557 0 4870 -6 5184 -19 
L 5184 173 
L 4877 192 
C 4582 211 4550 262 4550 768 
L 4550 3642 
C 4550 4147 4582 4198 4877 4218 
L 5184 4237 
L 5184 4429 
C 4870 4416 4557 4410 4243 4410 
C 3930 4410 3622 4416 3309 4429 
L 3309 4237 
L 3616 4218 
C 3910 4198 3942 4147 3942 3642 
L 3942 2502 
C 3808 2496 3674 2490 3411 2490 
L 1914 2490 
C 1651 2490 1510 2496 1382 2502 
L 1382 3642 
C 1382 4147 1414 4198 1709 4218 
L 2016 4237 
L 2016 4429 
C 1702 4416 1389 4410 1075 4410 
C 762 4410 454 4416 141 4429 
L 141 4237 
L 448 4218 
C 742 4198 774 4147 774 3642 
L 774 768 
C 774 262 742 211 448 192 
L 141 173 
L 141 -19 
z
" transform="scale(0.015625)"/>
       <path id="TeXGyrePagella-Regular-7a" d="M 102 109 
L 141 -19 
C 467 -6 794 0 1120 0 
C 1709 0 2298 -6 2886 -19 
C 2886 128 2906 282 2944 589 
L 2982 890 
L 2790 890 
L 2675 384 
C 2650 269 2381 224 1766 224 
L 902 224 
L 2912 2765 
L 2912 2957 
C 2618 2944 2323 2938 2029 2938 
C 1498 2938 973 2944 442 2957 
C 429 2630 422 2554 384 2112 
L 576 2112 
L 653 2547 
C 678 2682 794 2714 1267 2714 
L 2182 2714 
C 2048 2502 1946 2355 1766 2138 
L 102 109 
z
" transform="scale(0.015625)"/>
      </defs>
      <use xlink:href="#TeXGyrePagella-Regular-46"/>
      <use xlink:href="#TeXGyrePagella-Regular-72" x="55.599991"/>
      <use xlink:href="#TeXGyrePagella-Regular-65" x="95.099976"/>
      <use xlink:href="#TeXGyrePagella-Regular-71" x="142.999969"/>
      <use xlink:href="#TeXGyrePagella-Regular-75" x="198.999954"/>
      <use xlink:href="#TeXGyrePagella-Regular-65" x="259.299942"/>
      <use xlink:href="#TeXGyrePagella-Regular-6e" x="307.199936"/>
      <use xlink:href="#TeXGyrePagella-Regular-63" x="365.399933"/>
      <use xlink:href="#TeXGyrePagella-Regular-79" x="409.799927"/>
      <use xlink:href="#TeXGyrePagella-Regular-20" x="465.399918"/>
      <use xlink:href="#TeXGyrePagella-Regular-5b" x="490.399902"/>
      <use xlink:href="#TeXGyrePagella-Regular-48" x="533.19989"/>
      <use xlink:href="#TeXGyrePagella-Regular-7a" x="616.399872"/>
      <use xlink:href="#TeXGyrePagella-Regular-5d" x="666.399857"/>
     </g>
    </g>
   </g>
   <g id="matplotlib.axis_4">
    <g id="ytick_10">
     <g id="line2d_21">
      <g>
       <use xlink:href="#m6ee27b319a" x="270.515644" y="175.872976" style="fill: #575757; stroke: #575757; stroke-width: 0.8"/>
      </g>
     </g>
     <g id="text_23">
      <!-- 0 -->
      <g style="fill: #575757" transform="translate(262.015644 179.502664) scale(0.1 -0.1)">
       <use xlink:href="#TeXGyrePagella-Regular-30"/>
      </g>
     </g>
    </g>
    <g id="ytick_11">
     <g id="line2d_22">
      <g>
       <use xlink:href="#m6ee27b319a" x="270.515644" y="142.024366" style="fill: #575757; stroke: #575757; stroke-width: 0.8"/>
      </g>
     </g>
     <g id="text_24">
      <!-- 1000 -->
      <g style="fill: #575757" transform="translate(247.015644 145.654054) scale(0.1 -0.1)">
       <use xlink:href="#TeXGyrePagella-Regular-31"/>
       <use xlink:href="#TeXGyrePagella-Regular-30" x="49.999985"/>
       <use xlink:href="#TeXGyrePagella-Regular-30" x="99.999969"/>
       <use xlink:href="#TeXGyrePagella-Regular-30" x="149.999954"/>
      </g>
     </g>
    </g>
    <g id="ytick_12">
     <g id="line2d_23">
      <g>
       <use xlink:href="#m6ee27b319a" x="270.515644" y="108.175757" style="fill: #575757; stroke: #575757; stroke-width: 0.8"/>
      </g>
     </g>
     <g id="text_25">
      <!-- 2000 -->
      <g style="fill: #575757" transform="translate(247.015644 111.805444) scale(0.1 -0.1)">
       <use xlink:href="#TeXGyrePagella-Regular-32"/>
       <use xlink:href="#TeXGyrePagella-Regular-30" x="49.999985"/>
       <use xlink:href="#TeXGyrePagella-Regular-30" x="99.999969"/>
       <use xlink:href="#TeXGyrePagella-Regular-30" x="149.999954"/>
      </g>
     </g>
    </g>
    <g id="ytick_13">
     <g id="line2d_24">
      <g>
       <use xlink:href="#m6ee27b319a" x="270.515644" y="74.327147" style="fill: #575757; stroke: #575757; stroke-width: 0.8"/>
      </g>
     </g>
     <g id="text_26">
      <!-- 3000 -->
      <g style="fill: #575757" transform="translate(247.015644 77.956834) scale(0.1 -0.1)">
       <use xlink:href="#TeXGyrePagella-Regular-33"/>
       <use xlink:href="#TeXGyrePagella-Regular-30" x="49.999985"/>
       <use xlink:href="#TeXGyrePagella-Regular-30" x="99.999969"/>
       <use xlink:href="#TeXGyrePagella-Regular-30" x="149.999954"/>
      </g>
     </g>
    </g>
    <g id="ytick_14">
     <g id="line2d_25">
      <g>
       <use xlink:href="#m6ee27b319a" x="270.515644" y="40.478537" style="fill: #575757; stroke: #575757; stroke-width: 0.8"/>
      </g>
     </g>
     <g id="text_27">
      <!-- 4000 -->
      <g style="fill: #575757" transform="translate(247.015644 44.108225) scale(0.1 -0.1)">
       <defs>
        <path id="TeXGyrePagella-Regular-34" d="M 13 1306 
L 83 1158 
L 1792 1158 
L 1792 678 
C 1792 294 1722 205 1408 192 
L 1011 173 
L 1011 -19 
C 1357 -6 1696 0 2042 0 
C 2368 0 2694 -6 3021 -19 
L 3021 173 
L 2714 192 
C 2400 211 2330 294 2330 678 
L 2330 1158 
C 2707 1158 2842 1152 3021 1133 
L 3021 1587 
C 3021 1587 2707 1568 2502 1568 
L 2330 1568 
L 2330 2458 
C 2330 3597 2342 4147 2374 4410 
L 2298 4442 
L 1824 4269 
L 13 1306 
z
M 416 1568 
L 1792 3821 
L 1792 1568 
L 416 1568 
z
" transform="scale(0.015625)"/>
       </defs>
       <use xlink:href="#TeXGyrePagella-Regular-34"/>
       <use xlink:href="#TeXGyrePagella-Regular-30" x="49.999985"/>
       <use xlink:href="#TeXGyrePagella-Regular-30" x="99.999969"/>
       <use xlink:href="#TeXGyrePagella-Regular-30" x="149.999954"/>
      </g>
     </g>
    </g>
    <g id="ytick_15">
     <g id="line2d_26">
      <g>
       <use xlink:href="#m6ee27b319a" x="270.515644" y="6.629928" style="fill: #575757; stroke: #575757; stroke-width: 0.8"/>
      </g>
     </g>
     <g id="text_28">
      <!-- 5000 -->
      <g style="fill: #575757" transform="translate(247.015644 10.259615) scale(0.1 -0.1)">
       <use xlink:href="#TeXGyrePagella-Regular-35"/>
       <use xlink:href="#TeXGyrePagella-Regular-30" x="49.999985"/>
       <use xlink:href="#TeXGyrePagella-Regular-30" x="99.999969"/>
       <use xlink:href="#TeXGyrePagella-Regular-30" x="149.999954"/>
      </g>
     </g>
    </g>
    <g id="text_29">
     <!-- |F(f)| -->
     <g style="fill: #575757" transform="translate(240.206269 102.335046) rotate(-90) scale(0.1 -0.1)">
      <defs>
       <path id="TeXGyrePagella-Regular-7c" d="M 512 -960 
C 563 -947 614 -941 666 -941 
C 717 -941 768 -947 819 -960 
L 819 4160 
C 768 4147 717 4141 666 4141 
C 614 4141 563 4147 512 4160 
L 512 -960 
z
" transform="scale(0.015625)"/>
      </defs>
      <use xlink:href="#TeXGyrePagella-Regular-7c"/>
      <use xlink:href="#TeXGyrePagella-Regular-46" x="20.799988"/>
      <use xlink:href="#TeXGyrePagella-Regular-28" x="76.399979"/>
      <use xlink:href="#TeXGyrePagella-Regular-66" x="121.999969"/>
      <use xlink:href="#TeXGyrePagella-Regular-29" x="155.299957"/>
      <use xlink:href="#TeXGyrePagella-Regular-7c" x="200.899948"/>
     </g>
    </g>
   </g>
   <g id="line2d_27">
    <path d="M 291.476717 175.849956 
L 352.51266 175.712873 
L 360.263257 175.543964 
L 363.16973 175.341906 
L 365.107379 174.983977 
L 366.076204 174.538736 
L 367.045028 173.217091 
L 368.013853 6.709675 
L 368.982677 173.113489 
L 369.951502 174.500129 
L 370.920326 174.957403 
L 372.857975 175.32149 
L 375.764449 175.525653 
L 382.54622 175.68422 
L 399.985061 175.78322 
L 444.550988 175.831897 
L 444.550988 175.831897 
" style="fill: none; stroke: #1f77b4; stroke-width: 1.5; stroke-linecap: square"/>
   </g>
   <g id="patch_6">
    <path d="M 270.515644 175.872976 
L 270.515644 6.629928 
" style="fill: none; stroke: #575757; stroke-width: 0.8; stroke-linejoin: miter; stroke-linecap: square"/>
   </g>
   <g id="patch_7">
    <path d="M 290.515644 195.872976 
L 445.543067 195.872976 
" style="fill: none; stroke: #575757; stroke-width: 0.8; stroke-linejoin: miter; stroke-linecap: square"/>
   </g>
  </g>
 </g>
</svg>
