<?xml version="1.0" encoding="utf-8" standalone="no"?>
<!DOCTYPE svg PUBLIC "-//W3C//DTD SVG 1.1//EN"
  "http://www.w3.org/Graphics/SVG/1.1/DTD/svg11.dtd">
<svg xmlns:xlink="http://www.w3.org/1999/xlink" width="453.543307pt" height="226.771654pt" viewBox="0 0 453.543307 226.771654" xmlns="http://www.w3.org/2000/svg" version="1.1">
 <metadata>
  <rdf:RDF xmlns:dc="http://purl.org/dc/elements/1.1/" xmlns:cc="http://creativecommons.org/ns#" xmlns:rdf="http://www.w3.org/1999/02/22-rdf-syntax-ns#">
   <cc:Work>
    <dc:type rdf:resource="http://purl.org/dc/dcmitype/StillImage"/>
    <dc:date>2023-09-18T15:40:53.178058</dc:date>
    <dc:format>image/svg+xml</dc:format>
    <dc:creator>
     <cc:Agent>
      <dc:title>Matplotlib v3.8.0, https://matplotlib.org/</dc:title>
     </cc:Agent>
    </dc:creator>
   </cc:Work>
  </rdf:RDF>
 </metadata>
 <defs>
  <style type="text/css">*{stroke-linejoin: round; stroke-linecap: butt}</style>
 </defs>
 <g id="figure_1">
  <g id="patch_1">
   <path d="M 0 226.771654 
L 453.543307 226.771654 
L 453.543307 0 
L 0 0 
z
" style="fill: #ffffff"/>
  </g>
  <g id="axes_1">
   <g id="patch_2">
    <path d="M 65.66899 175.872976 
L 223.196414 175.872976 
L 223.196414 6.629927 
L 65.66899 6.629927 
z
" style="fill: #ffffff"/>
   </g>
   <g id="matplotlib.axis_1">
    <g id="xtick_1">
     <g id="line2d_1">
      <defs>
       <path id="m086c65ba71" d="M 0 0 
L 0 -3.5 
" style="stroke: #575757; stroke-width: 0.8"/>
      </defs>
      <g>
       <use xlink:href="#m086c65ba71" x="65.66899" y="195.872976" style="fill: #575757; stroke: #575757; stroke-width: 0.8"/>
      </g>
     </g>
     <g id="text_1">
      <!-- −1.0 -->
      <g style="fill: #575757" transform="translate(55.61899 206.632351) scale(0.1 -0.1)">
       <defs>
        <path id="TeXGyrePagella-Regular-2212" d="M 512 1408 
L 4352 1408 
C 4339 1472 4333 1536 4333 1600 
C 4333 1664 4339 1728 4352 1792 
L 512 1792 
C 525 1728 531 1664 531 1600 
C 531 1536 525 1472 512 1408 
z
" transform="scale(0.015625)"/>
        <path id="TeXGyrePagella-Regular-31" d="M 384 3827 
L 429 3552 
L 493 3552 
L 1318 3923 
L 1338 3930 
C 1376 3930 1389 3872 1389 3718 
L 1389 614 
C 1389 282 1318 211 973 192 
L 614 173 
L 614 -19 
C 966 -6 1318 0 1670 0 
C 2003 0 2342 -6 2675 -19 
L 2675 173 
L 2342 192 
C 1990 211 1926 282 1926 614 
L 1926 4410 
L 1837 4442 
C 1421 4224 966 4032 384 3827 
z
" transform="scale(0.015625)"/>
        <path id="TeXGyrePagella-Regular-2e" d="M 429 339 
C 429 147 602 -32 787 -32 
C 992 -32 1171 141 1171 339 
C 1171 531 992 710 794 710 
C 602 710 429 531 429 339 
z
" transform="scale(0.015625)"/>
        <path id="TeXGyrePagella-Regular-30" d="M 186 2074 
C 186 1325 320 678 544 365 
C 768 51 1126 -128 1523 -128 
C 2490 -128 2976 704 2976 2342 
C 2976 3744 2560 4410 1683 4410 
C 691 4410 186 3622 186 2074 
z
M 723 2304 
C 723 3654 960 4186 1568 4186 
C 2189 4186 2438 3558 2438 2022 
C 2438 659 2195 96 1606 96 
C 986 96 723 742 723 2304 
z
" transform="scale(0.015625)"/>
       </defs>
       <use xlink:href="#TeXGyrePagella-Regular-2212"/>
       <use xlink:href="#TeXGyrePagella-Regular-31" x="75.999985"/>
       <use xlink:href="#TeXGyrePagella-Regular-2e" x="125.999969"/>
       <use xlink:href="#TeXGyrePagella-Regular-30" x="150.999954"/>
      </g>
     </g>
    </g>
    <g id="xtick_2">
     <g id="line2d_2">
      <g>
       <use xlink:href="#m086c65ba71" x="105.050846" y="195.872976" style="fill: #575757; stroke: #575757; stroke-width: 0.8"/>
      </g>
     </g>
     <g id="text_2">
      <!-- −0.5 -->
      <g style="fill: #575757" transform="translate(95.000846 206.632351) scale(0.1 -0.1)">
       <defs>
        <path id="TeXGyrePagella-Regular-35" d="M 83 877 
C 230 512 307 307 397 26 
C 576 -70 832 -128 1107 -128 
C 1536 -128 1990 58 2342 365 
C 2733 710 2938 1146 2938 1619 
C 2938 2342 2419 2854 1690 2854 
C 1382 2854 1152 2771 755 2534 
L 813 3872 
L 2765 3840 
L 2797 3872 
C 2784 3987 2784 4026 2784 4122 
C 2784 4224 2784 4262 2797 4378 
C 2797 4378 2765 4410 2765 4410 
C 2765 4410 2086 4378 1651 4378 
C 1216 4378 538 4410 538 4410 
C 538 4410 506 4378 506 4378 
L 518 3501 
C 518 2938 499 2342 480 2061 
L 608 2022 
C 909 2323 1082 2413 1395 2413 
C 2010 2413 2394 1978 2394 1286 
C 2394 576 1984 160 1286 160 
C 941 160 621 275 531 442 
L 237 966 
L 83 877 
z
" transform="scale(0.015625)"/>
       </defs>
       <use xlink:href="#TeXGyrePagella-Regular-2212"/>
       <use xlink:href="#TeXGyrePagella-Regular-30" x="75.999985"/>
       <use xlink:href="#TeXGyrePagella-Regular-2e" x="125.999969"/>
       <use xlink:href="#TeXGyrePagella-Regular-35" x="150.999954"/>
      </g>
     </g>
    </g>
    <g id="xtick_3">
     <g id="line2d_3">
      <g>
       <use xlink:href="#m086c65ba71" x="144.432702" y="195.872976" style="fill: #575757; stroke: #575757; stroke-width: 0.8"/>
      </g>
     </g>
     <g id="text_3">
      <!-- 0.0 -->
      <g style="fill: #575757" transform="translate(138.182702 206.632351) scale(0.1 -0.1)">
       <use xlink:href="#TeXGyrePagella-Regular-30"/>
       <use xlink:href="#TeXGyrePagella-Regular-2e" x="49.999985"/>
       <use xlink:href="#TeXGyrePagella-Regular-30" x="74.999969"/>
      </g>
     </g>
    </g>
    <g id="xtick_4">
     <g id="line2d_4">
      <g>
       <use xlink:href="#m086c65ba71" x="183.814558" y="195.872976" style="fill: #575757; stroke: #575757; stroke-width: 0.8"/>
      </g>
     </g>
     <g id="text_4">
      <!-- 0.5 -->
      <g style="fill: #575757" transform="translate(177.564558 206.632351) scale(0.1 -0.1)">
       <use xlink:href="#TeXGyrePagella-Regular-30"/>
       <use xlink:href="#TeXGyrePagella-Regular-2e" x="49.999985"/>
       <use xlink:href="#TeXGyrePagella-Regular-35" x="74.999969"/>
      </g>
     </g>
    </g>
    <g id="xtick_5">
     <g id="line2d_5">
      <g>
       <use xlink:href="#m086c65ba71" x="223.196414" y="195.872976" style="fill: #575757; stroke: #575757; stroke-width: 0.8"/>
      </g>
     </g>
     <g id="text_5">
      <!-- 1.0 -->
      <g style="fill: #575757" transform="translate(216.946414 206.632351) scale(0.1 -0.1)">
       <use xlink:href="#TeXGyrePagella-Regular-31"/>
       <use xlink:href="#TeXGyrePagella-Regular-2e" x="49.999985"/>
       <use xlink:href="#TeXGyrePagella-Regular-30" x="74.999969"/>
      </g>
     </g>
    </g>
    <g id="text_6">
     <!-- Time [s] -->
     <g style="fill: #575757" transform="translate(125.472546 220.701101) scale(0.1 -0.1)">
      <defs>
       <path id="TeXGyrePagella-Regular-54" d="M 115 4429 
C 147 4064 160 3814 160 3398 
L 358 3398 
L 384 3904 
C 390 4058 461 4115 640 4115 
L 1632 4115 
C 1651 3898 1658 3750 1658 3475 
L 1658 768 
C 1658 262 1626 211 1331 192 
L 1024 173 
L 1024 -19 
C 1338 -6 1645 0 1958 0 
C 2272 0 2586 -6 2899 -19 
L 2899 173 
L 2592 192 
C 2298 211 2266 262 2266 768 
L 2266 3475 
C 2266 3763 2272 3904 2291 4115 
L 3283 4115 
C 3462 4115 3533 4058 3539 3904 
L 3565 3398 
L 3763 3398 
C 3763 3814 3776 4064 3808 4429 
L 2426 4410 
L 1414 4410 
L 115 4429 
z
" transform="scale(0.015625)"/>
       <path id="TeXGyrePagella-Regular-69" d="M 134 -19 
C 403 -6 666 0 934 0 
C 1203 0 1466 -6 1734 -19 
L 1734 173 
L 1440 192 
C 1222 205 1203 250 1203 653 
L 1203 2976 
L 1146 3002 
C 819 2867 486 2778 147 2739 
L 147 2560 
L 384 2560 
C 640 2560 666 2515 666 2093 
L 666 653 
C 666 250 646 205 429 192 
L 134 173 
L 134 -19 
z
M 614 3789 
C 614 3597 742 3469 934 3469 
C 1126 3469 1254 3597 1254 3789 
C 1254 3974 1126 4109 941 4109 
C 742 4109 614 3981 614 3789 
z
" transform="scale(0.015625)"/>
       <path id="TeXGyrePagella-Regular-6d" d="M 102 -19 
C 371 -6 646 0 915 0 
C 1171 0 1421 -6 1677 -19 
L 1677 173 
L 1408 192 
C 1190 205 1171 250 1171 653 
L 1171 2010 
C 1171 2298 1594 2611 1978 2611 
C 2323 2611 2560 2285 2560 1798 
L 2560 653 
C 2560 250 2541 205 2323 192 
L 2029 173 
L 2029 -19 
C 2298 -6 2560 0 2829 0 
C 3098 0 3360 -6 3629 -19 
L 3629 173 
L 3334 192 
C 3117 205 3098 250 3098 653 
L 3098 2010 
C 3098 2298 3520 2611 3904 2611 
C 4250 2611 4486 2285 4486 1798 
L 4486 -19 
C 4653 -6 4826 0 4992 0 
C 5184 0 5370 -6 5562 -19 
L 5562 173 
L 5261 192 
C 5043 205 5024 250 5024 653 
L 5024 1971 
C 5024 2605 4653 3002 4064 3002 
C 3840 3002 3654 2944 3539 2842 
L 3053 2406 
C 2848 2829 2586 3002 2144 3002 
C 1907 3002 1728 2944 1613 2842 
L 1171 2432 
L 1171 2976 
L 1114 3002 
C 787 2867 454 2778 115 2739 
L 115 2560 
L 352 2560 
C 608 2560 634 2515 634 2093 
L 634 653 
C 634 250 614 205 397 192 
L 102 173 
L 102 -19 
z
" transform="scale(0.015625)"/>
       <path id="TeXGyrePagella-Regular-65" d="M 166 1402 
C 166 998 256 653 435 410 
C 685 70 1120 -128 1600 -128 
C 1837 -128 2074 -77 2336 38 
C 2509 109 2643 192 2669 230 
L 2797 448 
L 2714 512 
C 2304 269 2157 211 1882 211 
C 1466 211 1120 397 941 710 
C 819 922 774 1101 762 1472 
L 1696 1472 
C 2138 1472 2413 1491 2854 1562 
C 2861 1651 2867 1709 2867 1786 
C 2867 2522 2394 3002 1677 3002 
C 1440 3002 1165 2918 902 2765 
C 378 2464 166 2067 166 1402 
z
M 774 1728 
C 774 2029 800 2170 883 2336 
C 1018 2618 1293 2790 1600 2790 
C 1811 2790 1978 2707 2093 2534 
C 2234 2323 2298 2138 2298 1709 
L 1581 1690 
C 1286 1690 1120 1696 774 1728 
z
" transform="scale(0.015625)"/>
       <path id="TeXGyrePagella-Regular-20" transform="scale(0.015625)"/>
       <path id="TeXGyrePagella-Regular-5b" d="M 794 -1600 
L 2214 -1600 
C 2202 -1562 2195 -1517 2195 -1472 
C 2195 -1427 2202 -1382 2214 -1344 
L 1203 -1344 
L 1203 4544 
L 2214 4544 
C 2202 4582 2195 4627 2195 4672 
C 2195 4717 2202 4762 2214 4800 
L 794 4800 
L 794 -1600 
z
" transform="scale(0.015625)"/>
       <path id="TeXGyrePagella-Regular-73" d="M 192 26 
C 525 -83 774 -128 1069 -128 
C 1907 -128 2502 320 2502 947 
C 2502 1146 2451 1293 2323 1421 
C 2157 1587 1946 1658 1382 1766 
C 858 1869 685 1997 685 2291 
C 685 2611 909 2790 1299 2790 
C 1728 2790 2054 2566 2054 2266 
L 2054 2118 
L 2234 2118 
C 2240 2490 2246 2643 2266 2842 
C 1926 2957 1696 3002 1434 3002 
C 691 3002 237 2650 237 2074 
C 237 1766 378 1549 672 1414 
C 845 1338 1184 1235 1619 1139 
C 1907 1075 2029 941 2029 698 
C 2029 352 1709 109 1254 109 
C 787 109 454 333 454 653 
L 454 915 
L 262 915 
C 262 474 243 282 192 26 
z
" transform="scale(0.015625)"/>
       <path id="TeXGyrePagella-Regular-5d" d="M 525 -1344 
C 538 -1382 544 -1427 544 -1472 
C 544 -1517 538 -1562 525 -1600 
L 1946 -1600 
L 1946 4800 
L 525 4800 
C 538 4762 544 4717 544 4672 
C 544 4627 538 4582 525 4544 
L 1536 4544 
L 1536 -1344 
L 525 -1344 
z
" transform="scale(0.015625)"/>
      </defs>
      <use xlink:href="#TeXGyrePagella-Regular-54"/>
      <use xlink:href="#TeXGyrePagella-Regular-69" x="61.299988"/>
      <use xlink:href="#TeXGyrePagella-Regular-6d" x="89.999985"/>
      <use xlink:href="#TeXGyrePagella-Regular-65" x="178.299973"/>
      <use xlink:href="#TeXGyrePagella-Regular-20" x="226.199966"/>
      <use xlink:href="#TeXGyrePagella-Regular-5b" x="251.199951"/>
      <use xlink:href="#TeXGyrePagella-Regular-73" x="293.999939"/>
      <use xlink:href="#TeXGyrePagella-Regular-5d" x="336.399933"/>
     </g>
    </g>
   </g>
   <g id="matplotlib.axis_2">
    <g id="ytick_1">
     <g id="line2d_6">
      <defs>
       <path id="mdb08e847d2" d="M 0 0 
L 3.5 0 
" style="stroke: #575757; stroke-width: 0.8"/>
      </defs>
      <g>
       <use xlink:href="#mdb08e847d2" x="45.66899" y="175.872976" style="fill: #575757; stroke: #575757; stroke-width: 0.8"/>
      </g>
     </g>
     <g id="text_7">
      <!-- −1.00 -->
      <g style="fill: #575757" transform="translate(17.06899 179.502664) scale(0.1 -0.1)">
       <use xlink:href="#TeXGyrePagella-Regular-2212"/>
       <use xlink:href="#TeXGyrePagella-Regular-31" x="75.999985"/>
       <use xlink:href="#TeXGyrePagella-Regular-2e" x="125.999969"/>
       <use xlink:href="#TeXGyrePagella-Regular-30" x="150.999954"/>
       <use xlink:href="#TeXGyrePagella-Regular-30" x="200.999939"/>
      </g>
     </g>
    </g>
    <g id="ytick_2">
     <g id="line2d_7">
      <g>
       <use xlink:href="#mdb08e847d2" x="45.66899" y="154.717595" style="fill: #575757; stroke: #575757; stroke-width: 0.8"/>
      </g>
     </g>
     <g id="text_8">
      <!-- −0.75 -->
      <g style="fill: #575757" transform="translate(17.06899 158.347282) scale(0.1 -0.1)">
       <defs>
        <path id="TeXGyrePagella-Regular-37" d="M 282 3053 
L 474 3053 
L 518 3411 
C 570 3808 614 3859 909 3859 
L 2618 3859 
C 2362 3334 2163 2963 1920 2573 
L 358 64 
L 416 -19 
C 416 -19 595 0 710 0 
C 826 0 1005 -19 1005 -19 
C 1274 678 1440 1094 2010 2112 
L 3181 4218 
L 3181 4410 
C 2490 4384 2432 4378 1747 4378 
C 1075 4378 966 4384 346 4410 
L 282 4378 
C 282 4378 301 3968 301 3706 
C 301 3450 282 3053 282 3053 
z
" transform="scale(0.015625)"/>
       </defs>
       <use xlink:href="#TeXGyrePagella-Regular-2212"/>
       <use xlink:href="#TeXGyrePagella-Regular-30" x="75.999985"/>
       <use xlink:href="#TeXGyrePagella-Regular-2e" x="125.999969"/>
       <use xlink:href="#TeXGyrePagella-Regular-37" x="150.999954"/>
       <use xlink:href="#TeXGyrePagella-Regular-35" x="200.999939"/>
      </g>
     </g>
    </g>
    <g id="ytick_3">
     <g id="line2d_8">
      <g>
       <use xlink:href="#mdb08e847d2" x="45.66899" y="133.562214" style="fill: #575757; stroke: #575757; stroke-width: 0.8"/>
      </g>
     </g>
     <g id="text_9">
      <!-- −0.50 -->
      <g style="fill: #575757" transform="translate(17.06899 137.191901) scale(0.1 -0.1)">
       <use xlink:href="#TeXGyrePagella-Regular-2212"/>
       <use xlink:href="#TeXGyrePagella-Regular-30" x="75.999985"/>
       <use xlink:href="#TeXGyrePagella-Regular-2e" x="125.999969"/>
       <use xlink:href="#TeXGyrePagella-Regular-35" x="150.999954"/>
       <use xlink:href="#TeXGyrePagella-Regular-30" x="200.999939"/>
      </g>
     </g>
    </g>
    <g id="ytick_4">
     <g id="line2d_9">
      <g>
       <use xlink:href="#mdb08e847d2" x="45.66899" y="112.406833" style="fill: #575757; stroke: #575757; stroke-width: 0.8"/>
      </g>
     </g>
     <g id="text_10">
      <!-- −0.25 -->
      <g style="fill: #575757" transform="translate(17.06899 116.03652) scale(0.1 -0.1)">
       <defs>
        <path id="TeXGyrePagella-Regular-32" d="M 102 -19 
C 576 -6 1056 0 1530 0 
C 2016 0 2509 -6 2995 -19 
C 2982 115 2982 179 2982 269 
C 2982 352 2982 416 2995 557 
L 781 493 
L 1946 1728 
C 2566 2387 2758 2739 2758 3219 
C 2758 3955 2259 4410 1446 4410 
C 986 4410 672 4282 358 3962 
L 250 3091 
L 435 3091 
L 518 3386 
C 621 3757 851 3917 1280 3917 
C 1830 3917 2182 3571 2182 3027 
C 2182 2547 1914 2074 1190 1306 
L 102 147 
L 102 -19 
z
" transform="scale(0.015625)"/>
       </defs>
       <use xlink:href="#TeXGyrePagella-Regular-2212"/>
       <use xlink:href="#TeXGyrePagella-Regular-30" x="75.999985"/>
       <use xlink:href="#TeXGyrePagella-Regular-2e" x="125.999969"/>
       <use xlink:href="#TeXGyrePagella-Regular-32" x="150.999954"/>
       <use xlink:href="#TeXGyrePagella-Regular-35" x="200.999939"/>
      </g>
     </g>
    </g>
    <g id="ytick_5">
     <g id="line2d_10">
      <g>
       <use xlink:href="#mdb08e847d2" x="45.66899" y="91.251452" style="fill: #575757; stroke: #575757; stroke-width: 0.8"/>
      </g>
     </g>
     <g id="text_11">
      <!-- 0.00 -->
      <g style="fill: #575757" transform="translate(24.66899 94.881139) scale(0.1 -0.1)">
       <use xlink:href="#TeXGyrePagella-Regular-30"/>
       <use xlink:href="#TeXGyrePagella-Regular-2e" x="49.999985"/>
       <use xlink:href="#TeXGyrePagella-Regular-30" x="74.999969"/>
       <use xlink:href="#TeXGyrePagella-Regular-30" x="124.999954"/>
      </g>
     </g>
    </g>
    <g id="ytick_6">
     <g id="line2d_11">
      <g>
       <use xlink:href="#mdb08e847d2" x="45.66899" y="70.096071" style="fill: #575757; stroke: #575757; stroke-width: 0.8"/>
      </g>
     </g>
     <g id="text_12">
      <!-- 0.25 -->
      <g style="fill: #575757" transform="translate(24.66899 73.725758) scale(0.1 -0.1)">
       <use xlink:href="#TeXGyrePagella-Regular-30"/>
       <use xlink:href="#TeXGyrePagella-Regular-2e" x="49.999985"/>
       <use xlink:href="#TeXGyrePagella-Regular-32" x="74.999969"/>
       <use xlink:href="#TeXGyrePagella-Regular-35" x="124.999954"/>
      </g>
     </g>
    </g>
    <g id="ytick_7">
     <g id="line2d_12">
      <g>
       <use xlink:href="#mdb08e847d2" x="45.66899" y="48.94069" style="fill: #575757; stroke: #575757; stroke-width: 0.8"/>
      </g>
     </g>
     <g id="text_13">
      <!-- 0.50 -->
      <g style="fill: #575757" transform="translate(24.66899 52.570377) scale(0.1 -0.1)">
       <use xlink:href="#TeXGyrePagella-Regular-30"/>
       <use xlink:href="#TeXGyrePagella-Regular-2e" x="49.999985"/>
       <use xlink:href="#TeXGyrePagella-Regular-35" x="74.999969"/>
       <use xlink:href="#TeXGyrePagella-Regular-30" x="124.999954"/>
      </g>
     </g>
    </g>
    <g id="ytick_8">
     <g id="line2d_13">
      <g>
       <use xlink:href="#mdb08e847d2" x="45.66899" y="27.785309" style="fill: #575757; stroke: #575757; stroke-width: 0.8"/>
      </g>
     </g>
     <g id="text_14">
      <!-- 0.75 -->
      <g style="fill: #575757" transform="translate(24.66899 31.414996) scale(0.1 -0.1)">
       <use xlink:href="#TeXGyrePagella-Regular-30"/>
       <use xlink:href="#TeXGyrePagella-Regular-2e" x="49.999985"/>
       <use xlink:href="#TeXGyrePagella-Regular-37" x="74.999969"/>
       <use xlink:href="#TeXGyrePagella-Regular-35" x="124.999954"/>
      </g>
     </g>
    </g>
    <g id="ytick_9">
     <g id="line2d_14">
      <g>
       <use xlink:href="#mdb08e847d2" x="45.66899" y="6.629927" style="fill: #575757; stroke: #575757; stroke-width: 0.8"/>
      </g>
     </g>
     <g id="text_15">
      <!-- 1.00 -->
      <g style="fill: #575757" transform="translate(24.66899 10.259615) scale(0.1 -0.1)">
       <use xlink:href="#TeXGyrePagella-Regular-31"/>
       <use xlink:href="#TeXGyrePagella-Regular-2e" x="49.999985"/>
       <use xlink:href="#TeXGyrePagella-Regular-30" x="74.999969"/>
       <use xlink:href="#TeXGyrePagella-Regular-30" x="124.999954"/>
      </g>
     </g>
    </g>
    <g id="text_16">
     <!-- f(t) = sin(2πft)·rect(t) -->
     <g style="fill: #575757" transform="translate(10.259615 141.588952) rotate(-90) scale(0.1 -0.1)">
      <defs>
       <path id="TeXGyrePagella-Regular-66" d="M 147 -19 
C 416 -6 678 0 947 0 
C 1216 0 1478 -6 1747 -19 
L 1747 173 
L 1453 192 
C 1235 205 1216 250 1216 653 
L 1216 2464 
L 2010 2464 
L 2054 2803 
C 1773 2784 1498 2778 1216 2778 
L 1216 3322 
C 1216 4058 1299 4237 1664 4237 
C 1837 4237 1952 4192 2106 4058 
L 2182 4096 
L 2182 4589 
C 2048 4640 1971 4659 1888 4659 
C 1683 4659 1459 4550 1318 4390 
L 947 3968 
C 762 3757 678 3469 678 3046 
L 678 2778 
L 237 2579 
L 237 2438 
L 678 2464 
L 678 653 
C 678 250 659 205 442 192 
L 147 173 
L 147 -19 
z
" transform="scale(0.015625)"/>
       <path id="TeXGyrePagella-Regular-28" d="M 794 1344 
C 794 320 1331 -678 2214 -1562 
C 2234 -1523 2259 -1491 2291 -1459 
C 2323 -1427 2355 -1402 2394 -1382 
C 1581 -570 1203 403 1203 1344 
L 1203 1856 
C 1203 2797 1581 3770 2394 4582 
C 2355 4602 2323 4627 2291 4659 
C 2259 4691 2234 4723 2214 4762 
C 1331 3878 794 2880 794 1856 
L 794 1344 
z
" transform="scale(0.015625)"/>
       <path id="TeXGyrePagella-Regular-74" d="M 141 2419 
L 627 2445 
L 627 602 
C 627 128 838 -77 1331 -77 
C 1478 -77 1632 -45 1670 0 
L 1978 339 
L 1894 448 
C 1734 358 1638 326 1517 326 
C 1267 326 1165 454 1165 768 
L 1165 2445 
L 1984 2445 
L 2042 2790 
L 1165 2752 
L 1165 2995 
C 1165 3264 1184 3494 1235 3904 
L 1158 3974 
C 1005 3878 813 3795 614 3731 
C 634 3539 640 3418 640 3226 
L 640 2778 
L 141 2554 
L 141 2419 
z
" transform="scale(0.015625)"/>
       <path id="TeXGyrePagella-Regular-29" d="M 525 -1382 
C 563 -1402 595 -1427 627 -1459 
C 659 -1491 685 -1523 704 -1562 
C 1587 -678 2125 320 2125 1344 
L 2125 1856 
C 2125 2880 1587 3878 704 4762 
C 685 4723 659 4691 627 4659 
C 595 4627 563 4602 525 4582 
C 1338 3770 1715 2797 1715 1856 
L 1715 1344 
C 1715 403 1338 -570 525 -1382 
z
" transform="scale(0.015625)"/>
       <path id="TeXGyrePagella-Regular-3d" d="M 512 704 
L 4352 704 
C 4339 768 4333 832 4333 896 
C 4333 960 4339 1024 4352 1088 
L 512 1088 
C 525 1024 531 960 531 896 
C 531 832 525 768 512 704 
z
M 512 2112 
L 4352 2112 
C 4339 2176 4333 2240 4333 2304 
C 4333 2368 4339 2432 4352 2496 
L 512 2496 
C 525 2432 531 2368 531 2304 
C 531 2240 525 2176 512 2112 
z
" transform="scale(0.015625)"/>
       <path id="TeXGyrePagella-Regular-6e" d="M 38 -19 
C 301 -6 570 0 832 0 
C 1094 0 1363 -6 1626 -19 
L 1626 173 
L 1338 192 
C 1120 205 1101 250 1101 653 
L 1101 2010 
C 1101 2298 1523 2611 1914 2611 
C 2342 2611 2624 2291 2624 1798 
L 2624 -19 
C 2790 -6 2963 0 3130 0 
C 3309 0 3482 -6 3661 -19 
L 3661 173 
L 3398 192 
C 3181 205 3162 243 3162 653 
L 3162 1888 
C 3162 2637 2810 3002 2093 3002 
C 1856 3002 1722 2957 1587 2842 
L 1101 2419 
L 1101 2976 
L 1043 3002 
C 717 2867 384 2778 45 2739 
L 45 2560 
L 282 2560 
C 538 2560 563 2515 563 2093 
L 563 653 
C 563 250 544 205 326 192 
L 38 173 
L 38 -19 
z
" transform="scale(0.015625)"/>
       <path id="TeXGyrePagella-Regular-3c0" d="M 307 2310 
L 410 2259 
L 461 2304 
C 525 2688 787 2707 1171 2707 
C 1248 2707 1370 2701 1510 2701 
C 1261 1242 1094 800 723 -13 
L 800 -70 
L 1254 96 
C 1389 595 1600 1568 1734 2694 
L 2989 2650 
C 2957 2253 2816 1094 2906 685 
C 3046 13 3322 -70 3526 -70 
C 3872 -70 4045 13 4403 352 
L 4320 474 
L 4179 365 
C 4192 378 4032 230 3917 230 
C 3603 230 3469 416 3386 813 
C 3354 973 3328 1146 3328 1331 
L 3341 2650 
C 3494 2650 3648 2656 3795 2675 
C 3917 2675 4051 2739 4147 2778 
C 4198 2912 4224 2925 4320 3078 
L 4256 3155 
C 4083 3098 3795 3034 3578 3034 
C 3494 3027 3328 3021 3162 3021 
L 1030 3078 
C 525 3078 384 2867 307 2310 
z
" transform="scale(0.015625)"/>
       <path id="TeXGyrePagella-Regular-b7" d="M 512 1600 
C 512 1370 666 1216 896 1216 
C 1126 1216 1280 1370 1280 1600 
C 1280 1830 1126 1984 896 1984 
C 666 1984 512 1830 512 1600 
z
" transform="scale(0.015625)"/>
       <path id="TeXGyrePagella-Regular-72" d="M 134 -19 
C 397 -6 659 0 922 0 
C 1229 0 1530 -6 1837 -19 
L 1837 173 
L 1504 192 
C 1216 211 1203 230 1203 653 
L 1203 1754 
C 1203 2138 1459 2458 1773 2458 
C 1965 2458 2099 2368 2202 2163 
L 2336 2163 
L 2394 2931 
C 2323 2976 2208 3002 2093 3002 
C 1901 3002 1696 2899 1562 2739 
L 1203 2317 
L 1203 2976 
L 1146 3002 
C 819 2867 486 2778 147 2739 
L 147 2560 
L 384 2560 
C 640 2560 666 2515 666 2093 
L 666 653 
C 666 250 646 205 429 192 
L 134 173 
L 134 -19 
z
" transform="scale(0.015625)"/>
       <path id="TeXGyrePagella-Regular-63" d="M 166 1344 
C 166 480 774 -128 1632 -128 
C 1965 -128 2445 -6 2509 90 
L 2643 294 
L 2579 390 
C 2342 262 2138 205 1907 205 
C 1197 205 730 755 730 1600 
C 730 2285 1050 2669 1626 2669 
C 1907 2669 2214 2541 2330 2381 
L 2374 1990 
L 2554 1990 
C 2554 2285 2586 2547 2643 2778 
C 2387 2931 2163 3002 1901 3002 
C 1594 3002 1235 2880 851 2637 
C 403 2355 166 1907 166 1344 
z
" transform="scale(0.015625)"/>
      </defs>
      <use xlink:href="#TeXGyrePagella-Regular-66"/>
      <use xlink:href="#TeXGyrePagella-Regular-28" x="33.299988"/>
      <use xlink:href="#TeXGyrePagella-Regular-74" x="78.899979"/>
      <use xlink:href="#TeXGyrePagella-Regular-29" x="111.499969"/>
      <use xlink:href="#TeXGyrePagella-Regular-20" x="157.09996"/>
      <use xlink:href="#TeXGyrePagella-Regular-3d" x="182.099945"/>
      <use xlink:href="#TeXGyrePagella-Regular-20" x="258.09993"/>
      <use xlink:href="#TeXGyrePagella-Regular-73" x="283.099915"/>
      <use xlink:href="#TeXGyrePagella-Regular-69" x="325.499908"/>
      <use xlink:href="#TeXGyrePagella-Regular-6e" x="354.199905"/>
      <use xlink:href="#TeXGyrePagella-Regular-28" x="412.399902"/>
      <use xlink:href="#TeXGyrePagella-Regular-32" x="457.999893"/>
      <use xlink:href="#TeXGyrePagella-Regular-3c0" x="507.999878"/>
      <use xlink:href="#TeXGyrePagella-Regular-66" x="579.099869"/>
      <use xlink:href="#TeXGyrePagella-Regular-74" x="612.399857"/>
      <use xlink:href="#TeXGyrePagella-Regular-29" x="644.999847"/>
      <use xlink:href="#TeXGyrePagella-Regular-b7" x="690.599838"/>
      <use xlink:href="#TeXGyrePagella-Regular-72" x="718.599823"/>
      <use xlink:href="#TeXGyrePagella-Regular-65" x="758.099808"/>
      <use xlink:href="#TeXGyrePagella-Regular-63" x="805.999802"/>
      <use xlink:href="#TeXGyrePagella-Regular-74" x="850.399796"/>
      <use xlink:href="#TeXGyrePagella-Regular-28" x="882.999786"/>
      <use xlink:href="#TeXGyrePagella-Regular-74" x="928.599777"/>
      <use xlink:href="#TeXGyrePagella-Regular-29" x="961.199768"/>
     </g>
    </g>
   </g>
   <g id="line2d_15">
    <path d="M 65.692621 91.251452 
L 105.015399 91.251452 
L 105.141433 79.06383 
L 105.708589 17.874184 
L 105.960658 7.23075 
L 106.023675 6.644714 
L 106.086692 6.913204 
L 106.212727 9.994314 
L 106.464796 25.723899 
L 106.8429 67.666034 
L 107.662124 163.56003 
L 107.914193 174.99645 
L 107.97721 175.792869 
L 108.040228 175.735422 
L 108.166262 173.069866 
L 108.355314 162.959573 
L 108.6704 132.440619 
L 109.741694 12.355252 
L 109.930746 6.827437 
L 109.993763 6.673806 
L 110.119798 8.922166 
L 110.308849 18.450311 
L 110.623936 48.240372 
L 111.758247 172.236193 
L 111.947298 175.870669 
L 112.073333 174.04089 
L 112.262385 165.100763 
L 112.577471 136.057946 
L 113.711782 10.900734 
L 113.900834 6.642793 
L 113.963851 6.921965 
L 114.089886 10.024068 
L 114.341955 25.791243 
L 114.720058 67.768187 
L 115.539283 163.615217 
L 115.791352 175.011651 
L 115.854369 175.797429 
L 115.917387 175.729294 
L 116.043421 173.042655 
L 116.232473 162.903049 
L 116.547559 132.347686 
L 117.618853 12.316861 
L 117.807905 6.820241 
L 117.870922 6.677297 
L 117.996957 8.946817 
L 118.186008 18.504581 
L 118.501095 48.331994 
L 119.635406 172.266971 
L 119.824457 175.869817 
L 119.950492 174.018814 
L 120.139544 165.048779 
L 120.45463 135.967693 
L 121.588941 10.867439 
L 121.777993 6.641005 
L 121.84101 6.93086 
L 121.967045 10.05395 
L 122.219114 25.85869 
L 122.597217 67.870378 
L 123.416442 163.67029 
L 123.668511 175.02672 
L 123.731528 175.801855 
L 123.794545 175.723033 
L 123.92058 173.015316 
L 124.109632 162.846413 
L 124.424718 132.254688 
L 125.496012 12.278595 
L 125.685064 6.813179 
L 125.748081 6.680921 
L 125.874115 8.971597 
L 126.063167 18.558967 
L 126.378254 48.423683 
L 127.512564 172.297622 
L 127.701616 175.868832 
L 127.827651 173.996608 
L 128.016703 164.996679 
L 128.331789 135.87737 
L 129.4661 10.83427 
L 129.655152 6.639351 
L 129.718169 6.939887 
L 129.844204 10.08396 
L 130.096273 25.92624 
L 130.474376 67.972606 
L 131.293601 163.725248 
L 131.54567 175.041656 
L 131.608687 175.806148 
L 131.671704 175.716638 
L 131.797739 172.987847 
L 131.986791 162.789663 
L 132.301877 132.161625 
L 133.373171 12.240453 
L 133.562222 6.806251 
L 133.62524 6.68468 
L 133.751274 8.996508 
L 133.940326 18.613467 
L 134.255412 48.515439 
L 135.389723 172.328145 
L 135.578775 175.867712 
L 135.70481 173.974272 
L 135.893862 164.944462 
L 136.208948 135.786976 
L 137.343259 10.801229 
L 137.532311 6.637831 
L 137.595328 6.949048 
L 137.721362 10.114098 
L 137.973431 25.993894 
L 138.351535 68.07487 
L 139.17076 163.780093 
L 139.422829 175.056461 
L 139.485846 175.810307 
L 139.548863 175.710109 
L 139.674898 172.960249 
L 139.86395 162.7328 
L 140.179036 132.068498 
L 141.25033 12.202436 
L 141.439381 6.799456 
L 141.502399 6.688572 
L 141.628433 9.021548 
L 141.817485 18.668082 
L 142.132571 48.607263 
L 143.266882 172.358539 
L 143.455934 175.866459 
L 143.581969 173.951804 
L 143.77102 164.892129 
L 144.086107 135.696512 
L 145.220418 10.768314 
L 145.409469 6.636444 
L 145.472487 6.958342 
L 145.598521 10.144364 
L 145.85059 26.06165 
L 146.228694 68.177171 
L 147.047919 163.834822 
L 147.299988 175.071133 
L 147.363005 175.814332 
L 147.426022 175.703448 
L 147.552057 172.932522 
L 147.741109 162.675824 
L 148.056195 131.975306 
L 149.127488 12.164544 
L 149.31654 6.792794 
L 149.379558 6.692597 
L 149.505592 9.046718 
L 149.694644 18.722811 
L 150.00973 48.699155 
L 151.144041 172.388806 
L 151.333093 175.865073 
L 151.459128 173.929206 
L 151.648179 164.839679 
L 151.963266 135.605977 
L 153.097577 10.735527 
L 153.286628 6.635191 
L 153.349646 6.967769 
L 153.47568 10.174759 
L 153.727749 26.12951 
L 154.105853 68.279508 
L 154.925077 163.889437 
L 155.177147 175.085672 
L 155.240164 175.818224 
L 155.303181 175.696653 
L 155.429216 172.904666 
L 155.681285 157.694438 
L 156.059388 116.237634 
L 156.878613 19.713241 
L 157.130682 7.728873 
L 157.256716 6.696756 
L 157.382751 9.072018 
L 157.571803 18.777655 
L 157.886889 48.791114 
L 159.0212 172.418944 
L 159.210252 175.863552 
L 159.336286 173.906478 
L 159.525338 164.787114 
L 159.840425 135.515372 
L 160.974735 10.702866 
L 161.163787 6.634072 
L 161.226805 6.977329 
L 161.352839 10.205282 
L 161.604908 26.197472 
L 162.046029 76.674918 
L 162.802236 163.943937 
L 163.054305 175.100079 
L 163.117323 175.821982 
L 163.18034 175.689724 
L 163.306374 172.876682 
L 163.558444 157.628527 
L 163.936547 116.136006 
L 164.755772 19.656491 
L 165.007841 7.711855 
L 165.133875 6.701048 
L 165.25991 9.097448 
L 165.448962 18.832614 
L 165.764048 48.88314 
L 166.898359 172.448954 
L 167.087411 175.861899 
L 167.213445 173.883619 
L 167.402497 164.734432 
L 167.717583 135.424698 
L 168.851894 10.670333 
L 169.040946 6.633086 
L 169.103963 6.987022 
L 169.229998 10.235932 
L 169.482067 26.265537 
L 169.923188 76.779689 
L 170.679395 163.998322 
L 170.931464 175.114354 
L 170.994482 175.825607 
L 171.057499 175.682662 
L 171.183533 172.848568 
L 171.435602 157.562511 
L 171.813706 116.03434 
L 172.632931 19.599854 
L 172.885 7.694969 
L 173.011034 6.705475 
L 173.137069 9.123007 
L 173.326121 18.887686 
L 173.641207 48.975232 
L 174.775518 172.478836 
L 174.96457 175.860111 
L 175.090604 173.860629 
L 175.279656 164.681634 
L 175.594742 135.333954 
L 176.729053 10.637927 
L 176.918105 6.632234 
L 176.981122 6.996849 
L 177.107157 10.266711 
L 177.359226 26.333705 
L 177.800347 76.884483 
L 178.556554 164.052593 
L 178.808623 175.128496 
L 178.87164 175.829098 
L 178.934658 175.675467 
L 179.060692 172.820325 
L 179.312761 157.49639 
L 179.690865 115.932634 
L 180.51009 19.543331 
L 180.762159 7.678216 
L 180.888193 6.710034 
L 181.014228 9.148697 
L 181.203279 18.942874 
L 181.518366 49.067392 
L 182.652677 172.508589 
L 182.841729 175.85819 
L 182.967763 173.837509 
L 183.156815 164.62872 
L 183.471901 135.24314 
L 183.913022 91.251452 
L 223.172782 91.251452 
L 223.172782 91.251452 
" style="fill: none; stroke: #1f77b4; stroke-width: 1.5; stroke-linecap: square"/>
   </g>
   <g id="patch_3">
    <path d="M 45.66899 175.872976 
L 45.66899 6.629927 
" style="fill: none; stroke: #575757; stroke-width: 0.8; stroke-linejoin: miter; stroke-linecap: square"/>
   </g>
   <g id="patch_4">
    <path d="M 65.66899 195.872976 
L 223.196414 195.872976 
" style="fill: none; stroke: #575757; stroke-width: 0.8; stroke-linejoin: miter; stroke-linecap: square"/>
   </g>
  </g>
  <g id="axes_2">
   <g id="patch_5">
    <path d="M 288.015644 175.872976 
L 445.543067 175.872976 
L 445.543067 6.629927 
L 288.015644 6.629927 
z
" style="fill: #ffffff"/>
   </g>
   <g id="matplotlib.axis_3">
    <g id="xtick_6">
     <g id="line2d_16">
      <g>
       <use xlink:href="#m086c65ba71" x="288.015644" y="195.872976" style="fill: #575757; stroke: #575757; stroke-width: 0.8"/>
      </g>
     </g>
     <g id="text_17">
      <!-- 10 -->
      <g style="fill: #575757" transform="translate(283.015644 206.632351) scale(0.1 -0.1)">
       <use xlink:href="#TeXGyrePagella-Regular-31"/>
       <use xlink:href="#TeXGyrePagella-Regular-30" x="49.999985"/>
      </g>
     </g>
    </g>
    <g id="xtick_7">
     <g id="line2d_17">
      <g>
       <use xlink:href="#m086c65ba71" x="327.397499" y="195.872976" style="fill: #575757; stroke: #575757; stroke-width: 0.8"/>
      </g>
     </g>
     <g id="text_18">
      <!-- 15 -->
      <g style="fill: #575757" transform="translate(322.397499 206.632351) scale(0.1 -0.1)">
       <use xlink:href="#TeXGyrePagella-Regular-31"/>
       <use xlink:href="#TeXGyrePagella-Regular-35" x="49.999985"/>
      </g>
     </g>
    </g>
    <g id="xtick_8">
     <g id="line2d_18">
      <g>
       <use xlink:href="#m086c65ba71" x="366.779355" y="195.872976" style="fill: #575757; stroke: #575757; stroke-width: 0.8"/>
      </g>
     </g>
     <g id="text_19">
      <!-- 20 -->
      <g style="fill: #575757" transform="translate(361.779355 206.632351) scale(0.1 -0.1)">
       <use xlink:href="#TeXGyrePagella-Regular-32"/>
       <use xlink:href="#TeXGyrePagella-Regular-30" x="49.999985"/>
      </g>
     </g>
    </g>
    <g id="xtick_9">
     <g id="line2d_19">
      <g>
       <use xlink:href="#m086c65ba71" x="406.161211" y="195.872976" style="fill: #575757; stroke: #575757; stroke-width: 0.8"/>
      </g>
     </g>
     <g id="text_20">
      <!-- 25 -->
      <g style="fill: #575757" transform="translate(401.161211 206.632351) scale(0.1 -0.1)">
       <use xlink:href="#TeXGyrePagella-Regular-32"/>
       <use xlink:href="#TeXGyrePagella-Regular-35" x="49.999985"/>
      </g>
     </g>
    </g>
    <g id="xtick_10">
     <g id="line2d_20">
      <g>
       <use xlink:href="#m086c65ba71" x="445.543067" y="195.872976" style="fill: #575757; stroke: #575757; stroke-width: 0.8"/>
      </g>
     </g>
     <g id="text_21">
      <!-- 30 -->
      <g style="fill: #575757" transform="translate(440.543067 206.632351) scale(0.1 -0.1)">
       <defs>
        <path id="TeXGyrePagella-Regular-33" d="M 96 979 
C 230 589 282 358 320 38 
C 659 -77 941 -128 1178 -128 
C 1690 -128 2278 160 2630 589 
C 2848 851 2957 1133 2957 1434 
C 2957 1741 2829 2010 2598 2170 
C 2438 2285 2291 2336 1971 2394 
C 2483 2790 2675 3085 2675 3462 
C 2675 4032 2202 4410 1491 4410 
C 1056 4410 768 4288 461 3981 
L 275 3187 
L 474 3187 
L 589 3546 
C 659 3763 1062 3981 1395 3981 
C 1811 3981 2150 3642 2150 3238 
C 2150 2758 1773 2355 1318 2355 
C 1267 2355 1018 2374 1018 2374 
L 941 2035 
L 986 1997 
C 1229 2106 1350 2138 1523 2138 
C 2054 2138 2362 1798 2362 1216 
C 2362 563 1971 134 1376 134 
C 1082 134 819 230 627 410 
C 474 550 390 698 269 1043 
L 96 979 
z
" transform="scale(0.015625)"/>
       </defs>
       <use xlink:href="#TeXGyrePagella-Regular-33"/>
       <use xlink:href="#TeXGyrePagella-Regular-30" x="49.999985"/>
      </g>
     </g>
    </g>
    <g id="text_22">
     <!-- Frequency [Hz] -->
     <g style="fill: #575757" transform="translate(331.319199 220.941726) scale(0.1 -0.1)">
      <defs>
       <path id="TeXGyrePagella-Regular-46" d="M 141 -19 
C 454 -6 762 0 1075 0 
C 1389 0 1702 -6 2016 -19 
L 2016 173 
L 1709 192 
C 1414 211 1382 262 1382 768 
L 1382 2093 
L 2406 2112 
C 2688 2112 2810 2086 2854 1875 
C 2880 1734 2886 1498 2886 1498 
L 3078 1498 
C 3066 1734 3059 1971 3059 2208 
C 3059 2458 3066 2701 3078 2950 
L 2886 2950 
L 2854 2618 
C 2835 2400 2675 2374 2394 2374 
C 2048 2374 1664 2381 1382 2400 
L 1382 4109 
C 1574 4154 1690 4160 2067 4160 
C 2374 4160 2733 4122 2931 4070 
C 3085 4032 3104 4000 3104 3853 
L 3104 3437 
L 3328 3437 
C 3328 3821 3360 4128 3430 4410 
L 2650 4429 
C 2189 4416 1728 4410 1267 4410 
C 890 4410 518 4416 141 4429 
L 141 4237 
L 448 4218 
C 742 4198 774 4147 774 3642 
L 774 768 
C 774 262 742 211 448 192 
L 141 173 
L 141 -19 
z
" transform="scale(0.015625)"/>
       <path id="TeXGyrePagella-Regular-71" d="M 224 1306 
C 224 467 730 -77 1523 -77 
C 1658 -77 1766 -51 1850 0 
L 2515 422 
L 2515 -1126 
C 2515 -1530 2490 -1574 2278 -1587 
L 1907 -1606 
L 1907 -1798 
C 2202 -1786 2502 -1779 2797 -1779 
C 3059 -1779 3322 -1786 3584 -1798 
L 3584 -1606 
L 3290 -1587 
C 3072 -1574 3053 -1530 3053 -1126 
L 3053 2035 
C 3053 2432 3091 2675 3200 2918 
L 3078 2989 
L 2765 2790 
C 2438 2938 2163 3002 1888 3002 
C 1702 3002 1478 2950 1382 2893 
L 845 2547 
C 435 2285 224 1862 224 1306 
z
M 781 1587 
C 781 2291 1139 2701 1754 2701 
C 2067 2701 2291 2624 2515 2438 
L 2515 768 
C 2515 678 2362 512 2189 416 
C 2035 333 1888 288 1734 288 
C 1171 288 781 813 781 1587 
z
" transform="scale(0.015625)"/>
       <path id="TeXGyrePagella-Regular-75" d="M 115 2560 
L 352 2560 
C 608 2560 634 2515 634 2093 
L 634 1018 
C 634 570 672 371 787 211 
C 928 19 1171 -77 1536 -77 
C 1824 -77 2080 13 2253 173 
L 2682 570 
C 2682 384 2675 282 2656 -19 
C 2835 -6 3008 0 3187 0 
C 3366 0 3539 -6 3718 -19 
L 3718 173 
L 3456 192 
C 3238 205 3219 243 3219 653 
L 3219 2976 
L 3162 3002 
C 2835 2867 2502 2778 2163 2739 
L 2163 2560 
L 2400 2560 
C 2656 2560 2682 2515 2682 2093 
L 2682 1050 
C 2682 909 2592 730 2445 582 
C 2266 403 2061 314 1811 314 
C 1587 314 1408 384 1306 506 
C 1216 608 1171 806 1171 1088 
L 1171 2976 
L 1114 3002 
C 787 2867 454 2778 115 2739 
L 115 2560 
z
" transform="scale(0.015625)"/>
       <path id="TeXGyrePagella-Regular-79" d="M 77 2758 
L 192 2746 
C 352 2726 435 2656 525 2432 
L 1581 -154 
L 1434 -544 
C 1229 -1082 979 -1382 736 -1382 
C 634 -1382 518 -1331 410 -1235 
L 326 -1235 
L 173 -1715 
C 294 -1779 397 -1811 518 -1811 
C 947 -1811 1222 -1581 1466 -1024 
L 2765 1971 
C 3021 2554 3142 2733 3302 2746 
L 3482 2758 
L 3482 2938 
C 3277 2925 3078 2918 2874 2918 
C 2669 2918 2470 2925 2266 2938 
L 2266 2758 
L 2432 2746 
C 2701 2726 2758 2650 2662 2419 
L 1901 550 
C 1760 794 1696 941 1574 1254 
L 1165 2330 
C 1056 2611 1069 2733 1318 2746 
L 1562 2758 
L 1562 2938 
C 1312 2925 1069 2918 819 2918 
C 570 2918 326 2925 77 2938 
L 77 2758 
z
" transform="scale(0.015625)"/>
       <path id="TeXGyrePagella-Regular-48" d="M 141 -19 
C 454 -6 762 0 1075 0 
C 1389 0 1702 -6 2016 -19 
L 2016 173 
L 1709 192 
C 1414 211 1382 262 1382 768 
L 1382 2195 
C 1555 2208 1658 2208 1914 2208 
L 3411 2208 
C 3667 2208 3770 2208 3942 2195 
L 3942 768 
C 3942 262 3910 211 3616 192 
L 3309 173 
L 3309 -19 
C 3622 -6 3930 0 4243 0 
C 4557 0 4870 -6 5184 -19 
L 5184 173 
L 4877 192 
C 4582 211 4550 262 4550 768 
L 4550 3642 
C 4550 4147 4582 4198 4877 4218 
L 5184 4237 
L 5184 4429 
C 4870 4416 4557 4410 4243 4410 
C 3930 4410 3622 4416 3309 4429 
L 3309 4237 
L 3616 4218 
C 3910 4198 3942 4147 3942 3642 
L 3942 2502 
C 3808 2496 3674 2490 3411 2490 
L 1914 2490 
C 1651 2490 1510 2496 1382 2502 
L 1382 3642 
C 1382 4147 1414 4198 1709 4218 
L 2016 4237 
L 2016 4429 
C 1702 4416 1389 4410 1075 4410 
C 762 4410 454 4416 141 4429 
L 141 4237 
L 448 4218 
C 742 4198 774 4147 774 3642 
L 774 768 
C 774 262 742 211 448 192 
L 141 173 
L 141 -19 
z
" transform="scale(0.015625)"/>
       <path id="TeXGyrePagella-Regular-7a" d="M 102 109 
L 141 -19 
C 467 -6 794 0 1120 0 
C 1709 0 2298 -6 2886 -19 
C 2886 128 2906 282 2944 589 
L 2982 890 
L 2790 890 
L 2675 384 
C 2650 269 2381 224 1766 224 
L 902 224 
L 2912 2765 
L 2912 2957 
C 2618 2944 2323 2938 2029 2938 
C 1498 2938 973 2944 442 2957 
C 429 2630 422 2554 384 2112 
L 576 2112 
L 653 2547 
C 678 2682 794 2714 1267 2714 
L 2182 2714 
C 2048 2502 1946 2355 1766 2138 
L 102 109 
z
" transform="scale(0.015625)"/>
      </defs>
      <use xlink:href="#TeXGyrePagella-Regular-46"/>
      <use xlink:href="#TeXGyrePagella-Regular-72" x="55.599991"/>
      <use xlink:href="#TeXGyrePagella-Regular-65" x="95.099976"/>
      <use xlink:href="#TeXGyrePagella-Regular-71" x="142.999969"/>
      <use xlink:href="#TeXGyrePagella-Regular-75" x="198.999954"/>
      <use xlink:href="#TeXGyrePagella-Regular-65" x="259.299942"/>
      <use xlink:href="#TeXGyrePagella-Regular-6e" x="307.199936"/>
      <use xlink:href="#TeXGyrePagella-Regular-63" x="365.399933"/>
      <use xlink:href="#TeXGyrePagella-Regular-79" x="409.799927"/>
      <use xlink:href="#TeXGyrePagella-Regular-20" x="465.399918"/>
      <use xlink:href="#TeXGyrePagella-Regular-5b" x="490.399902"/>
      <use xlink:href="#TeXGyrePagella-Regular-48" x="533.19989"/>
      <use xlink:href="#TeXGyrePagella-Regular-7a" x="616.399872"/>
      <use xlink:href="#TeXGyrePagella-Regular-5d" x="666.399857"/>
     </g>
    </g>
   </g>
   <g id="matplotlib.axis_4">
    <g id="ytick_10">
     <g id="line2d_21">
      <g>
       <use xlink:href="#mdb08e847d2" x="268.015644" y="175.872976" style="fill: #575757; stroke: #575757; stroke-width: 0.8"/>
      </g>
     </g>
     <g id="text_23">
      <!-- 0 -->
      <g style="fill: #575757" transform="translate(259.515644 179.502664) scale(0.1 -0.1)">
       <use xlink:href="#TeXGyrePagella-Regular-30"/>
      </g>
     </g>
    </g>
    <g id="ytick_11">
     <g id="line2d_22">
      <g>
       <use xlink:href="#mdb08e847d2" x="268.015644" y="151.695398" style="fill: #575757; stroke: #575757; stroke-width: 0.8"/>
      </g>
     </g>
     <g id="text_24">
      <!-- 100 -->
      <g style="fill: #575757" transform="translate(249.515644 155.325085) scale(0.1 -0.1)">
       <use xlink:href="#TeXGyrePagella-Regular-31"/>
       <use xlink:href="#TeXGyrePagella-Regular-30" x="49.999985"/>
       <use xlink:href="#TeXGyrePagella-Regular-30" x="99.999969"/>
      </g>
     </g>
    </g>
    <g id="ytick_12">
     <g id="line2d_23">
      <g>
       <use xlink:href="#mdb08e847d2" x="268.015644" y="127.517819" style="fill: #575757; stroke: #575757; stroke-width: 0.8"/>
      </g>
     </g>
     <g id="text_25">
      <!-- 200 -->
      <g style="fill: #575757" transform="translate(249.515644 131.147507) scale(0.1 -0.1)">
       <use xlink:href="#TeXGyrePagella-Regular-32"/>
       <use xlink:href="#TeXGyrePagella-Regular-30" x="49.999985"/>
       <use xlink:href="#TeXGyrePagella-Regular-30" x="99.999969"/>
      </g>
     </g>
    </g>
    <g id="ytick_13">
     <g id="line2d_24">
      <g>
       <use xlink:href="#mdb08e847d2" x="268.015644" y="103.340241" style="fill: #575757; stroke: #575757; stroke-width: 0.8"/>
      </g>
     </g>
     <g id="text_26">
      <!-- 300 -->
      <g style="fill: #575757" transform="translate(249.515644 106.969928) scale(0.1 -0.1)">
       <use xlink:href="#TeXGyrePagella-Regular-33"/>
       <use xlink:href="#TeXGyrePagella-Regular-30" x="49.999985"/>
       <use xlink:href="#TeXGyrePagella-Regular-30" x="99.999969"/>
      </g>
     </g>
    </g>
    <g id="ytick_14">
     <g id="line2d_25">
      <g>
       <use xlink:href="#mdb08e847d2" x="268.015644" y="79.162663" style="fill: #575757; stroke: #575757; stroke-width: 0.8"/>
      </g>
     </g>
     <g id="text_27">
      <!-- 400 -->
      <g style="fill: #575757" transform="translate(249.515644 82.79235) scale(0.1 -0.1)">
       <defs>
        <path id="TeXGyrePagella-Regular-34" d="M 13 1306 
L 83 1158 
L 1792 1158 
L 1792 678 
C 1792 294 1722 205 1408 192 
L 1011 173 
L 1011 -19 
C 1357 -6 1696 0 2042 0 
C 2368 0 2694 -6 3021 -19 
L 3021 173 
L 2714 192 
C 2400 211 2330 294 2330 678 
L 2330 1158 
C 2707 1158 2842 1152 3021 1133 
L 3021 1587 
C 3021 1587 2707 1568 2502 1568 
L 2330 1568 
L 2330 2458 
C 2330 3597 2342 4147 2374 4410 
L 2298 4442 
L 1824 4269 
L 13 1306 
z
M 416 1568 
L 1792 3821 
L 1792 1568 
L 416 1568 
z
" transform="scale(0.015625)"/>
       </defs>
       <use xlink:href="#TeXGyrePagella-Regular-34"/>
       <use xlink:href="#TeXGyrePagella-Regular-30" x="49.999985"/>
       <use xlink:href="#TeXGyrePagella-Regular-30" x="99.999969"/>
      </g>
     </g>
    </g>
    <g id="ytick_15">
     <g id="line2d_26">
      <g>
       <use xlink:href="#mdb08e847d2" x="268.015644" y="54.985084" style="fill: #575757; stroke: #575757; stroke-width: 0.8"/>
      </g>
     </g>
     <g id="text_28">
      <!-- 500 -->
      <g style="fill: #575757" transform="translate(249.515644 58.614772) scale(0.1 -0.1)">
       <use xlink:href="#TeXGyrePagella-Regular-35"/>
       <use xlink:href="#TeXGyrePagella-Regular-30" x="49.999985"/>
       <use xlink:href="#TeXGyrePagella-Regular-30" x="99.999969"/>
      </g>
     </g>
    </g>
    <g id="ytick_16">
     <g id="line2d_27">
      <g>
       <use xlink:href="#mdb08e847d2" x="268.015644" y="30.807506" style="fill: #575757; stroke: #575757; stroke-width: 0.8"/>
      </g>
     </g>
     <g id="text_29">
      <!-- 600 -->
      <g style="fill: #575757" transform="translate(249.515644 34.437193) scale(0.1 -0.1)">
       <defs>
        <path id="TeXGyrePagella-Regular-36" d="M 205 1581 
C 205 525 717 -128 1542 -128 
C 2374 -128 2995 531 2995 1402 
C 2995 2138 2554 2618 1875 2618 
C 1498 2618 1261 2464 838 2118 
C 973 3277 1510 3904 2662 4250 
L 2662 4301 
L 2426 4410 
C 1811 4205 1549 4077 1222 3795 
C 563 3238 205 2458 205 1581 
z
M 787 1408 
C 787 1632 813 1754 883 1862 
C 1024 2080 1325 2234 1632 2234 
C 2118 2234 2445 1811 2445 1178 
C 2445 512 2118 83 1626 83 
C 1082 83 787 550 787 1408 
z
" transform="scale(0.015625)"/>
       </defs>
       <use xlink:href="#TeXGyrePagella-Regular-36"/>
       <use xlink:href="#TeXGyrePagella-Regular-30" x="49.999985"/>
       <use xlink:href="#TeXGyrePagella-Regular-30" x="99.999969"/>
      </g>
     </g>
    </g>
    <g id="ytick_17">
     <g id="line2d_28">
      <g>
       <use xlink:href="#mdb08e847d2" x="268.015644" y="6.629927" style="fill: #575757; stroke: #575757; stroke-width: 0.8"/>
      </g>
     </g>
     <g id="text_30">
      <!-- 700 -->
      <g style="fill: #575757" transform="translate(249.515644 10.259615) scale(0.1 -0.1)">
       <use xlink:href="#TeXGyrePagella-Regular-37"/>
       <use xlink:href="#TeXGyrePagella-Regular-30" x="49.999985"/>
       <use xlink:href="#TeXGyrePagella-Regular-30" x="99.999969"/>
      </g>
     </g>
    </g>
    <g id="text_31">
     <!-- |F(f)| -->
     <g style="fill: #575757" transform="translate(242.706269 102.335046) rotate(-90) scale(0.1 -0.1)">
      <defs>
       <path id="TeXGyrePagella-Regular-7c" d="M 512 -960 
C 563 -947 614 -941 666 -941 
C 717 -941 768 -947 819 -960 
L 819 4160 
C 768 4147 717 4141 666 4141 
C 614 4141 563 4147 512 4160 
L 512 -960 
z
" transform="scale(0.015625)"/>
      </defs>
      <use xlink:href="#TeXGyrePagella-Regular-7c"/>
      <use xlink:href="#TeXGyrePagella-Regular-46" x="20.799988"/>
      <use xlink:href="#TeXGyrePagella-Regular-28" x="76.399979"/>
      <use xlink:href="#TeXGyrePagella-Regular-66" x="121.999969"/>
      <use xlink:href="#TeXGyrePagella-Regular-29" x="155.299957"/>
      <use xlink:href="#TeXGyrePagella-Regular-7c" x="200.899948"/>
     </g>
    </g>
   </g>
   <g id="line2d_29">
    <path d="M 288.992215 173.416646 
L 289.976663 171.274541 
L 290.961111 169.800516 
L 291.945559 169.232075 
L 292.930007 169.672632 
L 293.914455 171.073351 
L 294.898903 173.237807 
L 295.883351 175.849157 
L 297.852247 170.914754 
L 298.836695 169.313597 
L 299.821142 168.686747 
L 300.80559 169.151202 
L 301.790038 170.659689 
L 302.774486 173.004309 
L 303.758934 175.844657 
L 305.72783 170.450558 
L 306.712278 168.683849 
L 307.696726 167.979611 
L 308.681174 168.473195 
L 309.665622 170.120285 
L 310.65007 172.698997 
L 311.634518 175.838977 
L 313.603414 169.836763 
L 314.587862 167.848183 
L 315.57231 167.037708 
L 316.556758 167.566522 
L 317.541205 169.396004 
L 318.525653 172.287358 
L 319.510101 175.831516 
L 321.478997 168.996589 
L 322.463445 166.698445 
L 323.447893 165.734801 
L 324.432341 166.305248 
L 325.416789 168.38251 
L 326.401237 171.707858 
L 327.385685 175.821195 
L 329.354581 167.788456 
L 330.339029 165.032758 
L 331.323477 163.832252 
L 332.307925 164.448125 
L 333.292373 166.877137 
L 334.27682 170.839235 
L 335.261268 175.805857 
L 337.230164 165.919655 
L 338.214612 162.426364 
L 339.19906 160.818576 
L 340.183508 161.467898 
L 341.167956 164.42774 
L 342.152404 169.404996 
L 343.136852 175.780473 
L 345.105748 162.671813 
L 346.090196 157.807448 
L 347.074644 155.364237 
L 348.059092 155.949734 
L 349.04354 159.778829 
L 350.027988 166.608548 
L 351.012435 175.729968 
L 352.981331 155.686136 
L 353.965779 147.468714 
L 354.950227 142.598519 
L 355.934675 142.368433 
L 356.919123 147.663374 
L 357.903571 158.825761 
L 358.888019 175.579093 
L 359.872467 154.724865 
L 363.810259 56.57451 
L 364.794707 39.209077 
L 365.779155 28.285105 
L 366.763603 24.771674 
L 367.748051 28.96213 
L 368.732498 40.445231 
L 369.716946 58.1529 
L 370.701394 80.478567 
L 373.654738 154.913004 
L 374.639186 175.562737 
L 375.623634 160.186185 
L 376.608082 149.622915 
L 377.59253 144.670589 
L 378.576978 144.925264 
L 379.561426 149.488455 
L 380.545874 157.104516 
L 382.51477 175.714491 
L 383.499218 167.778757 
L 384.483666 161.650058 
L 385.468113 158.248649 
L 386.452561 157.751757 
L 387.437009 159.929024 
L 388.421457 164.210532 
L 390.390353 175.765116 
L 391.374801 170.502565 
L 392.359249 166.260141 
L 393.343697 163.761785 
L 394.328145 163.230297 
L 395.312593 164.593455 
L 396.297041 167.515411 
L 398.265937 175.790492 
L 399.250385 171.900575 
L 400.234833 168.691782 
L 401.219281 166.743485 
L 402.203729 166.26245 
L 403.188176 167.23072 
L 404.172624 169.421373 
L 406.14152 175.80577 
L 407.125968 172.74941 
L 408.110416 170.190706 
L 409.094864 168.607707 
L 410.079312 168.183655 
L 411.06376 168.922858 
L 412.048208 170.658909 
L 413.032656 173.087212 
L 414.017104 175.815998 
L 415.001552 173.318325 
L 415.986 171.205089 
L 416.970448 169.880903 
L 417.954896 169.507249 
L 418.939344 170.098368 
L 419.923791 171.525473 
L 420.908239 173.541704 
L 421.892687 175.823338 
L 422.877135 173.725361 
L 423.861583 171.935746 
L 424.846031 170.803883 
L 425.830479 170.472684 
L 426.814927 170.960875 
L 427.799375 172.164933 
L 428.783823 173.87895 
L 429.768271 175.828871 
L 430.752719 174.030419 
L 431.737167 172.486082 
L 432.721615 171.502391 
L 433.706063 171.206677 
L 434.690511 171.619526 
L 435.674959 172.655357 
L 436.659406 174.13869 
L 437.643854 175.833199 
L 438.628302 174.267131 
L 439.61275 172.914765 
L 440.597198 172.048493 
L 441.581646 171.782561 
L 442.566094 172.13808 
L 443.550542 173.042765 
L 444.53499 174.344555 
L 444.53499 174.344555 
" style="fill: none; stroke: #1f77b4; stroke-width: 1.5; stroke-linecap: square"/>
   </g>
   <g id="patch_6">
    <path d="M 268.015644 175.872976 
L 268.015644 6.629927 
" style="fill: none; stroke: #575757; stroke-width: 0.8; stroke-linejoin: miter; stroke-linecap: square"/>
   </g>
   <g id="patch_7">
    <path d="M 288.015644 195.872976 
L 445.543067 195.872976 
" style="fill: none; stroke: #575757; stroke-width: 0.8; stroke-linejoin: miter; stroke-linecap: square"/>
   </g>
  </g>
 </g>
</svg>
